<svg width="370" height="139" viewBox="0 0 370 139" fill="none" xmlns="http://www.w3.org/2000/svg">
<path d="M24.1952 61.3127H349.058V106.83H24.1952V61.3127Z" fill="#FF725E"/>
<g opacity="0.5">
<path d="M24.1952 61.3127H349.058V106.83H24.1952V61.3127Z" fill="black"/>
</g>
<path d="M303.297 136.364C286.035 135.255 272.984 120.994 274.145 104.511C275.307 88.0285 290.242 75.5658 307.504 76.6751C324.765 77.7843 337.817 92.0454 336.655 108.528C335.494 125.011 320.559 137.474 303.297 136.364Z" fill="#263238"/>
<path d="M336.721 106.013C336.721 106.041 336.721 106.069 336.721 106.092C336.78 110.02 336.029 113.921 334.51 117.571C332.991 121.222 330.733 124.552 327.866 127.37C325 130.187 321.58 132.438 317.802 133.994C314.024 135.55 309.963 136.38 305.849 136.437C301.735 136.494 297.65 135.777 293.826 134.326C290.003 132.875 286.516 130.72 283.565 127.982C280.614 125.245 278.257 121.979 276.627 118.372C274.998 114.765 274.129 110.886 274.069 106.958C274.069 106.93 274.069 106.902 274.069 106.88L336.721 106.013Z" fill="#263238"/>
<path d="M327.393 106.22C327.458 110.374 326.231 114.452 323.867 117.94C321.504 121.427 318.111 124.167 314.116 125.813C310.122 127.458 305.707 127.936 301.428 127.185C297.149 126.434 293.2 124.489 290.08 121.594C286.959 118.7 284.808 114.987 283.898 110.925C282.987 106.863 283.359 102.634 284.966 98.7743C286.573 94.9141 289.343 91.5957 292.925 89.2387C296.507 86.8818 300.741 85.5922 305.091 85.5332C310.921 85.454 316.545 87.5887 320.727 91.4679C324.909 95.3471 327.307 100.653 327.393 106.22Z" fill="#FAFAFA"/>
<path d="M305.09 85.5276C310.921 85.447 316.546 87.5811 320.729 91.4606C324.911 95.3402 327.308 100.647 327.393 106.215L283.414 106.824C283.331 101.255 285.568 95.8831 289.633 91.8893C293.699 87.8955 299.259 85.6071 305.09 85.5276Z" fill="#E0E0E0"/>
<path d="M318.798 106.338C318.837 108.868 318.089 111.352 316.649 113.477C315.21 115.601 313.142 117.27 310.709 118.272C308.276 119.275 305.586 119.565 302.98 119.108C300.373 118.65 297.968 117.465 296.067 115.702C294.166 113.938 292.856 111.676 292.302 109.202C291.747 106.727 291.974 104.151 292.953 101.8C293.932 99.4486 295.62 97.4273 297.802 95.9918C299.985 94.5562 302.564 93.771 305.213 93.7353C306.972 93.7109 308.718 94.0175 310.353 94.6377C311.987 95.2578 313.478 96.1793 314.739 97.3496C316.001 98.5198 317.008 99.9159 317.705 101.458C318.401 103 318.773 104.658 318.798 106.338Z" fill="#263238"/>
<path d="M64.0366 136.354C46.765 135.397 33.5757 121.252 34.5776 104.76C35.5796 88.2674 50.3933 75.6733 67.6649 76.6301C84.9366 77.5868 98.1259 91.732 97.124 108.224C96.122 124.717 81.3083 137.311 64.0366 136.354Z" fill="#263238"/>
<path d="M97.1813 106.013C97.1813 106.041 97.1813 106.069 97.1813 106.092C97.2409 110.02 96.4896 113.921 94.9704 117.571C93.4512 121.222 91.1938 124.552 88.327 127.37C85.4603 130.187 82.0404 132.438 78.2626 133.994C74.4848 135.55 70.4231 136.38 66.3093 136.437C62.1955 136.494 58.1104 135.777 54.2869 134.326C50.4635 132.875 46.9768 130.72 44.0258 127.982C41.0748 125.245 38.7173 121.979 37.088 118.372C35.4587 114.765 34.5894 110.886 34.5298 106.958C34.5298 106.93 34.5298 106.902 34.5298 106.88L97.1813 106.013Z" fill="#263238"/>
<path d="M87.8538 106.22C87.9182 110.374 86.6911 114.452 84.3278 117.94C81.9645 121.427 78.5711 124.167 74.5769 125.813C70.5826 127.458 66.1669 127.936 61.8884 127.185C57.6098 126.434 53.6605 124.489 50.5401 121.594C47.4197 118.7 45.2683 114.987 44.3581 110.925C43.4479 106.863 43.8197 102.634 45.4266 98.7743C47.0334 94.9141 49.8031 91.5957 53.3853 89.2387C56.9675 86.8818 61.2012 85.5922 65.551 85.5332C71.3809 85.454 77.0052 87.5887 81.1874 91.4679C85.3696 95.3471 87.7674 100.653 87.8538 106.22Z" fill="#FAFAFA"/>
<path d="M65.551 85.5276C71.3814 85.447 77.0065 87.5811 81.1891 91.4606C85.3716 95.3402 87.769 100.647 87.8538 106.215L43.8747 106.824C43.7918 101.255 46.029 95.8831 50.094 91.8893C54.1591 87.8955 59.7191 85.6071 65.551 85.5276Z" fill="#E0E0E0"/>
<path d="M79.2758 106.338C79.3149 108.868 78.5673 111.352 77.1276 113.477C75.6878 115.601 73.6205 117.27 71.1873 118.272C68.754 119.275 66.0641 119.565 63.4577 119.108C60.8514 118.65 58.4458 117.465 56.5451 115.702C54.6444 113.938 53.334 111.676 52.7798 109.202C52.2256 106.727 52.4523 104.151 53.4314 101.8C54.4105 99.4486 56.098 97.4273 58.2803 95.9918C60.4626 94.5562 63.0418 93.771 65.6916 93.7353C67.4502 93.7109 69.1966 94.0175 70.831 94.6377C72.4655 95.2578 73.956 96.1793 75.2174 97.3496C76.4789 98.5198 77.4866 99.9159 78.1829 101.458C78.8793 103 79.2506 104.658 79.2758 106.338Z" fill="#263238"/>
<path d="M264.344 35.7057C264.344 35.7057 310.471 38.9541 327.581 42.6162C339.631 45.1937 362.864 49.6498 362.583 63.6051L360.739 73.6131C360.739 73.6131 369.352 77.3703 369.352 86.9645C369.352 96.5588 371.454 111.431 351.335 112.029C348.021 112.124 341.727 112.029 341.727 112.029C341.727 112.029 345.586 71.1139 306.226 69.9174C266.182 68.6985 268.84 111.655 268.84 111.655H101.713C101.713 111.655 108.576 69.8055 65.4689 69.7217C22.3624 69.6378 28.9203 111.929 28.9203 111.929C28.9203 111.929 13.0642 113.237 5.68655 100.512C-1.6911 87.7864 0.223572 78.7065 0.223572 78.7065L0.469482 70.661C0.516205 69.3406 1.08643 68.0865 2.06473 67.1523C3.04306 66.2181 4.35645 65.6736 5.73923 65.629C5.73923 65.629 2.85843 45.3782 7.27917 41.8726C11.6999 38.367 35.9232 17.216 35.9232 17.216L34.7522 16.5283C34.3181 16.2663 33.9706 15.8921 33.7501 15.4492C33.5296 15.0063 33.4451 14.5128 33.5064 14.0258C33.5677 13.5389 33.7722 13.0786 34.0964 12.6982C34.4205 12.3178 34.8509 12.0329 35.3377 11.8765C44.5363 8.85736 62.7228 2.88051 66.9972 1.45479C67.6373 1.23752 68.3047 1.10215 68.9821 1.05224C71.535 0.867731 78.7605 0.431633 92.0227 0.297448C108.177 0.129716 172.316 0.297448 172.316 0.297448C172.316 0.297448 194.391 2.03068 206.687 7.19682C219.58 12.6313 264.344 35.7057 264.344 35.7057Z" fill="#FF725E"/>
<g opacity="0.4">
<path d="M357.653 85.8463C359.328 85.522 361.893 85.4941 363.169 86.5731C364.118 87.3782 364.369 88.681 364.51 89.8831C364.779 91.5297 364.739 93.2089 364.393 94.8423C364.216 95.6582 363.865 96.4304 363.361 97.1106C362.857 97.7908 362.212 98.3643 361.465 98.7952C359.931 99.5891 357.835 99.4605 356.646 98.2361C355.557 97.1179 355.434 95.4406 355.475 93.9478C355.516 91.7896 355.335 89.9613 355.75 87.8423C355.842 87.3925 356.043 86.9694 356.336 86.6067C356.482 86.3896 356.678 86.2076 356.91 86.0747C357.141 85.9419 357.402 85.8618 357.671 85.8407" fill="black"/>
</g>
<path d="M360.727 73.613C355.832 73.613 351.084 73.3559 346.195 73.0539C345.662 73.0763 345.137 72.9244 344.707 72.6234C344.511 72.3898 344.364 72.1213 344.277 71.8334C344.189 71.5455 344.163 71.244 344.198 70.9461C344.198 68.4413 344.303 65.5899 346.294 63.9573C347.512 62.9621 349.181 62.649 350.779 62.5092C354.749 62.0997 358.764 62.4804 362.572 63.6274L360.727 73.613Z" fill="#FAFAFA"/>
<path d="M259.033 110.374C259.033 110.374 259.033 110.24 259.068 109.972C259.103 109.703 259.115 109.306 259.15 108.798C259.209 107.758 259.296 106.242 259.408 104.286C259.519 102.329 259.659 99.9302 259.952 97.157C260.255 94.017 260.832 90.9068 261.679 87.8591C262.748 84.1777 264.334 80.6513 266.393 77.3758C268.725 73.5935 271.825 70.2937 275.51 67.6697C283.408 62.3023 294.083 59.2832 305.249 59.1378C316.415 58.9924 327.095 62.3638 334.8 68.0164C338.494 70.6257 341.729 73.7793 344.385 77.3591C346.704 80.4671 348.59 83.8502 349.995 87.423C351.153 90.376 351.949 93.4474 352.366 96.5755C352.693 98.9344 352.789 101.317 352.653 103.693C352.557 105.194 352.361 106.688 352.067 108.166C351.974 108.663 351.898 109.049 351.851 109.318C351.804 109.586 351.786 109.715 351.786 109.715C351.786 109.715 351.822 109.586 351.88 109.329L352.132 108.211C352.451 106.735 352.662 105.241 352.764 103.738C352.923 101.354 352.845 98.9616 352.53 96.5923C352.126 93.4482 351.34 90.3597 350.188 87.3894C348.788 83.7883 346.902 80.3769 344.579 77.2416C341.916 73.633 338.667 70.4543 334.952 67.8263C327.212 62.1458 316.508 58.7408 305.254 58.8806C294.001 59.0204 283.309 62.0675 275.346 67.4852C271.639 70.1354 268.523 73.4657 266.182 77.2808C264.125 80.5815 262.549 84.1347 261.498 87.8423C260.656 90.9028 260.089 94.0266 259.806 97.1794C259.531 99.9749 259.408 102.357 259.314 104.314C259.22 106.27 259.156 107.791 259.109 108.831C259.109 109.34 259.074 109.731 259.062 110.005C259.05 110.279 259.033 110.374 259.033 110.374Z" fill="white"/>
<path d="M257.276 111.068V110.732L257.312 109.742C257.341 108.859 257.382 107.568 257.44 105.879C257.54 102.485 257.686 97.526 257.874 91.2137C258.061 84.9014 258.278 77.2361 258.529 68.4581C258.594 66.2608 258.652 63.9852 258.723 61.6649C258.764 60.4792 258.709 59.2923 258.559 58.1146L258.295 56.3143L257.909 54.5084C257.302 52.0412 256.429 49.641 255.303 47.3462C254.144 44.9408 252.71 42.6645 251.029 40.5587L222.086 23.1481L214.269 18.4516C211.635 16.7799 208.869 15.3051 205.996 14.0403C203.058 12.7193 200.044 11.56 196.967 10.5682C195.433 10.0538 193.858 9.63451 192.283 9.18723C190.708 8.73994 189.103 8.37093 187.476 8.06902C181.338 6.81521 175.098 6.06699 168.827 5.83259C162.808 5.55721 156.779 5.57588 150.763 5.8885H150.593L150.634 6.05064L158.41 39.2671C159.846 41.5196 161.024 43.9133 161.923 46.4069C162.808 48.772 163.205 51.278 163.094 53.7871C162.895 56.2416 162.825 58.6458 162.76 60.9772C162.696 63.3087 162.667 65.5675 162.62 67.7648C162.485 76.5428 162.45 84.1969 162.427 90.5036C162.403 96.8104 162.427 101.77 162.427 105.158C162.427 106.835 162.427 108.138 162.427 109.021C162.427 109.452 162.427 109.782 162.427 110.011C162.427 110.24 162.427 110.346 162.427 110.346C162.427 110.346 162.427 110.229 162.427 110.011C162.427 109.793 162.427 109.452 162.427 109.021C162.427 108.138 162.427 106.846 162.427 105.158C162.427 101.77 162.479 96.8104 162.52 90.5092C162.561 84.2081 162.62 76.5316 162.778 67.7648C162.825 65.5731 162.876 63.3124 162.93 60.9828C163.001 58.6514 163.071 56.2584 163.276 53.8039C163.395 51.2633 162.997 48.7248 162.105 46.3287C161.212 43.8149 160.034 41.402 158.592 39.133V39.1721C156.208 28.946 153.603 17.7863 150.845 5.95001L150.71 6.11773C156.713 5.80891 162.728 5.79399 168.733 6.07301C174.99 6.30427 181.214 7.05254 187.335 8.30944C188.957 8.61694 190.538 9.04746 192.125 9.42765C193.711 9.80784 195.263 10.2943 196.809 10.803C199.886 11.7964 202.9 12.9575 205.838 14.2807C208.696 15.5371 211.448 17.0026 214.07 18.6641L221.893 23.3606L250.836 40.732V40.7041C252.514 42.7958 253.943 45.0592 255.098 47.4525C256.223 49.7297 257.094 52.1133 257.698 54.5643C259.015 59.3558 258.354 64.0691 258.342 68.4581L257.757 91.2137C257.598 97.5204 257.475 102.485 257.393 105.873C257.353 107.551 257.329 108.859 257.306 109.742C257.306 110.171 257.306 110.501 257.306 110.732C257.276 110.956 257.276 111.068 257.276 111.068Z" fill="#263238"/>
<path d="M150.974 6.81103H150.699L149.896 6.78307L146.787 6.71039L135.258 6.49793L96.3908 5.86055H96.3147L96.2679 5.91646L90.8224 12.2847C85.3068 18.7535 80.0487 24.9037 75.2708 30.4948L73.5142 32.5635C72.9456 33.2568 72.4568 34.0066 72.0563 34.7999C71.3309 36.271 70.9368 37.8711 70.8995 39.4968C70.8621 41.1225 71.1824 42.7375 71.8396 44.2376L73.5962 48.1513L78.9714 60.0268L80.4469 63.2472L80.8392 64.0859C80.927 64.2704 80.9797 64.3654 80.9797 64.3654C80.9797 64.3654 80.9446 64.2648 80.8685 64.0747C80.7924 63.8846 80.6577 63.5883 80.5054 63.2249C80.1717 62.4757 79.6974 61.3798 79.0826 59.982L73.8129 48.0731C72.8058 45.5459 71.0316 42.8846 71.1546 39.6418C71.1807 37.9936 71.5802 36.3704 72.3256 34.8838C72.7182 34.1116 73.1972 33.3824 73.7543 32.7088L75.5109 30.6401L91.0801 12.4468L96.5197 6.0786L96.4025 6.13451L135.276 6.69361L146.805 6.82221H149.914H150.71L150.974 6.81103Z" fill="#263238"/>
<path d="M170.618 56.1689C170.618 56.1689 170.454 56.1689 170.156 56.1018C169.716 56.0274 169.298 55.8675 168.926 55.6322C168.336 55.2646 167.894 54.7166 167.673 54.0779C167.539 53.6812 167.483 53.264 167.509 52.8479C167.523 52.3838 167.647 51.9287 167.872 51.5172C168.134 51.0488 168.522 50.6559 168.997 50.3796C169.472 50.1033 170.015 49.9536 170.571 49.9461H174.518H183.564C184.328 49.9472 185.064 50.2226 185.625 50.7177C186.173 51.194 186.522 51.8432 186.609 52.5459C186.698 53.2249 186.567 53.9136 186.234 54.5196C185.894 55.0887 185.368 55.5348 184.735 55.7887C184.109 55.9938 183.445 56.0719 182.785 56.018H180.871H177.428L172.445 56.0627L171.092 56.0907C170.934 56.0875 170.775 56.0987 170.618 56.1242C170.776 56.1418 170.934 56.1512 171.092 56.1522H172.445L177.428 56.1969H180.871H182.785C183.119 56.1969 183.441 56.1969 183.798 56.1969C184.157 56.176 184.509 56.0985 184.841 55.9677C185.535 55.6953 186.114 55.2093 186.486 54.5867C186.858 53.9326 187.003 53.1831 186.902 52.4453C186.81 51.6609 186.419 50.9362 185.803 50.4094C185.188 49.8825 184.391 49.5902 183.564 49.5883H174.518H170.565C169.968 49.6003 169.385 49.7661 168.878 50.0682C168.371 50.3703 167.959 50.7975 167.685 51.3047C167.45 51.7451 167.324 52.2308 167.316 52.7249C167.297 53.1612 167.362 53.5971 167.509 54.0108C167.756 54.6751 168.234 55.239 168.862 55.6098C169.249 55.845 169.688 55.9923 170.144 56.0403C170.296 56.101 170.455 56.1442 170.618 56.1689Z" fill="#263238"/>
<path d="M83.96 56.1689C83.96 56.1689 83.7961 56.1689 83.4975 56.1018C83.0582 56.0274 82.6397 55.8675 82.2678 55.6322C81.6778 55.2646 81.236 54.7166 81.0148 54.0779C80.8806 53.6812 80.825 53.264 80.8509 52.8479C80.8647 52.3838 80.9889 51.9287 81.2139 51.5172C81.4756 51.0488 81.8641 50.6559 82.3388 50.3796C82.8136 50.1033 83.3572 49.9536 83.9132 49.9461H87.8596H96.906C97.6701 49.9472 98.4058 50.2226 98.9671 50.7177C99.515 51.194 99.8644 51.8432 99.9508 52.5459C100.04 53.2249 99.9088 53.9136 99.576 54.5196C99.2364 55.0887 98.7095 55.5348 98.0771 55.7887C97.4509 55.9938 96.7869 56.0719 96.1273 56.018H94.2126H90.7697L85.7869 56.0627L84.4343 56.0907C84.2755 56.0875 84.1166 56.0987 83.96 56.1242C84.1175 56.1418 84.2758 56.1512 84.4343 56.1522H85.7869L90.7697 56.1969H94.2126H96.1273C96.4611 56.1969 96.7831 56.1969 97.1403 56.1969C97.4985 56.176 97.8507 56.0985 98.1825 55.9677C98.8768 55.6953 99.4559 55.2093 99.8278 54.5867C100.199 53.9326 100.345 53.1831 100.244 52.4453C100.152 51.6609 99.7606 50.9362 99.1451 50.4094C98.5296 49.8825 97.7326 49.5902 96.906 49.5883H87.8596H83.9073C83.3098 49.6003 82.7268 49.7661 82.2197 50.0682C81.7127 50.3703 81.3004 50.7975 81.0265 51.3047C80.7921 51.7451 80.6659 52.2308 80.6576 52.7249C80.6387 53.1612 80.7042 53.5971 80.8509 54.0108C81.0984 54.6751 81.5754 55.239 82.2034 55.6098C82.5908 55.845 83.0295 55.9923 83.4857 56.0403C83.6379 56.101 83.7971 56.1442 83.96 56.1689Z" fill="#263238"/>
<path d="M8.02289 42.6721H25.3545C26.5196 42.6718 27.6627 42.9753 28.6605 43.5497C29.6583 44.1241 30.4729 44.9477 31.0166 45.9317C31.4633 46.7458 31.7121 47.6457 31.7445 48.5642C31.777 49.4828 31.5922 50.3966 31.204 51.2376L24.4118 65.9813L7.05676 65.8191C7.05676 65.8191 3.36209 47.1282 8.02289 42.6721Z" fill="#FAFAFA"/>
<path d="M248.728 40.5866L159.3 39.01L101.098 37.9924L81.9048 27.4085C81.5399 27.2056 81.2243 26.931 80.979 26.6029C80.7336 26.2748 80.5641 25.9006 80.4816 25.5052C80.3991 25.1098 80.4055 24.7021 80.5005 24.3093C80.5955 23.9164 80.7767 23.5473 81.0323 23.2264L92.983 8.23676C93.597 7.46498 94.3881 6.83788 95.2955 6.40366C96.203 5.96944 97.2026 5.73965 98.2176 5.73196L163.317 5.22876C163.317 5.22876 187.827 3.86454 207.143 14.1745C227.455 25.0603 248.728 40.5866 248.728 40.5866Z" fill="#263238"/>
<path d="M207.747 6.77749C207.747 6.77749 203.261 8.72877 206.177 10.5347C209.093 12.3406 254.401 39.6082 254.401 39.6082L264.818 35.1074C246.368 25.3063 227.737 15.7735 207.747 6.77749Z" fill="#455A64"/>
<path d="M252.938 40.3015L253.219 40.3686L254.044 40.5419L257.224 41.1681C259.987 41.6937 263.992 42.4317 268.934 43.248C278.888 44.8806 292.66 46.7816 307.983 48.0451C311.818 48.3638 315.595 48.6042 319.178 48.8502C322.762 49.0962 326.287 49.2919 329.601 49.5771C336.235 50.1362 342.172 51.0531 346.997 52.4229C350.832 53.4412 354.522 54.9019 357.987 56.7728C359.234 57.399 360.124 58.014 360.751 58.383L361.465 58.8135L361.717 58.9533C361.642 58.8955 361.564 58.8414 361.483 58.7911L360.786 58.3327C360.165 57.9469 359.287 57.3151 358.046 56.6554C354.602 54.7333 350.919 53.2307 347.085 52.1825C342.248 50.7792 336.293 49.8343 329.653 49.2696C326.333 48.9676 322.844 48.7552 319.225 48.526C315.607 48.2967 311.865 48.0284 308.036 47.7097C292.718 46.4461 278.929 44.5787 268.993 42.9964C264.022 42.2081 260.017 41.5036 257.247 41.0116L254.056 40.4525L253.224 40.3071L252.938 40.3015Z" fill="#263238"/>
<path d="M1.09612 78.5388C1.09612 78.6226 7.05682 78.6842 14.4052 78.6842C21.7536 78.6842 27.7201 78.6226 27.7201 78.5388C27.7201 78.4549 21.7594 78.3934 14.4052 78.3934C7.05096 78.3934 1.09612 78.4605 1.09612 78.5388Z" fill="#263238"/>
<path d="M110.139 93.0644C110.139 93.1482 143.784 93.2097 185.28 93.2097C226.776 93.2097 260.427 93.1482 260.427 93.0644C260.427 92.9805 226.788 92.919 185.28 92.919C143.772 92.919 110.139 92.9861 110.139 93.0644Z" fill="#263238"/>
<path d="M345.691 79.0196C345.691 79.1035 350.451 79.165 356.318 79.165C362.185 79.165 366.946 79.1035 366.946 79.0196C366.946 78.9358 362.185 78.8743 356.318 78.8743C350.451 78.8743 345.691 78.9414 345.691 79.0196Z" fill="#263238"/>
<path d="M36.3742 16.6345C36.3742 16.6345 40.3675 20.9005 38.7983 24.0315C37.2291 27.1625 21.0041 38.1322 21.0041 38.1322L9.22916 40.24L36.3742 16.6345Z" fill="#455A64"/>
<path d="M148.327 8.99154L150.974 36.2983L103.593 35.0068L84.4988 24.4061L96.8593 8.99154H148.327Z" fill="#455A64"/>
<path d="M237.509 37.6961C237.509 37.6961 208.923 17.982 197.646 14.0626C186.761 10.2831 181.087 9.3326 170.864 9.03068C161.092 8.76231 155.137 9.03068 155.137 9.03068L162.69 36.7903L237.509 37.6961Z" fill="#455A64"/>
<path d="M241.69 37.7632C241.689 36.9143 241.452 36.0808 241.004 35.348C240.555 34.6151 239.911 34.0092 239.137 33.5922L232.567 30.0699C230.696 29.064 228.584 28.5363 226.437 28.5379C225.114 28.5396 223.8 28.7396 222.543 29.1306C221.174 29.5828 219.982 30.4229 219.126 31.5387C218.271 32.6546 217.792 33.9932 217.753 35.3758C217.716 36.3044 217.876 37.2307 218.223 38.099C218.569 38.9673 219.096 39.7598 219.771 40.4291C220.447 41.0984 221.256 41.6306 222.152 41.994C223.048 42.3573 224.011 42.5442 224.984 42.5435H236.695C238.021 42.5406 239.291 42.0356 240.227 41.1394C241.164 40.2433 241.69 39.0291 241.69 37.7632Z" fill="#FF725E"/>
<path d="M241.689 37.7632C241.689 37.7632 241.689 37.9756 241.613 38.367C241.525 38.9427 241.327 39.498 241.028 40.0052C240.555 40.804 239.857 41.4605 239.014 41.9005C238.488 42.1634 237.916 42.3339 237.327 42.4037C236.655 42.4512 235.981 42.4643 235.307 42.4429L225.289 42.4093C224.339 42.4335 223.394 42.2856 222.502 41.9732C221.561 41.6371 220.705 41.1146 219.99 40.4401C219.276 39.7655 218.719 38.9542 218.356 38.0595C217.987 37.1156 217.838 36.1064 217.917 35.1018C217.996 34.1117 218.301 33.1502 218.812 32.2855C219.323 31.4207 220.027 30.6738 220.874 30.0978C221.692 29.5581 222.613 29.1781 223.585 28.9796C226.255 28.3766 229.059 28.6342 231.56 29.712C232.315 30.0363 233.006 30.4445 233.691 30.7967L235.647 31.8366L239.014 33.6146C239.861 34.0499 240.56 34.7076 241.028 35.51C241.323 36.0185 241.521 36.5732 241.613 37.1481C241.672 37.5395 241.666 37.752 241.684 37.752C241.706 37.5475 241.706 37.3414 241.684 37.137C241.618 36.5502 241.435 35.9808 241.145 35.4596C240.685 34.6246 239.978 33.9365 239.113 33.4804L235.77 31.6633L233.826 30.6066C233.147 30.2488 232.456 29.835 231.683 29.4884C229.135 28.3684 226.269 28.0929 223.538 28.7056C222.531 28.8968 221.574 29.2768 220.722 29.8239C219.836 30.4228 219.1 31.2008 218.566 32.1025C218.032 33.0041 217.712 34.0072 217.63 35.0403C217.544 36.0886 217.7 37.142 218.087 38.1266C218.465 39.0613 219.047 39.9086 219.794 40.6123C220.541 41.316 221.436 41.8599 222.42 42.2081C223.345 42.5262 224.324 42.676 225.306 42.6497L235.325 42.6218C236.007 42.6357 236.689 42.6152 237.368 42.5603C237.985 42.4786 238.58 42.289 239.125 42.0012C239.988 41.5403 240.695 40.8536 241.163 40.022C241.449 39.4997 241.629 38.9307 241.695 38.3446C241.71 38.151 241.708 37.9565 241.689 37.7632Z" fill="#263238"/>
<path d="M21.4608 110.626C21.4608 110.626 21.4608 110.497 21.4608 110.24C21.4608 109.983 21.414 109.597 21.3789 109.122C21.3437 108.647 21.2852 108.004 21.2501 107.277C21.2149 106.55 21.1915 105.7 21.1622 104.755C21.1329 103.81 21.1622 102.748 21.1622 101.596C21.1622 100.445 21.25 99.1866 21.414 97.8447C21.68 94.8037 22.2466 91.7935 23.1062 88.8543C23.6125 87.1397 24.2365 85.4587 24.974 83.8223C25.7571 82.0544 26.7015 80.3556 27.7962 78.7456C30.2364 75.1963 33.3408 72.1069 36.9539 69.6322C40.9308 66.875 45.37 64.7839 50.0814 63.4485C54.9647 62.0228 60.2813 61.5028 65.6916 61.4637C70.9688 61.4176 76.222 62.1473 81.2667 63.6274C83.6551 64.348 85.9744 65.2627 88.1993 66.3614C90.3204 67.4377 92.3351 68.6952 94.2185 70.1186C97.7199 72.7373 100.839 75.7909 103.493 79.1985C104.66 80.7624 105.691 82.4155 106.573 84.141C107.378 85.7404 108.09 87.381 108.704 89.0556C110.575 94.102 111.714 99.3692 112.089 104.711C112.183 106.606 112.171 108.065 112.118 109.083C112.089 109.575 112.065 109.949 112.054 110.201C112.042 110.453 112.054 110.587 112.054 110.587C112.054 110.587 112.054 110.458 112.101 110.201C112.147 109.944 112.159 109.558 112.2 109.083C112.278 107.624 112.278 106.163 112.2 104.705C111.876 99.3338 110.767 94.0323 108.904 88.9549C108.288 87.273 107.581 85.6232 106.784 84.0124C105.894 82.2743 104.86 80.6066 103.692 79.0252C101.03 75.5957 97.9008 72.5197 94.3883 69.8782C92.4934 68.4437 90.4671 67.175 88.334 66.0875C86.0942 64.9799 83.7592 64.0577 81.3545 63.3311C76.2813 61.8335 70.9956 61.0961 65.6857 61.145C60.252 61.1841 54.912 61.7041 49.9877 63.1466C45.2452 64.4946 40.7781 66.6047 36.7782 69.3862C34.9259 70.6881 33.1942 72.1397 31.6022 73.7249C30.09 75.2121 28.742 76.844 27.5796 78.5947C26.4815 80.2194 25.5352 81.9331 24.7515 83.7161C24.0155 85.3519 23.3954 87.033 22.8954 88.7481C22.041 91.7021 21.4861 94.7277 21.2383 97.7832C21.0802 99.1251 21.0802 100.383 21.0158 101.54C20.9514 102.698 21.0158 103.777 21.0158 104.705C21.0158 105.633 21.1037 106.5 21.1388 107.232C21.1739 107.965 21.25 108.574 21.2969 109.077C21.3437 109.58 21.3788 109.944 21.4023 110.195C21.4257 110.447 21.4608 110.626 21.4608 110.626Z" fill="white"/>
<path d="M164.078 40.5866H164.476L166.004 40.6202L171.619 40.7152C176.362 40.7991 182.908 40.9668 190.146 41.1569C197.383 41.347 203.935 41.4756 208.677 41.5092C211.049 41.5092 212.969 41.5092 214.299 41.5092H215.827H216.219C216.266 41.5176 216.313 41.5176 216.36 41.5092C216.313 41.502 216.266 41.502 216.219 41.5092H215.827L214.299 41.4756L208.683 41.3806C203.941 41.2967 197.389 41.129 190.151 40.9445C182.914 40.76 176.362 40.6202 171.619 40.5866C169.277 40.5866 167.328 40.5866 166.004 40.5866H164.476H164.078Z" fill="white"/>
<path d="M171.707 48.99C173.412 49.1373 175.125 49.1859 176.836 49.1354C178.548 49.1859 180.261 49.1373 181.966 48.99C180.26 48.846 178.548 48.7975 176.836 48.8446C175.125 48.7975 173.413 48.846 171.707 48.99Z" fill="white"/>
<path d="M169.822 19.0722C169.793 19.1449 176.157 21.6777 184.044 24.7248C191.931 27.7719 198.349 30.1873 198.384 30.109C198.419 30.0307 192.049 27.5036 184.162 24.4564C176.274 21.4093 169.857 18.9996 169.822 19.0722Z" fill="white"/>
<path d="M182.727 20.99C182.692 21.0682 188.758 23.6178 196.27 26.6873C203.782 29.7568 209.895 32.1889 209.931 32.1162C209.966 32.0435 203.9 29.494 196.387 26.4189C188.875 23.3438 182.762 20.9061 182.727 20.99Z" fill="white"/>
<path d="M100.893 18.0155C100.858 18.0882 107.229 20.621 115.116 23.6681C123.003 26.7152 129.42 29.125 129.456 29.0523C129.491 28.9796 123.12 26.4468 115.227 23.3997C107.334 20.3526 100.94 17.9372 100.893 18.0155Z" fill="white"/>
<path d="M113.822 19.9221C113.787 20.0003 119.853 22.5499 127.359 25.6194C134.866 28.6889 140.991 31.121 141.026 31.0483C141.061 30.9756 134.995 28.4261 127.482 25.351C119.97 22.2759 113.822 19.8718 113.822 19.9221Z" fill="white"/>
<path d="M99.6463 40.5587C99.6463 40.637 112.311 40.7767 127.933 40.8662C143.555 40.9557 156.22 40.9612 156.22 40.8662C156.22 40.7711 143.561 40.6482 127.933 40.5643C112.305 40.4804 99.6463 40.4972 99.6463 40.5587Z" fill="white"/>
<path d="M85.6229 48.5259C85.6229 48.6042 89.1712 48.6993 93.5568 48.7384C97.9424 48.7775 101.491 48.7384 101.491 48.6657C101.491 48.593 97.9424 48.4868 93.5568 48.4477C89.1712 48.4085 85.6229 48.4421 85.6229 48.5259Z" fill="white"/>
<path d="M328.125 44.3886C328.237 44.4246 328.353 44.4472 328.471 44.4557L329.46 44.5787C329.894 44.6234 330.42 44.6849 331.029 44.7855C331.638 44.8862 332.335 44.9589 333.096 45.1042C334.625 45.3614 336.434 45.7416 338.413 46.2224C340.557 46.7873 342.669 47.4553 344.742 48.224C346.944 49.0571 348.988 49.9685 350.814 50.8686C352.641 51.7688 354.222 52.6745 355.499 53.4852C356.16 53.871 356.734 54.2624 357.255 54.6034C357.776 54.9445 358.204 55.2241 358.555 55.4701L359.369 56.0292C359.462 56.0979 359.562 56.1578 359.668 56.2081C359.59 56.1253 359.504 56.0503 359.41 55.9844L358.625 55.3862C358.286 55.129 357.864 54.8271 357.355 54.4749C356.845 54.1226 356.289 53.7312 355.598 53.3566C354.31 52.5236 352.717 51.6122 350.914 50.6785C346.966 48.6631 342.784 47.0962 338.454 46.01C336.463 45.518 334.642 45.1545 333.102 44.9253C332.335 44.7911 331.638 44.724 331.024 44.6458C330.409 44.5675 329.853 44.5172 329.449 44.4892L328.447 44.4165C328.341 44.3999 328.233 44.3906 328.125 44.3886Z" fill="white"/>
<path d="M223.562 31.1993C223.562 31.1993 223.731 30.9812 224.147 30.6793C224.709 30.2687 225.377 30.0117 226.079 29.9357C227.133 29.8517 228.194 29.9599 229.206 30.2544C232.771 31.1118 236.083 32.7396 238.885 35.0124C240.278 36.1306 241.016 36.9525 241.057 36.9133C240.915 36.6998 240.751 36.5012 240.565 36.3207C240.081 35.8071 239.569 35.3181 239.031 34.8558C237.243 33.3345 235.21 32.0963 233.012 31.1881C231.805 30.6836 230.553 30.285 229.27 29.9972C228.226 29.707 227.132 29.6158 226.05 29.7288C225.315 29.8249 224.627 30.1265 224.071 30.5954C223.923 30.7219 223.792 30.8645 223.679 31.0204C223.585 31.1322 223.55 31.1937 223.562 31.1993Z" fill="white"/>
<path d="M35.045 16.4333C35.8612 16.6216 36.7001 16.7044 37.5393 16.6793C38.5244 16.6511 39.5046 16.535 40.467 16.3326C41.7372 16.0474 42.9838 15.6736 44.1968 15.2144C45.5494 14.728 46.9898 14.0962 48.5473 13.4756L50.9772 12.5419C51.8145 12.2232 52.6987 11.9492 53.5887 11.6361C57.497 10.3724 61.482 9.3361 65.5218 8.53308C72.8661 7.07328 80.3233 6.19067 87.8187 5.8941C89.2591 5.82141 90.5589 5.82142 91.7065 5.79346H94.6342L96.4845 5.8326H97.1344C97.0802 5.82277 97.0246 5.82277 96.9704 5.8326L96.4903 5.79905L94.6342 5.704L91.7065 5.65369C90.5355 5.65369 89.2591 5.65368 87.8187 5.72078C80.3026 5.95505 72.8224 6.81561 65.4632 8.29266C61.4149 9.08676 57.4233 10.1251 53.5126 11.4013C52.6226 11.7144 51.756 11.994 50.8953 12.3182L48.4653 13.2743C46.9078 13.9173 45.4733 14.5435 44.1324 15.0411C42.9359 15.5017 41.7048 15.8755 40.4494 16.1593C39.5003 16.3764 38.5319 16.5075 37.5569 16.5507C36.9414 16.5709 36.3251 16.5503 35.7125 16.4892L35.2382 16.4333H35.045Z" fill="#263238"/>
<path d="M347.689 137.934H27.2287V134.1H347.689V137.934Z" fill="#E0E0E0"/>
<path d="M312.677 137.934C312.677 137.88 248.772 137.834 169.959 137.834C91.1471 137.834 27.2287 137.865 27.2287 137.934C27.2287 138.003 91.1204 138.034 169.959 138.034C248.799 138.034 312.677 137.991 312.677 137.934Z" fill="#263238"/>
<path d="M312.677 134.1C312.677 134.046 248.772 134 169.959 134C91.1471 134 27.2287 134.046 27.2287 134.1C27.2287 134.154 91.1204 134.204 169.959 134.204C248.799 134.204 312.677 134.157 312.677 134.1Z" fill="#263238"/>
<path d="M34.3817 134.223C34.2273 135.448 34.2273 136.685 34.3817 137.911C34.5361 136.685 34.5361 135.448 34.3817 134.223Z" fill="#263238"/>
<path d="M49.6721 134.223C49.5177 135.448 49.5177 136.685 49.6721 137.911C49.8265 136.685 49.8265 135.448 49.6721 134.223Z" fill="#263238"/>
<path d="M64.9758 134.223C64.8214 135.448 64.8214 136.685 64.9758 137.911C65.1302 136.685 65.1302 135.448 64.9758 134.223Z" fill="#263238"/>
<path d="M80.2573 134.223C80.1029 135.448 80.1029 136.685 80.2573 137.911C80.4117 136.685 80.4117 135.448 80.2573 134.223Z" fill="#263238"/>
<path d="M95.5476 134.223C95.3932 135.448 95.3932 136.685 95.5476 137.911C95.702 136.685 95.702 135.448 95.5476 134.223Z" fill="#263238"/>
<path d="M110.851 134.223C110.697 135.448 110.697 136.685 110.851 137.911C111.006 136.685 111.006 135.448 110.851 134.223Z" fill="#263238"/>
<path d="M126.133 134.223C125.978 135.448 125.978 136.685 126.133 137.911C126.287 136.685 126.287 135.448 126.133 134.223Z" fill="#263238"/>
<path d="M141.423 134.223C141.269 135.448 141.269 136.685 141.423 137.911C141.578 136.685 141.578 135.448 141.423 134.223Z" fill="#263238"/>
<path d="M156.727 134.223C156.572 135.448 156.572 136.685 156.727 137.911C156.881 136.685 156.881 135.448 156.727 134.223Z" fill="#263238"/>
<path d="M172.008 134.223C171.854 135.448 171.854 136.685 172.008 137.911C172.163 136.685 172.163 135.448 172.008 134.223Z" fill="#263238"/>
<path d="M187.303 134.223C187.149 135.448 187.149 136.685 187.303 137.911C187.458 136.685 187.458 135.448 187.303 134.223Z" fill="#263238"/>
<path d="M202.602 134.223C202.448 135.448 202.448 136.685 202.602 137.911C202.757 136.685 202.757 135.448 202.602 134.223Z" fill="#263238"/>
<path d="M217.884 134.223C217.729 135.448 217.729 136.685 217.884 137.911C218.038 136.685 218.038 135.448 217.884 134.223Z" fill="#263238"/>
<path d="M233.179 134.223C233.024 135.448 233.024 136.685 233.179 137.911C233.333 136.685 233.333 135.448 233.179 134.223Z" fill="#263238"/>
<path d="M248.478 134.223C248.323 135.448 248.323 136.685 248.478 137.911C248.632 136.685 248.632 135.448 248.478 134.223Z" fill="#263238"/>
<path d="M263.764 134.223C263.609 135.448 263.609 136.685 263.764 137.911C263.918 136.685 263.918 135.448 263.764 134.223Z" fill="#263238"/>
<path d="M279.054 134.223C278.9 135.448 278.9 136.685 279.054 137.911C279.209 136.685 279.209 135.448 279.054 134.223Z" fill="#263238"/>
<path d="M294.353 134.223C294.199 135.448 294.199 136.685 294.353 137.911C294.508 136.685 294.508 135.448 294.353 134.223Z" fill="#263238"/>
<path d="M309.639 134.223C309.485 135.448 309.485 136.685 309.639 137.911C309.794 136.685 309.794 135.448 309.639 134.223Z" fill="#263238"/>
<path d="M324.93 134.223C324.775 135.448 324.775 136.685 324.93 137.911C325.084 136.685 325.084 135.448 324.93 134.223Z" fill="#263238"/>
<path d="M340.229 134.223C340.075 135.448 340.075 136.685 340.229 137.911C340.383 136.685 340.383 135.448 340.229 134.223Z" fill="#263238"/>
</svg>
