<svg width="388" height="187" viewBox="0 0 388 187" fill="none" xmlns="http://www.w3.org/2000/svg">
<path d="M348 185.934H42V182.1H348V185.934Z" fill="#E0E0E0"/>
<path d="M314.568 185.934C314.568 185.88 253.546 185.834 178.29 185.834C103.034 185.834 42 185.865 42 185.934C42 186.003 103.009 186.034 178.29 186.034C253.572 186.034 314.568 185.991 314.568 185.934Z" fill="#263238"/>
<path d="M314.568 182.1C314.568 182.046 253.546 182 178.29 182C103.034 182 42 182.046 42 182.1C42 182.154 103.009 182.204 178.29 182.204C253.572 182.204 314.568 182.157 314.568 182.1Z" fill="#263238"/>
<path d="M48.8302 182.223C48.6828 183.449 48.6828 184.685 48.8302 185.911C48.9777 184.685 48.9777 183.449 48.8302 182.223Z" fill="#263238"/>
<path d="M63.4306 182.223C63.2832 183.449 63.2832 184.685 63.4306 185.911C63.5781 184.685 63.5781 183.449 63.4306 182.223Z" fill="#263238"/>
<path d="M78.0438 182.223C77.8963 183.449 77.8963 184.685 78.0438 185.911C78.1912 184.685 78.1912 183.449 78.0438 182.223Z" fill="#263238"/>
<path d="M92.6357 182.223C92.4883 183.449 92.4883 184.685 92.6357 185.911C92.7831 184.685 92.7831 183.449 92.6357 182.223Z" fill="#263238"/>
<path d="M107.236 182.223C107.089 183.449 107.089 184.685 107.236 185.911C107.383 184.685 107.383 183.449 107.236 182.223Z" fill="#263238"/>
<path d="M121.849 182.223C121.702 183.449 121.702 184.685 121.849 185.911C121.997 184.685 121.997 183.449 121.849 182.223Z" fill="#263238"/>
<path d="M136.441 182.223C136.294 183.449 136.294 184.685 136.441 185.911C136.589 184.685 136.589 183.449 136.441 182.223Z" fill="#263238"/>
<path d="M151.041 182.223C150.894 183.449 150.894 184.685 151.041 185.911C151.189 184.685 151.189 183.449 151.041 182.223Z" fill="#263238"/>
<path d="M165.655 182.223C165.507 183.449 165.507 184.685 165.655 185.911C165.802 184.685 165.802 183.449 165.655 182.223Z" fill="#263238"/>
<path d="M180.246 182.223C180.099 183.449 180.099 184.685 180.246 185.911C180.394 184.685 180.394 183.449 180.246 182.223Z" fill="#263238"/>
<path d="M194.851 182.223C194.704 183.449 194.704 184.685 194.851 185.911C194.999 184.685 194.999 183.449 194.851 182.223Z" fill="#263238"/>
<path d="M209.46 182.223C209.313 183.449 209.313 184.685 209.46 185.911C209.607 184.685 209.607 183.449 209.46 182.223Z" fill="#263238"/>
<path d="M224.052 182.223C223.904 183.449 223.904 184.685 224.052 185.911C224.199 184.685 224.199 183.449 224.052 182.223Z" fill="#263238"/>
<path d="M238.657 182.223C238.509 183.449 238.509 184.685 238.657 185.911C238.804 184.685 238.804 183.449 238.657 182.223Z" fill="#263238"/>
<path d="M253.265 182.223C253.118 183.449 253.118 184.685 253.265 185.911C253.413 184.685 253.413 183.449 253.265 182.223Z" fill="#263238"/>
<path d="M267.862 182.223C267.714 183.449 267.714 184.685 267.862 185.911C268.009 184.685 268.009 183.449 267.862 182.223Z" fill="#263238"/>
<path d="M282.462 182.223C282.315 183.449 282.315 184.685 282.462 185.911C282.609 184.685 282.609 183.449 282.462 182.223Z" fill="#263238"/>
<path d="M297.071 182.223C296.923 183.449 296.923 184.685 297.071 185.911C297.218 184.685 297.218 183.449 297.071 182.223Z" fill="#263238"/>
<path d="M311.667 182.223C311.52 183.449 311.52 184.685 311.667 185.911C311.814 184.685 311.814 183.449 311.667 182.223Z" fill="#263238"/>
<path d="M326.267 182.223C326.12 183.449 326.12 184.685 326.267 185.911C326.415 184.685 326.415 183.449 326.267 182.223Z" fill="#263238"/>
<path d="M340.876 182.223C340.729 183.449 340.729 184.685 340.876 185.911C341.024 184.685 341.024 183.449 340.876 182.223Z" fill="#263238"/>
<path d="M362.626 101.292H35.212V149.334H362.626V101.292Z" fill="#00674F"/>
<g opacity="0.5">
<path d="M362.626 101.292H35.212V149.334H362.626V101.292Z" fill="black"/>
</g>
<path d="M81.3322 180.507C98.7295 179.337 111.884 164.284 110.713 146.887C109.542 129.49 94.4897 116.336 77.0925 117.506C59.6952 118.677 46.5411 133.729 47.7119 151.127C48.8826 168.524 63.935 181.678 81.3322 180.507Z" fill="#263238"/>
<path d="M47.646 148.472C47.646 148.502 47.646 148.531 47.646 148.555C47.5859 152.701 48.3431 156.818 49.8742 160.672C51.4053 164.525 53.6805 168.039 56.5697 171.013C59.459 173.988 62.9057 176.364 66.7132 178.006C70.5207 179.648 74.6143 180.524 78.7604 180.584C82.9064 180.644 87.0237 179.887 90.8772 178.356C94.7306 176.825 98.2447 174.549 101.219 171.66C104.193 168.771 106.569 165.324 108.211 161.517C109.853 157.709 110.729 153.616 110.789 149.47C110.789 149.44 110.789 149.411 110.789 149.387L47.646 148.472Z" fill="#263238"/>
<path d="M57.0467 148.691C56.9817 153.075 58.2184 157.379 60.6003 161.06C62.9821 164.741 66.4022 167.633 70.4278 169.37C74.4534 171.107 78.9038 171.611 83.216 170.819C87.5282 170.026 91.5084 167.973 94.6534 164.918C97.7983 161.863 99.9665 157.944 100.884 153.657C101.801 149.369 101.427 144.906 99.807 140.832C98.1876 136.757 95.3961 133.255 91.7858 130.767C88.1755 128.279 83.9085 126.918 79.5246 126.856C73.6488 126.772 67.9804 129.025 63.7654 133.12C59.5503 137.214 57.1337 142.815 57.0467 148.691Z" fill="#FAFAFA"/>
<path d="M79.5246 126.85C73.6484 126.765 67.9791 129.018 63.7637 133.112C59.5483 137.207 57.1321 142.809 57.0467 148.685L101.371 149.328C101.455 143.45 99.1999 137.78 95.1029 133.565C91.006 129.349 85.4023 126.934 79.5246 126.85Z" fill="#E0E0E0"/>
<path d="M65.7097 148.815C65.6703 151.485 66.4238 154.107 67.8749 156.35C69.326 158.592 71.4095 160.353 73.8618 161.411C76.3142 162.469 79.0252 162.776 81.652 162.293C84.2788 161.81 86.7034 160.559 88.619 158.698C90.5346 156.837 91.8553 154.449 92.4138 151.838C92.9724 149.226 92.7439 146.507 91.7571 144.025C90.7703 141.543 89.0696 139.41 86.8701 137.895C84.6707 136.38 82.0712 135.551 79.4007 135.513C77.6283 135.487 75.8682 135.811 74.2209 136.466C72.5736 137.12 71.0713 138.093 69.8 139.328C68.5286 140.563 67.513 142.037 66.8112 143.664C66.1094 145.292 65.7351 147.042 65.7097 148.815Z" fill="#263238"/>
<path d="M322.471 180.496C339.879 179.487 353.172 164.557 352.162 147.149C351.152 129.742 336.222 116.449 318.815 117.459C301.407 118.469 288.114 133.399 289.124 150.806C290.134 168.213 305.064 181.506 322.471 180.496Z" fill="#263238"/>
<path d="M289.067 148.472C289.067 148.502 289.067 148.531 289.067 148.555C289.007 152.701 289.764 156.818 291.295 160.672C292.826 164.525 295.101 168.039 297.99 171.013C300.88 173.988 304.326 176.364 308.134 178.006C311.941 179.648 316.035 180.524 320.181 180.584C324.327 180.644 328.444 179.887 332.298 178.356C336.151 176.825 339.665 174.549 342.64 171.66C345.614 168.771 347.99 165.324 349.632 161.517C351.274 157.709 352.15 153.616 352.21 149.47C352.21 149.44 352.21 149.411 352.21 149.387L289.067 148.472Z" fill="#263238"/>
<path d="M298.467 148.691C298.402 153.075 299.639 157.379 302.021 161.06C304.403 164.741 307.823 167.633 311.849 169.37C315.874 171.107 320.325 171.611 324.637 170.819C328.949 170.026 332.929 167.973 336.074 164.918C339.219 161.863 341.387 157.944 342.305 153.657C343.222 149.369 342.847 144.906 341.228 140.832C339.608 136.757 336.817 133.255 333.207 130.767C329.596 128.279 325.329 126.918 320.945 126.856C315.07 126.772 309.401 129.025 305.186 133.12C300.971 137.214 298.554 142.815 298.467 148.691Z" fill="#FAFAFA"/>
<path d="M320.945 126.85C315.069 126.765 309.4 129.018 305.184 133.112C300.969 137.207 298.553 142.809 298.467 148.685L342.792 149.328C342.875 143.45 340.621 137.78 336.524 133.565C332.427 129.349 326.823 126.934 320.945 126.85Z" fill="#E0E0E0"/>
<path d="M307.113 148.815C307.073 151.485 307.827 154.107 309.278 156.35C310.729 158.592 312.812 160.353 315.265 161.411C317.717 162.469 320.428 162.776 323.055 162.293C325.682 161.81 328.106 160.559 330.022 158.698C331.938 156.837 333.258 154.449 333.817 151.838C334.375 149.226 334.147 146.507 333.16 144.025C332.173 141.543 330.473 139.41 328.273 137.895C326.074 136.38 323.474 135.551 320.804 135.513C319.031 135.487 317.271 135.811 315.624 136.466C313.977 137.12 312.474 138.093 311.203 139.328C309.932 140.563 308.916 142.037 308.214 143.664C307.512 145.292 307.138 147.042 307.113 148.815Z" fill="#263238"/>
<path d="M120.591 74.2639C120.591 74.2639 74.1013 77.6925 56.8578 81.5579C44.713 84.2784 21.2968 88.9817 21.5801 103.711L23.439 114.274C23.439 114.274 14.7582 118.24 14.7582 128.367C14.7582 138.493 12.6397 154.191 32.9164 154.822C36.2565 154.922 42.6004 154.822 42.6004 154.822C42.6004 154.822 38.7114 111.637 78.3797 110.374C118.738 109.087 116.059 154.427 116.059 154.427H284.499C284.499 154.427 277.583 110.256 321.028 110.167C364.473 110.079 357.864 154.716 357.864 154.716C357.864 154.716 373.844 156.097 381.28 142.665C388.715 129.234 386.786 119.651 386.786 119.651L386.538 111.159C386.491 109.765 385.916 108.441 384.93 107.455C383.944 106.469 382.62 105.895 381.227 105.847C381.227 105.847 384.13 84.4731 379.675 80.773C375.219 77.0729 350.806 54.7484 350.806 54.7484L351.986 54.0226C352.423 53.746 352.774 53.3511 352.996 52.8836C353.218 52.4161 353.303 51.8952 353.241 51.3813C353.18 50.8674 352.974 50.3815 352.647 49.98C352.32 49.5785 351.886 49.2778 351.396 49.1127C342.125 45.9261 323.796 39.6176 319.488 38.1128C318.842 37.8834 318.17 37.7406 317.487 37.6879C314.914 37.4931 307.632 37.0329 294.266 36.8912C277.984 36.7142 213.342 36.8912 213.342 36.8912C213.342 36.8912 191.094 38.7206 178.701 44.1734C165.707 49.9094 120.591 74.2639 120.591 74.2639Z" fill="#00674F"/>
<g opacity="0.4">
<path d="M26.5489 127.186C24.8612 126.844 22.2764 126.815 20.9899 127.954C20.0339 128.803 19.7802 130.178 19.6386 131.447C19.3675 133.185 19.4075 134.958 19.7566 136.682C19.9346 137.543 20.2886 138.358 20.7963 139.076C21.3041 139.794 21.9546 140.399 22.7072 140.854C24.2533 141.692 26.366 141.556 27.564 140.264C28.6616 139.083 28.7855 137.313 28.7442 135.737C28.7029 133.459 28.8858 131.53 28.4668 129.293C28.3744 128.818 28.1723 128.372 27.8767 127.989C27.7297 127.76 27.5318 127.568 27.2985 127.428C27.0651 127.287 26.8026 127.203 26.5312 127.181" fill="black"/>
</g>
<path d="M23.4508 114.274C28.3842 114.274 33.1702 114.003 38.0977 113.684C38.6345 113.708 39.1633 113.548 39.5966 113.23C39.7949 112.983 39.9423 112.7 40.0304 112.396C40.1185 112.092 40.1456 111.774 40.11 111.46C40.11 108.816 40.0038 105.806 37.9974 104.083C36.7699 103.033 35.0881 102.702 33.477 102.555C29.4763 102.122 25.4294 102.524 21.5919 103.735L23.4508 114.274Z" fill="#FAFAFA"/>
<path d="M125.944 153.075C125.944 153.075 125.944 152.934 125.909 152.65C125.873 152.367 125.861 151.948 125.826 151.411C125.767 150.313 125.678 148.714 125.566 146.649C125.454 144.583 125.312 142.052 125.017 139.125C124.713 135.81 124.13 132.528 123.277 129.311C122.199 125.425 120.601 121.703 118.526 118.246C116.175 114.254 113.052 110.771 109.338 108.001C101.377 102.336 90.619 99.1495 79.3653 98.9961C68.1116 98.8427 57.3476 102.401 49.5816 108.367C45.859 111.121 42.5982 114.45 39.9212 118.228C37.5839 121.509 35.6834 125.08 34.2678 128.851C33.1001 131.967 32.298 135.209 31.8778 138.511C31.5487 141.001 31.4519 143.516 31.5886 146.023C31.6855 147.608 31.8826 149.185 32.1788 150.744C32.2732 151.269 32.3499 151.677 32.3971 151.96C32.4443 152.243 32.462 152.379 32.462 152.379C32.462 152.379 32.4266 152.243 32.3676 151.972L32.1138 150.791C31.7927 149.234 31.5797 147.657 31.4765 146.07C31.3161 143.555 31.3951 141.029 31.7126 138.529C32.1193 135.21 32.9115 131.95 34.0731 128.815C35.4838 125.014 37.3843 121.414 39.7265 118.104C42.4095 114.295 45.6848 110.94 49.4281 108.167C57.2296 102.171 68.0171 98.5771 79.3594 98.7246C90.7016 98.8722 101.477 102.088 109.503 107.807C113.239 110.604 116.379 114.119 118.738 118.146C120.812 121.629 122.4 125.38 123.459 129.293C124.309 132.523 124.879 135.821 125.165 139.148C125.442 142.099 125.566 144.613 125.661 146.678C125.755 148.744 125.82 150.349 125.867 151.447C125.867 151.984 125.903 152.397 125.914 152.686C125.926 152.975 125.944 153.075 125.944 153.075Z" fill="white"/>
<path d="M127.714 153.807V153.453L127.679 152.408C127.649 151.476 127.608 150.113 127.549 148.331C127.449 144.749 127.301 139.514 127.112 132.852C126.924 126.189 126.705 118.098 126.451 108.833C126.386 106.514 126.327 104.112 126.257 101.663C126.215 100.412 126.271 99.1592 126.422 97.9162L126.687 96.016L127.077 94.1099C127.688 91.5058 128.568 88.9724 129.703 86.5503C130.872 84.0114 132.316 81.6089 134.011 79.3862L163.181 61.0097L171.059 56.0526C173.714 54.2881 176.502 52.7315 179.398 51.3965C182.358 50.0022 185.397 48.7786 188.497 47.7318C190.043 47.1889 191.631 46.7463 193.218 46.2742C194.806 45.8021 196.423 45.4126 198.063 45.094C204.249 43.7706 210.538 42.9809 216.859 42.7335C222.924 42.4428 229.001 42.4625 235.064 42.7925H235.235L235.194 42.9636L227.357 78.023C225.909 80.4004 224.722 82.927 223.816 85.5589C222.925 88.0552 222.524 90.7002 222.636 93.3486C222.837 95.9392 222.908 98.4768 222.972 100.938C223.037 103.398 223.067 105.783 223.114 108.102C223.25 117.367 223.285 125.446 223.309 132.102C223.332 138.759 223.309 143.993 223.309 147.569C223.309 149.34 223.309 150.715 223.309 151.647C223.309 152.102 223.309 152.45 223.309 152.692C223.309 152.934 223.309 153.046 223.309 153.046C223.309 153.046 223.309 152.922 223.309 152.692C223.309 152.462 223.309 152.102 223.309 151.647C223.309 150.715 223.309 149.352 223.309 147.569C223.309 143.993 223.256 138.759 223.214 132.108C223.173 125.457 223.114 117.355 222.955 108.102C222.908 105.788 222.856 103.402 222.801 100.944C222.731 98.4827 222.66 95.9569 222.453 93.3663C222.333 90.6848 222.734 88.0054 223.633 85.4763C224.533 82.8231 225.72 80.2763 227.174 77.8814V77.9227C229.576 67.1293 232.202 55.3504 234.982 42.8574L235.117 43.0344C229.067 42.7085 223.005 42.6927 216.953 42.9872C210.647 43.2313 204.374 44.0211 198.205 45.3477C196.57 45.6723 194.977 46.1267 193.378 46.528C191.778 46.9293 190.215 47.4427 188.657 47.9797C185.556 49.0281 182.517 50.2537 179.557 51.6503C176.676 52.9763 173.902 54.5231 171.26 56.2769L163.376 61.2339L134.206 79.5691V79.5396C132.514 81.7475 131.073 84.1364 129.91 86.6625C128.776 89.066 127.898 91.5819 127.289 94.1689C125.962 99.2262 126.628 104.201 126.64 108.833L127.23 132.852C127.39 139.508 127.514 144.749 127.596 148.325C127.638 150.095 127.661 151.476 127.685 152.408C127.685 152.861 127.685 153.209 127.685 153.453C127.714 153.689 127.714 153.807 127.714 153.807Z" fill="#263238"/>
<path d="M234.852 43.7662H235.129L235.938 43.7367L239.071 43.66L250.691 43.4357L289.863 42.763H289.94L289.987 42.822L295.475 49.5435C301.034 56.3713 306.334 62.8627 311.149 68.7639L312.92 70.9474C313.493 71.6792 313.985 72.4706 314.389 73.3079C315.12 74.8607 315.517 76.5495 315.555 78.2654C315.592 79.9813 315.27 81.6859 314.607 83.2692L312.837 87.4001L307.42 99.9344L305.932 103.334L305.537 104.219C305.449 104.413 305.395 104.514 305.395 104.514C305.395 104.514 305.431 104.408 305.508 104.207C305.584 104.006 305.72 103.694 305.873 103.31C306.21 102.519 306.688 101.362 307.307 99.8872L312.619 87.3175C313.634 84.6501 315.422 81.8411 315.298 78.4184C315.271 76.6788 314.869 74.9656 314.117 73.3964C313.722 72.5815 313.239 71.8118 312.678 71.1008L310.907 68.9174L295.216 49.7146L289.733 42.9931L289.851 43.0521L250.673 43.6422L239.053 43.778H235.92H235.117L234.852 43.7662Z" fill="#263238"/>
<path d="M215.053 95.8625C215.053 95.8625 215.218 95.8625 215.519 95.7917C215.962 95.7131 216.384 95.5444 216.758 95.296C217.353 94.908 217.798 94.3296 218.021 93.6555C218.157 93.2367 218.213 92.7965 218.187 92.3572C218.173 91.8673 218.047 91.3871 217.821 90.9527C217.557 90.4583 217.165 90.0437 216.687 89.752C216.208 89.4604 215.661 89.3023 215.1 89.2944H211.123H202.005C201.235 89.2956 200.494 89.5863 199.928 90.1088C199.376 90.6115 199.024 91.2968 198.937 92.0385C198.847 92.7552 198.979 93.482 199.314 94.1217C199.657 94.7224 200.188 95.1932 200.825 95.4612C201.456 95.6776 202.125 95.7601 202.79 95.7032H204.72H208.19L213.212 95.7504L214.575 95.7799C214.735 95.7766 214.895 95.7884 215.053 95.8153C214.894 95.8339 214.735 95.8438 214.575 95.8448H213.212L208.19 95.892H204.72H202.79C202.454 95.892 202.129 95.892 201.769 95.892C201.408 95.87 201.053 95.7882 200.719 95.6501C200.019 95.3627 199.435 94.8496 199.061 94.1925C198.686 93.5021 198.539 92.711 198.642 91.9323C198.734 91.1044 199.128 90.3395 199.749 89.7834C200.369 89.2273 201.172 88.9188 202.005 88.9167H211.123H215.106C215.708 88.9294 216.296 89.1044 216.807 89.4233C217.318 89.7422 217.733 90.1931 218.01 90.7284C218.246 91.1933 218.373 91.7059 218.381 92.2274C218.4 92.6879 218.334 93.148 218.187 93.5846C217.937 94.2858 217.456 94.881 216.823 95.2724C216.433 95.5206 215.991 95.6761 215.531 95.7268C215.378 95.7908 215.217 95.8364 215.053 95.8625Z" fill="#263238"/>
<path d="M302.392 95.8625C302.392 95.8625 302.557 95.8625 302.858 95.7917C303.301 95.7131 303.722 95.5444 304.097 95.296C304.692 94.908 305.137 94.3296 305.36 93.6555C305.495 93.2367 305.551 92.7965 305.525 92.3572C305.511 91.8673 305.386 91.3871 305.159 90.9527C304.896 90.4583 304.504 90.0437 304.026 89.752C303.547 89.4604 302.999 89.3023 302.439 89.2944H298.461H289.344C288.574 89.2956 287.832 89.5863 287.267 90.1088C286.714 90.6115 286.362 91.2968 286.275 92.0385C286.186 92.7552 286.318 93.482 286.653 94.1217C286.995 94.7224 287.526 95.1932 288.164 95.4612C288.795 95.6776 289.464 95.7601 290.129 95.7032H292.059H295.529L300.55 95.7504L301.914 95.7799C302.074 95.7766 302.234 95.7884 302.392 95.8153C302.233 95.8339 302.073 95.8438 301.914 95.8448H300.55L295.529 95.892H292.059H290.129C289.792 95.892 289.468 95.892 289.108 95.892C288.747 95.87 288.392 95.7882 288.058 95.6501C287.358 95.3627 286.774 94.8496 286.399 94.1925C286.025 93.5021 285.878 92.711 285.98 91.9323C286.073 91.1044 286.467 90.3395 287.087 89.7834C287.708 89.2273 288.511 88.9188 289.344 88.9167H298.461H302.445C303.047 88.9294 303.635 89.1044 304.146 89.4233C304.657 89.7422 305.072 90.1931 305.348 90.7284C305.585 91.1933 305.712 91.7059 305.72 92.2274C305.739 92.6879 305.673 93.148 305.525 93.5846C305.276 94.2858 304.795 94.881 304.162 95.2724C303.772 95.5206 303.33 95.6761 302.87 95.7268C302.716 95.7908 302.556 95.8364 302.392 95.8625Z" fill="#263238"/>
<path d="M378.925 81.6169H361.457C360.283 81.6166 359.131 81.9368 358.125 82.5431C357.12 83.1494 356.299 84.0187 355.751 85.0573C355.301 85.9166 355.05 86.8664 355.017 87.8359C354.985 88.8055 355.171 89.7699 355.562 90.6576L362.408 106.219L379.899 106.048C379.899 106.048 383.623 86.3202 378.925 81.6169Z" fill="#FAFAFA"/>
<path d="M136.33 79.4157L226.46 77.7516L285.119 76.6775L304.463 65.5064C304.831 65.2923 305.149 65.0025 305.396 64.6561C305.643 64.3098 305.814 63.9149 305.897 63.4975C305.981 63.0802 305.974 62.6499 305.878 62.2353C305.783 61.8206 305.6 61.431 305.342 61.0923L293.298 45.271C292.679 44.4564 291.882 43.7945 290.967 43.3362C290.053 42.8779 289.045 42.6354 288.022 42.6272L222.412 42.0961C222.412 42.0961 197.709 40.6562 178.241 51.5381C157.769 63.0279 136.33 79.4157 136.33 79.4157Z" fill="#263238"/>
<path d="M177.633 43.7308C177.633 43.7308 182.153 45.7903 179.215 47.6964C176.276 49.6025 130.612 78.383 130.612 78.383L120.113 73.6325C138.708 63.2876 157.486 53.2259 177.633 43.7308Z" fill="#455A64"/>
<path d="M132.087 79.1148L131.804 79.1856L130.972 79.3685L127.767 80.0294C124.982 80.5842 120.946 81.3631 115.965 82.2247C105.933 83.9479 92.0529 85.9543 76.6093 87.288C72.744 87.6244 68.9377 87.8781 65.3261 88.1378C61.7146 88.3974 58.162 88.604 54.8219 88.905C48.1358 89.4951 42.1519 90.4629 37.2892 91.9087C33.4242 92.9834 29.7046 94.5252 26.2126 96.4999C24.9556 97.1608 24.0586 97.81 23.4272 98.1994L22.7072 98.6538L22.4535 98.8014C22.5292 98.7403 22.608 98.6832 22.6895 98.6302L23.3918 98.1463C24.0173 97.7391 24.9025 97.0723 26.1536 96.376C29.6244 94.3473 33.3357 92.7612 37.2007 91.6549C42.0752 90.1737 48.0767 89.1764 54.7688 88.5804C58.1148 88.2617 61.6319 88.0375 65.2789 87.7955C68.9259 87.5536 72.6968 87.2703 76.5562 86.9339C91.9939 85.6002 105.891 83.6292 115.906 81.9592C120.916 81.1271 124.952 80.3835 127.744 79.8642L130.96 79.2741L131.798 79.1207L132.087 79.1148Z" fill="#263238"/>
<path d="M385.906 119.473C385.906 119.562 379.899 119.627 372.493 119.627C365.087 119.627 359.073 119.562 359.073 119.473C359.073 119.385 365.081 119.32 372.493 119.32C379.905 119.32 385.906 119.391 385.906 119.473Z" fill="#263238"/>
<path d="M276.007 134.805C276.007 134.893 242.098 134.958 200.276 134.958C158.454 134.958 124.539 134.893 124.539 134.805C124.539 134.716 158.442 134.652 200.276 134.652C242.11 134.652 276.007 134.722 276.007 134.805Z" fill="#263238"/>
<path d="M38.6052 119.981C38.6052 120.07 33.8075 120.134 27.8944 120.134C21.9814 120.134 17.1837 120.07 17.1837 119.981C17.1837 119.892 21.9814 119.828 27.8944 119.828C33.8075 119.828 38.6052 119.898 38.6052 119.981Z" fill="#263238"/>
<path d="M350.351 54.1347C350.351 54.1347 346.327 58.6374 347.908 61.9421C349.49 65.2468 365.842 76.8251 365.842 76.8251L377.71 79.0498L350.351 54.1347Z" fill="#455A64"/>
<path d="M237.519 46.0677L234.852 74.8894L282.605 73.5263L301.849 62.3375L289.391 46.0677H237.519Z" fill="#455A64"/>
<path d="M147.637 76.3648C147.637 76.3648 176.447 55.5569 187.813 51.4201C198.783 47.4309 204.502 46.4277 214.805 46.109C224.654 45.8257 230.656 46.109 230.656 46.109L223.043 75.4088L147.637 76.3648Z" fill="#455A64"/>
<path d="M143.423 76.4356C143.424 75.5396 143.662 74.6599 144.114 73.8864C144.567 73.1129 145.216 72.4734 145.996 72.0332L152.618 68.3154C154.504 67.2537 156.632 66.6968 158.796 66.6985C160.129 66.7003 161.453 66.9113 162.721 67.324C164.1 67.8013 165.301 68.688 166.164 69.8658C167.026 71.0436 167.509 72.4564 167.548 73.9157C167.585 74.8959 167.424 75.8735 167.075 76.79C166.725 77.7065 166.194 78.543 165.514 79.2494C164.833 79.9558 164.017 80.5176 163.114 80.9011C162.212 81.2846 161.241 81.4819 160.26 81.4811H148.457C147.121 81.478 145.841 80.9451 144.897 79.9992C143.953 79.0533 143.423 77.7717 143.423 76.4356Z" fill="#00674F"/>
<path d="M143.423 76.4356C143.423 76.4356 143.423 76.6598 143.5 77.0729C143.589 77.6806 143.789 78.2667 144.09 78.802C144.567 79.6451 145.27 80.338 146.12 80.8025C146.65 81.08 147.226 81.2599 147.82 81.3336C148.497 81.3837 149.177 81.3975 149.856 81.3749L159.953 81.3395C160.91 81.3651 161.863 81.2089 162.762 80.8792C163.71 80.5245 164.573 79.973 165.293 79.261C166.013 78.549 166.574 77.6927 166.94 76.7483C167.312 75.752 167.463 74.6869 167.383 73.6266C167.304 72.5815 166.996 71.5667 166.481 70.654C165.966 69.7412 165.256 68.9529 164.402 68.3449C163.578 67.7753 162.65 67.3742 161.67 67.1647C158.979 66.5283 156.153 66.8001 153.633 67.9378C152.871 68.28 152.175 68.7108 151.485 69.0826L149.514 70.1802L146.12 72.0568C145.267 72.5163 144.562 73.2105 144.09 74.0574C143.793 74.5942 143.593 75.1796 143.5 75.7864C143.441 76.1995 143.447 76.4238 143.429 76.4238C143.407 76.208 143.407 75.9904 143.429 75.7746C143.496 75.1553 143.68 74.5543 143.972 74.0043C144.436 73.1228 145.148 72.3966 146.02 71.9152L149.39 69.9973L151.349 68.882C152.033 68.5043 152.73 68.0676 153.509 67.7017C156.076 66.5196 158.966 66.2288 161.717 66.8755C162.732 67.0772 163.697 67.4784 164.556 68.0558C165.448 68.6879 166.19 69.5091 166.729 70.4608C167.267 71.4125 167.589 72.4713 167.672 73.5617C167.758 74.6681 167.601 75.78 167.211 76.8192C166.831 77.8058 166.244 78.7001 165.491 79.4428C164.738 80.1855 163.836 80.7596 162.845 81.1271C161.912 81.4628 160.926 81.621 159.935 81.5933L149.838 81.5638C149.151 81.5785 148.463 81.5568 147.779 81.4989C147.157 81.4126 146.557 81.2125 146.008 80.9087C145.139 80.4223 144.426 79.6975 143.955 78.8197C143.666 78.2684 143.484 77.6679 143.418 77.0493C143.403 76.8449 143.405 76.6397 143.423 76.4356Z" fill="#263238"/>
<path d="M365.382 153.341C365.382 153.341 365.382 153.205 365.382 152.934C365.382 152.662 365.429 152.255 365.464 151.753C365.5 151.252 365.559 150.573 365.594 149.806C365.63 149.039 365.653 148.142 365.683 147.145C365.712 146.147 365.683 145.026 365.683 143.81C365.683 142.595 365.594 141.267 365.429 139.851C365.161 136.641 364.59 133.464 363.723 130.361C363.213 128.552 362.584 126.777 361.841 125.05C361.052 123.184 360.1 121.391 358.997 119.692C356.537 115.946 353.409 112.685 349.767 110.073C345.759 107.163 341.285 104.955 336.536 103.546C331.615 102.041 326.256 101.492 320.804 101.451C315.485 101.402 310.191 102.173 305.106 103.735C302.699 104.495 300.361 105.461 298.119 106.621C295.981 107.756 293.951 109.084 292.053 110.586C288.524 113.35 285.38 116.573 282.705 120.17C281.529 121.82 280.491 123.565 279.601 125.387C278.79 127.075 278.073 128.806 277.453 130.574C275.567 135.9 274.42 141.46 274.042 147.097C273.948 149.098 273.959 150.638 274.012 151.712C274.042 152.231 274.066 152.627 274.077 152.892C274.089 153.158 274.077 153.3 274.077 153.3C274.077 153.3 274.077 153.164 274.03 152.892C273.983 152.621 273.971 152.214 273.93 151.712C273.852 150.173 273.852 148.631 273.93 147.091C274.256 141.422 275.374 135.827 277.252 130.468C277.872 128.692 278.585 126.951 279.389 125.251C280.286 123.416 281.328 121.656 282.504 119.987C285.188 116.367 288.341 113.12 291.882 110.332C293.791 108.818 295.834 107.479 297.983 106.331C300.241 105.162 302.594 104.189 305.018 103.422C310.131 101.841 315.458 101.063 320.81 101.115C326.286 101.156 331.668 101.705 336.631 103.227C341.411 104.65 345.913 106.877 349.944 109.813C351.811 111.187 353.556 112.719 355.161 114.392C356.685 115.962 358.043 117.685 359.215 119.532C360.322 121.247 361.275 123.056 362.065 124.938C362.807 126.665 363.432 128.439 363.936 130.249C364.797 133.367 365.356 136.561 365.606 139.786C365.765 141.202 365.765 142.53 365.83 143.751C365.895 144.973 365.83 146.112 365.83 147.091C365.83 148.071 365.742 148.986 365.706 149.759C365.671 150.532 365.594 151.175 365.547 151.706C365.5 152.237 365.464 152.621 365.441 152.886C365.417 153.152 365.382 153.341 365.382 153.341Z" fill="white"/>
<path d="M221.645 79.4157H221.243L219.703 79.4511L214.044 79.5514C209.264 79.64 202.666 79.817 195.372 80.0177C188.078 80.2183 181.475 80.354 176.695 80.3894C174.305 80.3894 172.369 80.3894 171.03 80.3894H169.489H169.094C169.047 80.3984 168.999 80.3984 168.952 80.3894C168.999 80.3818 169.047 80.3818 169.094 80.3894H169.489L171.03 80.354L176.689 80.2537C181.469 80.1652 188.072 79.9881 195.366 79.7934C202.66 79.5987 209.264 79.4511 214.044 79.4157C216.404 79.4157 218.369 79.4157 219.703 79.4157H221.243H221.645Z" fill="white"/>
<path d="M213.955 88.2853C212.237 88.4408 210.511 88.4921 208.786 88.4387C207.061 88.4921 205.335 88.4408 203.616 88.2853C205.335 88.1333 207.061 88.0821 208.786 88.1319C210.511 88.0821 212.237 88.1333 213.955 88.2853Z" fill="white"/>
<path d="M215.856 56.7077C215.885 56.7844 209.47 59.4576 201.521 62.6738C193.572 65.89 187.105 68.4394 187.069 68.3567C187.034 68.2741 193.454 65.6068 201.403 62.3906C209.352 59.1744 215.82 56.6309 215.856 56.7077Z" fill="white"/>
<path d="M202.849 58.7318C202.885 58.8144 196.771 61.5054 189.2 64.7452C181.628 67.985 175.467 70.552 175.432 70.4753C175.397 70.3986 181.51 67.7076 189.082 64.4619C196.653 61.2162 202.814 58.6433 202.849 58.7318Z" fill="white"/>
<path d="M285.325 55.5923C285.361 55.669 278.94 58.3423 270.991 61.5585C263.042 64.7747 256.574 67.3181 256.539 67.2414C256.503 67.1647 262.924 64.4914 270.879 61.2752C278.834 58.059 285.278 55.5097 285.325 55.5923Z" fill="white"/>
<path d="M272.295 57.6046C272.331 57.6873 266.217 60.3782 258.651 63.618C251.086 66.8578 244.913 69.4249 244.878 69.3482C244.843 69.2714 250.956 66.5805 258.528 63.3348C266.099 60.0891 272.295 57.5515 272.295 57.6046Z" fill="white"/>
<path d="M286.582 79.3862C286.582 79.4688 273.818 79.6163 258.073 79.7108C242.329 79.8052 229.564 79.8111 229.564 79.7108C229.564 79.6104 242.323 79.4806 258.073 79.3921C273.824 79.3036 286.582 79.3213 286.582 79.3862Z" fill="white"/>
<path d="M300.716 87.7955C300.716 87.8781 297.14 87.9784 292.72 88.0197C288.299 88.0611 284.723 88.0197 284.723 87.943C284.723 87.8663 288.299 87.7542 292.72 87.7129C297.14 87.6716 300.716 87.707 300.716 87.7955Z" fill="white"/>
<path d="M56.309 83.4286C56.1964 83.4666 56.0794 83.4904 55.9608 83.4994L54.9635 83.6292C54.5268 83.6764 53.9957 83.7413 53.382 83.8476C52.7682 83.9538 52.066 84.0305 51.2988 84.1839C49.7586 84.4554 47.9351 84.8567 45.9405 85.3642C43.7798 85.9604 41.6507 86.6655 39.5612 87.4768C37.3423 88.3561 35.2828 89.318 33.4416 90.2681C31.6004 91.2182 30.0071 92.1742 28.7206 93.0299C28.0538 93.4371 27.4754 93.8502 26.9502 94.2102C26.425 94.5702 25.9942 94.8652 25.6401 95.1249L24.8199 95.715C24.7259 95.7876 24.6251 95.8508 24.5189 95.9038C24.5971 95.8164 24.6841 95.7373 24.7786 95.6678L25.5693 95.0363C25.9116 94.7649 26.3365 94.4462 26.8499 94.0745C27.3633 93.7027 27.9239 93.2896 28.6203 92.8942C29.9186 92.0149 31.5237 91.053 33.3413 90.0675C37.3205 87.9402 41.5352 86.2864 45.8992 85.1399C47.9056 84.6206 49.7409 84.237 51.2929 83.9951C52.066 83.8535 52.7683 83.7826 53.3879 83.7C54.0075 83.6174 54.5681 83.5643 54.9753 83.5348L55.9844 83.4581C56.0918 83.4406 56.2003 83.4307 56.309 83.4286Z" fill="white"/>
<path d="M161.694 69.5075C161.694 69.5075 161.523 69.2774 161.104 68.9587C160.538 68.5253 159.865 68.254 159.156 68.1738C158.094 68.0852 157.025 68.1994 156.005 68.5102C152.412 69.4151 149.074 71.1333 146.25 73.5322C144.846 74.7124 144.102 75.5799 144.061 75.5386C144.204 75.3132 144.37 75.1036 144.556 74.9131C145.044 74.371 145.561 73.8549 146.103 73.3669C147.905 71.7612 149.953 70.4543 152.169 69.4957C153.385 68.9632 154.648 68.5425 155.94 68.2387C156.993 67.9324 158.096 67.8362 159.186 67.9555C159.926 68.0569 160.62 68.3752 161.18 68.8702C161.329 69.0037 161.462 69.1542 161.576 69.3187C161.67 69.4367 161.706 69.5016 161.694 69.5075Z" fill="white"/>
<path d="M351.691 53.9223C350.868 54.1211 350.023 54.2084 349.177 54.1819C348.184 54.1522 347.196 54.0297 346.226 53.816C344.946 53.515 343.69 53.1205 342.467 52.6358C341.104 52.1224 339.652 51.4555 338.083 50.8005L335.634 49.815C334.79 49.4786 333.899 49.1894 333.002 48.859C329.063 47.5251 325.046 46.4313 320.975 45.5838C313.573 44.043 306.057 43.1114 298.503 42.7984C297.051 42.7217 295.741 42.7217 294.584 42.6922H291.634L289.769 42.7335H289.114C289.168 42.7231 289.225 42.7231 289.279 42.7335L289.763 42.6981L291.634 42.5977L294.584 42.5446C295.765 42.5446 297.051 42.5446 298.503 42.6154C306.078 42.8627 313.617 43.771 321.034 45.33C325.114 46.1682 329.137 47.2641 333.078 48.6111C333.975 48.9416 334.849 49.2367 335.716 49.5789L338.165 50.588C339.735 51.2667 341.181 51.9276 342.532 52.4528C343.738 52.939 344.979 53.3335 346.244 53.6331C347.201 53.8623 348.177 54.0006 349.159 54.0462C349.78 54.0675 350.401 54.0458 351.018 53.9813L351.496 53.9223H351.691Z" fill="#263238"/>
<path d="M67.7634 54.7366C65.4029 41.8246 63.8154 39.8418 62.4817 35.3982C61.148 30.9545 59.0295 28.0688 56.3916 27.0479C54.6212 26.3633 45.728 23.1589 42.6358 24.2212C39.6104 25.2968 36.7302 26.7439 34.0612 28.5291C31.9901 29.9029 30.4204 31.9115 29.5881 34.2533L24.8671 47.5725L33.1761 55.8342L37.3424 46.9823L41.8627 57.6046L41.1959 68.3154L67.1201 75.2907C69.457 71.5139 69.1029 62.0601 67.7634 54.7366Z" fill="#00674F"/>
<g opacity="0.2">
<path d="M61.03 40.6503C59.8852 47.3718 59.7022 48.3219 58.5574 55.0199C58.162 57.3272 57.0113 60.9211 55.3707 62.5971C54.155 63.8304 52.963 65.0166 51.2693 65.4179C49.6996 65.7897 47.3096 65.831 45.8343 65.1818C44.359 64.5327 43.0961 61.6411 43.7039 60.1598C45.9051 60.632 46.5837 61.3401 48.478 60.1598C50.1304 59.1094 52.4791 56.7843 53.3761 55.0435C57.1588 47.7259 58.2033 47.4662 61.0477 40.6503" fill="black"/>
</g>
<path d="M42.2463 53.6744C41.827 53.1095 41.4446 52.5181 41.1015 51.904L38.4341 47.5194L35.6959 43.2055C35.2877 42.6251 34.919 42.0179 34.5924 41.3879C34.7344 41.5171 34.8593 41.6638 34.9642 41.8246C35.1884 42.1138 35.5012 42.5446 35.873 43.0816C36.6283 44.1556 37.6433 45.6605 38.6938 47.3541C39.7442 49.0478 40.6589 50.6175 41.2903 51.7683C41.609 52.3584 41.8804 52.8069 42.0221 53.1374C42.1244 53.3036 42.2 53.4848 42.2463 53.6744Z" fill="#263238"/>
<path d="M60.3396 65.7306C60.1517 65.8283 59.9538 65.9055 59.7494 65.9608C59.5076 66.0417 59.2613 66.1086 59.0118 66.1614C58.6857 66.2498 58.3546 66.3188 58.0204 66.368C57.1553 66.5219 56.2788 66.6028 55.4002 66.6099C54.3221 66.6118 53.2459 66.519 52.184 66.3326C51.1232 66.1328 50.0824 65.8385 49.0741 65.4533C48.2582 65.1346 47.4689 64.7518 46.7136 64.3084C46.3831 64.1255 46.1234 63.9248 45.8638 63.7655C45.6489 63.6258 45.442 63.4741 45.2441 63.3111C45.0642 63.1876 44.8998 63.043 44.7543 62.8803C44.7897 62.8331 45.5215 63.4055 46.8198 64.1196C47.5809 64.5299 48.3696 64.8868 49.1803 65.1877C51.1725 65.9303 53.28 66.3159 55.4061 66.3267C56.2725 66.3276 57.138 66.2705 57.9968 66.1555C59.4367 65.949 60.3219 65.6716 60.3396 65.7306Z" fill="#263238"/>
<path d="M49.9356 45.6132C49.8884 45.8434 47.103 51.3906 47.103 51.3906L33.955 44.4625L32.6154 38.7973C32.3944 37.8875 31.822 37.1024 31.0235 36.6136C30.225 36.1248 29.2655 35.9721 28.3547 36.1889L24.4776 37.7764C24.3177 37.8389 24.1758 37.94 24.0646 38.0708C23.9533 38.2016 23.8763 38.3579 23.8403 38.5258C23.7871 38.8091 23.8403 39.1159 24.3537 39.051C25.3156 38.9743 27.3043 38.7619 27.3043 38.7619L26.3896 41.9899C26.1482 42.8358 26.2411 43.7422 26.6493 44.5215L27.2394 45.6368L28.52 47.7082H28.4904C28.4904 47.7082 41.2726 60.8385 48.4485 61.6942C52.7623 62.2076 57.6486 50.1159 57.6486 50.1159L49.9356 45.6132Z" fill="#B78876"/>
<path d="M27.2099 38.9802C27.2099 38.9802 27.3102 38.8445 27.5286 38.697C27.8209 38.4933 28.1696 38.3861 28.5259 38.3901C28.7119 38.4005 28.8917 38.4608 29.0464 38.5647C29.2011 38.6685 29.325 38.812 29.4052 38.9802C29.5291 39.2458 29.4465 39.4228 29.4052 39.411C29.3638 39.3992 29.4052 39.2458 29.2635 39.0451C29.1765 38.9177 29.0617 38.8117 28.9278 38.7351C28.7939 38.6584 28.6444 38.6131 28.4905 38.6025C28.1711 38.6071 27.8574 38.688 27.5758 38.8386C27.3928 38.9271 27.2276 39.0038 27.2099 38.9802Z" fill="#AA6550"/>
<path d="M28.8681 40.9926C28.8681 40.9926 28.7796 40.8863 28.6557 40.727C28.4973 40.5237 28.2873 40.3666 28.0475 40.2721C27.8077 40.1777 27.547 40.1493 27.2925 40.19C27.0918 40.19 26.9679 40.2608 26.9561 40.2372C26.9443 40.2136 27.0505 40.1251 27.263 40.0543C27.5438 39.9723 27.8438 39.9857 28.1161 40.0925C28.3884 40.1993 28.6176 40.3934 28.7678 40.6444C28.874 40.845 28.8858 40.9867 28.8681 40.9926Z" fill="#AA6550"/>
<path d="M52.662 28.1042L49.1213 44.9759L58.5633 50.647L62.1867 40.2785C62.1867 40.2785 60.6641 27.6852 52.662 28.1042Z" fill="#00674F"/>
<path d="M57.7489 28.3993C57.7489 28.3993 57.6722 28.4642 57.507 28.5527C57.3417 28.6412 57.1057 28.771 56.7929 28.9304C56.1674 29.249 55.2468 29.6975 54.096 30.2109C51.1044 31.5785 47.9546 32.5696 44.7189 33.1616C41.4628 33.7434 38.1206 33.6308 34.911 32.8311C33.9504 32.5788 33.0143 32.241 32.1138 31.822C31.7893 31.6863 31.5237 31.5387 31.388 31.4561C31.3033 31.4139 31.2224 31.3645 31.146 31.3086C31.4916 31.4255 31.8305 31.5614 32.161 31.7158C33.0782 32.0863 34.0209 32.39 34.9818 32.6246C38.1671 33.3538 41.4666 33.434 44.6835 32.8606C47.8976 32.2689 51.0337 31.3127 54.0311 30.0103C55.2114 29.5264 56.1143 29.1074 56.7575 28.8301C57.0781 28.6647 57.4093 28.5208 57.7489 28.3993Z" fill="#EBEBEB"/>
<path d="M60.2333 30.2641C60.1525 30.3371 60.0634 30.4005 59.9678 30.4529L59.1888 30.9545C58.777 31.2242 58.3516 31.4724 57.9141 31.6981C57.4066 31.9636 56.8401 32.2882 56.1733 32.5833L55.1465 33.0554C54.7865 33.2206 54.397 33.3563 54.0016 33.5157C53.2167 33.8402 52.3434 34.1058 51.4346 34.4008C47.45 35.6026 43.2855 36.096 39.1304 35.8585C38.1744 35.7817 37.2656 35.7286 36.4276 35.5929C36.0028 35.528 35.5956 35.4867 35.2061 35.4159L34.0907 35.1916C33.3826 35.0677 32.7512 34.8788 32.1964 34.7372C31.7194 34.622 31.2486 34.4821 30.786 34.3182L29.9068 34.0114C29.8015 33.9833 29.7003 33.9417 29.6058 33.8874C29.7146 33.8934 29.822 33.9153 29.9245 33.9523L30.8214 34.2002C31.205 34.3182 31.6771 34.454 32.2378 34.572C32.7984 34.69 33.418 34.8729 34.138 34.9792L35.2474 35.1798C35.631 35.2506 36.0382 35.286 36.4276 35.3391C37.2656 35.4631 38.198 35.5103 39.1127 35.5752C43.237 35.7848 47.367 35.296 51.3283 34.1294C52.2312 33.8461 53.0987 33.5924 53.8836 33.2737C54.2731 33.1203 54.6626 32.9904 55.0225 32.837L56.0553 32.3826C56.7221 32.1112 57.2886 31.7925 57.8256 31.5446C58.3626 31.2968 58.7757 31.0548 59.118 30.8542L59.9324 30.4057C60.0259 30.3452 60.1271 30.2976 60.2333 30.2641Z" fill="#EBEBEB"/>
<path d="M58.5397 50.647C58.2752 50.5353 58.0188 50.4051 57.7725 50.2575L55.6953 49.0773L48.6138 44.9877L48.5252 44.9346V44.8343C48.779 43.5773 49.0504 42.22 49.3337 40.8273C49.7586 38.7265 50.1717 36.7319 50.514 34.9261C50.7087 34.0173 50.868 33.1557 51.0451 32.3354C51.2052 31.5771 51.4589 30.8417 51.8004 30.146C52.2951 29.1128 53.1707 28.3112 54.2436 27.9095C54.534 27.8095 54.8393 27.7596 55.1465 27.7619C55.252 27.7547 55.358 27.7667 55.4592 27.7973C55.0566 27.8109 54.6585 27.8865 54.279 28.0216C53.2653 28.4491 52.4484 29.2407 51.9893 30.2405C51.6702 30.9279 51.4345 31.651 51.287 32.3944C51.1277 33.2029 50.9625 34.0704 50.7854 34.9733C50.4195 36.8027 50.0183 38.7973 49.6052 40.8745C49.3219 42.2731 49.0445 43.6245 48.7908 44.8815L48.72 44.7281L55.7602 48.9121L57.7961 50.1513C58.0574 50.2955 58.3061 50.4613 58.5397 50.647Z" fill="#263238"/>
<path d="M61.4254 39.7769C61.4774 40.3019 61.4615 40.8315 61.3782 41.3525C61.2546 42.6137 61.0296 43.8629 60.7055 45.088C60.3815 46.3145 59.9632 47.514 59.4544 48.676C59.2697 49.1702 59.0218 49.6383 58.7167 50.0687C58.8612 49.565 59.0406 49.072 59.2538 48.5934C60.1495 46.2454 60.7905 43.8079 61.1658 41.323C61.2195 40.8027 61.3062 40.2862 61.4254 39.7769Z" fill="#263238"/>
<path d="M10.232 133.625L10.1257 142.63C10.1257 142.63 0.93157 145.551 0.754532 147.215L18.2105 148.041L18.954 134.014L10.232 133.625Z" fill="#455A64"/>
<path d="M15.5903 142.128C15.756 142.188 15.894 142.306 15.9778 142.46C16.0617 142.615 16.0855 142.795 16.0447 142.966C15.9927 143.135 15.8778 143.276 15.7239 143.362C15.57 143.448 15.389 143.471 15.2185 143.427C15.0436 143.362 14.8983 143.236 14.8102 143.072C14.7221 142.908 14.6973 142.717 14.7405 142.536C14.8147 142.367 14.9513 142.233 15.1218 142.163C15.2923 142.092 15.4835 142.091 15.6552 142.158" fill="#E0E0E0"/>
<path d="M18.2105 148.041V146.625L1.46267 146.36C1.46267 146.36 0.666006 146.661 0.73092 147.215L18.2105 148.041Z" fill="#E0E0E0"/>
<path d="M9.84838 142.53C9.84838 142.612 10.2733 142.671 10.6746 142.966C11.0758 143.261 11.2647 143.627 11.3709 143.598C11.4771 143.568 11.3709 143.073 10.8457 142.724C10.3205 142.376 9.83068 142.447 9.84838 142.53Z" fill="#263238"/>
<path d="M7.97766 143.197C7.97766 143.279 8.31993 143.444 8.56779 143.816C8.81564 144.188 8.90416 144.577 8.99268 144.577C9.0812 144.577 9.15201 144.099 8.80384 143.639C8.45566 143.179 7.98356 143.12 7.97766 143.197Z" fill="#263238"/>
<path d="M6.83283 145.339C6.90955 145.339 7.05118 144.943 6.83283 144.465C6.61448 143.987 6.2427 143.787 6.20729 143.875C6.17189 143.964 6.40204 144.206 6.55547 144.601C6.7089 144.996 6.73841 145.327 6.83283 145.339Z" fill="#263238"/>
<path d="M10.0962 140.476C10.1317 140.559 10.527 140.476 11.0109 140.511C11.4948 140.547 11.8548 140.742 11.902 140.671C11.9492 140.6 11.607 140.275 11.0404 140.216C10.4739 140.157 10.0608 140.411 10.0962 140.476Z" fill="#263238"/>
<g opacity="0.3">
<path d="M10.2142 135.407L10.1906 137.012L18.777 137.342L18.8537 135.897L10.2142 135.407Z" fill="black"/>
</g>
<path d="M10.1552 138.658C10.437 138.752 10.7392 138.766 11.0286 138.7C11.3464 138.659 11.6578 138.577 11.9551 138.458C12.1328 138.392 12.3045 138.311 12.4685 138.216C12.5705 138.168 12.6641 138.104 12.7459 138.027C12.8051 137.969 12.843 137.892 12.8537 137.81C12.8644 137.728 12.8472 137.644 12.8049 137.573C12.7643 137.512 12.7102 137.461 12.6467 137.424C12.5833 137.387 12.5122 137.365 12.439 137.36C12.328 137.354 12.2168 137.364 12.1085 137.39C11.9211 137.426 11.7374 137.479 11.5597 137.549C11.2594 137.67 10.9789 137.835 10.7277 138.039C10.3028 138.399 10.1375 138.712 10.1788 138.729C10.2201 138.747 10.4267 138.499 10.8516 138.21C11.1015 138.044 11.3711 137.909 11.6541 137.809C11.8197 137.752 11.9894 137.709 12.1617 137.679C12.3505 137.638 12.5098 137.643 12.5511 137.726C12.5924 137.809 12.5511 137.773 12.5511 137.826C12.49 137.881 12.4227 137.929 12.3505 137.968C12.1912 138.057 12.0318 138.139 11.8784 138.21C11.6003 138.33 11.312 138.425 11.0168 138.493C10.7263 138.53 10.4385 138.585 10.1552 138.658Z" fill="#263238"/>
<path d="M10.2792 138.788C10.4546 138.547 10.5477 138.255 10.5447 137.956C10.5775 137.634 10.5535 137.308 10.4739 136.994C10.4264 136.807 10.3591 136.625 10.2733 136.451C10.2318 136.334 10.1605 136.229 10.0663 136.147C9.9722 136.066 9.85846 136.01 9.73625 135.985C9.65916 135.982 9.58288 136.002 9.51682 136.042C9.45076 136.082 9.3978 136.14 9.36447 136.209C9.31238 136.309 9.27652 136.417 9.25824 136.528C9.22872 136.724 9.22872 136.923 9.25824 137.118C9.29053 137.448 9.40408 137.764 9.58872 138.039C9.90738 138.511 10.2615 138.629 10.2674 138.599C10.2733 138.57 10.0077 138.381 9.76575 137.933C9.62734 137.676 9.54677 137.392 9.5297 137.101C9.52021 136.93 9.5341 136.76 9.57101 136.593C9.60642 136.41 9.68314 136.263 9.75395 136.286C9.82477 136.31 9.9782 136.434 10.0431 136.587C10.1231 136.742 10.1883 136.904 10.2379 137.071C10.3226 137.356 10.3663 137.653 10.3677 137.95C10.3205 138.458 10.2142 138.771 10.2792 138.788Z" fill="#263238"/>
<path d="M45.8166 68.4098C45.8166 68.4098 18.5409 56.9614 10.1021 56.4834C4.79099 56.1765 0.801737 59.5756 1.52169 65.052C1.88167 67.7961 9.41758 99.8694 9.41758 99.8694L20.9014 94.6291L15.3779 72.4463L37.8027 83.34L45.8166 68.4098Z" fill="#263238"/>
<path d="M11.9492 66.8342C11.8607 66.9109 12.7636 68.0734 13.7196 69.6137C14.6756 71.1539 15.3129 72.4817 15.4192 72.4404C15.5254 72.3991 15.0356 70.9769 14.0619 69.4071C13.0882 67.8374 12.0495 66.7634 11.9492 66.8342Z" fill="#455A64"/>
<path d="M9.71855 68.1088C9.65954 68.2092 11.0345 69.0825 12.6692 70.2746C14.3038 71.4667 15.5313 72.5112 15.6198 72.4286C15.7083 72.3459 14.5281 71.1244 12.8875 69.9441C11.247 68.7639 9.76576 68.0144 9.71855 68.1088Z" fill="#455A64"/>
<path d="M67.0906 75.2907C67.0906 75.2907 63.662 79.7107 60.3927 80.9205C56.2618 82.4371 25.8939 96.7713 25.8939 96.7713C25.8939 96.7713 20.3821 137.72 20.8188 136.009L8.10156 135.702L9.48246 97.9869C9.6477 93.1597 13.5189 87.6125 17.6793 85.1458L45.8165 68.4098L67.0906 75.2907Z" fill="#263238"/>
<path d="M9.24055 104.891C9.28093 104.721 9.29879 104.547 9.29367 104.372C9.29367 103.994 9.34087 103.505 9.37038 102.891C9.44263 101.075 9.61204 99.265 9.87789 97.4676C10.2504 94.8113 11.1925 92.2669 12.6397 90.0084C13.5352 88.7101 14.6399 87.5694 15.909 86.6329C17.2861 85.6295 18.7271 84.7168 20.2228 83.9006C26.3424 80.3953 31.624 76.8191 35.5307 74.3701C37.4781 73.1308 39.0714 72.1453 40.1573 71.4726L41.4201 70.6936C41.5729 70.6093 41.7172 70.5105 41.8509 70.3985C41.6884 70.4574 41.5322 70.5326 41.3847 70.6228C41.0838 70.7821 40.6412 71.0182 40.0806 71.3368C38.9534 71.9683 37.3483 72.9243 35.3595 74.1281C31.4116 76.524 26.1005 80.0589 20.0163 83.5702C18.5052 84.3958 17.0503 85.3204 15.6611 86.3378C14.3603 87.3028 13.2312 88.4798 12.321 89.8196C10.8653 92.1369 9.93654 94.7458 9.60053 97.4617C9.35748 99.2713 9.23133 101.095 9.22285 102.92C9.22285 103.511 9.22285 104.024 9.22285 104.408C9.21429 104.569 9.22022 104.731 9.24055 104.891Z" fill="#455A64"/>
<path d="M55.8664 79.6045C55.6307 79.2391 55.3705 78.8901 55.0874 78.56C54.5012 77.7076 54.0943 76.7449 53.8915 75.7305C53.6886 74.7161 53.6939 73.671 53.9072 72.6587C54.0383 72.2433 54.1408 71.8194 54.2141 71.39C53.9275 71.7317 53.7254 72.136 53.6239 72.5702C53.3217 73.6181 53.2772 74.7235 53.4941 75.7923C53.7059 76.8611 54.1759 77.862 54.8632 78.7075C55.4002 79.3862 55.8428 79.6399 55.8664 79.6045Z" fill="#455A64"/>
<path d="M12.7754 135.702C12.7962 135.635 12.8081 135.565 12.8108 135.495C12.8108 135.33 12.858 135.129 12.8875 134.876C12.9524 134.286 13.035 133.507 13.1413 132.515C13.3478 130.414 13.6429 127.422 14.0088 123.74C14.1799 121.887 14.3746 119.857 14.5989 117.679C14.8231 115.502 15.0297 113.171 15.189 110.716C15.3483 108.261 15.608 105.694 16.0565 103.044C16.4945 100.326 17.2881 97.6773 18.417 95.1661C19.5959 92.6848 21.1527 90.4014 23.0318 88.3974C24.7926 86.5332 26.7205 84.8345 28.7914 83.3223C32.3407 80.8228 36.0268 78.5236 39.8327 76.4355C43.0607 74.5825 45.6336 73.001 47.3391 71.8089C48.2007 71.2188 48.8498 70.7408 49.2865 70.4044L49.7763 70.0209C49.8865 69.9343 49.9396 69.8871 49.9356 69.8792C49.87 69.9058 49.8084 69.9416 49.7527 69.9855L49.2393 70.3395C48.7908 70.6523 48.124 71.1126 47.2565 71.685C45.5215 72.8299 42.9368 74.3701 39.6911 76.1936C35.8541 78.2512 32.1417 80.5331 28.5731 83.0272C26.4745 84.5431 24.5225 86.2521 22.7426 88.1318C20.83 90.1627 19.247 92.4804 18.0511 95.0009C16.9175 97.5432 16.1238 100.224 15.6906 102.974C15.248 105.629 15.0238 108.208 14.8408 110.645C14.6579 113.082 14.475 115.431 14.2507 117.609C14.0265 119.786 13.8848 121.816 13.7255 123.675C13.4127 127.363 13.1354 130.355 12.9878 132.462C12.9092 133.477 12.8501 134.264 12.8108 134.823C12.8108 135.076 12.7813 135.283 12.7695 135.442C12.7577 135.602 12.7636 135.702 12.7754 135.702Z" fill="#455A64"/>
<path d="M42.7361 3.46051C42.3078 2.35761 41.5004 1.44347 40.4589 0.88215C39.4174 0.320833 38.2099 0.14909 37.0532 0.397756C36.5442 0.583926 36.012 0.699101 35.4717 0.74003C34.8167 0.62781 34.1729 0.457981 33.5478 0.232521C32.8395 0.11772 32.1138 0.270386 31.5118 0.660835C30.9098 1.05128 30.4744 1.65162 30.2903 2.34517C29.736 2.21048 29.159 2.19825 28.5995 2.30934C28.0399 2.42043 27.5114 2.65216 27.0505 2.98841C26.5987 3.33832 26.2778 3.83022 26.1397 4.3848C26.0016 4.93938 26.0543 5.5243 26.2893 6.04527C26.5194 6.47606 26.8794 6.81833 27.1096 7.26093C27.4577 7.98678 27.2984 8.86017 27.5404 9.62143C27.7675 10.175 28.1458 10.6535 28.6322 11.002C29.1185 11.3506 29.6931 11.5552 30.2903 11.5925C31.4919 11.6542 32.694 11.4839 33.8311 11.0908" fill="#263238"/>
<path d="M37.242 26.8C37.0945 25.6552 37.0001 24.8526 37.0001 24.8526C37.0001 24.8526 33.1938 24.8526 31.6889 20.1316C30.9277 17.7711 30.4202 13.829 30.1133 10.5715C30.0462 9.87762 30.1203 9.1773 30.3312 8.51279C30.5421 7.84829 30.8853 7.23338 31.3402 6.70511C31.7952 6.17684 32.3523 5.74617 32.9782 5.43905C33.6041 5.13193 34.2856 4.95473 34.9818 4.91813L45.0848 4.39291L45.3031 5.95675L47.9646 25.3837C48.0608 26.0881 48.0169 26.8045 47.8353 27.4918C47.6537 28.1791 47.338 28.8237 46.9064 29.3886C46.4748 29.9535 45.9358 30.4274 45.3203 30.7833C44.7049 31.1391 44.0252 31.3698 43.3203 31.462C42.6149 31.5565 41.8977 31.5108 41.21 31.3274C40.5223 31.144 39.8776 30.8267 39.3128 30.3935C38.7481 29.9604 38.2744 29.4199 37.9191 28.8033C37.5637 28.1866 37.3336 27.5058 37.242 26.8Z" fill="#B78876"/>
<path d="M31.5237 13.351C31.5486 13.5124 31.635 13.6579 31.7649 13.7569C31.8947 13.8559 32.0579 13.9008 32.2201 13.8821C32.3004 13.8771 32.3788 13.8557 32.4505 13.8192C32.5223 13.7828 32.5858 13.7321 32.6372 13.6702C32.6886 13.6083 32.7268 13.5365 32.7494 13.4593C32.7721 13.3821 32.7787 13.3011 32.7689 13.2212C32.7469 13.0585 32.6612 12.9111 32.5306 12.8115C32.4001 12.712 32.2353 12.6683 32.0725 12.6901C31.9922 12.6951 31.9138 12.7165 31.8421 12.753C31.7704 12.7894 31.7068 12.8402 31.6554 12.9021C31.604 12.964 31.5658 13.0357 31.5432 13.1129C31.5205 13.1901 31.5139 13.2712 31.5237 13.351Z" fill="#263238"/>
<path d="M31.2641 12.4776C31.3526 12.5425 31.7657 12.1236 32.4443 12.0173C33.123 11.9111 33.6246 12.1708 33.7131 12.0764C33.8016 11.9819 33.6423 11.8993 33.4062 11.7813C33.0862 11.6243 32.7247 11.5726 32.3735 11.6338C32.0261 11.6857 31.705 11.8493 31.4588 12.1C31.2641 12.2888 31.2169 12.4481 31.2641 12.4776Z" fill="#263238"/>
<path d="M37.8499 12.277C37.8747 12.438 37.9614 12.5829 38.0914 12.681C38.2214 12.7791 38.3846 12.8226 38.5462 12.8022C38.6265 12.7979 38.705 12.7772 38.777 12.7415C38.849 12.7057 38.9129 12.6557 38.9648 12.5943C39.0168 12.533 39.0556 12.4617 39.079 12.3848C39.1024 12.3079 39.1099 12.2271 39.1009 12.1472C39.0761 11.9858 38.9896 11.8403 38.8598 11.7413C38.73 11.6423 38.5668 11.5974 38.4046 11.6161C38.3238 11.6203 38.2447 11.6412 38.1723 11.6773C38.0999 11.7134 38.0356 11.764 37.9836 11.826C37.9316 11.888 37.8929 11.96 37.8699 12.0376C37.8468 12.1152 37.84 12.1967 37.8499 12.277Z" fill="#263238"/>
<path d="M37.8381 11.557C37.9266 11.6279 38.3397 11.203 39.0183 11.1026C39.697 11.0023 40.1986 11.2502 40.2871 11.1558C40.3756 11.0613 40.2163 10.9846 39.9802 10.8607C39.6586 10.7089 39.2987 10.6575 38.9475 10.7132C38.6013 10.7691 38.2814 10.9321 38.0328 11.1794C37.8381 11.3682 37.7968 11.5216 37.8381 11.557Z" fill="#263238"/>
<path d="M36.2034 16.8918C35.8333 16.8419 35.4582 16.8419 35.0881 16.8918C34.9169 16.8918 34.7517 16.8918 34.7045 16.7797C34.6502 16.6088 34.6502 16.4253 34.7045 16.2544C34.7989 15.8178 34.8992 15.3575 35.0054 14.8795C35.2936 13.7063 35.4909 12.5127 35.5956 11.3092C35.2089 12.4642 34.9149 13.6482 34.7163 14.8499C34.6219 15.3338 34.5274 15.7942 34.4448 16.2367C34.3624 16.4554 34.3624 16.6967 34.4448 16.9154C34.4793 16.9713 34.5258 17.0188 34.5809 17.0546C34.636 17.0903 34.6984 17.1133 34.7635 17.1219C34.8615 17.1343 34.9606 17.1343 35.0585 17.1219C35.4484 17.0939 35.833 17.0166 36.2034 16.8918Z" fill="#263238"/>
<path d="M37.0001 24.8526C39.2808 24.5252 41.4259 23.5712 43.1964 22.0967C43.1964 22.0967 42.146 25.6847 37.242 25.9856L37.0001 24.8526Z" fill="#AA6550"/>
<path d="M38.2393 17.0393C38.1272 17.0393 38.2393 17.7711 37.7082 18.3848C37.1771 18.9986 36.3863 19.0399 36.3922 19.1402C36.3981 19.2405 36.587 19.2582 36.9175 19.211C37.3428 19.1538 37.7328 18.9441 38.0151 18.6209C38.2915 18.3147 38.4357 17.9117 38.4164 17.4996C38.3987 17.1928 38.2865 17.0275 38.2393 17.0393Z" fill="#263238"/>
<path d="M37.2479 8.97228C37.3423 9.14342 37.9974 8.97229 38.7941 8.91918C39.5907 8.86606 40.2576 9.00179 40.3343 8.82475C40.411 8.64772 40.234 8.58871 39.9507 8.45298C39.5751 8.28907 39.1667 8.21392 38.7574 8.23337C38.348 8.25281 37.9486 8.36633 37.5902 8.56511C37.3305 8.72444 37.2066 8.88967 37.2479 8.97228Z" fill="#263238"/>
<path d="M31.1991 10.5066C31.3408 10.6365 31.7893 10.4063 32.3263 10.3119C32.8633 10.2175 33.3649 10.2529 33.4475 10.0758C33.4829 9.99322 33.3826 9.8516 33.1583 9.74537C32.8565 9.61109 32.5203 9.57397 32.1964 9.63915C31.8733 9.69614 31.5761 9.853 31.3467 10.0876C31.1755 10.2765 31.1342 10.4417 31.1991 10.5066Z" fill="#263238"/>
<path d="M29.5822 8.44118C29.5822 8.44118 32.2555 9.34408 35.3241 7.29044C37.3364 5.94495 39.7796 5.10107 40.3874 5.46695C40.9952 5.83283 41.3906 8.0281 43.6036 8.41758C43.6036 8.41758 43.9931 12.6665 45.6631 12.3006C46.8434 12.041 46.1588 7.35535 45.6631 4.68208C45.5596 4.16524 45.286 3.69793 44.886 3.35462C44.486 3.01131 43.9826 2.81176 43.4561 2.78777L40.3461 2.66385L36.4631 3.74968L32.2968 4.88272L29.1219 6.2105L29.5822 8.44118Z" fill="#263238"/>
<path d="M45.2914 10.5715C45.3504 10.5302 47.9292 9.17294 48.4072 11.9878C48.8852 14.8027 45.9641 14.6965 45.9405 14.6198C45.9169 14.5431 45.2914 10.5715 45.2914 10.5715Z" fill="#B78876"/>
<path d="M46.6191 13.4042C46.6191 13.4042 46.6781 13.4337 46.7667 13.4573C46.8909 13.4868 47.0218 13.4678 47.1325 13.4042C47.293 13.2575 47.4124 13.0714 47.4786 12.8644C47.5449 12.6573 47.5558 12.4365 47.5102 12.2239C47.4761 11.9819 47.3895 11.7503 47.2565 11.5453C47.2136 11.4623 47.1517 11.3907 47.0758 11.3363C46.9998 11.2819 46.9121 11.2464 46.8198 11.2325C46.7612 11.2275 46.7026 11.243 46.6542 11.2764C46.6058 11.3097 46.5704 11.3589 46.5542 11.4154C46.5542 11.4981 46.5542 11.5512 46.5542 11.563C46.5542 11.5748 46.4893 11.5217 46.4893 11.4036C46.4943 11.3313 46.5234 11.2628 46.5719 11.2089C46.6401 11.1376 46.7331 11.0954 46.8316 11.0909C46.9516 11.0931 47.069 11.1263 47.1724 11.1874C47.2758 11.2484 47.3617 11.3351 47.4217 11.439C47.5832 11.6619 47.6866 11.9215 47.7227 12.1944C47.7812 12.4428 47.7642 12.7031 47.6737 12.9418C47.5833 13.1805 47.4236 13.3867 47.2152 13.534C47.1432 13.5681 47.0646 13.5858 46.985 13.5858C46.9054 13.5858 46.8268 13.5681 46.7549 13.534C46.6368 13.475 46.6132 13.416 46.6191 13.4042Z" fill="#AA6550"/>
<path d="M30.9336 1.30655C30.9336 1.30655 31.028 1.45999 31.2287 1.68424C31.516 2.00227 31.8825 2.23847 32.2909 2.36878C32.8976 2.56477 33.5459 2.59332 34.1675 2.4514C34.9404 2.26355 35.6995 2.023 36.4395 1.73145C37.2056 1.42975 38.024 1.28331 38.8472 1.30065C39.5434 1.32581 40.2021 1.62234 40.6825 2.12683C41.0097 2.45609 41.2085 2.8914 41.2431 3.35429C41.2676 3.52219 41.2387 3.69355 41.1605 3.8441C41.131 3.8441 41.1605 3.66705 41.1251 3.36609C41.0515 2.94799 40.8444 2.56498 40.535 2.27436C40.0802 1.8386 39.477 1.59182 38.8472 1.58391C38.0614 1.58456 37.2827 1.73268 36.5516 2.0206C35.7993 2.31989 35.0236 2.55675 34.2324 2.72876C33.5644 2.86695 32.871 2.81376 32.2319 2.57532C31.798 2.41602 31.4205 2.13286 31.146 1.76095C30.9336 1.4895 30.9336 1.31246 30.9336 1.30655Z" fill="#455A64"/>
<path d="M40.4405 4.00342C40.4405 4.00342 40.2989 3.8559 40.0038 3.64935C39.583 3.39184 39.0986 3.25695 38.6052 3.25987C37.8571 3.25707 37.1196 3.43739 36.4572 3.78508C35.6292 4.23223 34.7738 4.62644 33.896 4.96533C33.0632 5.22382 32.1861 5.30849 31.3192 5.21408C30.4523 5.11968 29.614 4.84822 28.8563 4.41652C28.398 4.15862 27.9787 3.83671 27.6112 3.46051C27.4681 3.33262 27.3483 3.18088 27.2571 3.01201C27.7796 3.47381 28.3492 3.8793 28.9566 4.22178C30.4489 5.00495 32.1897 5.16821 33.8016 4.67617C34.6669 4.32612 35.5139 3.93219 36.3391 3.49591C37.0435 3.13948 37.8286 2.97271 38.617 3.01201C39.1528 3.03255 39.6687 3.22034 40.0923 3.54903C40.2472 3.66642 40.3674 3.82339 40.4405 4.00342Z" fill="#455A64"/>
<path d="M31.7007 51.9571L17.998 40.2785L13.4776 41.2994C13.4776 41.2994 18.24 51.2017 21.6863 54.831C21.6863 54.831 25.0913 59.3868 30.7093 57.4158C36.3273 55.4448 31.7007 51.9571 31.7007 51.9571Z" fill="#B78876"/>
<path d="M16.9594 27.4137H11.1348C10.915 27.4257 10.7007 27.4864 10.5073 27.5916C10.314 27.6968 10.1465 27.8438 10.0171 28.0218C9.88762 28.1998 9.7995 28.4045 9.75909 28.6208C9.71868 28.8372 9.72701 29.0599 9.78345 29.2726L15.6434 40.6798C15.7545 40.897 15.9236 41.0793 16.1319 41.2063C16.3402 41.3334 16.5796 41.4003 16.8237 41.3997H23.9052C24.0717 41.3812 24.231 41.3217 24.3689 41.2266C24.5068 41.1315 24.619 41.0038 24.6955 40.8548C24.7721 40.7058 24.8106 40.5401 24.8075 40.3727C24.8045 40.2052 24.7601 40.041 24.6782 39.8949L19.0307 28.7238C18.8385 28.3367 18.5437 28.0099 18.1784 27.7789C17.8132 27.5479 17.3915 27.4216 16.9594 27.4137Z" fill="#455A64"/>
<path d="M16.5699 28.1042H10.7453C10.5782 28.1031 10.4136 28.1452 10.2673 28.2262C10.1211 28.3072 9.99821 28.4245 9.91046 28.5668C9.82272 28.7091 9.77308 28.8716 9.76634 29.0386C9.7596 29.2056 9.79597 29.3716 9.87196 29.5205L15.5903 40.6798C15.7024 40.8962 15.8718 41.0777 16.0798 41.2046C16.2879 41.3316 16.5268 41.399 16.7705 41.3997H23.793C23.8895 41.3957 23.9834 41.3681 24.0667 41.3193C24.1499 41.2706 24.22 41.2021 24.2707 41.12C24.3213 41.0379 24.3511 40.9446 24.3573 40.8483C24.3636 40.752 24.3461 40.6556 24.3064 40.5677L18.653 29.4025C18.462 29.0129 18.1656 28.6846 17.7973 28.4551C17.4291 28.2256 17.0038 28.1041 16.5699 28.1042Z" fill="#263238"/>
<path d="M16.0742 32.7662L12.5335 34.1825L11.7781 37.0387L13.4836 41.2876L19.7212 42.2082L17.8918 40.3375L18.1219 38.7029C18.1219 38.7029 19.8923 38.154 19.8923 37.8885C19.8923 37.6229 19.674 36.7082 19.4084 36.6787C18.7098 36.8382 18.025 37.0533 17.3607 37.322C17.3607 37.322 19.5264 35.6047 19.4674 35.3273C19.4084 35.05 19.1724 34.3477 18.7416 34.2651C18.3108 34.1825 14.8054 35.8408 14.8054 35.8408L14.2153 37.1331L13.7196 35.0618C13.7196 35.0618 16.8414 34.1884 16.0742 32.7662Z" fill="#B78876"/>
<path d="M16.5227 39.47C16.5227 39.47 16.4342 39.352 16.3988 39.116C16.3615 38.8154 16.3955 38.5102 16.498 38.2252C16.6005 37.9402 16.7687 37.6834 16.9889 37.4754C17.1659 37.322 17.3017 37.2689 17.3135 37.2866C17.0441 37.5848 16.8231 37.9233 16.6584 38.2898C16.5534 38.674 16.5076 39.072 16.5227 39.47Z" fill="#AA6550"/>
<path d="M14.8349 38.8504C14.9041 38.5453 14.9514 38.2357 14.9766 37.9239C14.9909 37.5754 15.0504 37.2303 15.1536 36.8971C15.221 36.6831 15.3387 36.4884 15.4968 36.3293C15.655 36.1701 15.8489 36.0512 16.0624 35.9824C16.9063 35.6755 17.6735 35.4277 18.2282 35.2447C18.5248 35.1326 18.8309 35.0477 19.1429 34.991C18.8682 35.1477 18.5773 35.2744 18.2754 35.3687C17.7266 35.5811 16.9594 35.8526 16.1273 36.1535C15.933 36.2205 15.7557 36.3292 15.608 36.4722C15.477 36.6111 15.3765 36.776 15.3129 36.9561C15.2049 37.2751 15.1356 37.606 15.1064 37.9416C15.095 38.2627 15.0015 38.5756 14.8349 38.8504Z" fill="#AA6550"/>
<path d="M14.0206 38.2131C13.9647 37.9823 13.9647 37.7416 14.0206 37.5108C14.0855 37.1331 14.174 36.8381 14.2271 36.844C14.2825 37.0748 14.2825 37.3154 14.2271 37.5462C14.1622 37.9239 14.0737 38.219 14.0206 38.2131Z" fill="#AA6550"/>
<path d="M13.9261 30.2581C13.9261 30.4052 13.9697 30.549 14.0514 30.6712C14.1331 30.7935 14.2493 30.8888 14.3851 30.9451C14.521 31.0014 14.6705 31.0161 14.8147 30.9874C14.959 30.9587 15.0915 30.8879 15.1955 30.7839C15.2994 30.6799 15.3703 30.5474 15.399 30.4032C15.4276 30.259 15.4129 30.1095 15.3566 29.9736C15.3004 29.8377 15.2051 29.7216 15.0828 29.6399C14.9605 29.5582 14.8167 29.5146 14.6697 29.5146C14.5718 29.5138 14.4748 29.5325 14.3842 29.5696C14.2936 29.6067 14.2114 29.6614 14.1422 29.7306C14.073 29.7998 14.0182 29.8821 13.9811 29.9727C13.944 30.0632 13.9253 30.1603 13.9261 30.2581Z" fill="#FAFAFA"/>
</svg>
