<svg width="146" height="296" viewBox="0 0 146 296" fill="none" xmlns="http://www.w3.org/2000/svg">
<path d="M122.108 295.395L21.8815 294.935C16.0951 294.899 10.5588 292.571 6.48551 288.461C2.41222 284.351 0.134065 278.794 0.150139 273.007L1.21334 21.739C1.24724 15.95 3.57537 10.4106 7.68726 6.33547C11.7991 2.26034 17.3592 -0.017959 23.1483 0.000106623L123.375 0.460068C129.159 0.495955 134.693 2.82185 138.766 6.92863C142.839 11.0354 145.119 16.5885 145.106 22.3724L144.043 273.641C144.013 279.432 141.687 284.976 137.575 289.054C133.462 293.132 127.9 295.413 122.108 295.395Z" fill="#455A64"/>
<path d="M123.232 9.13151L103.8 9.04102C102.521 9.06482 101.303 9.59491 100.414 10.5151C99.5251 11.4353 99.0372 12.6704 99.0573 13.9498V17.4787C99.0673 18.1121 98.9523 18.7412 98.7189 19.3301C98.4854 19.919 98.1382 20.4561 97.6969 20.9107C97.2557 21.3652 96.7291 21.7283 96.1475 21.9791C95.5658 22.2299 94.9403 22.3636 94.3069 22.3724L56.424 22.199C55.1453 22.1615 53.9334 21.6194 53.0532 20.6911C52.1729 19.7628 51.6959 18.5239 51.7264 17.245V13.7161C51.7488 12.4456 51.27 11.2174 50.3936 10.2973C49.5173 9.37718 48.3138 8.83918 47.0438 8.79973H40.2122L23.2086 8.67154C19.1542 8.65149 15.2578 10.2424 12.3761 13.0944C9.4944 15.9464 7.86324 19.8261 7.8413 23.8805L6.80827 269.139C6.79023 273.193 8.38302 277.089 11.2365 279.969C14.0899 282.85 17.9704 284.479 22.0248 284.499L122.056 284.959C124.064 284.968 126.054 284.581 127.913 283.821C129.771 283.06 131.462 281.942 132.888 280.528C134.315 279.114 135.449 277.433 136.225 275.582C137.002 273.73 137.406 271.743 137.415 269.735L138.448 24.4837C138.457 22.4766 138.071 20.4873 137.311 18.6295C136.551 16.7717 135.433 15.0817 134.02 13.6561C132.607 12.2305 130.927 11.0972 129.076 10.3209C127.225 9.54455 125.239 9.1404 123.232 9.13151Z" fill="#FAFAFA"/>
<path d="M7.72067 53.3257H24.1135L38.7418 67.9616L23.5328 83.1706L7.8941 67.5243L7.72067 53.3257Z" fill="#EBEBEB"/>
<path d="M42.0822 61.5372L33.8632 53.3257H52.3522L42.0822 61.5372Z" fill="#EBEBEB"/>
<path d="M49.2682 68.2481L63.6628 53.8535H113.957C113.957 53.8535 121.656 88.2377 91.336 110.316L49.2682 68.2481Z" fill="#EBEBEB"/>
<path d="M43.1077 72.8327L27.7102 88.2377L70.3209 130.848L85.7184 114.931L43.1077 72.8327Z" fill="#EBEBEB"/>
<path d="M7.53218 96.9695L17.1839 86.9558L7.72069 77.4926L7.53218 96.9695Z" fill="#EBEBEB"/>
<path d="M22.9598 92.8599L8.13539 107.684V128.285L38.7418 159.6L64.6732 135.471L22.9598 92.8599Z" fill="#EBEBEB"/>
<path d="M97.1044 114.637C97.1044 114.637 128.865 91.3519 118.595 53.8535H138.343L138.101 159.69L97.1044 114.637Z" fill="#EBEBEB"/>
<path d="M91.1324 120.744L75.7802 136.775L122.862 183.865L137.264 168.603L91.1324 120.744Z" fill="#EBEBEB"/>
<path d="M69.3633 141.164L45.2265 165.127L93.5001 213.061L117.592 189.769L69.3633 141.164Z" fill="#EBEBEB"/>
<path d="M56.7105 261.229L93.6132 222.984L128.714 258.763L56.7105 261.229Z" fill="#EBEBEB"/>
<path d="M99.3665 218.045L137.822 179.966C137.822 181.656 137.491 258.922 137.491 258.922L99.3665 218.045Z" fill="#EBEBEB"/>
<path d="M66.4678 196.661L88.2671 218.46L45.2266 262.873L25.3426 239.023L66.4678 196.661Z" fill="#EBEBEB"/>
<path d="M7.56987 242.114C9.6284 241.911 62.3432 192.544 62.3432 192.544L7.56987 135.787V242.114Z" fill="#EBEBEB"/>
<path d="M6.8083 253.365L19.4988 242.114L37.0754 262.873H6.8083V254.933" fill="#EBEBEB"/>
<path d="M23.2086 38.3807C21.8675 37.3911 20.6068 36.2968 19.4384 35.1081C19.4384 34.5351 19.4384 34.9498 19.4384 34.8216L19.4912 34.7764L19.5817 34.6934L19.7702 34.52L20.1322 34.1807L20.8183 33.5473L22.0022 32.4916C22.3607 32.1253 22.7664 31.8083 23.2086 31.5491C22.9396 31.9591 22.6148 32.3296 22.2435 32.65L21.1124 33.7659L20.4413 34.4144L20.0794 34.7613L19.8984 34.9347L19.8004 35.0176L19.7551 35.0629V34.7764C20.9984 35.8861 22.153 37.0912 23.2086 38.3807Z" fill="#263238"/>
<path d="M127.454 32.6274C127.456 32.7906 127.409 32.9505 127.319 33.0868C127.229 33.2231 127.101 33.3296 126.951 33.3928C126.8 33.4559 126.634 33.4728 126.474 33.4414C126.314 33.4099 126.167 33.3314 126.051 33.216C125.936 33.1007 125.858 32.9535 125.826 32.7934C125.795 32.6332 125.812 32.4674 125.875 32.3169C125.938 32.1664 126.044 32.0381 126.181 31.9484C126.317 31.8586 126.477 31.8115 126.64 31.813C126.856 31.813 127.063 31.8988 127.216 32.0515C127.369 32.2043 127.454 32.4114 127.454 32.6274Z" fill="#263238"/>
<path d="M127.221 34.8668C127.336 34.9817 127.414 35.1282 127.446 35.2876C127.478 35.4471 127.462 35.6125 127.4 35.7627C127.337 35.913 127.232 36.0415 127.097 36.1318C126.962 36.2222 126.803 36.2705 126.64 36.2705C126.477 36.2705 126.319 36.2222 126.183 36.1318C126.048 36.0415 125.943 35.913 125.881 35.7627C125.818 35.6125 125.802 35.4471 125.834 35.2876C125.866 35.1282 125.944 34.9817 126.059 34.8668C126.215 34.7149 126.423 34.6297 126.64 34.6297C126.857 34.6297 127.066 34.7149 127.221 34.8668Z" fill="#263238"/>
<path d="M127.454 38.26C127.435 38.4634 127.34 38.6523 127.189 38.7897C127.038 38.9271 126.841 39.0033 126.636 39.0033C126.432 39.0033 126.235 38.9271 126.084 38.7897C125.932 38.6523 125.838 38.4634 125.818 38.26C125.807 38.146 125.82 38.0309 125.856 37.9222C125.892 37.8135 125.951 37.7135 126.028 37.6287C126.105 37.5439 126.199 37.4762 126.304 37.4298C126.408 37.3834 126.522 37.3595 126.636 37.3595C126.751 37.3595 126.864 37.3834 126.969 37.4298C127.074 37.4762 127.168 37.5439 127.245 37.6287C127.322 37.7135 127.38 37.8135 127.416 37.9222C127.452 38.0309 127.465 38.146 127.454 38.26Z" fill="#263238"/>
<path d="M92.1202 35.9678H56.8463V38.9085H92.1202V35.9678Z" fill="#263238"/>
<g filter="url(#filter0_dd_4_873)">
<path d="M88.2821 88.7278C88.2821 74.9892 73.8499 66.2876 59.131 73.172C55.8006 74.7277 53.076 77.3383 51.3795 80.5993C47.6772 87.7702 49.3134 95.9591 52.6689 102.76L64.1303 131.799C64.4922 132.724 65.1248 133.518 65.9454 134.079C66.7659 134.639 67.7364 134.938 68.7299 134.938C69.7235 134.938 70.6939 134.639 71.5145 134.079C72.3351 133.518 72.9677 132.724 73.3296 131.799L84.5572 102.61C88.448 93.712 88.2821 88.7278 88.2821 88.7278ZM74.4832 100.717C64.5903 106.47 54.5616 95.8384 59.9831 85.3422C60.6975 83.958 61.7872 82.803 63.1274 82.0093C73.028 76.256 83.0567 86.888 77.6276 97.3842C76.9163 98.7705 75.8258 99.9263 74.4832 100.717Z" fill="#EE5A45"/>
</g>
<defs>
<filter id="filter0_dd_4_873" x="39.4676" y="60.9627" width="58.6156" height="83.7757" filterUnits="userSpaceOnUse" color-interpolation-filters="sRGB">
<feFlood flood-opacity="0" result="BackgroundImageFix"/>
<feColorMatrix in="SourceAlpha" type="matrix" values="0 0 0 0 0 0 0 0 0 0 0 0 0 0 0 0 0 0 127 0" result="hardAlpha"/>
<feOffset/>
<feGaussianBlur stdDeviation="4.9"/>
<feComposite in2="hardAlpha" operator="out"/>
<feColorMatrix type="matrix" values="0 0 0 0 0.0633333 0 0 0 0 0.8 0 0 0 0 0.62835 0 0 0 1 0"/>
<feBlend mode="normal" in2="BackgroundImageFix" result="effect1_dropShadow_4_873"/>
<feColorMatrix in="SourceAlpha" type="matrix" values="0 0 0 0 0 0 0 0 0 0 0 0 0 0 0 0 0 0 127 0" result="hardAlpha"/>
<feOffset dy="4"/>
<feGaussianBlur stdDeviation="2"/>
<feComposite in2="hardAlpha" operator="out"/>
<feColorMatrix type="matrix" values="0 0 0 0 0 0 0 0 0 0 0 0 0 0 0 0 0 0 0.25 0"/>
<feBlend mode="normal" in2="effect1_dropShadow_4_873" result="effect2_dropShadow_4_873"/>
<feBlend mode="normal" in="SourceGraphic" in2="effect2_dropShadow_4_873" result="shape"/>
</filter>
</defs>
</svg>
