<svg width="239" height="306" viewBox="0 0 239 306" fill="none" xmlns="http://www.w3.org/2000/svg">
<path d="M187.344 305.362L78.6935 305.289C72.4187 305.284 66.4028 302.901 61.9677 298.662C57.5326 294.424 55.0413 288.678 55.0413 282.686V22.5986C55.0438 19.6264 55.6601 16.6839 56.855 13.9395C58.0499 11.1951 59.8 8.70267 62.0049 6.60487C64.2098 4.50707 66.8264 2.8451 69.7048 1.7141C72.5832 0.58309 75.667 0.00525707 78.7796 0.0136709L187.43 0.0776505C193.705 0.0824961 199.721 2.46603 204.156 6.70443C208.591 10.9428 211.083 16.6893 211.083 22.6808L211.025 282.759C211.026 285.728 210.415 288.669 209.225 291.412C208.035 294.156 206.291 296.649 204.091 298.748C201.892 300.847 199.281 302.512 196.407 303.647C193.534 304.782 190.454 305.365 187.344 305.362Z" fill="#455A64"/>
<path d="M187.315 9.28163H166.257C165.571 9.29587 164.894 9.43911 164.266 9.70316C163.637 9.9672 163.07 10.3469 162.595 10.8205C162.12 11.2941 161.748 11.8524 161.499 12.4635C161.251 13.0745 161.131 13.7263 161.146 14.3817V18.0377C161.161 18.6931 161.041 19.345 160.792 19.956C160.544 20.5671 160.171 21.1253 159.697 21.599C159.222 22.0726 158.654 22.4523 158.026 22.7163C157.397 22.9804 156.721 23.1236 156.034 23.1378H114.971C113.584 23.1067 112.266 22.5511 111.308 21.5931C110.35 20.6351 109.829 19.3531 109.859 18.0286V14.3726C109.89 13.0481 109.369 11.766 108.411 10.8081C107.453 9.85009 106.135 9.29451 104.748 9.26335H78.9039C76.7264 9.26094 74.5698 9.6684 72.5574 10.4624C70.5449 11.2564 68.7161 12.4214 67.1755 13.8908C65.6349 15.3602 64.4127 17.1052 63.5789 19.0259C62.745 20.9466 62.3158 23.0054 62.3158 25.0847L62.2679 278.948C62.2679 283.143 64.012 287.167 67.1169 290.135C70.2219 293.103 74.4338 294.773 78.8274 294.778L187.258 294.833C189.435 294.835 191.592 294.428 193.604 293.634C195.617 292.84 197.446 291.675 198.986 290.205C200.527 288.736 201.749 286.991 202.583 285.07C203.417 283.15 203.846 281.091 203.846 279.012V25.1486C203.856 20.9517 202.121 16.9227 199.021 13.9473C195.921 10.9719 191.711 9.29373 187.315 9.28163Z" fill="#FAFAFA"/>
<path d="M168.478 17.5167H167.272V19.1253H168.478V17.5167Z" fill="#263238"/>
<path d="M170.44 16.8038H169.234V19.1345H170.44V16.8038Z" fill="#263238"/>
<path d="M172.393 16.2646H171.187V19.1345H172.393V16.2646Z" fill="#263238"/>
<path d="M174.355 15.2226H173.149V19.1345H174.355V15.2226Z" fill="#263238"/>
<path d="M192.13 19.2077H186.09C185.975 19.2077 185.865 19.1647 185.782 19.0878C185.7 19.0109 185.653 18.9063 185.65 18.7964V15.9264C185.65 15.8173 185.695 15.7127 185.776 15.6356C185.857 15.5585 185.967 15.5151 186.081 15.5151H192.13C192.155 15.5059 192.182 15.5059 192.207 15.5151C192.215 15.542 192.215 15.5705 192.207 15.5974V16.5114H192.858C192.888 16.5114 192.917 16.5229 192.939 16.5435C192.96 16.5641 192.973 16.592 192.973 16.6211V18.0012C192.97 18.0287 192.957 18.0543 192.936 18.0729C192.914 18.0915 192.887 18.1018 192.858 18.1017H192.207V19.0157C192.233 19.0254 192.255 19.0448 192.267 19.0697C192.278 19.0946 192.279 19.1228 192.269 19.1483C192.259 19.1737 192.239 19.1943 192.212 19.2054C192.186 19.2166 192.157 19.2174 192.13 19.2077ZM192.015 15.7253H186.081C186.053 15.7253 186.026 15.7305 186 15.7406C185.975 15.7508 185.951 15.7656 185.932 15.7842C185.912 15.8029 185.897 15.8251 185.886 15.8495C185.876 15.8739 185.87 15.9 185.87 15.9264V18.7964C185.87 18.8236 185.876 18.8505 185.887 18.8755C185.898 18.9005 185.915 18.9231 185.935 18.9419C185.956 18.9607 185.98 18.9753 186.007 18.9849C186.033 18.9944 186.062 18.9987 186.09 18.9975H192.015V18.0835C192.015 18.0544 192.027 18.0265 192.049 18.0059C192.071 17.9853 192.1 17.9738 192.13 17.9738H192.772V16.7764H192.13C192.116 16.7777 192.101 16.7761 192.087 16.7716C192.073 16.7671 192.06 16.7599 192.049 16.7504C192.039 16.741 192.03 16.7294 192.024 16.7166C192.018 16.7038 192.015 16.6899 192.015 16.6759V15.7253Z" fill="#263238"/>
<path d="M186.368 18.5313V16.2006H191.527V17.2517V17.4802V18.5313H186.368Z" fill="#263238"/>
<path d="M180.156 18.9883C180.153 18.8775 180.106 18.7719 180.024 18.6936C179.942 18.6152 179.831 18.5702 179.715 18.5678C179.598 18.5678 179.486 18.6121 179.404 18.691C179.321 18.7698 179.275 18.8768 179.275 18.9883C179.274 19.0438 179.284 19.0991 179.306 19.1506C179.327 19.2022 179.36 19.2491 179.401 19.2884C179.442 19.3276 179.491 19.3586 179.545 19.3793C179.599 19.3999 179.657 19.41 179.715 19.4087C179.832 19.4087 179.944 19.3644 180.027 19.2856C180.109 19.2067 180.156 19.0998 180.156 18.9883Z" fill="#263238"/>
<path d="M178.165 17.9737L178.729 18.513C178.854 18.3902 179.002 18.2926 179.167 18.226C179.331 18.1593 179.508 18.1249 179.687 18.1249C179.865 18.1249 180.042 18.1593 180.207 18.226C180.371 18.2926 180.52 18.3902 180.644 18.513L181.209 17.9737C181.008 17.782 180.769 17.6307 180.506 17.5286C180.243 17.4266 179.961 17.3759 179.677 17.3796C179.111 17.3801 178.567 17.5935 178.165 17.9737Z" fill="#263238"/>
<path d="M179.677 16.1731C178.784 16.1629 177.923 16.4917 177.284 17.0871L177.839 17.6264C178.327 17.1648 178.986 16.9058 179.672 16.9058C180.359 16.9058 181.018 17.1648 181.505 17.6264L182.07 17.0871C181.43 16.4934 180.57 16.1649 179.677 16.1731Z" fill="#263238"/>
<path d="M176.327 16.2463L176.892 16.7855C177.62 16.0901 178.608 15.6994 179.639 15.6994C180.669 15.6994 181.657 16.0901 182.386 16.7855L182.951 16.2463C182.071 15.4091 180.88 14.9389 179.639 14.9389C178.397 14.9389 177.206 15.4091 176.327 16.2463Z" fill="#263238"/>
<path d="M140.317 40.8694H133.024C132.521 40.8694 132.114 41.2581 132.114 41.7377V46.4631C132.114 46.9426 132.521 47.3314 133.024 47.3314H140.317C140.82 47.3314 141.227 46.9426 141.227 46.4631V41.7377C141.227 41.2581 140.82 40.8694 140.317 40.8694Z" fill="#263238"/>
<path d="M134.124 41.2898H133.167V40.2296C133.142 39.7762 133.214 39.3227 133.379 38.8968C133.544 38.4708 133.797 38.0813 134.125 37.752C134.452 37.4227 134.846 37.1604 135.283 36.9812C135.72 36.802 136.19 36.7096 136.666 36.7096C137.141 36.7096 137.612 36.802 138.049 36.9812C138.485 37.1604 138.879 37.4227 139.207 37.752C139.534 38.0813 139.788 38.4708 139.952 38.8968C140.117 39.3227 140.189 39.7762 140.164 40.2296V40.9242H139.207V40.2296C139.228 39.8984 139.178 39.5665 139.06 39.2545C138.942 38.9424 138.758 38.6567 138.52 38.415C138.282 38.1733 137.995 37.9806 137.676 37.849C137.357 37.7173 137.013 37.6494 136.666 37.6494C136.318 37.6494 135.974 37.7173 135.655 37.849C135.336 37.9806 135.049 38.1733 134.811 38.415C134.573 38.6567 134.389 38.9424 134.271 39.2545C134.153 39.5665 134.103 39.8984 134.124 40.2296V41.2898Z" fill="#263238"/>
<path d="M63.3783 200.993C63.4719 192.775 65.8391 184.727 70.2399 177.664C74.6407 170.602 80.9187 164.776 88.4375 160.777C98.9666 155.293 111.238 153.867 122.944 151.299C134.651 148.73 146.788 144.489 154.024 135.34C163.807 122.974 161.94 105.398 169.004 91.4683C172.289 85.1792 177.272 79.8413 183.439 76.0059C189.606 72.1706 196.733 69.9768 204.085 69.6512V282.165C204.085 285.59 202.66 288.875 200.124 291.297C197.587 293.719 194.147 295.08 190.56 295.08H76.9225C75.1451 295.081 73.3849 294.748 71.7423 294.099C70.0997 293.451 68.607 292.5 67.3493 291.301C66.0916 290.102 65.0936 288.678 64.4122 287.11C63.7309 285.542 63.3796 283.862 63.3783 282.165V200.993Z" fill="#E0E0E0"/>
<path d="M87.3082 90.3075C87.3082 82.4289 91.6347 77.7309 97.6363 77.7309C103.638 77.7309 107.993 82.4289 107.993 90.3075C107.993 98.1862 103.628 102.893 97.6363 102.893C91.6442 102.893 87.3082 98.1862 87.3082 90.3075ZM105.255 90.3075C105.255 83.6993 102.145 80.0616 97.598 80.0616C93.0513 80.0616 89.9404 83.7176 89.9404 90.3075C89.9404 96.8975 93.0513 100.563 97.598 100.563C102.145 100.563 105.275 96.8975 105.275 90.3075H105.255Z" fill="#263238"/>
<path d="M130.516 90.0974C130.516 98.5061 125.73 102.893 118.675 102.893C116.538 102.98 114.415 102.516 112.53 101.55L113.602 99.5024C115.128 100.344 116.877 100.747 118.637 100.663C124.227 100.663 127.817 97.2357 127.817 90.5178C127.817 89.9603 127.817 89.2473 127.702 88.507C126.41 91.249 123.375 92.748 119.786 92.748C114.636 92.748 111.047 89.8506 111.047 85.3263C111.047 80.802 114.875 77.731 119.891 77.731C126.773 77.7035 130.516 82.2735 130.516 90.0974ZM126.85 85.1892C126.85 82.4472 124.486 79.888 120.006 79.888C116.263 79.888 113.679 81.9719 113.679 85.2532C113.679 88.5344 116.196 90.5909 120.188 90.5909C124.179 90.5909 126.85 88.2602 126.85 85.1892Z" fill="#263238"/>
<path d="M134.402 85.8564C134.39 85.6056 134.432 85.3551 134.526 85.1207C134.62 84.8862 134.763 84.6727 134.948 84.4935C135.132 84.3142 135.352 84.1731 135.596 84.079C135.84 83.9848 136.101 83.9396 136.364 83.9461C136.627 83.9449 136.887 83.9935 137.13 84.0892C137.372 84.1849 137.593 84.3257 137.778 84.5035C137.963 84.6812 138.11 84.8923 138.209 85.1246C138.308 85.3569 138.358 85.6056 138.355 85.8564C138.36 86.3663 138.154 86.8574 137.78 87.2222C137.407 87.5871 136.898 87.796 136.364 87.8032C136.101 87.7996 135.841 87.7463 135.6 87.6463C135.358 87.5463 135.14 87.4016 134.958 87.2206C134.775 87.0395 134.632 86.8258 134.537 86.5916C134.441 86.3575 134.396 86.1076 134.402 85.8564ZM134.402 100.91C134.39 100.659 134.432 100.409 134.526 100.174C134.62 99.9397 134.763 99.7262 134.948 99.547C135.132 99.3678 135.352 99.2267 135.596 99.1325C135.84 99.0384 136.101 98.9931 136.364 98.9997C136.627 98.9984 136.887 99.0471 137.13 99.1428C137.372 99.2384 137.593 99.3792 137.778 99.557C137.963 99.7347 138.11 99.9459 138.209 100.178C138.308 100.41 138.358 100.659 138.355 100.91C138.36 101.42 138.154 101.911 137.78 102.276C137.407 102.641 136.898 102.85 136.364 102.857C136.101 102.853 135.841 102.8 135.6 102.7C135.358 102.6 135.14 102.455 134.958 102.274C134.775 102.093 134.632 101.879 134.537 101.645C134.441 101.411 134.396 101.161 134.402 100.91Z" fill="#263238"/>
<path d="M159.902 100.416V102.683H141.715V100.855L152.483 90.8011C155.412 88.0591 155.968 86.3865 155.968 84.6865C155.968 81.8256 153.852 80.0616 149.899 80.0616C148.58 79.9825 147.259 80.188 146.035 80.6626C144.81 81.1373 143.713 81.869 142.825 82.8036L140.911 81.2407C142.911 78.9831 146.128 77.7126 150.09 77.7126C155.345 77.7126 158.705 80.2536 158.705 84.3848C158.705 86.7612 157.93 88.8817 154.446 92.1264L145.639 100.352L159.902 100.416Z" fill="#263238"/>
<path d="M163.079 90.3075C163.079 82.4289 167.406 77.7309 173.408 77.7309C179.409 77.7309 183.764 82.4289 183.764 90.3075C183.764 98.1862 179.4 102.893 173.408 102.893C167.416 102.893 163.079 98.1862 163.079 90.3075ZM181.027 90.3075C181.027 83.6993 177.916 80.0616 173.369 80.0616C168.823 80.0616 165.712 83.7176 165.712 90.3075C165.712 96.8975 168.89 100.553 173.455 100.553C178.021 100.553 181.027 96.8975 181.027 90.3075Z" fill="#263238"/>
<path d="M107.134 58.8943C109.304 49.251 102.877 39.7534 92.7779 37.6807C82.6789 35.6081 72.7324 41.7453 70.5618 51.3887C68.3913 61.032 74.8185 70.5297 84.9176 72.6023C95.0166 74.6749 104.963 68.5377 107.134 58.8943Z" fill="#FF725E"/>
<g filter="url(#filter0_d_4_900)">
<path d="M222.012 126.4H46.0162C42.4482 126.4 39.5557 129.162 39.5557 132.569V178.062C39.5557 181.469 42.4482 184.231 46.0162 184.231H222.012C225.58 184.231 228.472 181.469 228.472 178.062V132.569C228.472 129.162 225.58 126.4 222.012 126.4Z" fill="white"/>
</g>
<path d="M221.966 184.231C222.384 184.205 222.8 184.157 223.213 184.089C224.423 183.854 225.535 183.289 226.415 182.462C227.069 181.868 227.578 181.142 227.905 180.338C228.284 179.362 228.44 178.319 228.361 177.28C228.361 175.014 228.361 172.391 228.361 169.449C228.361 163.547 228.361 156.338 228.361 147.973C228.361 143.787 228.361 139.307 228.361 134.56C228.442 133.371 228.367 132.176 228.137 131.004C227.807 129.812 227.1 128.745 226.113 127.949C225.125 127.154 223.904 126.669 222.617 126.56C221.305 126.507 219.918 126.56 218.54 126.56L46.0256 126.631C45.0096 126.632 44.0093 126.87 43.1118 127.324C42.2177 127.778 41.4513 128.43 40.8777 129.227C40.3144 130.024 39.9571 130.938 39.8351 131.893C39.7513 132.836 39.8351 133.867 39.8351 134.844V146.676C39.8351 154.51 39.8351 162.214 39.8351 169.787V175.449C39.8351 176.391 39.8351 177.334 39.8351 178.258C39.8735 179.158 40.1216 180.039 40.5612 180.836C41.0017 181.622 41.6206 182.305 42.3727 182.834C43.1249 183.363 43.9912 183.725 44.9085 183.894C45.8356 183.992 46.769 184.025 47.7012 183.991H73.0216L150.556 184.045L202.826 184.116L217.041 184.16H220.765H222.021C222.021 184.16 221.602 184.16 220.765 184.16H217.041H202.826L150.556 184.231L73.0216 184.285H47.7384C46.7658 184.324 45.7914 184.288 44.8247 184.178C43.3224 183.921 41.9578 183.18 40.9584 182.078C39.9589 180.977 39.3851 179.581 39.3324 178.125C39.3324 177.174 39.3324 176.249 39.3324 175.307V134.684C39.3324 133.68 39.3324 132.729 39.3789 131.68C39.5002 130.645 39.8851 129.654 40.5002 128.794C41.1152 127.934 41.9416 127.231 42.907 126.747C43.8731 126.257 44.9503 126 46.0442 126L218.512 126.071C219.899 126.071 221.249 126.071 222.617 126.071C223.968 126.189 225.248 126.7 226.285 127.534C227.322 128.369 228.066 129.487 228.417 130.738C228.583 131.338 228.658 131.957 228.64 132.578V134.356C228.64 139.102 228.64 143.582 228.64 147.769C228.64 156.133 228.64 163.342 228.64 169.245C228.64 172.187 228.64 174.809 228.64 177.076C228.718 178.131 228.553 179.19 228.156 180.178C227.746 181.134 227.093 181.978 226.256 182.633C225.419 183.288 224.424 183.733 223.362 183.929C223.054 183.983 222.743 184.015 222.431 184.027L221.966 184.231Z" fill="#263238"/>
<path d="M214.863 138.267C214.801 138.267 214.741 138.245 214.695 138.204C214.652 138.161 214.628 138.104 214.628 138.044C214.628 137.985 214.652 137.928 214.695 137.884L219.35 133.627C219.395 133.585 219.455 133.562 219.517 133.562C219.58 133.562 219.64 133.585 219.685 133.627C219.728 133.668 219.751 133.724 219.751 133.782C219.751 133.84 219.728 133.896 219.685 133.938L215.03 138.196C215.009 138.218 214.984 138.236 214.955 138.248C214.926 138.261 214.894 138.267 214.863 138.267Z" fill="#263238"/>
<path d="M219.499 138.284C219.469 138.286 219.44 138.281 219.412 138.27C219.385 138.259 219.361 138.243 219.34 138.222L214.733 133.929C214.71 133.909 214.692 133.885 214.68 133.858C214.668 133.831 214.662 133.803 214.662 133.773C214.662 133.744 214.668 133.715 214.68 133.689C214.692 133.662 214.71 133.638 214.733 133.618C214.776 133.577 214.835 133.554 214.895 133.554C214.956 133.554 215.015 133.577 215.058 133.618L219.713 137.92C219.755 137.962 219.779 138.017 219.779 138.076C219.779 138.134 219.755 138.19 219.713 138.231C219.685 138.257 219.651 138.276 219.613 138.285C219.576 138.294 219.536 138.294 219.499 138.284Z" fill="#263238"/>
<g filter="url(#filter1_dd_4_900)">
<path d="M80.2641 166.551L78.4023 163.982C77.2575 162.435 76.6428 160.588 76.6429 158.693V152.916C76.6429 150.664 75.7977 148.487 74.2605 146.779C72.7234 145.072 70.5961 143.947 68.2648 143.609V140.853C68.2648 140.516 68.1245 140.193 67.8749 139.955C67.6253 139.716 67.2867 139.582 66.9336 139.582C66.7592 139.582 66.5866 139.615 66.4256 139.679C66.2646 139.743 66.1185 139.837 65.9956 139.955C65.8727 140.073 65.7755 140.213 65.7097 140.368C65.6438 140.522 65.6105 140.687 65.6117 140.853V143.52C63.2115 143.792 60.9991 144.895 59.3933 146.62C57.7875 148.345 56.8999 150.572 56.8985 152.88V158.862C56.8966 160.919 56.1723 162.916 54.8412 164.534L53.2122 166.516L80.2641 166.551Z" fill="#FF725E"/>
</g>
<path d="M65.3046 170.747C66.0409 171.032 66.846 171.114 67.6289 170.986C68.4119 170.857 69.1415 170.522 69.7357 170.018C70.245 169.57 70.629 169.008 70.8527 168.382L62.968 168.329C63.1604 168.865 63.4675 169.357 63.8698 169.773C64.272 170.189 64.7607 170.521 65.3046 170.747Z" fill="#FF725E"/>
<path d="M186.591 145.938C186.591 146.062 165.432 146.169 139.33 146.169C113.227 146.169 92.0679 146.062 92.0679 145.938C92.0679 145.813 113.227 145.707 139.33 145.707C165.432 145.707 186.591 145.813 186.591 145.938Z" fill="#263238"/>
<path d="M208.821 156.862C208.821 156.987 182.672 157.093 150.426 157.093C118.18 157.093 92.0212 156.987 92.0212 156.862C92.0212 156.738 118.161 156.631 150.426 156.631C182.691 156.631 208.821 156.729 208.821 156.862Z" fill="#E0E0E0"/>
<path d="M208.821 163.449C208.821 163.573 182.672 163.68 150.426 163.68C118.18 163.68 92.0212 163.573 92.0212 163.449C92.0212 163.325 118.161 163.218 150.426 163.218C182.691 163.218 208.821 163.271 208.821 163.449Z" fill="#E0E0E0"/>
<path d="M191.786 193.263H74.9114C71.3434 193.263 68.4509 196.024 68.4509 199.431V226.827C68.4509 230.234 71.3434 232.996 74.9114 232.996H191.786C195.354 232.996 198.246 230.234 198.246 226.827V199.431C198.246 196.024 195.354 193.263 191.786 193.263Z" fill="#FAFAFA"/>
<path d="M191.786 232.996C191.786 232.996 192.074 232.996 192.633 232.907C193.462 232.803 194.26 232.54 194.979 232.134C195.937 231.6 196.733 230.837 197.289 229.921C197.846 229.005 198.143 227.966 198.153 226.907V224.072C198.153 220.054 198.153 215.183 198.107 209.467C198.107 206.623 198.107 203.574 198.107 200.347C198.151 199.542 198.082 198.735 197.902 197.947C197.691 197.148 197.308 196.4 196.775 195.751C196.23 195.075 195.539 194.519 194.749 194.12C193.958 193.722 193.088 193.49 192.195 193.44L74.9021 193.494C73.5232 193.492 72.1828 193.928 71.0911 194.732C69.9994 195.537 69.2182 196.664 68.8698 197.938C68.7064 198.575 68.6406 199.23 68.6743 199.885V201.903C68.6743 203.245 68.6743 204.569 68.6743 205.911V225.467C68.6743 226.107 68.6743 226.756 68.6743 227.36C68.7435 227.972 68.9034 228.57 69.1491 229.138C69.6561 230.256 70.5075 231.2 71.59 231.845C72.6725 232.489 73.9349 232.804 75.2093 232.747H90.4481L143.165 232.792L178.716 232.872L188.379 232.916H190.892H191.749C191.749 232.916 191.451 232.916 190.892 232.916H188.379H178.716L143.165 232.987L90.4481 233.04H75.2465C73.8771 233.101 72.5208 232.762 71.3572 232.07C70.1936 231.378 69.2775 230.365 68.7302 229.165C68.4714 228.556 68.3022 227.916 68.2275 227.263C68.1717 226.587 68.2275 225.965 68.2275 225.325V199.894C68.193 199.2 68.2652 198.505 68.4416 197.831C68.8125 196.452 69.6547 195.23 70.835 194.359C72.0153 193.488 73.4662 193.017 74.9579 193.023L192.251 193.103C193.65 193.188 194.984 193.696 196.062 194.552C197.139 195.408 197.904 196.569 198.246 197.867C198.433 198.678 198.502 199.509 198.451 200.338C198.451 203.565 198.451 206.614 198.451 209.458C198.451 215.147 198.451 220.045 198.451 224.063C198.451 225.058 198.451 226.009 198.451 226.898C198.44 227.742 198.246 228.574 197.883 229.343C197.312 230.547 196.357 231.549 195.156 232.205C194.423 232.606 193.612 232.86 192.773 232.952C192.446 232.993 192.115 233.007 191.786 232.996Z" fill="#263238"/>
<path d="M188.9 201.485C188.869 201.484 188.837 201.478 188.809 201.466C188.78 201.453 188.754 201.436 188.732 201.414C188.71 201.394 188.692 201.37 188.68 201.343C188.668 201.316 188.662 201.287 188.662 201.258C188.662 201.229 188.668 201.2 188.68 201.173C188.692 201.147 188.71 201.123 188.732 201.103L191.926 198.178C191.947 198.157 191.973 198.14 192.002 198.128C192.031 198.116 192.062 198.11 192.093 198.11C192.124 198.11 192.155 198.116 192.184 198.128C192.213 198.14 192.239 198.157 192.261 198.178C192.303 198.22 192.327 198.276 192.327 198.334C192.327 198.392 192.303 198.448 192.261 198.489L189.058 201.414C189.039 201.436 189.014 201.453 188.987 201.465C188.96 201.478 188.93 201.484 188.9 201.485Z" fill="#263238"/>
<path d="M192.084 201.494C192.021 201.494 191.961 201.472 191.916 201.431L188.751 198.48C188.717 198.438 188.701 198.385 188.705 198.331C188.709 198.278 188.733 198.228 188.773 198.19C188.812 198.152 188.865 198.129 188.921 198.125C188.977 198.122 189.032 198.137 189.077 198.169L192.242 201.12C192.285 201.162 192.308 201.218 192.308 201.276C192.308 201.334 192.285 201.39 192.242 201.431C192.199 201.47 192.143 201.492 192.084 201.494Z" fill="#263238"/>
<path d="M96.4152 220.845L95.1119 219.067C94.3282 218.002 93.9057 216.733 93.9017 215.432V211.449C93.9006 209.905 93.3211 208.412 92.2677 207.239C91.2144 206.067 89.7567 205.294 88.1581 205.058V203.165C88.1581 202.929 88.06 202.703 87.8854 202.536C87.7109 202.37 87.4741 202.276 87.2272 202.276C86.9803 202.276 86.7435 202.37 86.5689 202.536C86.3944 202.703 86.2963 202.929 86.2963 203.165V205.031C84.6473 205.217 83.1269 205.973 82.0236 207.158C80.9202 208.343 80.3107 209.873 80.3106 211.458V215.565C80.3119 216.976 79.8169 218.347 78.905 219.458L77.7786 220.827L96.4152 220.845Z" fill="#455A64"/>
<path d="M86.1379 223.734C86.644 223.927 87.1963 223.983 87.7336 223.895C88.2709 223.808 88.7722 223.579 89.182 223.236C89.5332 222.928 89.7959 222.539 89.9453 222.107H84.5275C84.6663 222.468 84.8806 222.799 85.1575 223.079C85.4343 223.358 85.7679 223.581 86.1379 223.734Z" fill="#455A64"/>
<path d="M169.444 206.685C169.444 206.809 154.904 206.916 136.965 206.916C119.027 206.916 104.495 206.809 104.495 206.685C104.495 206.56 119.036 206.454 136.965 206.454C154.894 206.454 169.444 206.551 169.444 206.685Z" fill="#263238"/>
<path d="M184.73 214.187C184.73 214.32 166.763 214.418 144.608 214.418C122.452 214.418 104.477 214.32 104.477 214.187C104.477 214.054 122.434 213.956 144.608 213.956C166.782 213.956 184.73 214.063 184.73 214.187Z" fill="#E0E0E0"/>
<path d="M184.73 218.685C184.73 218.809 166.763 218.916 144.608 218.916C122.452 218.916 104.477 218.809 104.477 218.685C104.477 218.56 122.434 218.454 144.608 218.454C166.782 218.454 184.73 218.56 184.73 218.685Z" fill="#E0E0E0"/>
<path d="M191.292 239.174H75.3954C71.8274 239.174 68.9349 241.936 68.9349 245.343V272.436C68.9349 275.843 71.8274 278.605 75.3954 278.605H191.292C194.86 278.605 197.753 275.843 197.753 272.436V245.343C197.753 241.936 194.86 239.174 191.292 239.174Z" fill="#FAFAFA"/>
<path d="M191.292 278.614C191.292 278.614 191.581 278.614 192.13 278.534C192.952 278.427 193.743 278.164 194.457 277.761C195.629 277.117 196.557 276.138 197.111 274.961C197.454 274.215 197.641 273.411 197.66 272.596V269.787C197.66 265.805 197.66 260.943 197.66 255.298C197.66 252.472 197.66 249.449 197.66 246.249C197.709 245.45 197.64 244.648 197.455 243.867C197.249 243.075 196.872 242.333 196.347 241.689C195.809 241.016 195.126 240.459 194.344 240.058C193.562 239.656 192.699 239.418 191.814 239.361L75.4513 239.405C74.0772 239.414 72.7442 239.853 71.6576 240.656C70.5709 241.459 69.7909 242.581 69.4377 243.849C69.2681 244.479 69.196 245.129 69.2236 245.778V251.752C69.2236 257.044 69.2236 262.247 69.2236 267.361V271.174C69.2236 271.805 69.2236 272.454 69.2236 273.05C69.2875 273.661 69.4443 274.259 69.689 274.827C70.1885 275.938 71.0287 276.878 72.0988 277.524C73.169 278.17 74.419 278.491 75.684 278.445H90.8019L143.109 278.49L178.381 278.57L187.969 278.614H190.464H191.311C191.311 278.614 191.022 278.614 190.464 278.614H187.969L178.381 278.658L143.109 278.73L90.8019 278.783H75.6654C74.3089 278.826 72.9702 278.479 71.8231 277.786C70.676 277.093 69.7736 276.087 69.2329 274.898C68.9732 274.293 68.804 273.656 68.7302 273.005C68.7302 272.347 68.7302 271.725 68.7302 271.085C68.7302 269.823 68.7302 268.552 68.7302 267.272V245.743C68.7016 245.054 68.7801 244.365 68.9629 243.698C69.35 242.332 70.1983 241.125 71.3763 240.265C72.5544 239.405 73.9965 238.941 75.4792 238.943L191.842 239.041C192.774 239.103 193.681 239.355 194.503 239.78C195.325 240.205 196.043 240.792 196.608 241.503C197.151 242.186 197.547 242.965 197.771 243.796C197.949 244.602 198.018 245.427 197.976 246.249C197.976 249.449 197.976 252.472 197.976 255.298C197.976 260.943 197.976 265.805 197.93 269.787C197.93 270.774 197.93 271.716 197.93 272.596C197.898 273.669 197.576 274.716 196.995 275.635C196.415 276.554 195.595 277.314 194.616 277.841C193.886 278.239 193.078 278.491 192.242 278.578C191.927 278.615 191.609 278.627 191.292 278.614Z" fill="#263238"/>
<path d="M188.453 247.343C188.422 247.342 188.39 247.336 188.362 247.324C188.333 247.311 188.307 247.294 188.286 247.272C188.263 247.252 188.246 247.228 188.233 247.201C188.221 247.174 188.215 247.145 188.215 247.116C188.215 247.087 188.221 247.058 188.233 247.031C188.246 247.005 188.263 246.981 188.286 246.961L191.46 244.054C191.505 244.013 191.565 243.99 191.627 243.99C191.69 243.99 191.75 244.013 191.795 244.054C191.838 244.095 191.862 244.151 191.862 244.209C191.862 244.268 191.838 244.323 191.795 244.365L188.621 247.272C188.6 247.295 188.574 247.313 188.545 247.325C188.516 247.338 188.485 247.344 188.453 247.343Z" fill="#263238"/>
<path d="M191.637 247.352C191.575 247.352 191.515 247.33 191.469 247.289L188.332 244.338C188.288 244.297 188.262 244.241 188.261 244.181C188.261 244.122 188.284 244.065 188.327 244.023C188.371 243.98 188.43 243.956 188.492 243.955C188.554 243.954 188.614 243.977 188.658 244.018L191.795 246.952C191.838 246.993 191.862 247.049 191.862 247.107C191.862 247.165 191.838 247.221 191.795 247.263C191.757 247.311 191.7 247.343 191.637 247.352Z" fill="#263238"/>
<path d="M96.6945 266.561L95.3633 264.783C94.5801 263.728 94.1603 262.467 94.1624 261.174V257.245C94.1614 255.71 93.5858 254.226 92.5394 253.06C91.493 251.895 90.0447 251.125 88.456 250.889V249.014C88.456 248.778 88.3579 248.552 88.1834 248.385C88.0088 248.219 87.772 248.125 87.5251 248.125C87.2782 248.125 87.0414 248.219 86.8669 248.385C86.6923 248.552 86.5942 248.778 86.5942 249.014V250.863C84.9593 251.05 83.4529 251.803 82.3602 252.979C81.2674 254.155 80.6641 255.673 80.6644 257.245V261.325C80.6642 262.727 80.1726 264.088 79.268 265.192L78.2347 266.561H96.6945Z" fill="#E0E0E0"/>
<path d="M86.4917 269.423C86.9951 269.614 87.544 269.669 88.0779 269.581C88.6117 269.493 89.1098 269.266 89.5172 268.925C89.8636 268.619 90.1231 268.233 90.2712 267.805H84.8999C85.0352 268.164 85.2463 268.493 85.5202 268.772C85.794 269.05 86.1246 269.272 86.4917 269.423Z" fill="#E0E0E0"/>
<path d="M169.165 252.498C169.165 252.632 154.736 252.729 136.937 252.729C119.138 252.729 104.709 252.632 104.709 252.498C104.709 252.365 119.138 252.267 136.937 252.267C154.736 252.267 169.165 252.338 169.165 252.498Z" fill="#263238"/>
<path d="M184.357 259.947C184.357 260.081 166.521 260.178 144.533 260.178C122.546 260.178 104.709 260.081 104.709 259.947C104.709 259.814 122.536 259.716 144.533 259.716C166.531 259.716 184.357 259.823 184.357 259.947Z" fill="#E0E0E0"/>
<path d="M184.357 264.41C184.357 264.534 166.521 264.641 144.533 264.641C122.546 264.641 104.709 264.534 104.709 264.41C104.709 264.285 122.536 264.178 144.533 264.178C166.531 264.178 184.357 264.285 184.357 264.41Z" fill="#E0E0E0"/>
<path d="M10.0906 163.045L10.9324 153.517C6.07999 150.437 2.60947 145.736 1.20307 140.337C-0.203327 134.938 0.556126 129.231 3.33214 124.34C6.10816 119.448 10.6999 115.725 16.2049 113.902C21.7098 112.079 27.7297 112.289 33.0813 114.489C38.4328 116.689 42.7289 120.722 45.125 125.793C47.5211 130.864 47.8439 136.608 46.03 141.895C44.2161 147.182 40.3967 151.63 35.3226 154.365C30.2484 157.1 24.2866 157.923 18.6089 156.673L10.0906 163.045Z" fill="white"/>
<path d="M10.0906 163.045L18.6707 156.732L18.7556 156.666L18.6553 156.622L18.6012 156.747C20.4242 157.151 22.2904 157.349 24.1616 157.337C26.3895 157.311 28.6023 156.983 30.7338 156.364C31.9151 156.023 33.0625 155.584 34.1627 155.051C34.7187 154.763 35.3057 154.491 35.8694 154.188L37.5376 153.141C42.3653 149.788 45.6781 144.809 46.805 139.211C47.4748 136.1 47.4326 132.888 46.6814 129.794C45.8364 126.555 44.2543 123.534 42.0477 120.945C39.7644 118.219 36.8337 116.053 33.4985 114.625L32.1934 114.101C31.7609 113.917 31.2975 113.814 30.8573 113.674C30.4171 113.533 29.9692 113.379 29.5136 113.297L28.1466 113.017C27.6944 112.917 27.2348 112.851 26.7719 112.818L25.3973 112.663H24.0226C23.5674 112.637 23.1109 112.637 22.6557 112.663C19.0949 112.856 15.6246 113.809 12.5001 115.451C9.53916 116.994 6.97088 119.142 4.97811 121.741C1.41117 126.42 -0.144625 132.225 0.630156 137.965C1.00587 140.386 1.76631 142.738 2.88522 144.941C3.87373 146.844 5.14576 148.6 6.66169 150.154C7.92296 151.449 9.34107 152.595 10.8861 153.569V153.51C10.3918 159.601 10.1138 162.58 10.1138 163.045C10.1601 162.58 10.4459 159.608 11.0251 153.524V153.488C9.49881 152.508 8.09674 151.362 6.84703 150.073C5.35294 148.519 4.09944 146.768 3.12463 144.874C2.0269 142.688 1.28221 140.356 0.915897 137.957C0.162675 132.274 1.71258 126.531 5.24841 121.903C7.22588 119.34 9.76692 117.22 12.6932 115.694C15.7833 114.075 19.2138 113.138 22.7329 112.951C23.183 112.925 23.6343 112.925 24.0844 112.951H25.4436L26.8028 113.106C27.2579 113.14 27.7097 113.206 28.1543 113.305L29.5058 113.578C29.9615 113.659 30.3862 113.828 30.8342 113.946C31.2821 114.064 31.73 114.19 32.1548 114.374L33.4368 114.89C36.7315 116.3 39.6276 118.439 41.8855 121.129C44.056 123.697 45.6065 126.691 46.4266 129.897C47.1883 132.937 47.2594 136.098 46.6351 139.167C45.5043 144.714 42.2081 149.643 37.414 152.957L35.769 153.996C35.2053 154.306 34.6261 154.572 34.0777 154.859C32.9867 155.389 31.8498 155.828 30.6797 156.172C28.57 156.796 26.3777 157.129 24.1694 157.16C22.3099 157.183 20.454 156.997 18.6398 156.607L18.5935 156.732V156.614C13.1798 160.714 10.4922 162.742 10.0906 163.045Z" fill="#263238"/>
<path d="M20.5474 123.658L21.2656 136.608C21.2963 137.119 21.5211 137.601 21.8979 137.965C22.2747 138.329 22.7775 138.549 23.3122 138.584C23.8708 138.618 24.4219 138.447 24.8527 138.106C25.2834 137.764 25.5612 137.278 25.629 136.748L27.274 123.754C27.3023 123.522 27.2789 123.287 27.2053 123.065C27.1316 122.842 27.0094 122.637 26.8467 122.463C26.684 122.289 26.4844 122.149 26.2612 122.054C26.038 121.959 25.7962 121.91 25.5518 121.911H22.2464C22.0125 121.912 21.7813 121.959 21.5672 122.049C21.3531 122.139 21.1605 122.27 21.0014 122.434C20.8422 122.598 20.7198 122.791 20.6418 123.001C20.5637 123.212 20.5316 123.435 20.5474 123.658Z" fill="#FF725E"/>
<path d="M26.8569 145.096C26.6508 145.688 26.2653 146.209 25.7492 146.592C25.2331 146.975 24.6095 147.204 23.9574 147.249C23.3052 147.294 22.6538 147.153 22.0855 146.844C21.5172 146.535 21.0576 146.073 20.7647 145.514C20.4719 144.956 20.359 144.327 20.4404 143.708C20.5217 143.089 20.7936 142.506 21.2218 142.034C21.6499 141.562 22.2149 141.222 22.8455 141.057C23.476 140.892 24.1437 140.909 24.764 141.106C25.5954 141.37 26.2829 141.939 26.6754 142.687C27.0678 143.435 27.1331 144.302 26.8569 145.096Z" fill="#FF725E"/>
<defs>
<filter id="filter0_d_4_900" x="29.5557" y="116.4" width="208.917" height="77.8314" filterUnits="userSpaceOnUse" color-interpolation-filters="sRGB">
<feFlood flood-opacity="0" result="BackgroundImageFix"/>
<feColorMatrix in="SourceAlpha" type="matrix" values="0 0 0 0 0 0 0 0 0 0 0 0 0 0 0 0 0 0 127 0" result="hardAlpha"/>
<feOffset/>
<feGaussianBlur stdDeviation="5"/>
<feComposite in2="hardAlpha" operator="out"/>
<feColorMatrix type="matrix" values="0 0 0 0 0.933333 0 0 0 0 0.354348 0 0 0 0 0.272222 0 0 0 1 0"/>
<feBlend mode="normal" in2="BackgroundImageFix" result="effect1_dropShadow_4_900"/>
<feBlend mode="normal" in="SourceGraphic" in2="effect1_dropShadow_4_900" result="shape"/>
</filter>
<filter id="filter1_dd_4_900" x="43.2122" y="129.582" width="47.0519" height="46.969" filterUnits="userSpaceOnUse" color-interpolation-filters="sRGB">
<feFlood flood-opacity="0" result="BackgroundImageFix"/>
<feColorMatrix in="SourceAlpha" type="matrix" values="0 0 0 0 0 0 0 0 0 0 0 0 0 0 0 0 0 0 127 0" result="hardAlpha"/>
<feOffset/>
<feGaussianBlur stdDeviation="5"/>
<feComposite in2="hardAlpha" operator="out"/>
<feColorMatrix type="matrix" values="0 0 0 0 0.933333 0 0 0 0 0.354348 0 0 0 0 0.272222 0 0 0 1 0"/>
<feBlend mode="normal" in2="BackgroundImageFix" result="effect1_dropShadow_4_900"/>
<feColorMatrix in="SourceAlpha" type="matrix" values="0 0 0 0 0 0 0 0 0 0 0 0 0 0 0 0 0 0 127 0" result="hardAlpha"/>
<feOffset dy="2"/>
<feGaussianBlur stdDeviation="2"/>
<feComposite in2="hardAlpha" operator="out"/>
<feColorMatrix type="matrix" values="0 0 0 0 0 0 0 0 0 0 0 0 0 0 0 0 0 0 0.25 0"/>
<feBlend mode="normal" in2="effect1_dropShadow_4_900" result="effect2_dropShadow_4_900"/>
<feBlend mode="normal" in="SourceGraphic" in2="effect2_dropShadow_4_900" result="shape"/>
</filter>
</defs>
</svg>
