<svg width="388" height="309" viewBox="0 0 388 309" fill="none" xmlns="http://www.w3.org/2000/svg">
<path d="M348 307.934H42V304.1H348V307.934Z" fill="#E0E0E0"/>
<path d="M314.568 307.934C314.568 307.88 253.546 307.834 178.29 307.834C103.034 307.834 42 307.865 42 307.934C42 308.003 103.009 308.034 178.29 308.034C253.572 308.034 314.568 307.991 314.568 307.934Z" fill="#263238"/>
<path d="M314.568 304.1C314.568 304.046 253.546 304 178.29 304C103.034 304 42 304.046 42 304.1C42 304.154 103.009 304.204 178.29 304.204C253.572 304.204 314.568 304.157 314.568 304.1Z" fill="#263238"/>
<path d="M48.8302 304.223C48.6828 305.449 48.6828 306.685 48.8302 307.911C48.9777 306.685 48.9777 305.449 48.8302 304.223Z" fill="#263238"/>
<path d="M63.4306 304.223C63.2832 305.449 63.2832 306.685 63.4306 307.911C63.5781 306.685 63.5781 305.449 63.4306 304.223Z" fill="#263238"/>
<path d="M78.0438 304.223C77.8963 305.449 77.8963 306.685 78.0438 307.911C78.1912 306.685 78.1912 305.449 78.0438 304.223Z" fill="#263238"/>
<path d="M92.6357 304.223C92.4883 305.449 92.4883 306.685 92.6357 307.911C92.7831 306.685 92.7831 305.449 92.6357 304.223Z" fill="#263238"/>
<path d="M107.236 304.223C107.089 305.449 107.089 306.685 107.236 307.911C107.383 306.685 107.383 305.449 107.236 304.223Z" fill="#263238"/>
<path d="M121.849 304.223C121.702 305.449 121.702 306.685 121.849 307.911C121.997 306.685 121.997 305.449 121.849 304.223Z" fill="#263238"/>
<path d="M136.441 304.223C136.294 305.449 136.294 306.685 136.441 307.911C136.589 306.685 136.589 305.449 136.441 304.223Z" fill="#263238"/>
<path d="M151.041 304.223C150.894 305.449 150.894 306.685 151.041 307.911C151.189 306.685 151.189 305.449 151.041 304.223Z" fill="#263238"/>
<path d="M165.655 304.223C165.507 305.449 165.507 306.685 165.655 307.911C165.802 306.685 165.802 305.449 165.655 304.223Z" fill="#263238"/>
<path d="M180.246 304.223C180.099 305.449 180.099 306.685 180.246 307.911C180.394 306.685 180.394 305.449 180.246 304.223Z" fill="#263238"/>
<path d="M194.851 304.223C194.704 305.449 194.704 306.685 194.851 307.911C194.999 306.685 194.999 305.449 194.851 304.223Z" fill="#263238"/>
<path d="M209.46 304.223C209.313 305.449 209.313 306.685 209.46 307.911C209.607 306.685 209.607 305.449 209.46 304.223Z" fill="#263238"/>
<path d="M224.052 304.223C223.904 305.449 223.904 306.685 224.052 307.911C224.199 306.685 224.199 305.449 224.052 304.223Z" fill="#263238"/>
<path d="M238.657 304.223C238.509 305.449 238.509 306.685 238.657 307.911C238.804 306.685 238.804 305.449 238.657 304.223Z" fill="#263238"/>
<path d="M253.265 304.223C253.118 305.449 253.118 306.685 253.265 307.911C253.413 306.685 253.413 305.449 253.265 304.223Z" fill="#263238"/>
<path d="M267.862 304.223C267.714 305.449 267.714 306.685 267.862 307.911C268.009 306.685 268.009 305.449 267.862 304.223Z" fill="#263238"/>
<path d="M282.462 304.223C282.315 305.449 282.315 306.685 282.462 307.911C282.609 306.685 282.609 305.449 282.462 304.223Z" fill="#263238"/>
<path d="M297.071 304.223C296.923 305.449 296.923 306.685 297.071 307.911C297.218 306.685 297.218 305.449 297.071 304.223Z" fill="#263238"/>
<path d="M311.667 304.223C311.52 305.449 311.52 306.685 311.667 307.911C311.814 306.685 311.814 305.449 311.667 304.223Z" fill="#263238"/>
<path d="M326.267 304.223C326.12 305.449 326.12 306.685 326.267 307.911C326.415 306.685 326.415 305.449 326.267 304.223Z" fill="#263238"/>
<path d="M340.876 304.223C340.729 305.449 340.729 306.685 340.876 307.911C341.024 306.685 341.024 305.449 340.876 304.223Z" fill="#263238"/>
<path d="M169.108 295.395L68.8815 294.935C63.0951 294.899 57.5588 292.571 53.4855 288.461C49.4122 284.351 47.1341 278.794 47.1501 273.007L48.2133 21.739C48.2472 15.95 50.5754 10.4106 54.6873 6.33547C58.7991 2.26034 64.3592 -0.017959 70.1483 0.000106623L170.375 0.460068C176.159 0.495955 181.693 2.82185 185.766 6.92863C189.839 11.0354 192.119 16.5885 192.106 22.3724L191.043 273.641C191.013 279.432 188.687 284.976 184.575 289.054C180.462 293.132 174.9 295.413 169.108 295.395Z" fill="#455A64"/>
<path d="M170.232 9.13151L150.8 9.04102C149.521 9.06482 148.303 9.59491 147.414 10.5151C146.525 11.4353 146.037 12.6704 146.057 13.9498V17.4787C146.067 18.1121 145.952 18.7412 145.719 19.3301C145.485 19.919 145.138 20.4561 144.697 20.9107C144.256 21.3652 143.729 21.7283 143.147 21.9791C142.566 22.2299 141.94 22.3636 141.307 22.3724L103.424 22.199C102.145 22.1615 100.933 21.6194 100.053 20.6911C99.1729 19.7628 98.6959 18.5239 98.7264 17.245V13.7161C98.7488 12.4456 98.27 11.2174 97.3936 10.2973C96.5173 9.37718 95.3138 8.83918 94.0438 8.79973H87.2122L70.2086 8.67154C66.1542 8.65149 62.2578 10.2424 59.3761 13.0944C56.4944 15.9464 54.8632 19.8261 54.8413 23.8805L53.8083 269.139C53.7902 273.193 55.383 277.089 58.2365 279.969C61.0899 282.85 64.9704 284.479 69.0248 284.499L169.056 284.959C171.064 284.968 173.054 284.581 174.913 283.821C176.771 283.06 178.462 281.942 179.888 280.528C181.315 279.114 182.449 277.433 183.225 275.582C184.002 273.73 184.406 271.743 184.415 269.735L185.448 24.4837C185.457 22.4766 185.071 20.4873 184.311 18.6295C183.551 16.7717 182.433 15.0817 181.02 13.6561C179.607 12.2305 177.927 11.0972 176.076 10.3209C174.225 9.54455 172.239 9.1404 170.232 9.13151Z" fill="#FAFAFA"/>
<path d="M54.7207 53.3257H71.1135L85.7418 67.9616L70.5328 83.1706L54.8941 67.5243L54.7207 53.3257Z" fill="#EBEBEB"/>
<path d="M89.0822 61.5372L80.8632 53.3257H99.3522L89.0822 61.5372Z" fill="#EBEBEB"/>
<path d="M96.2682 68.2481L110.663 53.8535H160.957C160.957 53.8535 168.656 88.2377 138.336 110.316L96.2682 68.2481Z" fill="#EBEBEB"/>
<path d="M90.1077 72.8327L74.7102 88.2377L117.321 130.848L132.718 114.931L90.1077 72.8327Z" fill="#EBEBEB"/>
<path d="M54.5322 96.9695L64.1839 86.9558L54.7207 77.4926L54.5322 96.9695Z" fill="#EBEBEB"/>
<path d="M69.9598 92.8599L55.1354 107.684V128.285L85.7418 159.6L111.673 135.471L69.9598 92.8599Z" fill="#EBEBEB"/>
<path d="M144.104 114.637C144.104 114.637 175.865 91.3519 165.595 53.8535H185.343L185.101 159.69L144.104 114.637Z" fill="#EBEBEB"/>
<path d="M138.132 120.744L122.78 136.775L169.862 183.865L184.264 168.603L138.132 120.744Z" fill="#EBEBEB"/>
<path d="M116.363 141.164L92.2265 165.127L140.5 213.061L164.592 189.769L116.363 141.164Z" fill="#EBEBEB"/>
<path d="M103.711 261.229L140.613 222.984L175.714 258.763L103.711 261.229Z" fill="#EBEBEB"/>
<path d="M146.367 218.045L184.822 179.966C184.822 181.656 184.491 258.922 184.491 258.922L146.367 218.045Z" fill="#EBEBEB"/>
<path d="M113.468 196.661L135.267 218.46L92.2266 262.873L72.3426 239.023L113.468 196.661Z" fill="#EBEBEB"/>
<path d="M54.5699 242.114C56.6284 241.911 109.343 192.544 109.343 192.544L54.5699 135.787V242.114Z" fill="#EBEBEB"/>
<path d="M53.8083 253.365L66.4988 242.114L84.0754 262.873H53.8083V254.933" fill="#EBEBEB"/>
<path d="M70.2086 38.3807C68.8675 37.3911 67.6068 36.2968 66.4384 35.1081C66.4384 34.5351 66.4384 34.9498 66.4384 34.8216L66.4912 34.7764L66.5817 34.6934L66.7702 34.52L67.1322 34.1807L67.8183 33.5473L69.0022 32.4916C69.3607 32.1253 69.7664 31.8083 70.2086 31.5491C69.9396 31.9591 69.6148 32.3296 69.2435 32.65L68.1124 33.7659L67.4413 34.4144L67.0794 34.7613L66.8984 34.9347L66.8004 35.0176L66.7551 35.0629V34.7764C67.9984 35.8861 69.153 37.0912 70.2086 38.3807Z" fill="#263238"/>
<path d="M174.454 32.6274C174.456 32.7906 174.409 32.9505 174.319 33.0868C174.229 33.2231 174.101 33.3296 173.951 33.3928C173.8 33.4559 173.634 33.4728 173.474 33.4414C173.314 33.4099 173.167 33.3314 173.051 33.216C172.936 33.1007 172.858 32.9535 172.826 32.7934C172.795 32.6332 172.812 32.4674 172.875 32.3169C172.938 32.1664 173.044 32.0381 173.181 31.9484C173.317 31.8586 173.477 31.8115 173.64 31.813C173.856 31.813 174.063 31.8988 174.216 32.0515C174.369 32.2043 174.454 32.4114 174.454 32.6274Z" fill="#263238"/>
<path d="M174.221 34.8668C174.336 34.9817 174.414 35.1282 174.446 35.2876C174.478 35.4471 174.462 35.6125 174.4 35.7627C174.337 35.913 174.232 36.0415 174.097 36.1318C173.962 36.2222 173.803 36.2705 173.64 36.2705C173.477 36.2705 173.319 36.2222 173.183 36.1318C173.048 36.0415 172.943 35.913 172.881 35.7627C172.818 35.6125 172.802 35.4471 172.834 35.2876C172.866 35.1282 172.944 34.9817 173.059 34.8668C173.215 34.7149 173.423 34.6297 173.64 34.6297C173.857 34.6297 174.066 34.7149 174.221 34.8668Z" fill="#263238"/>
<path d="M174.454 38.26C174.435 38.4634 174.34 38.6523 174.189 38.7897C174.038 38.9271 173.841 39.0033 173.636 39.0033C173.432 39.0033 173.235 38.9271 173.084 38.7897C172.932 38.6523 172.838 38.4634 172.818 38.26C172.807 38.146 172.82 38.0309 172.856 37.9222C172.892 37.8135 172.951 37.7135 173.028 37.6287C173.105 37.5439 173.199 37.4762 173.304 37.4298C173.408 37.3834 173.522 37.3595 173.636 37.3595C173.751 37.3595 173.864 37.3834 173.969 37.4298C174.074 37.4762 174.168 37.5439 174.245 37.6287C174.322 37.7135 174.38 37.8135 174.416 37.9222C174.452 38.0309 174.465 38.146 174.454 38.26Z" fill="#263238"/>
<path d="M139.12 35.9678H103.846V38.9085H139.12V35.9678Z" fill="#263238"/>
<g filter="url(#filter0_dd_4_873)">
<path d="M135.282 88.7278C135.282 74.9892 120.85 66.2876 106.131 73.172C102.801 74.7277 100.076 77.3383 98.3795 80.5993C94.6772 87.7702 96.3134 95.9591 99.6689 102.76L111.13 131.799C111.492 132.724 112.125 133.518 112.945 134.079C113.766 134.639 114.736 134.938 115.73 134.938C116.723 134.938 117.694 134.639 118.515 134.079C119.335 133.518 119.968 132.724 120.33 131.799L131.557 102.61C135.448 93.712 135.282 88.7278 135.282 88.7278ZM121.483 100.717C111.59 106.47 101.562 95.8384 106.983 85.3422C107.697 83.958 108.787 82.803 110.127 82.0093C120.028 76.256 130.057 86.888 124.628 97.3842C123.916 98.7705 122.826 99.9263 121.483 100.717Z" fill="#FF725E"/>
</g>
<path d="M362.626 223.292H35.212V271.334H362.626V223.292Z" fill="#FF725E"/>
<g opacity="0.5">
<path d="M362.626 223.292H35.212V271.334H362.626V223.292Z" fill="black"/>
</g>
<path d="M81.3322 302.507C98.7295 301.337 111.884 286.284 110.713 268.887C109.542 251.49 94.4897 238.336 77.0925 239.506C59.6952 240.677 46.5411 255.729 47.7119 273.127C48.8826 290.524 63.935 303.678 81.3322 302.507Z" fill="#263238"/>
<path d="M47.646 270.472C47.646 270.502 47.646 270.531 47.646 270.555C47.5859 274.701 48.3431 278.818 49.8742 282.672C51.4053 286.525 53.6805 290.039 56.5697 293.013C59.459 295.988 62.9057 298.364 66.7132 300.006C70.5207 301.648 74.6143 302.524 78.7604 302.584C82.9064 302.644 87.0237 301.887 90.8772 300.356C94.7306 298.825 98.2447 296.549 101.219 293.66C104.193 290.771 106.569 287.324 108.211 283.517C109.853 279.709 110.729 275.616 110.789 271.47C110.789 271.44 110.789 271.411 110.789 271.387L47.646 270.472Z" fill="#263238"/>
<path d="M57.0467 270.691C56.9817 275.075 58.2184 279.379 60.6003 283.06C62.9821 286.741 66.4022 289.633 70.4278 291.37C74.4534 293.107 78.9038 293.611 83.216 292.819C87.5282 292.026 91.5084 289.973 94.6534 286.918C97.7983 283.863 99.9665 279.944 100.884 275.657C101.801 271.369 101.427 266.906 99.807 262.832C98.1876 258.757 95.3961 255.255 91.7858 252.767C88.1755 250.279 83.9085 248.918 79.5246 248.856C73.6488 248.772 67.9804 251.025 63.7654 255.12C59.5503 259.214 57.1337 264.815 57.0467 270.691Z" fill="#FAFAFA"/>
<path d="M79.5246 248.85C73.6484 248.765 67.9791 251.017 63.7637 255.112C59.5483 259.207 57.1321 264.809 57.0467 270.685L101.371 271.328C101.455 265.45 99.1999 259.78 95.1029 255.565C91.006 251.349 85.4023 248.934 79.5246 248.85Z" fill="#E0E0E0"/>
<path d="M65.7097 270.815C65.6703 273.485 66.4238 276.107 67.8749 278.35C69.326 280.592 71.4095 282.353 73.8618 283.411C76.3142 284.469 79.0252 284.776 81.652 284.293C84.2788 283.81 86.7034 282.559 88.619 280.698C90.5346 278.837 91.8553 276.449 92.4138 273.838C92.9724 271.226 92.7439 268.507 91.7571 266.025C90.7703 263.543 89.0696 261.41 86.8701 259.895C84.6707 258.38 82.0712 257.551 79.4007 257.513C77.6283 257.487 75.8682 257.811 74.2209 258.466C72.5736 259.12 71.0713 260.093 69.8 261.328C68.5286 262.563 67.513 264.037 66.8112 265.664C66.1094 267.292 65.7351 269.042 65.7097 270.815Z" fill="#263238"/>
<path d="M322.471 302.496C339.879 301.487 353.172 286.557 352.162 269.149C351.152 251.742 336.222 238.449 318.815 239.459C301.407 240.469 288.114 255.399 289.124 272.806C290.134 290.213 305.064 303.506 322.471 302.496Z" fill="#263238"/>
<path d="M289.067 270.472C289.067 270.502 289.067 270.531 289.067 270.555C289.007 274.701 289.764 278.818 291.295 282.672C292.826 286.525 295.101 290.039 297.99 293.013C300.88 295.988 304.326 298.364 308.134 300.006C311.941 301.648 316.035 302.524 320.181 302.584C324.327 302.644 328.444 301.887 332.298 300.356C336.151 298.825 339.665 296.549 342.64 293.66C345.614 290.771 347.99 287.324 349.632 283.517C351.274 279.709 352.15 275.616 352.21 271.47C352.21 271.44 352.21 271.411 352.21 271.387L289.067 270.472Z" fill="#263238"/>
<path d="M298.467 270.691C298.402 275.075 299.639 279.379 302.021 283.06C304.403 286.741 307.823 289.633 311.849 291.37C315.874 293.107 320.325 293.611 324.637 292.819C328.949 292.026 332.929 289.973 336.074 286.918C339.219 283.863 341.387 279.944 342.305 275.657C343.222 271.369 342.847 266.906 341.228 262.832C339.608 258.757 336.817 255.255 333.207 252.767C329.596 250.279 325.329 248.918 320.945 248.856C315.07 248.772 309.401 251.025 305.186 255.12C300.971 259.214 298.554 264.815 298.467 270.691Z" fill="#FAFAFA"/>
<path d="M320.945 248.85C315.069 248.765 309.4 251.017 305.184 255.112C300.969 259.207 298.553 264.809 298.467 270.685L342.792 271.328C342.875 265.45 340.621 259.78 336.524 255.565C332.427 251.349 326.823 248.934 320.945 248.85Z" fill="#E0E0E0"/>
<path d="M307.113 270.815C307.073 273.485 307.827 276.107 309.278 278.35C310.729 280.592 312.812 282.353 315.265 283.411C317.717 284.469 320.428 284.776 323.055 284.293C325.682 283.81 328.106 282.559 330.022 280.698C331.938 278.837 333.258 276.449 333.817 273.838C334.375 271.226 334.147 268.507 333.16 266.025C332.173 263.543 330.473 261.41 328.273 259.895C326.074 258.38 323.474 257.551 320.804 257.513C319.031 257.487 317.271 257.811 315.624 258.466C313.977 259.12 312.474 260.093 311.203 261.328C309.932 262.563 308.916 264.037 308.214 265.664C307.512 267.292 307.138 269.042 307.113 270.815Z" fill="#263238"/>
<path d="M120.591 196.264C120.591 196.264 74.1013 199.693 56.8578 203.558C44.713 206.278 21.2968 210.982 21.5801 225.711L23.439 236.274C23.439 236.274 14.7582 240.24 14.7582 250.367C14.7582 260.493 12.6397 276.191 32.9164 276.822C36.2565 276.922 42.6004 276.822 42.6004 276.822C42.6004 276.822 38.7114 233.637 78.3797 232.374C118.738 231.087 116.059 276.427 116.059 276.427H284.499C284.499 276.427 277.583 232.256 321.028 232.167C364.473 232.079 357.864 276.716 357.864 276.716C357.864 276.716 373.844 278.097 381.28 264.665C388.715 251.234 386.786 241.651 386.786 241.651L386.538 233.159C386.491 231.765 385.916 230.441 384.93 229.455C383.944 228.469 382.62 227.895 381.227 227.847C381.227 227.847 384.13 206.473 379.675 202.773C375.219 199.073 350.806 176.748 350.806 176.748L351.986 176.023C352.423 175.746 352.774 175.351 352.996 174.884C353.218 174.416 353.303 173.895 353.241 173.381C353.18 172.867 352.974 172.381 352.647 171.98C352.32 171.578 351.886 171.278 351.396 171.113C342.125 167.926 323.796 161.618 319.488 160.113C318.842 159.883 318.17 159.741 317.487 159.688C314.914 159.493 307.632 159.033 294.266 158.891C277.984 158.714 213.342 158.891 213.342 158.891C213.342 158.891 191.094 160.721 178.701 166.173C165.707 171.909 120.591 196.264 120.591 196.264Z" fill="#FF725E"/>
<g opacity="0.4">
<path d="M26.5489 249.186C24.8612 248.844 22.2764 248.815 20.9899 249.954C20.0339 250.803 19.7802 252.178 19.6386 253.447C19.3675 255.185 19.4075 256.958 19.7566 258.682C19.9346 259.543 20.2886 260.358 20.7963 261.076C21.3041 261.794 21.9546 262.399 22.7072 262.854C24.2533 263.692 26.366 263.556 27.564 262.264C28.6616 261.083 28.7855 259.313 28.7442 257.737C28.7029 255.459 28.8858 253.53 28.4668 251.293C28.3744 250.818 28.1723 250.372 27.8767 249.989C27.7297 249.76 27.5318 249.568 27.2985 249.428C27.0651 249.287 26.8026 249.203 26.5312 249.181" fill="black"/>
</g>
<path d="M23.4508 236.274C28.3842 236.274 33.1702 236.003 38.0977 235.684C38.6345 235.708 39.1633 235.548 39.5966 235.23C39.7949 234.983 39.9423 234.7 40.0304 234.396C40.1185 234.092 40.1456 233.774 40.11 233.46C40.11 230.816 40.0038 227.806 37.9974 226.083C36.7699 225.033 35.0881 224.702 33.477 224.555C29.4763 224.122 25.4294 224.524 21.5919 225.735L23.4508 236.274Z" fill="#FAFAFA"/>
<path d="M125.944 275.075C125.944 275.075 125.944 274.934 125.909 274.65C125.873 274.367 125.861 273.948 125.826 273.411C125.767 272.313 125.678 270.714 125.566 268.649C125.454 266.583 125.312 264.052 125.017 261.125C124.713 257.81 124.13 254.528 123.277 251.311C122.199 247.425 120.601 243.703 118.526 240.246C116.175 236.254 113.052 232.771 109.338 230.001C101.377 224.336 90.619 221.15 79.3653 220.996C68.1116 220.843 57.3476 224.401 49.5816 230.367C45.859 233.121 42.5982 236.45 39.9212 240.228C37.5839 243.509 35.6834 247.08 34.2678 250.851C33.1001 253.967 32.298 257.209 31.8778 260.511C31.5487 263.001 31.4519 265.516 31.5886 268.023C31.6855 269.608 31.8826 271.185 32.1788 272.744C32.2732 273.269 32.3499 273.677 32.3971 273.96C32.4443 274.243 32.462 274.379 32.462 274.379C32.462 274.379 32.4266 274.243 32.3676 273.972L32.1138 272.791C31.7927 271.234 31.5797 269.657 31.4765 268.07C31.3161 265.555 31.3951 263.029 31.7126 260.529C32.1193 257.21 32.9115 253.95 34.0731 250.815C35.4838 247.014 37.3843 243.414 39.7265 240.104C42.4095 236.295 45.6848 232.94 49.4281 230.167C57.2296 224.171 68.0171 220.577 79.3594 220.725C90.7016 220.872 101.477 224.088 109.503 229.807C113.239 232.604 116.379 236.119 118.738 240.146C120.812 243.629 122.4 247.38 123.459 251.293C124.309 254.523 124.879 257.821 125.165 261.148C125.442 264.099 125.566 266.613 125.661 268.678C125.755 270.744 125.82 272.349 125.867 273.446C125.867 273.984 125.903 274.397 125.914 274.686C125.926 274.975 125.944 275.075 125.944 275.075Z" fill="white"/>
<path d="M127.714 275.807V275.453L127.679 274.408C127.649 273.476 127.608 272.113 127.549 270.331C127.449 266.749 127.301 261.514 127.112 254.852C126.924 248.189 126.705 240.098 126.451 230.833C126.386 228.514 126.327 226.112 126.257 223.663C126.215 222.412 126.271 221.159 126.422 219.916L126.687 218.016L127.077 216.11C127.688 213.506 128.568 210.972 129.703 208.55C130.872 206.011 132.316 203.609 134.011 201.386L163.181 183.01L171.059 178.053C173.714 176.288 176.502 174.731 179.398 173.397C182.358 172.002 185.397 170.779 188.497 169.732C190.043 169.189 191.631 168.746 193.218 168.274C194.806 167.802 196.423 167.413 198.063 167.094C204.249 165.771 210.538 164.981 216.859 164.733C222.924 164.443 229.001 164.462 235.064 164.792H235.235L235.194 164.964L227.357 200.023C225.909 202.4 224.722 204.927 223.816 207.559C222.925 210.055 222.524 212.7 222.636 215.349C222.837 217.939 222.908 220.477 222.972 222.938C223.037 225.398 223.067 227.783 223.114 230.102C223.25 239.367 223.285 247.446 223.309 254.102C223.332 260.759 223.309 265.993 223.309 269.569C223.309 271.34 223.309 272.715 223.309 273.647C223.309 274.102 223.309 274.45 223.309 274.692C223.309 274.934 223.309 275.046 223.309 275.046C223.309 275.046 223.309 274.922 223.309 274.692C223.309 274.462 223.309 274.102 223.309 273.647C223.309 272.715 223.309 271.352 223.309 269.569C223.309 265.993 223.256 260.759 223.214 254.108C223.173 247.457 223.114 239.355 222.955 230.102C222.908 227.788 222.856 225.402 222.801 222.944C222.731 220.483 222.66 217.957 222.453 215.366C222.333 212.685 222.734 210.005 223.633 207.476C224.533 204.823 225.72 202.276 227.174 199.881V199.923C229.576 189.129 232.202 177.35 234.982 164.857L235.117 165.034C229.067 164.708 223.005 164.693 216.953 164.987C210.647 165.231 204.374 166.021 198.205 167.348C196.57 167.672 194.977 168.127 193.378 168.528C191.778 168.929 190.215 169.443 188.657 169.98C185.556 171.028 182.517 172.254 179.557 173.65C176.676 174.976 173.902 176.523 171.26 178.277L163.376 183.234L134.206 201.569V201.54C132.514 203.747 131.073 206.136 129.91 208.662C128.776 211.066 127.898 213.582 127.289 216.169C125.962 221.226 126.628 226.201 126.64 230.833L127.23 254.852C127.39 261.508 127.514 266.749 127.596 270.325C127.638 272.095 127.661 273.476 127.685 274.408C127.685 274.861 127.685 275.209 127.685 275.453C127.714 275.689 127.714 275.807 127.714 275.807Z" fill="#263238"/>
<path d="M234.852 165.766H235.129L235.938 165.737L239.071 165.66L250.691 165.436L289.863 164.763H289.94L289.987 164.822L295.475 171.544C301.034 178.371 306.334 184.863 311.149 190.764L312.92 192.947C313.493 193.679 313.985 194.471 314.389 195.308C315.12 196.861 315.517 198.55 315.555 200.265C315.592 201.981 315.27 203.686 314.607 205.269L312.837 209.4L307.42 221.934L305.932 225.334L305.537 226.219C305.449 226.413 305.395 226.514 305.395 226.514C305.395 226.514 305.431 226.408 305.508 226.207C305.584 226.006 305.72 225.694 305.873 225.31C306.21 224.519 306.688 223.362 307.307 221.887L312.619 209.317C313.634 206.65 315.422 203.841 315.298 200.418C315.271 198.679 314.869 196.966 314.117 195.396C313.722 194.581 313.239 193.812 312.678 193.101L310.907 190.917L295.216 171.715L289.733 164.993L289.851 165.052L250.673 165.642L239.053 165.778H235.92H235.117L234.852 165.766Z" fill="#263238"/>
<path d="M215.053 217.863C215.053 217.863 215.218 217.863 215.519 217.792C215.962 217.713 216.384 217.544 216.758 217.296C217.353 216.908 217.798 216.33 218.021 215.655C218.157 215.237 218.213 214.796 218.187 214.357C218.173 213.867 218.047 213.387 217.821 212.953C217.557 212.458 217.165 212.044 216.687 211.752C216.208 211.46 215.661 211.302 215.1 211.294H211.123H202.005C201.235 211.296 200.494 211.586 199.928 212.109C199.376 212.612 199.024 213.297 198.937 214.039C198.847 214.755 198.979 215.482 199.314 216.122C199.657 216.722 200.188 217.193 200.825 217.461C201.456 217.678 202.125 217.76 202.79 217.703H204.72H208.19L213.212 217.75L214.575 217.78C214.735 217.777 214.895 217.788 215.053 217.815C214.894 217.834 214.735 217.844 214.575 217.845H213.212L208.19 217.892H204.72H202.79C202.454 217.892 202.129 217.892 201.769 217.892C201.408 217.87 201.053 217.788 200.719 217.65C200.019 217.363 199.435 216.85 199.061 216.192C198.686 215.502 198.539 214.711 198.642 213.932C198.734 213.104 199.128 212.339 199.749 211.783C200.369 211.227 201.172 210.919 202.005 210.917H211.123H215.106C215.708 210.929 216.296 211.104 216.807 211.423C217.318 211.742 217.733 212.193 218.01 212.728C218.246 213.193 218.373 213.706 218.381 214.227C218.4 214.688 218.334 215.148 218.187 215.585C217.937 216.286 217.456 216.881 216.823 217.272C216.433 217.521 215.991 217.676 215.531 217.727C215.378 217.791 215.217 217.836 215.053 217.863Z" fill="#263238"/>
<path d="M302.392 217.863C302.392 217.863 302.557 217.863 302.858 217.792C303.301 217.713 303.722 217.544 304.097 217.296C304.692 216.908 305.137 216.33 305.36 215.655C305.495 215.237 305.551 214.796 305.525 214.357C305.511 213.867 305.386 213.387 305.159 212.953C304.896 212.458 304.504 212.044 304.026 211.752C303.547 211.46 302.999 211.302 302.439 211.294H298.461H289.344C288.574 211.296 287.832 211.586 287.267 212.109C286.714 212.612 286.362 213.297 286.275 214.039C286.186 214.755 286.318 215.482 286.653 216.122C286.995 216.722 287.526 217.193 288.164 217.461C288.795 217.678 289.464 217.76 290.129 217.703H292.059H295.529L300.55 217.75L301.914 217.78C302.074 217.777 302.234 217.788 302.392 217.815C302.233 217.834 302.073 217.844 301.914 217.845H300.55L295.529 217.892H292.059H290.129C289.792 217.892 289.468 217.892 289.108 217.892C288.747 217.87 288.392 217.788 288.058 217.65C287.358 217.363 286.774 216.85 286.399 216.192C286.025 215.502 285.878 214.711 285.98 213.932C286.073 213.104 286.467 212.339 287.087 211.783C287.708 211.227 288.511 210.919 289.344 210.917H298.461H302.445C303.047 210.929 303.635 211.104 304.146 211.423C304.657 211.742 305.072 212.193 305.348 212.728C305.585 213.193 305.712 213.706 305.72 214.227C305.739 214.688 305.673 215.148 305.525 215.585C305.276 216.286 304.795 216.881 304.162 217.272C303.772 217.521 303.33 217.676 302.87 217.727C302.716 217.791 302.556 217.836 302.392 217.863Z" fill="#263238"/>
<path d="M378.925 203.617H361.457C360.283 203.617 359.131 203.937 358.125 204.543C357.12 205.149 356.299 206.019 355.751 207.057C355.301 207.917 355.05 208.866 355.017 209.836C354.985 210.805 355.171 211.77 355.562 212.658L362.408 228.219L379.899 228.048C379.899 228.048 383.623 208.32 378.925 203.617Z" fill="#FAFAFA"/>
<path d="M136.33 201.416L226.46 199.752L285.119 198.678L304.463 187.506C304.831 187.292 305.149 187.002 305.396 186.656C305.643 186.31 305.814 185.915 305.897 185.498C305.981 185.08 305.974 184.65 305.878 184.235C305.783 183.821 305.6 183.431 305.342 183.092L293.298 167.271C292.679 166.456 291.882 165.795 290.967 165.336C290.053 164.878 289.045 164.635 288.022 164.627L222.412 164.096C222.412 164.096 197.709 162.656 178.241 173.538C157.769 185.028 136.33 201.416 136.33 201.416Z" fill="#263238"/>
<path d="M177.633 165.731C177.633 165.731 182.153 167.79 179.215 169.696C176.276 171.603 130.612 200.383 130.612 200.383L120.113 195.632C138.708 185.288 157.486 175.226 177.633 165.731Z" fill="#455A64"/>
<path d="M132.087 201.115L131.804 201.186L130.972 201.368L127.767 202.029C124.982 202.584 120.946 203.363 115.965 204.225C105.933 205.948 92.0529 207.954 76.6093 209.288C72.744 209.624 68.9377 209.878 65.3261 210.138C61.7146 210.397 58.162 210.604 54.8219 210.905C48.1358 211.495 42.1519 212.463 37.2892 213.909C33.4242 214.983 29.7046 216.525 26.2126 218.5C24.9556 219.161 24.0586 219.81 23.4272 220.199L22.7072 220.654L22.4535 220.801C22.5292 220.74 22.608 220.683 22.6895 220.63L23.3918 220.146C24.0173 219.739 24.9025 219.072 26.1536 218.376C29.6244 216.347 33.3357 214.761 37.2007 213.655C42.0752 212.174 48.0767 211.176 54.7688 210.58C58.1148 210.262 61.6319 210.037 65.2789 209.795C68.9259 209.554 72.6968 209.27 76.5562 208.934C91.9939 207.6 105.891 205.629 115.906 203.959C120.916 203.127 124.952 202.384 127.744 201.864L130.96 201.274L131.798 201.121L132.087 201.115Z" fill="#263238"/>
<path d="M385.906 241.473C385.906 241.562 379.899 241.627 372.493 241.627C365.087 241.627 359.073 241.562 359.073 241.473C359.073 241.385 365.081 241.32 372.493 241.32C379.905 241.32 385.906 241.391 385.906 241.473Z" fill="#263238"/>
<path d="M276.007 256.805C276.007 256.893 242.098 256.958 200.276 256.958C158.454 256.958 124.539 256.893 124.539 256.805C124.539 256.716 158.442 256.652 200.276 256.652C242.11 256.652 276.007 256.722 276.007 256.805Z" fill="#263238"/>
<path d="M38.6052 241.981C38.6052 242.07 33.8075 242.134 27.8944 242.134C21.9814 242.134 17.1837 242.07 17.1837 241.981C17.1837 241.892 21.9814 241.828 27.8944 241.828C33.8075 241.828 38.6052 241.898 38.6052 241.981Z" fill="#263238"/>
<path d="M350.351 176.135C350.351 176.135 346.327 180.637 347.908 183.942C349.49 187.247 365.842 198.825 365.842 198.825L377.71 201.05L350.351 176.135Z" fill="#455A64"/>
<path d="M237.519 168.068L234.852 196.889L282.605 195.526L301.849 184.337L289.391 168.068H237.519Z" fill="#455A64"/>
<path d="M147.637 198.365C147.637 198.365 176.447 177.557 187.813 173.42C198.783 169.431 204.502 168.428 214.805 168.109C224.654 167.826 230.656 168.109 230.656 168.109L223.043 197.409L147.637 198.365Z" fill="#455A64"/>
<path d="M143.423 198.436C143.424 197.54 143.662 196.66 144.114 195.886C144.567 195.113 145.216 194.473 145.996 194.033L152.618 190.315C154.504 189.254 156.632 188.697 158.796 188.698C160.129 188.7 161.453 188.911 162.721 189.324C164.1 189.801 165.301 190.688 166.164 191.866C167.026 193.044 167.509 194.456 167.548 195.916C167.585 196.896 167.424 197.874 167.075 198.79C166.725 199.707 166.194 200.543 165.514 201.249C164.833 201.956 164.017 202.518 163.114 202.901C162.212 203.285 161.241 203.482 160.26 203.481H148.457C147.121 203.478 145.841 202.945 144.897 201.999C143.953 201.053 143.423 199.772 143.423 198.436Z" fill="#FF725E"/>
<path d="M143.423 198.436C143.423 198.436 143.423 198.66 143.5 199.073C143.589 199.681 143.789 200.267 144.09 200.802C144.567 201.645 145.27 202.338 146.12 202.802C146.65 203.08 147.226 203.26 147.82 203.334C148.497 203.384 149.177 203.397 149.856 203.375L159.953 203.34C160.91 203.365 161.863 203.209 162.762 202.879C163.71 202.524 164.573 201.973 165.293 201.261C166.013 200.549 166.574 199.693 166.94 198.748C167.312 197.752 167.463 196.687 167.383 195.627C167.304 194.582 166.996 193.567 166.481 192.654C165.966 191.741 165.256 190.953 164.402 190.345C163.578 189.775 162.65 189.374 161.67 189.165C158.979 188.528 156.153 188.8 153.633 189.938C152.871 190.28 152.175 190.711 151.485 191.083L149.514 192.18L146.12 194.057C145.267 194.516 144.562 195.21 144.09 196.057C143.793 196.594 143.593 197.18 143.5 197.786C143.441 198.2 143.447 198.424 143.429 198.424C143.407 198.208 143.407 197.99 143.429 197.775C143.496 197.155 143.68 196.554 143.972 196.004C144.436 195.123 145.148 194.397 146.02 193.915L149.39 191.997L151.349 190.882C152.033 190.504 152.73 190.068 153.509 189.702C156.076 188.52 158.966 188.229 161.717 188.876C162.732 189.077 163.697 189.478 164.556 190.056C165.448 190.688 166.19 191.509 166.729 192.461C167.267 193.412 167.589 194.471 167.672 195.562C167.758 196.668 167.601 197.78 167.211 198.819C166.831 199.806 166.244 200.7 165.491 201.443C164.738 202.185 163.836 202.76 162.845 203.127C161.912 203.463 160.926 203.621 159.935 203.593L149.838 203.564C149.151 203.578 148.463 203.557 147.779 203.499C147.157 203.413 146.557 203.213 146.008 202.909C145.139 202.422 144.426 201.697 143.955 200.82C143.666 200.268 143.484 199.668 143.418 199.049C143.403 198.845 143.405 198.64 143.423 198.436Z" fill="#263238"/>
<path d="M365.382 275.341C365.382 275.341 365.382 275.205 365.382 274.934C365.382 274.662 365.429 274.255 365.464 273.753C365.5 273.252 365.559 272.573 365.594 271.806C365.63 271.039 365.653 270.142 365.683 269.145C365.712 268.147 365.683 267.026 365.683 265.81C365.683 264.595 365.594 263.267 365.429 261.851C365.161 258.641 364.59 255.464 363.723 252.361C363.213 250.552 362.584 248.777 361.841 247.05C361.052 245.184 360.1 243.391 358.997 241.692C356.537 237.946 353.409 234.685 349.767 232.073C345.759 229.163 341.285 226.955 336.536 225.546C331.615 224.041 326.256 223.492 320.804 223.451C315.485 223.402 310.191 224.173 305.106 225.735C302.699 226.495 300.361 227.461 298.119 228.621C295.981 229.756 293.951 231.084 292.053 232.586C288.524 235.35 285.38 238.573 282.705 242.17C281.529 243.82 280.491 245.565 279.601 247.387C278.79 249.075 278.073 250.806 277.453 252.574C275.567 257.9 274.42 263.46 274.042 269.097C273.948 271.098 273.959 272.638 274.012 273.712C274.042 274.231 274.066 274.627 274.077 274.892C274.089 275.158 274.077 275.3 274.077 275.3C274.077 275.3 274.077 275.164 274.03 274.892C273.983 274.621 273.971 274.214 273.93 273.712C273.852 272.173 273.852 270.631 273.93 269.091C274.256 263.422 275.374 257.827 277.252 252.468C277.872 250.692 278.585 248.951 279.389 247.251C280.286 245.416 281.328 243.656 282.504 241.987C285.188 238.367 288.341 235.12 291.882 232.332C293.791 230.818 295.834 229.479 297.983 228.331C300.241 227.162 302.594 226.189 305.018 225.422C310.131 223.841 315.458 223.063 320.81 223.115C326.286 223.156 331.668 223.705 336.631 225.227C341.411 226.65 345.913 228.877 349.944 231.813C351.811 233.187 353.556 234.719 355.161 236.392C356.685 237.962 358.043 239.685 359.215 241.532C360.322 243.247 361.275 245.056 362.065 246.938C362.807 248.665 363.432 250.439 363.936 252.249C364.797 255.367 365.356 258.561 365.606 261.786C365.765 263.202 365.765 264.53 365.83 265.751C365.895 266.973 365.83 268.112 365.83 269.091C365.83 270.071 365.742 270.986 365.706 271.759C365.671 272.532 365.594 273.175 365.547 273.706C365.5 274.237 365.464 274.621 365.441 274.886C365.417 275.152 365.382 275.341 365.382 275.341Z" fill="white"/>
<path d="M221.645 201.416H221.243L219.703 201.451L214.044 201.551C209.264 201.64 202.666 201.817 195.372 202.018C188.078 202.218 181.475 202.354 176.695 202.389C174.305 202.389 172.369 202.389 171.03 202.389H169.489H169.094C169.047 202.398 168.999 202.398 168.952 202.389C168.999 202.382 169.047 202.382 169.094 202.389H169.489L171.03 202.354L176.689 202.254C181.469 202.165 188.072 201.988 195.366 201.793C202.66 201.599 209.264 201.451 214.044 201.416C216.404 201.416 218.369 201.416 219.703 201.416H221.243H221.645Z" fill="white"/>
<path d="M213.955 210.285C212.237 210.441 210.511 210.492 208.786 210.439C207.061 210.492 205.335 210.441 203.616 210.285C205.335 210.133 207.061 210.082 208.786 210.132C210.511 210.082 212.237 210.133 213.955 210.285Z" fill="white"/>
<path d="M215.856 178.708C215.885 178.784 209.47 181.458 201.521 184.674C193.572 187.89 187.105 190.439 187.069 190.357C187.034 190.274 193.454 187.607 201.403 184.391C209.352 181.174 215.82 178.631 215.856 178.708Z" fill="white"/>
<path d="M202.849 180.732C202.885 180.814 196.771 183.505 189.2 186.745C181.628 189.985 175.467 192.552 175.432 192.475C175.397 192.399 181.51 189.708 189.082 186.462C196.653 183.216 202.814 180.643 202.849 180.732Z" fill="white"/>
<path d="M285.325 177.592C285.361 177.669 278.94 180.342 270.991 183.558C263.042 186.775 256.574 189.318 256.539 189.241C256.503 189.165 262.924 186.491 270.879 183.275C278.834 180.059 285.278 177.51 285.325 177.592Z" fill="white"/>
<path d="M272.295 179.605C272.331 179.687 266.217 182.378 258.651 185.618C251.086 188.858 244.913 191.425 244.878 191.348C244.843 191.271 250.956 188.58 258.528 185.335C266.099 182.089 272.295 179.552 272.295 179.605Z" fill="white"/>
<path d="M286.582 201.386C286.582 201.469 273.818 201.616 258.073 201.711C242.329 201.805 229.564 201.811 229.564 201.711C229.564 201.61 242.323 201.481 258.073 201.392C273.824 201.304 286.582 201.321 286.582 201.386Z" fill="white"/>
<path d="M300.716 209.795C300.716 209.878 297.14 209.978 292.72 210.02C288.299 210.061 284.723 210.02 284.723 209.943C284.723 209.866 288.299 209.754 292.72 209.713C297.14 209.672 300.716 209.707 300.716 209.795Z" fill="white"/>
<path d="M56.309 205.429C56.1964 205.467 56.0794 205.49 55.9608 205.499L54.9635 205.629C54.5268 205.676 53.9957 205.741 53.382 205.848C52.7682 205.954 52.066 206.031 51.2988 206.184C49.7586 206.455 47.9351 206.857 45.9405 207.364C43.7798 207.96 41.6507 208.665 39.5612 209.477C37.3423 210.356 35.2828 211.318 33.4416 212.268C31.6004 213.218 30.0071 214.174 28.7206 215.03C28.0538 215.437 27.4754 215.85 26.9502 216.21C26.425 216.57 25.9942 216.865 25.6401 217.125L24.8199 217.715C24.7259 217.788 24.6251 217.851 24.5189 217.904C24.5971 217.816 24.6841 217.737 24.7786 217.668L25.5693 217.036C25.9116 216.765 26.3365 216.446 26.8499 216.074C27.3633 215.703 27.9239 215.29 28.6203 214.894C29.9186 214.015 31.5237 213.053 33.3413 212.067C37.3205 209.94 41.5352 208.286 45.8992 207.14C47.9056 206.621 49.7409 206.237 51.2929 205.995C52.066 205.853 52.7683 205.783 53.3879 205.7C54.0075 205.617 54.5681 205.564 54.9753 205.535L55.9844 205.458C56.0918 205.441 56.2003 205.431 56.309 205.429Z" fill="white"/>
<path d="M161.694 191.507C161.694 191.507 161.523 191.277 161.104 190.959C160.538 190.525 159.865 190.254 159.156 190.174C158.094 190.085 157.025 190.199 156.005 190.51C152.412 191.415 149.074 193.133 146.25 195.532C144.846 196.712 144.102 197.58 144.061 197.539C144.204 197.313 144.37 197.104 144.556 196.913C145.044 196.371 145.561 195.855 146.103 195.367C147.905 193.761 149.953 192.454 152.169 191.496C153.385 190.963 154.648 190.543 155.94 190.239C156.993 189.932 158.096 189.836 159.186 189.955C159.926 190.057 160.62 190.375 161.18 190.87C161.329 191.004 161.462 191.154 161.576 191.319C161.67 191.437 161.706 191.502 161.694 191.507Z" fill="white"/>
<path d="M351.691 175.922C350.868 176.121 350.023 176.208 349.177 176.182C348.184 176.152 347.196 176.03 346.226 175.816C344.946 175.515 343.69 175.12 342.467 174.636C341.104 174.122 339.652 173.456 338.083 172.8L335.634 171.815C334.79 171.479 333.899 171.189 333.002 170.859C329.063 169.525 325.046 168.431 320.975 167.584C313.573 166.043 306.057 165.111 298.503 164.798C297.051 164.722 295.741 164.722 294.584 164.692H291.634L289.769 164.733H289.114C289.168 164.723 289.225 164.723 289.279 164.733L289.763 164.698L291.634 164.598L294.584 164.545C295.765 164.545 297.051 164.545 298.503 164.615C306.078 164.863 313.617 165.771 321.034 167.33C325.114 168.168 329.137 169.264 333.078 170.611C333.975 170.942 334.849 171.237 335.716 171.579L338.165 172.588C339.735 173.267 341.181 173.928 342.532 174.453C343.738 174.939 344.979 175.334 346.244 175.633C347.201 175.862 348.177 176.001 349.159 176.046C349.78 176.067 350.401 176.046 351.018 175.981L351.496 175.922H351.691Z" fill="#263238"/>
<path d="M67.7634 176.737C65.4029 163.825 63.8154 161.842 62.4817 157.398C61.148 152.955 59.0295 150.069 56.3916 149.048C54.6212 148.363 45.728 145.159 42.6358 146.221C39.6104 147.297 36.7302 148.744 34.0612 150.529C31.9901 151.903 30.4204 153.911 29.5881 156.253L24.8671 169.572L33.1761 177.834L37.3424 168.982L41.8627 179.605L41.1959 190.315L67.1201 197.291C69.457 193.514 69.1029 184.06 67.7634 176.737Z" fill="#FF725E"/>
<g opacity="0.2">
<path d="M61.03 162.65C59.8852 169.372 59.7022 170.322 58.5574 177.02C58.162 179.327 57.0113 182.921 55.3707 184.597C54.155 185.83 52.963 187.017 51.2693 187.418C49.6996 187.79 47.3096 187.831 45.8343 187.182C44.359 186.533 43.0961 183.641 43.7039 182.16C45.9051 182.632 46.5837 183.34 48.478 182.16C50.1304 181.109 52.4791 178.784 53.3761 177.043C57.1588 169.726 58.2033 169.466 61.0477 162.65" fill="black"/>
</g>
<path d="M42.2463 175.674C41.827 175.109 41.4446 174.518 41.1015 173.904L38.4341 169.519L35.6959 165.206C35.2877 164.625 34.919 164.018 34.5924 163.388C34.7344 163.517 34.8593 163.664 34.9642 163.825C35.1884 164.114 35.5012 164.545 35.873 165.082C36.6283 166.156 37.6433 167.66 38.6938 169.354C39.7442 171.048 40.6589 172.618 41.2903 173.768C41.609 174.358 41.8804 174.807 42.0221 175.137C42.1244 175.304 42.2 175.485 42.2463 175.674Z" fill="#263238"/>
<path d="M60.3396 187.731C60.1517 187.828 59.9538 187.905 59.7494 187.961C59.5076 188.042 59.2613 188.109 59.0118 188.161C58.6857 188.25 58.3546 188.319 58.0204 188.368C57.1553 188.522 56.2788 188.603 55.4002 188.61C54.3221 188.612 53.2459 188.519 52.184 188.333C51.1232 188.133 50.0824 187.839 49.0741 187.453C48.2582 187.135 47.4689 186.752 46.7136 186.308C46.3831 186.125 46.1234 185.925 45.8638 185.766C45.6489 185.626 45.442 185.474 45.2441 185.311C45.0642 185.188 44.8998 185.043 44.7543 184.88C44.7897 184.833 45.5215 185.406 46.8198 186.12C47.5809 186.53 48.3696 186.887 49.1803 187.188C51.1725 187.93 53.28 188.316 55.4061 188.327C56.2725 188.328 57.138 188.27 57.9968 188.156C59.4367 187.949 60.3219 187.672 60.3396 187.731Z" fill="#263238"/>
<path d="M49.9356 167.613C49.8884 167.843 47.103 173.391 47.103 173.391L33.955 166.462L32.6154 160.797C32.3944 159.888 31.822 159.102 31.0235 158.614C30.225 158.125 29.2655 157.972 28.3547 158.189L24.4776 159.776C24.3177 159.839 24.1758 159.94 24.0646 160.071C23.9533 160.202 23.8763 160.358 23.8403 160.526C23.7871 160.809 23.8403 161.116 24.3537 161.051C25.3156 160.974 27.3043 160.762 27.3043 160.762L26.3896 163.99C26.1482 164.836 26.2411 165.742 26.6493 166.521L27.2394 167.637L28.52 169.708H28.4904C28.4904 169.708 41.2726 182.838 48.4485 183.694C52.7623 184.208 57.6486 172.116 57.6486 172.116L49.9356 167.613Z" fill="#B78876"/>
<path d="M27.2099 160.98C27.2099 160.98 27.3102 160.844 27.5286 160.697C27.8209 160.493 28.1696 160.386 28.5259 160.39C28.7119 160.401 28.8917 160.461 29.0464 160.565C29.2011 160.669 29.325 160.812 29.4052 160.98C29.5291 161.246 29.4465 161.423 29.4052 161.411C29.3638 161.399 29.4052 161.246 29.2635 161.045C29.1765 160.918 29.0617 160.812 28.9278 160.735C28.7939 160.658 28.6444 160.613 28.4905 160.603C28.1711 160.607 27.8574 160.688 27.5758 160.839C27.3928 160.927 27.2276 161.004 27.2099 160.98Z" fill="#AA6550"/>
<path d="M28.8681 162.993C28.8681 162.993 28.7796 162.886 28.6557 162.727C28.4973 162.524 28.2873 162.367 28.0475 162.272C27.8077 162.178 27.547 162.149 27.2925 162.19C27.0918 162.19 26.9679 162.261 26.9561 162.237C26.9443 162.214 27.0505 162.125 27.263 162.054C27.5438 161.972 27.8438 161.986 28.1161 162.093C28.3884 162.199 28.6176 162.393 28.7678 162.644C28.874 162.845 28.8858 162.987 28.8681 162.993Z" fill="#AA6550"/>
<path d="M52.662 150.104L49.1213 166.976L58.5633 172.647L62.1867 162.278C62.1867 162.278 60.6641 149.685 52.662 150.104Z" fill="#FF725E"/>
<path d="M57.7489 150.399C57.7489 150.399 57.6722 150.464 57.507 150.553C57.3417 150.641 57.1057 150.771 56.7929 150.93C56.1674 151.249 55.2468 151.698 54.096 152.211C51.1044 153.579 47.9546 154.57 44.7189 155.162C41.4628 155.743 38.1206 155.631 34.911 154.831C33.9504 154.579 33.0143 154.241 32.1138 153.822C31.7893 153.686 31.5237 153.539 31.388 153.456C31.3033 153.414 31.2224 153.364 31.146 153.309C31.4916 153.425 31.8305 153.561 32.161 153.716C33.0782 154.086 34.0209 154.39 34.9818 154.625C38.1671 155.354 41.4666 155.434 44.6835 154.861C47.8976 154.269 51.0337 153.313 54.0311 152.01C55.2114 151.526 56.1143 151.107 56.7575 150.83C57.0781 150.665 57.4093 150.521 57.7489 150.399Z" fill="#EBEBEB"/>
<path d="M60.2333 152.264C60.1525 152.337 60.0634 152.401 59.9678 152.453L59.1888 152.955C58.777 153.224 58.3516 153.472 57.9141 153.698C57.4066 153.964 56.8401 154.288 56.1733 154.583L55.1465 155.055C54.7865 155.221 54.397 155.356 54.0016 155.516C53.2167 155.84 52.3434 156.106 51.4346 156.401C47.45 157.603 43.2855 158.096 39.1304 157.858C38.1744 157.782 37.2656 157.729 36.4276 157.593C36.0028 157.528 35.5956 157.487 35.2061 157.416L34.0907 157.192C33.3826 157.068 32.7512 156.879 32.1964 156.737C31.7194 156.622 31.2486 156.482 30.786 156.318L29.9068 156.011C29.8015 155.983 29.7003 155.942 29.6058 155.887C29.7146 155.893 29.822 155.915 29.9245 155.952L30.8214 156.2C31.205 156.318 31.6771 156.454 32.2378 156.572C32.7984 156.69 33.418 156.873 34.138 156.979L35.2474 157.18C35.631 157.251 36.0382 157.286 36.4276 157.339C37.2656 157.463 38.198 157.51 39.1127 157.575C43.237 157.785 47.367 157.296 51.3283 156.129C52.2312 155.846 53.0987 155.592 53.8836 155.274C54.2731 155.12 54.6626 154.99 55.0225 154.837L56.0553 154.383C56.7221 154.111 57.2886 153.792 57.8256 153.545C58.3626 153.297 58.7757 153.055 59.118 152.854L59.9324 152.406C60.0259 152.345 60.1271 152.298 60.2333 152.264Z" fill="#EBEBEB"/>
<path d="M58.5397 172.647C58.2752 172.535 58.0188 172.405 57.7725 172.258L55.6953 171.077L48.6138 166.988L48.5252 166.935V166.834C48.779 165.577 49.0504 164.22 49.3337 162.827C49.7586 160.726 50.1717 158.732 50.514 156.926C50.7087 156.017 50.868 155.156 51.0451 154.335C51.2052 153.577 51.4589 152.842 51.8004 152.146C52.2951 151.113 53.1707 150.311 54.2436 149.909C54.534 149.809 54.8393 149.76 55.1465 149.762C55.252 149.755 55.358 149.767 55.4592 149.797C55.0566 149.811 54.6585 149.887 54.279 150.022C53.2653 150.449 52.4484 151.241 51.9893 152.24C51.6702 152.928 51.4345 153.651 51.287 154.394C51.1277 155.203 50.9625 156.07 50.7854 156.973C50.4195 158.803 50.0183 160.797 49.6052 162.875C49.3219 164.273 49.0445 165.625 48.7908 166.881L48.72 166.728L55.7602 170.912L57.7961 172.151C58.0574 172.296 58.3061 172.461 58.5397 172.647Z" fill="#263238"/>
<path d="M61.4254 161.777C61.4774 162.302 61.4615 162.832 61.3782 163.353C61.2546 164.614 61.0296 165.863 60.7055 167.088C60.3815 168.314 59.9632 169.514 59.4544 170.676C59.2697 171.17 59.0218 171.638 58.7167 172.069C58.8612 171.565 59.0406 171.072 59.2538 170.593C60.1495 168.245 60.7905 165.808 61.1658 163.323C61.2195 162.803 61.3062 162.286 61.4254 161.777Z" fill="#263238"/>
<path d="M10.232 255.625L10.1257 264.63C10.1257 264.63 0.93157 267.551 0.754532 269.215L18.2105 270.041L18.954 256.014L10.232 255.625Z" fill="#455A64"/>
<path d="M15.5903 264.128C15.756 264.188 15.894 264.306 15.9778 264.46C16.0617 264.615 16.0855 264.795 16.0447 264.966C15.9927 265.135 15.8778 265.276 15.7239 265.362C15.57 265.448 15.389 265.471 15.2185 265.427C15.0436 265.362 14.8983 265.236 14.8102 265.072C14.7221 264.908 14.6973 264.717 14.7405 264.536C14.8147 264.367 14.9513 264.233 15.1218 264.163C15.2923 264.092 15.4835 264.091 15.6552 264.158" fill="#E0E0E0"/>
<path d="M18.2105 270.041V268.625L1.46267 268.36C1.46267 268.36 0.666006 268.661 0.73092 269.215L18.2105 270.041Z" fill="#E0E0E0"/>
<path d="M9.84838 264.53C9.84838 264.612 10.2733 264.671 10.6746 264.966C11.0758 265.261 11.2647 265.627 11.3709 265.598C11.4771 265.568 11.3709 265.073 10.8457 264.724C10.3205 264.376 9.83068 264.447 9.84838 264.53Z" fill="#263238"/>
<path d="M7.97766 265.197C7.97766 265.279 8.31993 265.444 8.56779 265.816C8.81564 266.188 8.90416 266.577 8.99268 266.577C9.0812 266.577 9.15201 266.099 8.80384 265.639C8.45566 265.179 7.98356 265.12 7.97766 265.197Z" fill="#263238"/>
<path d="M6.83283 267.339C6.90955 267.339 7.05118 266.943 6.83283 266.465C6.61448 265.987 6.2427 265.787 6.20729 265.875C6.17189 265.964 6.40204 266.206 6.55547 266.601C6.7089 266.996 6.73841 267.327 6.83283 267.339Z" fill="#263238"/>
<path d="M10.0962 262.476C10.1317 262.559 10.527 262.476 11.0109 262.511C11.4948 262.547 11.8548 262.742 11.902 262.671C11.9492 262.6 11.607 262.275 11.0404 262.216C10.4739 262.157 10.0608 262.411 10.0962 262.476Z" fill="#263238"/>
<g opacity="0.3">
<path d="M10.2142 257.407L10.1906 259.012L18.777 259.342L18.8537 257.897L10.2142 257.407Z" fill="black"/>
</g>
<path d="M10.1552 260.658C10.437 260.752 10.7392 260.766 11.0286 260.7C11.3464 260.659 11.6578 260.577 11.9551 260.458C12.1328 260.392 12.3045 260.311 12.4685 260.216C12.5705 260.168 12.6641 260.104 12.7459 260.027C12.8051 259.969 12.843 259.892 12.8537 259.81C12.8644 259.728 12.8472 259.644 12.8049 259.573C12.7643 259.512 12.7102 259.461 12.6467 259.424C12.5833 259.387 12.5122 259.365 12.439 259.36C12.328 259.354 12.2168 259.364 12.1085 259.39C11.9211 259.426 11.7374 259.479 11.5597 259.549C11.2594 259.67 10.9789 259.835 10.7277 260.039C10.3028 260.399 10.1375 260.712 10.1788 260.729C10.2201 260.747 10.4267 260.499 10.8516 260.21C11.1015 260.044 11.3711 259.909 11.6541 259.809C11.8197 259.752 11.9894 259.709 12.1617 259.679C12.3505 259.638 12.5098 259.643 12.5511 259.726C12.5924 259.809 12.5511 259.773 12.5511 259.826C12.49 259.881 12.4227 259.929 12.3505 259.968C12.1912 260.057 12.0318 260.139 11.8784 260.21C11.6003 260.33 11.312 260.425 11.0168 260.493C10.7263 260.53 10.4385 260.585 10.1552 260.658Z" fill="#263238"/>
<path d="M10.2792 260.788C10.4546 260.547 10.5477 260.255 10.5447 259.956C10.5775 259.634 10.5535 259.308 10.4739 258.994C10.4264 258.807 10.3591 258.625 10.2733 258.451C10.2318 258.334 10.1605 258.229 10.0663 258.147C9.9722 258.066 9.85846 258.01 9.73625 257.985C9.65916 257.982 9.58288 258.002 9.51682 258.042C9.45076 258.082 9.3978 258.14 9.36447 258.209C9.31238 258.309 9.27652 258.417 9.25824 258.528C9.22872 258.724 9.22872 258.923 9.25824 259.118C9.29053 259.448 9.40408 259.764 9.58872 260.039C9.90738 260.511 10.2615 260.629 10.2674 260.599C10.2733 260.57 10.0077 260.381 9.76575 259.933C9.62734 259.676 9.54677 259.392 9.5297 259.101C9.52021 258.93 9.5341 258.76 9.57101 258.593C9.60642 258.41 9.68314 258.263 9.75395 258.286C9.82477 258.31 9.9782 258.434 10.0431 258.587C10.1231 258.742 10.1883 258.904 10.2379 259.071C10.3226 259.356 10.3663 259.653 10.3677 259.95C10.3205 260.458 10.2142 260.771 10.2792 260.788Z" fill="#263238"/>
<path d="M45.8166 190.41C45.8166 190.41 18.5409 178.961 10.1021 178.483C4.79099 178.176 0.801737 181.576 1.52169 187.052C1.88167 189.796 9.41758 221.869 9.41758 221.869L20.9014 216.629L15.3779 194.446L37.8027 205.34L45.8166 190.41Z" fill="#263238"/>
<path d="M11.9492 188.834C11.8607 188.911 12.7636 190.073 13.7196 191.614C14.6756 193.154 15.3129 194.482 15.4192 194.44C15.5254 194.399 15.0356 192.977 14.0619 191.407C13.0882 189.837 12.0495 188.763 11.9492 188.834Z" fill="#455A64"/>
<path d="M9.71855 190.109C9.65954 190.209 11.0345 191.083 12.6692 192.275C14.3038 193.467 15.5313 194.511 15.6198 194.429C15.7083 194.346 14.5281 193.124 12.8875 191.944C11.247 190.764 9.76576 190.014 9.71855 190.109Z" fill="#455A64"/>
<path d="M67.0906 197.291C67.0906 197.291 63.662 201.711 60.3927 202.92C56.2618 204.437 25.8939 218.771 25.8939 218.771C25.8939 218.771 20.3821 259.72 20.8188 258.009L8.10156 257.702L9.48246 219.987C9.6477 215.16 13.5189 209.613 17.6793 207.146L45.8165 190.41L67.0906 197.291Z" fill="#263238"/>
<path d="M9.24055 226.891C9.28093 226.721 9.29879 226.547 9.29367 226.372C9.29367 225.994 9.34087 225.505 9.37038 224.891C9.44263 223.075 9.61204 221.265 9.87789 219.468C10.2504 216.811 11.1925 214.267 12.6397 212.008C13.5352 210.71 14.6399 209.569 15.909 208.633C17.2861 207.63 18.7271 206.717 20.2228 205.901C26.3424 202.395 31.624 198.819 35.5307 196.37C37.4781 195.131 39.0714 194.145 40.1573 193.473L41.4201 192.694C41.5729 192.609 41.7172 192.51 41.8509 192.399C41.6884 192.457 41.5322 192.533 41.3847 192.623C41.0838 192.782 40.6412 193.018 40.0806 193.337C38.9534 193.968 37.3483 194.924 35.3595 196.128C31.4116 198.524 26.1005 202.059 20.0163 205.57C18.5052 206.396 17.0503 207.32 15.6611 208.338C14.3603 209.303 13.2312 210.48 12.321 211.82C10.8653 214.137 9.93654 216.746 9.60053 219.462C9.35748 221.271 9.23133 223.095 9.22285 224.92C9.22285 225.511 9.22285 226.024 9.22285 226.408C9.21429 226.569 9.22022 226.731 9.24055 226.891Z" fill="#455A64"/>
<path d="M55.8664 201.605C55.6307 201.239 55.3705 200.89 55.0874 200.56C54.5012 199.708 54.0943 198.745 53.8915 197.731C53.6886 196.716 53.6939 195.671 53.9072 194.659C54.0383 194.243 54.1408 193.819 54.2141 193.39C53.9275 193.732 53.7254 194.136 53.6239 194.57C53.3217 195.618 53.2772 196.723 53.4941 197.792C53.7059 198.861 54.1759 199.862 54.8632 200.708C55.4002 201.386 55.8428 201.64 55.8664 201.605Z" fill="#455A64"/>
<path d="M12.7754 257.702C12.7962 257.635 12.8081 257.565 12.8108 257.495C12.8108 257.33 12.858 257.129 12.8875 256.876C12.9524 256.286 13.035 255.507 13.1413 254.515C13.3478 252.414 13.6429 249.422 14.0088 245.74C14.1799 243.887 14.3746 241.857 14.5989 239.679C14.8231 237.502 15.0297 235.171 15.189 232.716C15.3483 230.261 15.608 227.694 16.0565 225.044C16.4945 222.326 17.2881 219.677 18.417 217.166C19.5959 214.685 21.1527 212.401 23.0318 210.397C24.7926 208.533 26.7205 206.834 28.7914 205.322C32.3407 202.823 36.0268 200.524 39.8327 198.436C43.0607 196.583 45.6336 195.001 47.3391 193.809C48.2007 193.219 48.8498 192.741 49.2865 192.404L49.7763 192.021C49.8865 191.934 49.9396 191.887 49.9356 191.879C49.87 191.906 49.8084 191.942 49.7527 191.985L49.2393 192.34C48.7908 192.652 48.124 193.113 47.2565 193.685C45.5215 194.83 42.9368 196.37 39.6911 198.194C35.8541 200.251 32.1417 202.533 28.5731 205.027C26.4745 206.543 24.5225 208.252 22.7426 210.132C20.83 212.163 19.247 214.48 18.0511 217.001C16.9175 219.543 16.1238 222.224 15.6906 224.974C15.248 227.629 15.0238 230.208 14.8408 232.645C14.6579 235.082 14.475 237.431 14.2507 239.609C14.0265 241.786 13.8848 243.816 13.7255 245.675C13.4127 249.363 13.1354 252.355 12.9878 254.462C12.9092 255.477 12.8501 256.264 12.8108 256.823C12.8108 257.076 12.7813 257.283 12.7695 257.442C12.7577 257.602 12.7636 257.702 12.7754 257.702Z" fill="#455A64"/>
<path d="M42.7361 125.461C42.3078 124.358 41.5004 123.443 40.4589 122.882C39.4174 122.321 38.2099 122.149 37.0532 122.398C36.5442 122.584 36.012 122.699 35.4717 122.74C34.8167 122.628 34.1729 122.458 33.5478 122.233C32.8395 122.118 32.1138 122.27 31.5118 122.661C30.9098 123.051 30.4744 123.652 30.2903 124.345C29.736 124.21 29.159 124.198 28.5995 124.309C28.0399 124.42 27.5114 124.652 27.0505 124.988C26.5987 125.338 26.2778 125.83 26.1397 126.385C26.0016 126.939 26.0543 127.524 26.2893 128.045C26.5194 128.476 26.8794 128.818 27.1096 129.261C27.4577 129.987 27.2984 130.86 27.5404 131.621C27.7675 132.175 28.1458 132.653 28.6322 133.002C29.1185 133.351 29.6931 133.555 30.2903 133.592C31.4919 133.654 32.694 133.484 33.8311 133.091" fill="#263238"/>
<path d="M37.242 148.8C37.0945 147.655 37.0001 146.853 37.0001 146.853C37.0001 146.853 33.1938 146.853 31.6889 142.132C30.9277 139.771 30.4202 135.829 30.1133 132.572C30.0462 131.878 30.1203 131.177 30.3312 130.513C30.5421 129.848 30.8853 129.233 31.3402 128.705C31.7952 128.177 32.3523 127.746 32.9782 127.439C33.6041 127.132 34.2856 126.955 34.9818 126.918L45.0848 126.393L45.3031 127.957L47.9646 147.384C48.0608 148.088 48.0169 148.804 47.8353 149.492C47.6537 150.179 47.338 150.824 46.9064 151.389C46.4748 151.953 45.9358 152.427 45.3203 152.783C44.7049 153.139 44.0252 153.37 43.3203 153.462C42.6149 153.557 41.8977 153.511 41.21 153.327C40.5223 153.144 39.8776 152.827 39.3128 152.394C38.7481 151.96 38.2744 151.42 37.9191 150.803C37.5637 150.187 37.3336 149.506 37.242 148.8Z" fill="#B78876"/>
<path d="M31.5237 135.351C31.5486 135.512 31.635 135.658 31.7649 135.757C31.8947 135.856 32.0579 135.901 32.2201 135.882C32.3004 135.877 32.3788 135.856 32.4505 135.819C32.5223 135.783 32.5858 135.732 32.6372 135.67C32.6886 135.608 32.7268 135.536 32.7494 135.459C32.7721 135.382 32.7787 135.301 32.7689 135.221C32.7469 135.058 32.6612 134.911 32.5306 134.812C32.4001 134.712 32.2353 134.668 32.0725 134.69C31.9922 134.695 31.9138 134.717 31.8421 134.753C31.7704 134.789 31.7068 134.84 31.6554 134.902C31.604 134.964 31.5658 135.036 31.5432 135.113C31.5205 135.19 31.5139 135.271 31.5237 135.351Z" fill="#263238"/>
<path d="M31.2641 134.478C31.3526 134.543 31.7657 134.124 32.4443 134.017C33.123 133.911 33.6246 134.171 33.7131 134.076C33.8016 133.982 33.6423 133.899 33.4062 133.781C33.0862 133.624 32.7247 133.573 32.3735 133.634C32.0261 133.686 31.705 133.849 31.4588 134.1C31.2641 134.289 31.2169 134.448 31.2641 134.478Z" fill="#263238"/>
<path d="M37.8499 134.277C37.8747 134.438 37.9614 134.583 38.0914 134.681C38.2214 134.779 38.3846 134.823 38.5462 134.802C38.6265 134.798 38.705 134.777 38.777 134.741C38.849 134.706 38.9129 134.656 38.9648 134.594C39.0168 134.533 39.0556 134.462 39.079 134.385C39.1024 134.308 39.1099 134.227 39.1009 134.147C39.0761 133.986 38.9896 133.84 38.8598 133.741C38.73 133.642 38.5668 133.597 38.4046 133.616C38.3238 133.62 38.2447 133.641 38.1723 133.677C38.0999 133.713 38.0356 133.764 37.9836 133.826C37.9316 133.888 37.8929 133.96 37.8699 134.038C37.8468 134.115 37.84 134.197 37.8499 134.277Z" fill="#263238"/>
<path d="M37.8381 133.557C37.9266 133.628 38.3397 133.203 39.0183 133.103C39.697 133.002 40.1986 133.25 40.2871 133.156C40.3756 133.061 40.2163 132.985 39.9802 132.861C39.6586 132.709 39.2987 132.658 38.9475 132.713C38.6013 132.769 38.2814 132.932 38.0328 133.179C37.8381 133.368 37.7968 133.522 37.8381 133.557Z" fill="#263238"/>
<path d="M36.2034 138.892C35.8333 138.842 35.4582 138.842 35.0881 138.892C34.9169 138.892 34.7517 138.892 34.7045 138.78C34.6502 138.609 34.6502 138.425 34.7045 138.254C34.7989 137.818 34.8992 137.357 35.0054 136.879C35.2936 135.706 35.4909 134.513 35.5956 133.309C35.2089 134.464 34.9149 135.648 34.7163 136.85C34.6219 137.334 34.5274 137.794 34.4448 138.237C34.3624 138.455 34.3624 138.697 34.4448 138.915C34.4793 138.971 34.5258 139.019 34.5809 139.055C34.636 139.09 34.6984 139.113 34.7635 139.122C34.8615 139.134 34.9606 139.134 35.0585 139.122C35.4484 139.094 35.833 139.017 36.2034 138.892Z" fill="#263238"/>
<path d="M37.0001 146.853C39.2808 146.525 41.4259 145.571 43.1964 144.097C43.1964 144.097 42.146 147.685 37.242 147.986L37.0001 146.853Z" fill="#AA6550"/>
<path d="M38.2393 139.039C38.1272 139.039 38.2393 139.771 37.7082 140.385C37.1771 140.999 36.3863 141.04 36.3922 141.14C36.3981 141.241 36.587 141.258 36.9175 141.211C37.3428 141.154 37.7328 140.944 38.0151 140.621C38.2915 140.315 38.4357 139.912 38.4164 139.5C38.3987 139.193 38.2865 139.028 38.2393 139.039Z" fill="#263238"/>
<path d="M37.2479 130.972C37.3423 131.143 37.9974 130.972 38.7941 130.919C39.5907 130.866 40.2576 131.002 40.3343 130.825C40.411 130.648 40.234 130.589 39.9507 130.453C39.5751 130.289 39.1667 130.214 38.7574 130.233C38.348 130.253 37.9486 130.366 37.5902 130.565C37.3305 130.724 37.2066 130.89 37.2479 130.972Z" fill="#263238"/>
<path d="M31.1991 132.507C31.3408 132.636 31.7893 132.406 32.3263 132.312C32.8633 132.217 33.3649 132.253 33.4475 132.076C33.4829 131.993 33.3826 131.852 33.1583 131.745C32.8565 131.611 32.5203 131.574 32.1964 131.639C31.8733 131.696 31.5761 131.853 31.3467 132.088C31.1755 132.276 31.1342 132.442 31.1991 132.507Z" fill="#263238"/>
<path d="M29.5822 130.441C29.5822 130.441 32.2555 131.344 35.3241 129.29C37.3364 127.945 39.7796 127.101 40.3874 127.467C40.9952 127.833 41.3906 130.028 43.6036 130.418C43.6036 130.418 43.9931 134.666 45.6631 134.301C46.8434 134.041 46.1588 129.355 45.6631 126.682C45.5596 126.165 45.286 125.698 44.886 125.355C44.486 125.011 43.9826 124.812 43.4561 124.788L40.3461 124.664L36.4631 125.75L32.2968 126.883L29.1219 128.211L29.5822 130.441Z" fill="#263238"/>
<path d="M45.2914 132.572C45.3504 132.53 47.9292 131.173 48.4072 133.988C48.8852 136.803 45.9641 136.697 45.9405 136.62C45.9169 136.543 45.2914 132.572 45.2914 132.572Z" fill="#B78876"/>
<path d="M46.6191 135.404C46.6191 135.404 46.6781 135.434 46.7667 135.457C46.8909 135.487 47.0218 135.468 47.1325 135.404C47.293 135.258 47.4124 135.071 47.4786 134.864C47.5449 134.657 47.5558 134.436 47.5102 134.224C47.4761 133.982 47.3895 133.75 47.2565 133.545C47.2136 133.462 47.1517 133.391 47.0758 133.336C46.9998 133.282 46.9121 133.246 46.8198 133.232C46.7612 133.227 46.7026 133.243 46.6542 133.276C46.6058 133.31 46.5704 133.359 46.5542 133.415C46.5542 133.498 46.5542 133.551 46.5542 133.563C46.5542 133.575 46.4893 133.522 46.4893 133.404C46.4943 133.331 46.5234 133.263 46.5719 133.209C46.6401 133.138 46.7331 133.095 46.8316 133.091C46.9516 133.093 47.069 133.126 47.1724 133.187C47.2758 133.248 47.3617 133.335 47.4217 133.439C47.5832 133.662 47.6866 133.922 47.7227 134.194C47.7812 134.443 47.7642 134.703 47.6737 134.942C47.5833 135.18 47.4236 135.387 47.2152 135.534C47.1432 135.568 47.0646 135.586 46.985 135.586C46.9054 135.586 46.8268 135.568 46.7549 135.534C46.6368 135.475 46.6132 135.416 46.6191 135.404Z" fill="#AA6550"/>
<path d="M30.9336 123.307C30.9336 123.307 31.028 123.46 31.2287 123.684C31.516 124.002 31.8825 124.238 32.2909 124.369C32.8976 124.565 33.5459 124.593 34.1675 124.451C34.9404 124.264 35.6995 124.023 36.4395 123.731C37.2056 123.43 38.024 123.283 38.8472 123.301C39.5434 123.326 40.2021 123.622 40.6825 124.127C41.0097 124.456 41.2085 124.891 41.2431 125.354C41.2676 125.522 41.2387 125.694 41.1605 125.844C41.131 125.844 41.1605 125.667 41.1251 125.366C41.0515 124.948 40.8444 124.565 40.535 124.274C40.0802 123.839 39.477 123.592 38.8472 123.584C38.0614 123.585 37.2827 123.733 36.5516 124.021C35.7993 124.32 35.0236 124.557 34.2324 124.729C33.5644 124.867 32.871 124.814 32.2319 124.575C31.798 124.416 31.4205 124.133 31.146 123.761C30.9336 123.489 30.9336 123.312 30.9336 123.307Z" fill="#455A64"/>
<path d="M40.4405 126.003C40.4405 126.003 40.2989 125.856 40.0038 125.649C39.583 125.392 39.0986 125.257 38.6052 125.26C37.8571 125.257 37.1196 125.437 36.4572 125.785C35.6292 126.232 34.7738 126.626 33.896 126.965C33.0632 127.224 32.1861 127.308 31.3192 127.214C30.4523 127.12 29.614 126.848 28.8563 126.417C28.398 126.159 27.9787 125.837 27.6112 125.461C27.4681 125.333 27.3483 125.181 27.2571 125.012C27.7796 125.474 28.3492 125.879 28.9566 126.222C30.4489 127.005 32.1897 127.168 33.8016 126.676C34.6669 126.326 35.5139 125.932 36.3391 125.496C37.0435 125.139 37.8286 124.973 38.617 125.012C39.1528 125.033 39.6687 125.22 40.0923 125.549C40.2472 125.666 40.3674 125.823 40.4405 126.003Z" fill="#455A64"/>
<path d="M31.7007 173.957L17.998 162.279L13.4776 163.299C13.4776 163.299 18.24 173.202 21.6863 176.831C21.6863 176.831 25.0913 181.387 30.7093 179.416C36.3273 177.445 31.7007 173.957 31.7007 173.957Z" fill="#B78876"/>
<path d="M16.9594 149.414H11.1348C10.915 149.426 10.7007 149.486 10.5073 149.592C10.314 149.697 10.1465 149.844 10.0171 150.022C9.88762 150.2 9.7995 150.404 9.75909 150.621C9.71868 150.837 9.72701 151.06 9.78345 151.273L15.6434 162.68C15.7545 162.897 15.9236 163.079 16.1319 163.206C16.3402 163.333 16.5796 163.4 16.8237 163.4H23.9052C24.0717 163.381 24.231 163.322 24.3689 163.227C24.5068 163.132 24.619 163.004 24.6955 162.855C24.7721 162.706 24.8106 162.54 24.8075 162.373C24.8045 162.205 24.7601 162.041 24.6782 161.895L19.0307 150.724C18.8385 150.337 18.5437 150.01 18.1784 149.779C17.8132 149.548 17.3915 149.422 16.9594 149.414Z" fill="#455A64"/>
<path d="M16.5699 150.104H10.7453C10.5782 150.103 10.4136 150.145 10.2673 150.226C10.1211 150.307 9.99821 150.424 9.91046 150.567C9.82272 150.709 9.77308 150.872 9.76634 151.039C9.7596 151.206 9.79597 151.372 9.87196 151.52L15.5903 162.68C15.7024 162.896 15.8718 163.078 16.0798 163.205C16.2879 163.332 16.5268 163.399 16.7705 163.4H23.793C23.8895 163.396 23.9834 163.368 24.0667 163.319C24.1499 163.271 24.22 163.202 24.2707 163.12C24.3213 163.038 24.3511 162.945 24.3573 162.848C24.3636 162.752 24.3461 162.656 24.3064 162.568L18.653 151.402C18.462 151.013 18.1656 150.685 17.7973 150.455C17.4291 150.226 17.0038 150.104 16.5699 150.104Z" fill="#263238"/>
<path d="M16.0742 154.766L12.5335 156.182L11.7781 159.039L13.4836 163.288L19.7212 164.208L17.8918 162.338L18.1219 160.703C18.1219 160.703 19.8923 160.154 19.8923 159.888C19.8923 159.623 19.674 158.708 19.4084 158.679C18.7098 158.838 18.025 159.053 17.3607 159.322C17.3607 159.322 19.5264 157.605 19.4674 157.327C19.4084 157.05 19.1724 156.348 18.7416 156.265C18.3108 156.182 14.8054 157.841 14.8054 157.841L14.2153 159.133L13.7196 157.062C13.7196 157.062 16.8414 156.188 16.0742 154.766Z" fill="#B78876"/>
<path d="M16.5227 161.47C16.5227 161.47 16.4342 161.352 16.3988 161.116C16.3615 160.815 16.3955 160.51 16.498 160.225C16.6005 159.94 16.7687 159.683 16.9889 159.475C17.1659 159.322 17.3017 159.269 17.3135 159.287C17.0441 159.585 16.8231 159.923 16.6584 160.29C16.5534 160.674 16.5076 161.072 16.5227 161.47Z" fill="#AA6550"/>
<path d="M14.8349 160.85C14.9041 160.545 14.9514 160.236 14.9766 159.924C14.9909 159.575 15.0504 159.23 15.1536 158.897C15.221 158.683 15.3387 158.488 15.4968 158.329C15.655 158.17 15.8489 158.051 16.0624 157.982C16.9063 157.676 17.6735 157.428 18.2282 157.245C18.5248 157.133 18.8309 157.048 19.1429 156.991C18.8682 157.148 18.5773 157.274 18.2754 157.369C17.7266 157.581 16.9594 157.853 16.1273 158.154C15.933 158.22 15.7557 158.329 15.608 158.472C15.477 158.611 15.3765 158.776 15.3129 158.956C15.2049 159.275 15.1356 159.606 15.1064 159.942C15.095 160.263 15.0015 160.576 14.8349 160.85Z" fill="#AA6550"/>
<path d="M14.0206 160.213C13.9647 159.982 13.9647 159.742 14.0206 159.511C14.0855 159.133 14.174 158.838 14.2271 158.844C14.2825 159.075 14.2825 159.315 14.2271 159.546C14.1622 159.924 14.0737 160.219 14.0206 160.213Z" fill="#AA6550"/>
<path d="M13.9261 152.258C13.9261 152.405 13.9697 152.549 14.0514 152.671C14.1331 152.794 14.2493 152.889 14.3851 152.945C14.521 153.001 14.6705 153.016 14.8147 152.987C14.959 152.959 15.0915 152.888 15.1955 152.784C15.2994 152.68 15.3703 152.547 15.399 152.403C15.4276 152.259 15.4129 152.109 15.3566 151.974C15.3004 151.838 15.2051 151.722 15.0828 151.64C14.9605 151.558 14.8167 151.515 14.6697 151.515C14.5718 151.514 14.4748 151.532 14.3842 151.57C14.2936 151.607 14.2114 151.661 14.1422 151.731C14.073 151.8 14.0182 151.882 13.9811 151.973C13.944 152.063 13.9253 152.16 13.9261 152.258Z" fill="#FAFAFA"/>
<defs>
<filter id="filter0_dd_4_873" x="86.4676" y="60.9627" width="58.6156" height="83.7757" filterUnits="userSpaceOnUse" color-interpolation-filters="sRGB">
<feFlood flood-opacity="0" result="BackgroundImageFix"/>
<feColorMatrix in="SourceAlpha" type="matrix" values="0 0 0 0 0 0 0 0 0 0 0 0 0 0 0 0 0 0 127 0" result="hardAlpha"/>
<feOffset/>
<feGaussianBlur stdDeviation="4.9"/>
<feComposite in2="hardAlpha" operator="out"/>
<feColorMatrix type="matrix" values="0 0 0 0 0.933333 0 0 0 0 0.354348 0 0 0 0 0.272222 0 0 0 1 0"/>
<feBlend mode="normal" in2="BackgroundImageFix" result="effect1_dropShadow_4_873"/>
<feColorMatrix in="SourceAlpha" type="matrix" values="0 0 0 0 0 0 0 0 0 0 0 0 0 0 0 0 0 0 127 0" result="hardAlpha"/>
<feOffset dy="4"/>
<feGaussianBlur stdDeviation="2"/>
<feComposite in2="hardAlpha" operator="out"/>
<feColorMatrix type="matrix" values="0 0 0 0 0 0 0 0 0 0 0 0 0 0 0 0 0 0 0.25 0"/>
<feBlend mode="normal" in2="effect1_dropShadow_4_873" result="effect2_dropShadow_4_873"/>
<feBlend mode="normal" in="SourceGraphic" in2="effect2_dropShadow_4_873" result="shape"/>
</filter>
</defs>
</svg>
