<svg width="382" height="377" viewBox="0 0 382 377" fill="none" xmlns="http://www.w3.org/2000/svg">
<path d="M382 70.8581H316.441V136.114H382V70.8581Z" fill="#E0E0E0"/>
<path d="M377.559 70.8581H312V136.114H377.559V70.8581Z" fill="#FAFAFA"/>
<path d="M377.575 136.128H311.977V70.8359H377.575V136.128ZM312.016 136.092H377.536V70.8728H312.016V136.092Z" fill="#E0E0E0"/>
<path d="M368.748 79.6262H320.812V127.338H368.748V79.6262Z" fill="#FAFAFA"/>
<path d="M320.812 127.655C320.475 128.137 320.078 128.577 319.631 128.968C318.858 129.742 317.785 130.782 316.58 131.918C315.375 133.053 314.263 134.064 313.452 134.779C313.038 135.2 312.571 135.572 312.062 135.885C312.402 135.405 312.798 134.965 313.244 134.572C314.016 133.835 315.082 132.758 316.294 131.623C317.507 130.487 318.611 129.469 319.43 128.754C319.843 128.337 320.307 127.968 320.812 127.655Z" fill="#E0E0E0"/>
<path d="M368.748 127.537C369.248 127.864 369.709 128.242 370.122 128.666C370.895 129.403 372.022 130.428 373.211 131.615C374.401 132.803 375.451 133.828 376.208 134.609C376.647 135.002 377.034 135.446 377.359 135.929C376.859 135.608 376.4 135.232 375.992 134.808C375.181 134.071 374.084 133.046 372.903 131.859C371.721 130.671 370.647 129.646 369.898 128.865C369.459 128.469 369.072 128.024 368.748 127.537Z" fill="#E0E0E0"/>
<path d="M368.616 79.7589C368.954 79.2776 369.35 78.8369 369.798 78.4463C370.57 77.7089 371.636 76.6248 372.841 75.4966C374.045 74.3683 375.158 73.3506 375.976 72.6279C376.393 72.2159 376.856 71.8498 377.359 71.5365C377.022 72.0139 376.628 72.4519 376.185 72.8418C375.412 73.6161 374.339 74.6633 373.096 75.7915C371.852 76.9198 370.779 77.9448 369.96 78.6601C369.553 79.0697 369.103 79.4379 368.616 79.7589Z" fill="#E0E0E0"/>
<path d="M320.673 79.8695C320.169 79.5475 319.707 79.1687 319.298 78.7412C318.487 78.0038 317.399 76.9862 316.209 75.8358C315.02 74.6854 313.962 73.6234 313.213 72.8418C312.775 72.4455 312.386 72.0026 312.054 71.5218C312.558 71.8416 313.019 72.2179 313.429 72.6427C314.201 73.3801 315.329 74.4051 316.518 75.5924C317.707 76.7797 318.773 77.8047 319.522 78.5864C319.957 78.97 320.343 79.4006 320.673 79.8695Z" fill="#E0E0E0"/>
<path d="M368.616 127.338C368.61 127.262 368.61 127.186 368.616 127.11C368.616 126.947 368.616 126.726 368.616 126.439C368.616 125.841 368.616 124.964 368.616 123.865C368.616 121.608 368.616 118.319 368.57 114.146C368.57 105.783 368.516 93.8808 368.477 79.6262L368.663 79.8032H320.866L321.075 79.5967C321.075 97.1108 321.075 113.519 321.075 127.309L320.889 127.139L355.503 127.228L365.218 127.272H367.798H368.694C368.622 127.279 368.549 127.279 368.477 127.272H367.782H365.242L355.565 127.316L320.812 127.405H320.627V127.228C320.627 113.415 320.627 97.0297 320.627 79.5156V79.4271H320.851H368.647H368.833V79.6483C368.786 93.9546 368.755 105.894 368.732 114.308C368.732 118.467 368.732 121.741 368.686 123.99C368.686 125.096 368.686 125.944 368.686 126.534C368.686 126.807 368.686 127.021 368.686 127.176C368.686 127.331 368.616 127.346 368.616 127.338Z" fill="#E0E0E0"/>
<path d="M352.777 95.8497H336.783V111.122H352.777V95.8497Z" fill="#EBEBEB"/>
<path d="M282.985 376.65C281.626 375.537 278.583 372.004 280.931 367.889C281.788 366.415 283.619 365.633 285.264 364.94C286.909 364.246 288.654 363.701 290.021 362.587C292.6 360.493 293.311 357.02 295.025 354.225C296.987 351.017 300.655 348.613 304.532 348.782C308.965 348.974 312.664 352.433 314.34 356.378C316.016 360.323 316.078 364.704 316.116 368.966C316.116 371.318 316.024 373.973 314.209 375.566C312.541 377.041 310.031 377.041 307.76 376.982L283.518 376.245" fill="#F5F5F5"/>
<path d="M288.344 305.362L179.694 305.289C173.419 305.284 167.403 302.901 162.968 298.662C158.533 294.424 156.041 288.678 156.041 282.686V22.5986C156.044 19.6264 156.66 16.6839 157.855 13.9395C159.05 11.1951 160.8 8.70267 163.005 6.60487C165.21 4.50707 167.826 2.8451 170.705 1.7141C173.583 0.58309 176.667 0.00525707 179.78 0.0136709L288.43 0.0776505C294.705 0.0824961 300.721 2.46603 305.156 6.70443C309.591 10.9428 312.083 16.6893 312.083 22.6808L312.025 282.759C312.026 285.728 311.415 288.669 310.225 291.412C309.035 294.156 307.291 296.649 305.091 298.748C302.892 300.847 300.281 302.512 297.407 303.647C294.534 304.782 291.454 305.365 288.344 305.362Z" fill="#455A64"/>
<path d="M288.315 9.28163H267.257C266.571 9.29587 265.894 9.43911 265.266 9.70316C264.637 9.9672 264.07 10.3469 263.595 10.8205C263.12 11.2941 262.748 11.8524 262.499 12.4635C262.251 13.0745 262.131 13.7263 262.146 14.3817V18.0377C262.161 18.6931 262.041 19.345 261.792 19.956C261.544 20.5671 261.171 21.1253 260.697 21.599C260.222 22.0726 259.654 22.4523 259.026 22.7163C258.398 22.9804 257.721 23.1236 257.034 23.1378H215.971C214.584 23.1067 213.266 22.5511 212.308 21.5931C211.35 20.6351 210.829 19.3531 210.86 18.0286V14.3726C210.89 13.0481 210.369 11.766 209.411 10.8081C208.453 9.85009 207.135 9.29451 205.748 9.26335H179.904C177.727 9.26094 175.57 9.6684 173.557 10.4624C171.545 11.2564 169.716 12.4214 168.176 13.8908C166.635 15.3602 165.413 17.1052 164.579 19.0259C163.745 20.9466 163.316 23.0054 163.316 25.0847L163.268 278.948C163.268 283.143 165.012 287.167 168.117 290.135C171.222 293.103 175.434 294.773 179.827 294.778L288.258 294.833C290.435 294.835 292.592 294.428 294.605 293.634C296.617 292.84 298.446 291.675 299.986 290.205C301.527 288.736 302.749 286.991 303.583 285.07C304.417 283.15 304.846 281.091 304.846 279.012V25.1486C304.856 20.9517 303.121 16.9227 300.021 13.9473C296.921 10.9719 292.711 9.29373 288.315 9.28163Z" fill="#FAFAFA"/>
<path d="M269.478 17.5167H268.272V19.1253H269.478V17.5167Z" fill="#263238"/>
<path d="M271.44 16.8038H270.234V19.1345H271.44V16.8038Z" fill="#263238"/>
<path d="M273.393 16.2646H272.187V19.1345H273.393V16.2646Z" fill="#263238"/>
<path d="M275.355 15.2226H274.149V19.1345H275.355V15.2226Z" fill="#263238"/>
<path d="M293.13 19.2077H287.09C286.975 19.2077 286.865 19.1647 286.782 19.0878C286.7 19.0109 286.653 18.9063 286.65 18.7964V15.9264C286.65 15.8173 286.695 15.7127 286.776 15.6356C286.857 15.5585 286.967 15.5151 287.081 15.5151H293.13C293.155 15.5059 293.182 15.5059 293.207 15.5151C293.215 15.542 293.215 15.5705 293.207 15.5974V16.5114H293.858C293.888 16.5114 293.917 16.5229 293.939 16.5435C293.96 16.5641 293.973 16.592 293.973 16.6211V18.0012C293.97 18.0287 293.957 18.0543 293.936 18.0729C293.914 18.0915 293.887 18.1018 293.858 18.1017H293.207V19.0157C293.233 19.0254 293.255 19.0448 293.267 19.0697C293.278 19.0946 293.279 19.1228 293.269 19.1483C293.259 19.1737 293.239 19.1943 293.212 19.2054C293.186 19.2166 293.157 19.2174 293.13 19.2077ZM293.015 15.7253H287.081C287.053 15.7253 287.026 15.7305 287 15.7406C286.975 15.7508 286.951 15.7656 286.932 15.7842C286.912 15.8029 286.897 15.8251 286.886 15.8495C286.876 15.8739 286.87 15.9 286.87 15.9264V18.7964C286.87 18.8236 286.876 18.8505 286.887 18.8755C286.898 18.9005 286.915 18.9231 286.935 18.9419C286.956 18.9607 286.98 18.9753 287.007 18.9849C287.033 18.9944 287.062 18.9987 287.09 18.9975H293.015V18.0835C293.015 18.0544 293.027 18.0265 293.049 18.0059C293.071 17.9853 293.1 17.9738 293.13 17.9738H293.772V16.7764H293.13C293.116 16.7777 293.101 16.7761 293.087 16.7716C293.073 16.7671 293.06 16.7599 293.049 16.7504C293.039 16.741 293.03 16.7294 293.024 16.7166C293.018 16.7038 293.015 16.6899 293.015 16.6759V15.7253Z" fill="#263238"/>
<path d="M287.368 18.5313V16.2006H292.527V17.2517V17.4802V18.5313H287.368Z" fill="#263238"/>
<path d="M281.156 18.9883C281.153 18.8775 281.106 18.7719 281.024 18.6936C280.942 18.6152 280.831 18.5702 280.715 18.5678C280.599 18.5678 280.487 18.6121 280.404 18.691C280.321 18.7698 280.275 18.8768 280.275 18.9883C280.274 19.0438 280.284 19.0991 280.306 19.1506C280.328 19.2022 280.36 19.2491 280.401 19.2884C280.442 19.3276 280.491 19.3586 280.545 19.3793C280.599 19.3999 280.657 19.41 280.715 19.4087C280.832 19.4087 280.944 19.3644 281.027 19.2856C281.109 19.2067 281.156 19.0998 281.156 18.9883Z" fill="#263238"/>
<path d="M279.165 17.9737L279.73 18.513C279.854 18.3902 280.002 18.2926 280.167 18.226C280.331 18.1593 280.508 18.1249 280.687 18.1249C280.865 18.1249 281.042 18.1593 281.207 18.226C281.371 18.2926 281.52 18.3902 281.644 18.513L282.209 17.9737C282.008 17.782 281.769 17.6307 281.506 17.5286C281.243 17.4266 280.961 17.3759 280.677 17.3796C280.111 17.3801 279.568 17.5935 279.165 17.9737Z" fill="#263238"/>
<path d="M280.677 16.1731C279.784 16.1629 278.923 16.4917 278.284 17.0871L278.839 17.6264C279.327 17.1648 279.986 16.9058 280.672 16.9058C281.359 16.9058 282.018 17.1648 282.505 17.6264L283.07 17.0871C282.43 16.4934 281.57 16.1649 280.677 16.1731Z" fill="#263238"/>
<path d="M277.327 16.2463L277.892 16.7855C278.621 16.0901 279.609 15.6994 280.639 15.6994C281.669 15.6994 282.657 16.0901 283.386 16.7855L283.951 16.2463C283.072 15.4091 281.881 14.9389 280.639 14.9389C279.397 14.9389 278.206 15.4091 277.327 16.2463Z" fill="#263238"/>
<path d="M241.318 40.8694H234.024C233.522 40.8694 233.114 41.2581 233.114 41.7377V46.4631C233.114 46.9426 233.522 47.3314 234.024 47.3314H241.318C241.82 47.3314 242.227 46.9426 242.227 46.4631V41.7377C242.227 41.2581 241.82 40.8694 241.318 40.8694Z" fill="#263238"/>
<path d="M235.124 41.2898H234.167V40.2296C234.142 39.7762 234.214 39.3227 234.379 38.8968C234.544 38.4708 234.797 38.0813 235.125 37.752C235.452 37.4227 235.846 37.1604 236.283 36.9812C236.72 36.802 237.19 36.7096 237.666 36.7096C238.141 36.7096 238.612 36.802 239.049 36.9812C239.486 37.1604 239.88 37.4227 240.207 37.752C240.534 38.0813 240.788 38.4708 240.952 38.8968C241.117 39.3227 241.189 39.7762 241.164 40.2296V40.9242H240.207V40.2296C240.228 39.8984 240.178 39.5665 240.06 39.2545C239.942 38.9424 239.759 38.6567 239.521 38.415C239.282 38.1733 238.995 37.9806 238.676 37.849C238.357 37.7173 238.013 37.6494 237.666 37.6494C237.318 37.6494 236.974 37.7173 236.655 37.849C236.337 37.9806 236.049 38.1733 235.811 38.415C235.573 38.6567 235.389 38.9424 235.271 39.2545C235.153 39.5665 235.103 39.8984 235.124 40.2296V41.2898Z" fill="#263238"/>
<path d="M164.378 200.993C164.472 192.775 166.839 184.727 171.24 177.664C175.641 170.602 181.919 164.776 189.438 160.777C199.967 155.293 212.238 153.867 223.944 151.299C235.651 148.73 247.788 144.489 255.024 135.34C264.807 122.974 262.94 105.398 270.004 91.4683C273.289 85.1792 278.272 79.8413 284.439 76.0059C290.606 72.1706 297.734 69.9768 305.085 69.6512V282.165C305.085 285.59 303.66 288.875 301.124 291.297C298.588 293.719 295.147 295.08 291.56 295.08H177.923C176.145 295.081 174.385 294.748 172.742 294.099C171.1 293.451 169.607 292.5 168.349 291.301C167.092 290.102 166.094 288.678 165.412 287.11C164.731 285.542 164.38 283.862 164.378 282.165V200.993Z" fill="#E0E0E0"/>
<path d="M188.308 90.3075C188.308 82.4289 192.635 77.7309 198.636 77.7309C204.638 77.7309 208.993 82.4289 208.993 90.3075C208.993 98.1862 204.628 102.893 198.636 102.893C192.644 102.893 188.308 98.1862 188.308 90.3075ZM206.256 90.3075C206.256 83.6993 203.145 80.0616 198.598 80.0616C194.051 80.0616 190.941 83.7176 190.941 90.3075C190.941 96.8975 194.051 100.563 198.598 100.563C203.145 100.563 206.275 96.8975 206.275 90.3075H206.256Z" fill="#263238"/>
<path d="M231.516 90.0974C231.516 98.5061 226.73 102.893 219.675 102.893C217.538 102.98 215.415 102.516 213.53 101.55L214.602 99.5024C216.129 100.344 217.877 100.747 219.637 100.663C225.227 100.663 228.817 97.2357 228.817 90.5178C228.817 89.9603 228.817 89.2473 228.702 88.507C227.41 91.249 224.375 92.748 220.786 92.748C215.636 92.748 212.047 89.8506 212.047 85.3263C212.047 80.802 215.875 77.731 220.891 77.731C227.773 77.7035 231.516 82.2735 231.516 90.0974ZM227.85 85.1892C227.85 82.4472 225.486 79.888 221.006 79.888C217.263 79.888 214.679 81.9719 214.679 85.2532C214.679 88.5344 217.196 90.5909 221.188 90.5909C225.179 90.5909 227.85 88.2602 227.85 85.1892Z" fill="#263238"/>
<path d="M235.402 85.8564C235.39 85.6056 235.432 85.3551 235.526 85.1207C235.62 84.8862 235.764 84.6727 235.948 84.4935C236.132 84.3142 236.353 84.1731 236.596 84.079C236.84 83.9848 237.101 83.9396 237.364 83.9461C237.627 83.9449 237.887 83.9935 238.13 84.0892C238.373 84.1849 238.593 84.3257 238.778 84.5035C238.964 84.6812 239.11 84.8923 239.209 85.1246C239.308 85.3569 239.358 85.6056 239.355 85.8564C239.36 86.3663 239.154 86.8574 238.781 87.2222C238.407 87.5871 237.898 87.796 237.364 87.8032C237.101 87.7996 236.841 87.7463 236.6 87.6463C236.359 87.5463 236.14 87.4016 235.958 87.2206C235.775 87.0395 235.632 86.8258 235.537 86.5916C235.441 86.3575 235.396 86.1076 235.402 85.8564ZM235.402 100.91C235.39 100.659 235.432 100.409 235.526 100.174C235.62 99.9397 235.764 99.7262 235.948 99.547C236.132 99.3678 236.353 99.2267 236.596 99.1325C236.84 99.0384 237.101 98.9931 237.364 98.9997C237.627 98.9984 237.887 99.0471 238.13 99.1428C238.373 99.2384 238.593 99.3792 238.778 99.557C238.964 99.7347 239.11 99.9459 239.209 100.178C239.308 100.41 239.358 100.659 239.355 100.91C239.36 101.42 239.154 101.911 238.781 102.276C238.407 102.641 237.898 102.85 237.364 102.857C237.101 102.853 236.841 102.8 236.6 102.7C236.359 102.6 236.14 102.455 235.958 102.274C235.775 102.093 235.632 101.879 235.537 101.645C235.441 101.411 235.396 101.161 235.402 100.91Z" fill="#263238"/>
<path d="M260.902 100.416V102.683H242.715V100.855L253.483 90.8011C256.412 88.0591 256.968 86.3865 256.968 84.6865C256.968 81.8256 254.852 80.0616 250.899 80.0616C249.58 79.9825 248.259 80.188 247.035 80.6626C245.81 81.1373 244.713 81.869 243.825 82.8036L241.911 81.2407C243.911 78.9831 247.128 77.7126 251.09 77.7126C256.345 77.7126 259.705 80.2536 259.705 84.3848C259.705 86.7612 258.93 88.8817 255.446 92.1264L246.639 100.352L260.902 100.416Z" fill="#263238"/>
<path d="M264.079 90.3075C264.079 82.4289 268.406 77.7309 274.408 77.7309C280.409 77.7309 284.764 82.4289 284.764 90.3075C284.764 98.1862 280.4 102.893 274.408 102.893C268.416 102.893 264.079 98.1862 264.079 90.3075ZM282.027 90.3075C282.027 83.6993 278.916 80.0616 274.369 80.0616C269.823 80.0616 266.712 83.7176 266.712 90.3075C266.712 96.8975 269.89 100.553 274.455 100.553C279.021 100.553 282.027 96.8975 282.027 90.3075Z" fill="#263238"/>
<path d="M208.134 58.8943C210.304 49.251 203.877 39.7534 193.778 37.6807C183.679 35.6081 173.732 41.7453 171.562 51.3887C169.391 61.032 175.819 70.5297 185.918 72.6023C196.017 74.6749 205.963 68.5377 208.134 58.8943Z" fill="#FF725E"/>
<g filter="url(#filter0_d_4_900)">
<path d="M323.012 126.4H147.016C143.448 126.4 140.556 129.162 140.556 132.569V178.062C140.556 181.469 143.448 184.231 147.016 184.231H323.012C326.58 184.231 329.472 181.469 329.472 178.062V132.569C329.472 129.162 326.58 126.4 323.012 126.4Z" fill="white"/>
</g>
<path d="M322.966 184.231C323.384 184.205 323.8 184.157 324.213 184.089C325.423 183.854 326.535 183.289 327.415 182.462C328.069 181.868 328.578 181.142 328.905 180.338C329.284 179.362 329.44 178.319 329.361 177.28C329.361 175.014 329.361 172.391 329.361 169.449C329.361 163.547 329.361 156.338 329.361 147.973C329.361 143.787 329.361 139.307 329.361 134.56C329.442 133.371 329.367 132.176 329.137 131.004C328.808 129.812 328.1 128.745 327.113 127.949C326.125 127.154 324.904 126.669 323.617 126.56C322.305 126.507 320.918 126.56 319.54 126.56L147.026 126.631C146.01 126.632 145.009 126.87 144.112 127.324C143.218 127.778 142.451 128.43 141.878 129.227C141.314 130.024 140.957 130.938 140.835 131.893C140.751 132.836 140.835 133.867 140.835 134.844V146.676C140.835 154.51 140.835 162.214 140.835 169.787V175.449C140.835 176.391 140.835 177.334 140.835 178.258C140.874 179.158 141.122 180.039 141.561 180.836C142.002 181.622 142.621 182.305 143.373 182.834C144.125 183.363 144.991 183.725 145.909 183.894C146.836 183.992 147.769 184.025 148.701 183.991H174.022L251.556 184.045L303.826 184.116L318.041 184.16H321.765H323.021C323.021 184.16 322.603 184.16 321.765 184.16H318.041H303.826L251.556 184.231L174.022 184.285H148.738C147.766 184.324 146.791 184.288 145.825 184.178C144.322 183.921 142.958 183.18 141.958 182.078C140.959 180.977 140.385 179.581 140.332 178.125C140.332 177.174 140.332 176.249 140.332 175.307V134.684C140.332 133.68 140.332 132.729 140.379 131.68C140.5 130.645 140.885 129.654 141.5 128.794C142.115 127.934 142.942 127.231 143.907 126.747C144.873 126.257 145.95 126 147.044 126L319.512 126.071C320.899 126.071 322.249 126.071 323.617 126.071C324.968 126.189 326.248 126.7 327.285 127.534C328.322 128.369 329.066 129.487 329.417 130.738C329.583 131.338 329.658 131.957 329.64 132.578V134.356C329.64 139.102 329.64 143.582 329.64 147.769C329.64 156.133 329.64 163.342 329.64 169.245C329.64 172.187 329.64 174.809 329.64 177.076C329.718 178.131 329.553 179.19 329.156 180.178C328.746 181.134 328.093 181.978 327.256 182.633C326.419 183.288 325.424 183.733 324.362 183.929C324.054 183.983 323.743 184.015 323.431 184.027L322.966 184.231Z" fill="#263238"/>
<path d="M315.863 138.267C315.801 138.267 315.741 138.245 315.695 138.204C315.652 138.161 315.628 138.104 315.628 138.044C315.628 137.985 315.652 137.928 315.695 137.884L320.35 133.627C320.395 133.585 320.455 133.562 320.517 133.562C320.58 133.562 320.64 133.585 320.685 133.627C320.728 133.668 320.751 133.724 320.751 133.782C320.751 133.84 320.728 133.896 320.685 133.938L316.03 138.196C316.009 138.218 315.984 138.236 315.955 138.248C315.926 138.261 315.894 138.267 315.863 138.267Z" fill="#263238"/>
<path d="M320.499 138.284C320.469 138.286 320.44 138.281 320.413 138.27C320.385 138.259 320.361 138.243 320.341 138.222L315.733 133.929C315.71 133.909 315.693 133.885 315.68 133.858C315.668 133.831 315.662 133.803 315.662 133.773C315.662 133.744 315.668 133.715 315.68 133.689C315.693 133.662 315.71 133.638 315.733 133.618C315.776 133.577 315.835 133.554 315.896 133.554C315.956 133.554 316.015 133.577 316.058 133.618L320.713 137.92C320.756 137.962 320.779 138.017 320.779 138.076C320.779 138.134 320.756 138.19 320.713 138.231C320.685 138.257 320.651 138.276 320.613 138.285C320.576 138.294 320.536 138.294 320.499 138.284Z" fill="#263238"/>
<g filter="url(#filter1_dd_4_900)">
<path d="M181.264 166.551L179.402 163.982C178.258 162.435 177.643 160.588 177.643 158.693V152.916C177.643 150.664 176.798 148.487 175.261 146.779C173.723 145.072 171.596 143.947 169.265 143.609V140.853C169.265 140.516 169.125 140.193 168.875 139.955C168.625 139.716 168.287 139.582 167.934 139.582C167.759 139.582 167.587 139.615 167.426 139.679C167.265 139.743 167.119 139.837 166.996 139.955C166.873 140.073 166.776 140.213 166.71 140.368C166.644 140.522 166.611 140.687 166.612 140.853V143.52C164.212 143.792 161.999 144.895 160.393 146.62C158.788 148.345 157.9 150.572 157.899 152.88V158.862C157.897 160.919 157.172 162.916 155.841 164.534L154.212 166.516L181.264 166.551Z" fill="#FF725E"/>
</g>
<path d="M166.305 170.747C167.041 171.032 167.846 171.114 168.629 170.986C169.412 170.857 170.142 170.522 170.736 170.018C171.245 169.57 171.629 169.008 171.853 168.382L163.968 168.329C164.16 168.865 164.468 169.357 164.87 169.773C165.272 170.189 165.761 170.521 166.305 170.747Z" fill="#FF725E"/>
<path d="M287.591 145.938C287.591 146.062 266.432 146.169 240.33 146.169C214.227 146.169 193.068 146.062 193.068 145.938C193.068 145.813 214.227 145.707 240.33 145.707C266.432 145.707 287.591 145.813 287.591 145.938Z" fill="#263238"/>
<path d="M309.821 156.862C309.821 156.987 283.672 157.093 251.426 157.093C219.18 157.093 193.021 156.987 193.021 156.862C193.021 156.738 219.161 156.631 251.426 156.631C283.691 156.631 309.821 156.729 309.821 156.862Z" fill="#E0E0E0"/>
<path d="M309.821 163.449C309.821 163.573 283.672 163.68 251.426 163.68C219.18 163.68 193.021 163.573 193.021 163.449C193.021 163.325 219.161 163.218 251.426 163.218C283.691 163.218 309.821 163.271 309.821 163.449Z" fill="#E0E0E0"/>
<path d="M292.786 193.263H175.911C172.343 193.263 169.451 196.024 169.451 199.431V226.827C169.451 230.234 172.343 232.996 175.911 232.996H292.786C296.354 232.996 299.246 230.234 299.246 226.827V199.431C299.246 196.024 296.354 193.263 292.786 193.263Z" fill="#FAFAFA"/>
<path d="M292.786 232.996C292.786 232.996 293.074 232.996 293.633 232.907C294.462 232.803 295.26 232.54 295.979 232.134C296.937 231.6 297.733 230.837 298.289 229.921C298.846 229.005 299.143 227.966 299.153 226.907V224.072C299.153 220.054 299.153 215.183 299.107 209.467C299.107 206.623 299.107 203.574 299.107 200.347C299.151 199.542 299.082 198.735 298.902 197.947C298.691 197.148 298.308 196.4 297.775 195.751C297.23 195.075 296.539 194.519 295.749 194.12C294.958 193.722 294.088 193.49 293.195 193.44L175.902 193.494C174.523 193.492 173.183 193.928 172.091 194.732C170.999 195.537 170.218 196.664 169.87 197.938C169.706 198.575 169.641 199.23 169.674 199.885V201.903C169.674 203.245 169.674 204.569 169.674 205.911V225.467C169.674 226.107 169.674 226.756 169.674 227.36C169.744 227.972 169.903 228.57 170.149 229.138C170.656 230.256 171.508 231.2 172.59 231.845C173.673 232.489 174.935 232.804 176.209 232.747H191.448L244.165 232.792L279.716 232.872L289.379 232.916H291.892H292.749C292.749 232.916 292.451 232.916 291.892 232.916H289.379H279.716L244.165 232.987L191.448 233.04H176.247C174.877 233.101 173.521 232.762 172.357 232.07C171.194 231.378 170.278 230.365 169.73 229.165C169.471 228.556 169.302 227.916 169.228 227.263C169.172 226.587 169.228 225.965 169.228 225.325V199.894C169.193 199.2 169.265 198.505 169.442 197.831C169.813 196.452 170.655 195.23 171.835 194.359C173.015 193.488 174.466 193.017 175.958 193.023L293.251 193.103C294.65 193.188 295.984 193.696 297.062 194.552C298.139 195.408 298.904 196.569 299.246 197.867C299.433 198.678 299.502 199.509 299.451 200.338C299.451 203.565 299.451 206.614 299.451 209.458C299.451 215.147 299.451 220.045 299.451 224.063C299.451 225.058 299.451 226.009 299.451 226.898C299.44 227.742 299.247 228.574 298.883 229.343C298.312 230.547 297.358 231.549 296.156 232.205C295.423 232.606 294.612 232.86 293.773 232.952C293.446 232.993 293.115 233.007 292.786 232.996Z" fill="#263238"/>
<path d="M289.9 201.485C289.869 201.484 289.838 201.478 289.809 201.466C289.78 201.453 289.754 201.436 289.733 201.414C289.71 201.394 289.693 201.37 289.68 201.343C289.668 201.316 289.662 201.287 289.662 201.258C289.662 201.229 289.668 201.2 289.68 201.173C289.693 201.147 289.71 201.123 289.733 201.103L292.926 198.178C292.947 198.157 292.973 198.14 293.002 198.128C293.031 198.116 293.062 198.11 293.093 198.11C293.124 198.11 293.155 198.116 293.184 198.128C293.213 198.14 293.239 198.157 293.261 198.178C293.303 198.22 293.327 198.276 293.327 198.334C293.327 198.392 293.303 198.448 293.261 198.489L290.058 201.414C290.039 201.436 290.015 201.453 289.987 201.465C289.96 201.478 289.93 201.484 289.9 201.485Z" fill="#263238"/>
<path d="M293.084 201.494C293.021 201.494 292.961 201.472 292.916 201.431L289.751 198.48C289.717 198.438 289.701 198.385 289.705 198.331C289.709 198.278 289.733 198.228 289.773 198.19C289.812 198.152 289.865 198.129 289.921 198.125C289.977 198.122 290.032 198.137 290.077 198.169L293.242 201.12C293.285 201.162 293.308 201.218 293.308 201.276C293.308 201.334 293.285 201.39 293.242 201.431C293.199 201.47 293.143 201.492 293.084 201.494Z" fill="#263238"/>
<path d="M197.415 220.845L196.112 219.067C195.328 218.002 194.906 216.733 194.902 215.432V211.449C194.901 209.905 194.321 208.412 193.268 207.239C192.214 206.067 190.757 205.294 189.158 205.058V203.165C189.158 202.929 189.06 202.703 188.885 202.536C188.711 202.37 188.474 202.276 188.227 202.276C187.98 202.276 187.744 202.37 187.569 202.536C187.394 202.703 187.296 202.929 187.296 203.165V205.031C185.647 205.217 184.127 205.973 183.024 207.158C181.92 208.343 181.311 209.873 181.311 211.458V215.565C181.312 216.976 180.817 218.347 179.905 219.458L178.779 220.827L197.415 220.845Z" fill="#455A64"/>
<path d="M187.138 223.734C187.644 223.927 188.196 223.983 188.734 223.895C189.271 223.808 189.772 223.579 190.182 223.236C190.533 222.928 190.796 222.539 190.945 222.107H185.528C185.666 222.468 185.881 222.799 186.158 223.079C186.434 223.358 186.768 223.581 187.138 223.734Z" fill="#455A64"/>
<path d="M270.444 206.685C270.444 206.809 255.904 206.916 237.965 206.916C220.027 206.916 205.495 206.809 205.495 206.685C205.495 206.56 220.036 206.454 237.965 206.454C255.894 206.454 270.444 206.551 270.444 206.685Z" fill="#263238"/>
<path d="M285.73 214.187C285.73 214.32 267.763 214.418 245.608 214.418C223.452 214.418 205.477 214.32 205.477 214.187C205.477 214.054 223.434 213.956 245.608 213.956C267.782 213.956 285.73 214.063 285.73 214.187Z" fill="#E0E0E0"/>
<path d="M285.73 218.685C285.73 218.809 267.763 218.916 245.608 218.916C223.452 218.916 205.477 218.809 205.477 218.685C205.477 218.56 223.434 218.454 245.608 218.454C267.782 218.454 285.73 218.56 285.73 218.685Z" fill="#E0E0E0"/>
<path d="M292.292 239.174H176.395C172.827 239.174 169.935 241.936 169.935 245.343V272.436C169.935 275.843 172.827 278.605 176.395 278.605H292.292C295.86 278.605 298.753 275.843 298.753 272.436V245.343C298.753 241.936 295.86 239.174 292.292 239.174Z" fill="#FAFAFA"/>
<path d="M292.292 278.614C292.292 278.614 292.581 278.614 293.13 278.534C293.952 278.427 294.743 278.164 295.458 277.761C296.629 277.117 297.557 276.138 298.111 274.961C298.454 274.215 298.641 273.411 298.66 272.596V269.787C298.66 265.805 298.66 260.943 298.66 255.298C298.66 252.472 298.66 249.449 298.66 246.249C298.709 245.45 298.64 244.648 298.455 243.867C298.249 243.075 297.872 242.333 297.347 241.689C296.809 241.016 296.126 240.459 295.344 240.058C294.562 239.656 293.699 239.418 292.814 239.361L176.451 239.405C175.077 239.414 173.744 239.853 172.658 240.656C171.571 241.459 170.791 242.581 170.438 243.849C170.268 244.479 170.196 245.129 170.224 245.778V251.752C170.224 257.044 170.224 262.247 170.224 267.361V271.174C170.224 271.805 170.224 272.454 170.224 273.05C170.288 273.661 170.444 274.259 170.689 274.827C171.189 275.938 172.029 276.878 173.099 277.524C174.169 278.17 175.419 278.491 176.684 278.445H191.802L244.109 278.49L279.381 278.57L288.969 278.614H291.464H292.311C292.311 278.614 292.023 278.614 291.464 278.614H288.969L279.381 278.658L244.109 278.73L191.802 278.783H176.665C175.309 278.826 173.97 278.479 172.823 277.786C171.676 277.093 170.774 276.087 170.233 274.898C169.973 274.293 169.804 273.656 169.73 273.005C169.73 272.347 169.73 271.725 169.73 271.085C169.73 269.823 169.73 268.552 169.73 267.272V245.743C169.702 245.054 169.78 244.365 169.963 243.698C170.35 242.332 171.198 241.125 172.376 240.265C173.554 239.405 174.997 238.941 176.479 238.943L292.842 239.041C293.774 239.103 294.681 239.355 295.503 239.78C296.325 240.205 297.043 240.792 297.608 241.503C298.151 242.186 298.547 242.965 298.772 243.796C298.949 244.602 299.018 245.427 298.976 246.249C298.976 249.449 298.976 252.472 298.976 255.298C298.976 260.943 298.976 265.805 298.93 269.787C298.93 270.774 298.93 271.716 298.93 272.596C298.898 273.669 298.576 274.716 297.995 275.635C297.415 276.554 296.595 277.314 295.616 277.841C294.886 278.239 294.078 278.491 293.242 278.578C292.927 278.615 292.609 278.627 292.292 278.614Z" fill="#263238"/>
<path d="M289.453 247.343C289.422 247.342 289.39 247.336 289.362 247.324C289.333 247.311 289.307 247.294 289.286 247.272C289.263 247.252 289.246 247.228 289.233 247.201C289.221 247.174 289.215 247.145 289.215 247.116C289.215 247.087 289.221 247.058 289.233 247.031C289.246 247.005 289.263 246.981 289.286 246.961L292.46 244.054C292.505 244.013 292.565 243.99 292.627 243.99C292.69 243.99 292.75 244.013 292.795 244.054C292.838 244.095 292.862 244.151 292.862 244.209C292.862 244.268 292.838 244.323 292.795 244.365L289.621 247.272C289.6 247.295 289.574 247.313 289.545 247.325C289.516 247.338 289.485 247.344 289.453 247.343Z" fill="#263238"/>
<path d="M292.637 247.352C292.575 247.352 292.515 247.33 292.469 247.289L289.332 244.338C289.288 244.297 289.262 244.241 289.261 244.181C289.261 244.122 289.284 244.065 289.328 244.023C289.371 243.98 289.43 243.956 289.492 243.955C289.554 243.954 289.614 243.977 289.658 244.018L292.795 246.952C292.838 246.993 292.862 247.049 292.862 247.107C292.862 247.165 292.838 247.221 292.795 247.263C292.757 247.311 292.7 247.343 292.637 247.352Z" fill="#263238"/>
<path d="M197.694 266.561L196.363 264.783C195.58 263.728 195.16 262.467 195.162 261.174V257.245C195.161 255.71 194.586 254.226 193.539 253.06C192.493 251.895 191.045 251.125 189.456 250.889V249.014C189.456 248.778 189.358 248.552 189.183 248.385C189.009 248.219 188.772 248.125 188.525 248.125C188.278 248.125 188.041 248.219 187.867 248.385C187.692 248.552 187.594 248.778 187.594 249.014V250.863C185.959 251.05 184.453 251.803 183.36 252.979C182.267 254.155 181.664 255.673 181.664 257.245V261.325C181.664 262.727 181.173 264.088 180.268 265.192L179.235 266.561H197.694Z" fill="#E0E0E0"/>
<path d="M187.492 269.423C187.995 269.614 188.544 269.669 189.078 269.581C189.612 269.493 190.11 269.266 190.517 268.925C190.864 268.619 191.123 268.233 191.271 267.805H185.9C186.035 268.164 186.246 268.493 186.52 268.772C186.794 269.05 187.125 269.272 187.492 269.423Z" fill="#E0E0E0"/>
<path d="M270.165 252.498C270.165 252.632 255.736 252.729 237.937 252.729C220.138 252.729 205.71 252.632 205.71 252.498C205.71 252.365 220.138 252.267 237.937 252.267C255.736 252.267 270.165 252.338 270.165 252.498Z" fill="#263238"/>
<path d="M285.357 259.947C285.357 260.081 267.521 260.178 245.533 260.178C223.546 260.178 205.71 260.081 205.71 259.947C205.71 259.814 223.536 259.716 245.533 259.716C267.531 259.716 285.357 259.823 285.357 259.947Z" fill="#E0E0E0"/>
<path d="M285.357 264.41C285.357 264.534 267.521 264.641 245.533 264.641C223.546 264.641 205.71 264.534 205.71 264.41C205.71 264.285 223.536 264.178 245.533 264.178C267.531 264.178 285.357 264.285 285.357 264.41Z" fill="#E0E0E0"/>
<path d="M111.091 163.045L111.932 153.517C107.08 150.437 103.61 145.736 102.203 140.337C100.797 134.938 101.556 129.231 104.332 124.34C107.108 119.448 111.7 115.725 117.205 113.902C122.71 112.079 128.73 112.289 134.081 114.489C139.433 116.689 143.729 120.722 146.125 125.793C148.521 130.864 148.844 136.608 147.03 141.895C145.216 147.182 141.397 151.63 136.323 154.365C131.249 157.1 125.287 157.923 119.609 156.673L111.091 163.045Z" fill="white"/>
<path d="M111.091 163.045L119.671 156.732L119.756 156.666L119.655 156.622L119.601 156.747C121.424 157.151 123.29 157.349 125.162 157.337C127.39 157.311 129.602 156.983 131.734 156.364C132.915 156.023 134.063 155.584 135.163 155.051C135.719 154.763 136.306 154.491 136.87 154.188L138.538 153.141C143.365 149.788 146.678 144.809 147.805 139.211C148.475 136.1 148.433 132.888 147.681 129.794C146.836 126.555 145.254 123.534 143.048 120.945C140.764 118.219 137.834 116.053 134.499 114.625L133.193 114.101C132.761 113.917 132.298 113.814 131.857 113.674C131.417 113.533 130.969 113.379 130.514 113.297L129.147 113.017C128.694 112.917 128.235 112.851 127.772 112.818L126.397 112.663H125.023C124.567 112.637 124.111 112.637 123.656 112.663C120.095 112.856 116.625 113.809 113.5 115.451C110.539 116.994 107.971 119.142 105.978 121.741C102.411 126.42 100.855 132.225 101.63 137.965C102.006 140.386 102.766 142.738 103.885 144.941C104.874 146.844 106.146 148.6 107.662 150.154C108.923 151.449 110.341 152.595 111.886 153.569V153.51C111.392 159.601 111.114 162.58 111.114 163.045C111.16 162.58 111.446 159.608 112.025 153.524V153.488C110.499 152.508 109.097 151.362 107.847 150.073C106.353 148.519 105.099 146.768 104.125 144.874C103.027 142.688 102.282 140.356 101.916 137.957C101.163 132.274 102.713 126.531 106.248 121.903C108.226 119.34 110.767 117.22 113.693 115.694C116.783 114.075 120.214 113.138 123.733 112.951C124.183 112.925 124.634 112.925 125.084 112.951H126.444L127.803 113.106C128.258 113.14 128.71 113.206 129.154 113.305L130.506 113.578C130.962 113.659 131.386 113.828 131.834 113.946C132.282 114.064 132.73 114.19 133.155 114.374L134.437 114.89C137.732 116.3 140.628 118.439 142.886 121.129C145.056 123.697 146.607 126.691 147.427 129.897C148.188 132.937 148.259 136.098 147.635 139.167C146.504 144.714 143.208 149.643 138.414 152.957L136.769 153.996C136.205 154.306 135.626 154.572 135.078 154.859C133.987 155.389 132.85 155.828 131.68 156.172C129.57 156.796 127.378 157.129 125.169 157.16C123.31 157.183 121.454 156.997 119.64 156.607L119.594 156.732V156.614C114.18 160.714 111.492 162.742 111.091 163.045Z" fill="#263238"/>
<path d="M121.547 123.658L122.266 136.608C122.296 137.119 122.521 137.601 122.898 137.965C123.275 138.329 123.778 138.549 124.312 138.584C124.871 138.618 125.422 138.447 125.853 138.106C126.283 137.764 126.561 137.278 126.629 136.748L128.274 123.754C128.302 123.522 128.279 123.287 128.205 123.065C128.132 122.842 128.009 122.637 127.847 122.463C127.684 122.289 127.484 122.149 127.261 122.054C127.038 121.959 126.796 121.91 126.552 121.911H123.246C123.013 121.912 122.781 121.959 122.567 122.049C122.353 122.139 122.161 122.27 122.001 122.434C121.842 122.598 121.72 122.791 121.642 123.001C121.564 123.212 121.532 123.435 121.547 123.658Z" fill="#FF725E"/>
<path d="M127.857 145.096C127.651 145.688 127.265 146.209 126.749 146.592C126.233 146.975 125.61 147.204 124.957 147.249C124.305 147.294 123.654 147.153 123.086 146.844C122.517 146.535 122.058 146.073 121.765 145.514C121.472 144.956 121.359 144.327 121.44 143.708C121.522 143.089 121.794 142.506 122.222 142.034C122.65 141.562 123.215 141.222 123.846 141.057C124.476 140.892 125.144 140.909 125.764 141.106C126.595 141.37 127.283 141.939 127.675 142.687C128.068 143.435 128.133 144.302 127.857 145.096Z" fill="#FF725E"/>
<path d="M24.1952 296.313H349.058V341.83H24.1952V296.313Z" fill="#FF725E"/>
<g opacity="0.5">
<path d="M24.1952 296.313H349.058V341.83H24.1952V296.313Z" fill="black"/>
</g>
<path d="M303.297 371.364C286.035 370.255 272.984 355.994 274.145 339.511C275.307 323.029 290.242 310.566 307.504 311.675C324.765 312.784 337.817 327.045 336.655 343.528C335.494 360.011 320.559 372.474 303.297 371.364Z" fill="#263238"/>
<path d="M336.721 341.013C336.721 341.041 336.721 341.069 336.721 341.092C336.78 345.02 336.029 348.921 334.51 352.571C332.991 356.222 330.733 359.552 327.866 362.37C325 365.187 321.58 367.439 317.802 368.994C314.024 370.55 309.963 371.38 305.849 371.437C301.735 371.494 297.65 370.777 293.826 369.326C290.003 367.875 286.516 365.72 283.565 362.982C280.614 360.245 278.257 356.979 276.627 353.372C274.998 349.765 274.129 345.886 274.069 341.958C274.069 341.93 274.069 341.902 274.069 341.88L336.721 341.013Z" fill="#263238"/>
<path d="M327.393 341.22C327.458 345.374 326.231 349.452 323.867 352.94C321.504 356.427 318.111 359.167 314.116 360.813C310.122 362.458 305.707 362.936 301.428 362.185C297.149 361.434 293.2 359.489 290.08 356.594C286.959 353.7 284.808 349.987 283.898 345.925C282.987 341.863 283.359 337.634 284.966 333.774C286.573 329.914 289.343 326.596 292.925 324.239C296.507 321.882 300.741 320.592 305.091 320.533C310.921 320.454 316.545 322.589 320.727 326.468C324.909 330.347 327.307 335.653 327.393 341.22Z" fill="#FAFAFA"/>
<path d="M305.09 320.528C310.921 320.447 316.546 322.581 320.729 326.461C324.911 330.34 327.308 335.647 327.393 341.215L283.414 341.824C283.331 336.255 285.568 330.883 289.633 326.889C293.699 322.895 299.259 320.607 305.09 320.528Z" fill="#E0E0E0"/>
<path d="M318.798 341.338C318.837 343.868 318.089 346.352 316.649 348.477C315.21 350.601 313.142 352.27 310.709 353.272C308.276 354.275 305.586 354.565 302.98 354.108C300.373 353.65 297.968 352.465 296.067 350.702C294.166 348.938 292.856 346.676 292.302 344.202C291.747 341.727 291.974 339.151 292.953 336.8C293.932 334.449 295.62 332.427 297.802 330.992C299.985 329.556 302.564 328.771 305.213 328.735C306.972 328.711 308.718 329.018 310.353 329.638C311.987 330.258 313.478 331.179 314.739 332.35C316.001 333.52 317.008 334.916 317.705 336.458C318.401 338 318.773 339.658 318.798 341.338Z" fill="#263238"/>
<path d="M64.0366 371.354C46.765 370.397 33.5757 356.252 34.5776 339.76C35.5796 323.267 50.3933 310.673 67.6649 311.63C84.9366 312.587 98.1259 326.732 97.124 343.224C96.122 359.717 81.3083 372.311 64.0366 371.354Z" fill="#263238"/>
<path d="M97.1813 341.013C97.1813 341.041 97.1813 341.069 97.1813 341.092C97.2409 345.02 96.4896 348.921 94.9704 352.571C93.4512 356.222 91.1938 359.552 88.327 362.37C85.4603 365.187 82.0404 367.439 78.2626 368.994C74.4848 370.55 70.4231 371.38 66.3093 371.437C62.1955 371.494 58.1104 370.777 54.2869 369.326C50.4635 367.875 46.9768 365.72 44.0258 362.982C41.0748 360.245 38.7173 356.979 37.088 353.372C35.4587 349.765 34.5894 345.886 34.5298 341.958C34.5298 341.93 34.5298 341.902 34.5298 341.88L97.1813 341.013Z" fill="#263238"/>
<path d="M87.8538 341.22C87.9182 345.374 86.6911 349.452 84.3278 352.94C81.9645 356.427 78.5711 359.167 74.5769 360.813C70.5826 362.458 66.1669 362.936 61.8884 362.185C57.6098 361.434 53.6605 359.489 50.5401 356.594C47.4197 353.7 45.2683 349.987 44.3581 345.925C43.4479 341.863 43.8197 337.634 45.4266 333.774C47.0334 329.914 49.8031 326.596 53.3853 324.239C56.9675 321.882 61.2012 320.592 65.551 320.533C71.3809 320.454 77.0052 322.589 81.1874 326.468C85.3696 330.347 87.7674 335.653 87.8538 341.22Z" fill="#FAFAFA"/>
<path d="M65.551 320.528C71.3814 320.447 77.0065 322.581 81.1891 326.461C85.3716 330.34 87.769 335.647 87.8538 341.215L43.8747 341.824C43.7918 336.255 46.029 330.883 50.094 326.889C54.1591 322.895 59.7191 320.607 65.551 320.528Z" fill="#E0E0E0"/>
<path d="M79.2758 341.338C79.3149 343.868 78.5673 346.352 77.1276 348.477C75.6878 350.601 73.6205 352.27 71.1873 353.272C68.754 354.275 66.0641 354.565 63.4577 354.108C60.8514 353.65 58.4458 352.465 56.5451 350.702C54.6444 348.938 53.334 346.676 52.7798 344.202C52.2256 341.727 52.4523 339.151 53.4314 336.8C54.4105 334.449 56.098 332.427 58.2803 330.992C60.4626 329.556 63.0418 328.771 65.6916 328.735C67.4502 328.711 69.1966 329.018 70.831 329.638C72.4655 330.258 73.956 331.179 75.2174 332.35C76.4789 333.52 77.4866 334.916 78.1829 336.458C78.8793 338 79.2506 339.658 79.2758 341.338Z" fill="#263238"/>
<path d="M264.344 270.706C264.344 270.706 310.471 273.954 327.581 277.616C339.631 280.194 362.864 284.65 362.583 298.605L360.739 308.613C360.739 308.613 369.352 312.37 369.352 321.965C369.352 331.559 371.454 346.431 351.335 347.029C348.021 347.124 341.727 347.029 341.727 347.029C341.727 347.029 345.586 306.114 306.226 304.917C266.182 303.699 268.84 346.655 268.84 346.655H101.713C101.713 346.655 108.576 304.806 65.4689 304.722C22.3624 304.638 28.9203 346.929 28.9203 346.929C28.9203 346.929 13.0642 348.237 5.68655 335.512C-1.6911 322.786 0.223572 313.707 0.223572 313.707L0.469482 305.661C0.516205 304.341 1.08643 303.086 2.06473 302.152C3.04306 301.218 4.35645 300.674 5.73923 300.629C5.73923 300.629 2.85843 280.378 7.27917 276.873C11.6999 273.367 35.9232 252.216 35.9232 252.216L34.7522 251.528C34.3181 251.266 33.9706 250.892 33.7501 250.449C33.5296 250.006 33.4451 249.513 33.5064 249.026C33.5677 248.539 33.7722 248.079 34.0964 247.698C34.4205 247.318 34.8509 247.033 35.3377 246.877C44.5363 243.857 62.7228 237.881 66.9972 236.455C67.6373 236.238 68.3047 236.102 68.9821 236.052C71.535 235.868 78.7605 235.432 92.0227 235.297C108.177 235.13 172.316 235.297 172.316 235.297C172.316 235.297 194.391 237.031 206.687 242.197C219.58 247.631 264.344 270.706 264.344 270.706Z" fill="#FF725E"/>
<g opacity="0.4">
<path d="M357.653 320.846C359.328 320.522 361.893 320.494 363.169 321.573C364.118 322.378 364.369 323.681 364.51 324.883C364.779 326.53 364.739 328.209 364.393 329.842C364.216 330.658 363.865 331.43 363.361 332.111C362.857 332.791 362.212 333.364 361.465 333.795C359.931 334.589 357.835 334.461 356.646 333.236C355.557 332.118 355.434 330.441 355.475 328.948C355.516 326.79 355.335 324.961 355.75 322.842C355.842 322.393 356.043 321.969 356.336 321.607C356.482 321.39 356.678 321.208 356.91 321.075C357.141 320.942 357.402 320.862 357.671 320.841" fill="black"/>
</g>
<path d="M360.727 308.613C355.832 308.613 351.084 308.356 346.195 308.054C345.662 308.076 345.137 307.924 344.707 307.623C344.511 307.39 344.364 307.121 344.277 306.833C344.189 306.546 344.163 306.244 344.198 305.946C344.198 303.441 344.303 300.59 346.294 298.957C347.512 297.962 349.181 297.649 350.779 297.509C354.749 297.1 358.764 297.48 362.572 298.627L360.727 308.613Z" fill="#FAFAFA"/>
<path d="M259.033 345.374C259.033 345.374 259.033 345.24 259.068 344.972C259.103 344.703 259.115 344.306 259.15 343.798C259.209 342.758 259.296 341.243 259.408 339.286C259.519 337.329 259.659 334.93 259.952 332.157C260.255 329.017 260.832 325.907 261.679 322.859C262.748 319.178 264.334 315.651 266.393 312.376C268.725 308.594 271.825 305.294 275.51 302.67C283.408 297.302 294.083 294.283 305.249 294.138C316.415 293.992 327.095 297.364 334.8 303.016C338.494 305.626 341.729 308.779 344.385 312.359C346.704 315.467 348.59 318.85 349.995 322.423C351.153 325.376 351.949 328.447 352.366 331.576C352.693 333.934 352.789 336.317 352.653 338.693C352.557 340.194 352.361 341.688 352.067 343.166C351.974 343.663 351.898 344.049 351.851 344.318C351.804 344.586 351.786 344.715 351.786 344.715C351.786 344.715 351.822 344.586 351.88 344.329L352.132 343.211C352.451 341.735 352.662 340.241 352.764 338.738C352.923 336.354 352.845 333.962 352.53 331.592C352.126 328.448 351.34 325.36 350.188 322.389C348.788 318.788 346.902 315.377 344.579 312.242C341.916 308.633 338.667 305.454 334.952 302.826C327.212 297.146 316.508 293.741 305.254 293.881C294.001 294.02 283.309 297.068 275.346 302.485C271.639 305.135 268.523 308.466 266.182 312.281C264.125 315.581 262.549 319.135 261.498 322.842C260.656 325.903 260.089 329.027 259.806 332.179C259.531 334.975 259.408 337.357 259.314 339.314C259.22 341.27 259.156 342.791 259.109 343.831C259.109 344.34 259.074 344.731 259.062 345.005C259.05 345.279 259.033 345.374 259.033 345.374Z" fill="white"/>
<path d="M257.276 346.068V345.732L257.312 344.743C257.341 343.859 257.382 342.568 257.44 340.879C257.54 337.485 257.686 332.526 257.874 326.214C258.061 319.901 258.278 312.236 258.529 303.458C258.594 301.261 258.652 298.985 258.723 296.665C258.764 295.479 258.709 294.292 258.559 293.115L258.295 291.314L257.909 289.508C257.302 287.041 256.429 284.641 255.303 282.346C254.144 279.941 252.71 277.665 251.029 275.559L222.086 258.148L214.269 253.452C211.635 251.78 208.869 250.305 205.996 249.04C203.058 247.719 200.044 246.56 196.967 245.568C195.433 245.054 193.858 244.635 192.283 244.187C190.708 243.74 189.103 243.371 187.476 243.069C181.338 241.815 175.098 241.067 168.827 240.833C162.808 240.557 156.779 240.576 150.763 240.889H150.593L150.634 241.051L158.41 274.267C159.846 276.52 161.024 278.913 161.923 281.407C162.808 283.772 163.205 286.278 163.094 288.787C162.895 291.242 162.825 293.646 162.76 295.977C162.696 298.309 162.667 300.568 162.62 302.765C162.485 311.543 162.45 319.197 162.427 325.504C162.403 331.81 162.427 336.77 162.427 340.158C162.427 341.835 162.427 343.138 162.427 344.021C162.427 344.452 162.427 344.782 162.427 345.011C162.427 345.24 162.427 345.346 162.427 345.346C162.427 345.346 162.427 345.229 162.427 345.011C162.427 344.793 162.427 344.452 162.427 344.021C162.427 343.138 162.427 341.846 162.427 340.158C162.427 336.77 162.479 331.81 162.52 325.509C162.561 319.208 162.62 311.532 162.778 302.765C162.825 300.573 162.876 298.312 162.93 295.983C163.001 293.651 163.071 291.258 163.276 288.804C163.395 286.263 162.997 283.725 162.105 281.329C161.212 278.815 160.034 276.402 158.592 274.133V274.172C156.208 263.946 153.603 252.786 150.845 240.95L150.71 241.118C156.713 240.809 162.728 240.794 168.733 241.073C174.99 241.304 181.214 242.053 187.335 243.309C188.957 243.617 190.538 244.047 192.125 244.428C193.711 244.808 195.263 245.294 196.809 245.803C199.886 246.796 202.9 247.958 205.838 249.281C208.696 250.537 211.448 252.003 214.07 253.664L221.893 258.361L250.836 275.732V275.704C252.514 277.796 253.943 280.059 255.098 282.452C256.223 284.73 257.094 287.113 257.698 289.564C259.015 294.356 258.354 299.069 258.342 303.458L257.757 326.214C257.598 332.52 257.475 337.485 257.393 340.873C257.353 342.551 257.329 343.859 257.306 344.743C257.306 345.171 257.306 345.501 257.306 345.732C257.276 345.956 257.276 346.068 257.276 346.068Z" fill="#263238"/>
<path d="M150.974 241.811H150.699L149.896 241.783L146.787 241.71L135.258 241.498L96.3908 240.861H96.3147L96.2679 240.916L90.8224 247.285C85.3068 253.754 80.0487 259.904 75.2708 265.495L73.5142 267.563C72.9456 268.257 72.4568 269.007 72.0563 269.8C71.3309 271.271 70.9368 272.871 70.8995 274.497C70.8621 276.122 71.1824 277.738 71.8396 279.238L73.5962 283.151L78.9714 295.027L80.4469 298.247L80.8392 299.086C80.927 299.27 80.9797 299.365 80.9797 299.365C80.9797 299.365 80.9446 299.265 80.8685 299.075C80.7924 298.885 80.6577 298.588 80.5054 298.225C80.1717 297.476 79.6974 296.38 79.0826 294.982L73.8129 283.073C72.8058 280.546 71.0316 277.885 71.1546 274.642C71.1807 272.994 71.5802 271.37 72.3256 269.884C72.7182 269.112 73.1972 268.382 73.7543 267.709L75.5109 265.64L91.0801 247.447L96.5197 241.079L96.4025 241.135L135.276 241.694L146.805 241.822H149.914H150.71L150.974 241.811Z" fill="#263238"/>
<path d="M170.618 291.169C170.618 291.169 170.454 291.169 170.156 291.102C169.716 291.027 169.298 290.868 168.926 290.632C168.336 290.265 167.894 289.717 167.673 289.078C167.539 288.681 167.483 288.264 167.509 287.848C167.523 287.384 167.647 286.929 167.872 286.517C168.134 286.049 168.522 285.656 168.997 285.38C169.472 285.103 170.015 284.954 170.571 284.946H174.518H183.564C184.328 284.947 185.064 285.223 185.625 285.718C186.173 286.194 186.522 286.843 186.609 287.546C186.698 288.225 186.567 288.914 186.234 289.52C185.894 290.089 185.368 290.535 184.735 290.789C184.109 290.994 183.445 291.072 182.785 291.018H180.871H177.428L172.445 291.063L171.092 291.091C170.934 291.088 170.775 291.099 170.618 291.124C170.776 291.142 170.934 291.151 171.092 291.152H172.445L177.428 291.197H180.871H182.785C183.119 291.197 183.441 291.197 183.798 291.197C184.157 291.176 184.509 291.099 184.841 290.968C185.535 290.695 186.114 290.209 186.486 289.587C186.858 288.933 187.003 288.183 186.902 287.445C186.81 286.661 186.419 285.936 185.803 285.409C185.188 284.882 184.391 284.59 183.564 284.588H174.518H170.565C169.968 284.6 169.385 284.766 168.878 285.068C168.371 285.37 167.959 285.798 167.685 286.305C167.45 286.745 167.324 287.231 167.316 287.725C167.297 288.161 167.362 288.597 167.509 289.011C167.756 289.675 168.234 290.239 168.862 290.61C169.249 290.845 169.688 290.992 170.144 291.04C170.296 291.101 170.455 291.144 170.618 291.169Z" fill="#263238"/>
<path d="M83.96 291.169C83.96 291.169 83.7961 291.169 83.4975 291.102C83.0582 291.027 82.6397 290.868 82.2678 290.632C81.6778 290.265 81.236 289.717 81.0148 289.078C80.8806 288.681 80.825 288.264 80.8509 287.848C80.8647 287.384 80.9889 286.929 81.2139 286.517C81.4756 286.049 81.8641 285.656 82.3388 285.38C82.8136 285.103 83.3572 284.954 83.9132 284.946H87.8596H96.906C97.6701 284.947 98.4058 285.223 98.9671 285.718C99.515 286.194 99.8644 286.843 99.9508 287.546C100.04 288.225 99.9088 288.914 99.576 289.52C99.2364 290.089 98.7095 290.535 98.0771 290.789C97.4509 290.994 96.7869 291.072 96.1273 291.018H94.2126H90.7697L85.7869 291.063L84.4343 291.091C84.2755 291.088 84.1166 291.099 83.96 291.124C84.1175 291.142 84.2758 291.151 84.4343 291.152H85.7869L90.7697 291.197H94.2126H96.1273C96.4611 291.197 96.7831 291.197 97.1403 291.197C97.4985 291.176 97.8507 291.099 98.1825 290.968C98.8768 290.695 99.4559 290.209 99.8278 289.587C100.199 288.933 100.345 288.183 100.244 287.445C100.152 286.661 99.7606 285.936 99.1451 285.409C98.5296 284.882 97.7326 284.59 96.906 284.588H87.8596H83.9073C83.3098 284.6 82.7268 284.766 82.2197 285.068C81.7127 285.37 81.3004 285.798 81.0265 286.305C80.7921 286.745 80.6659 287.231 80.6576 287.725C80.6387 288.161 80.7042 288.597 80.8509 289.011C81.0984 289.675 81.5754 290.239 82.2034 290.61C82.5908 290.845 83.0295 290.992 83.4857 291.04C83.6379 291.101 83.7971 291.144 83.96 291.169Z" fill="#263238"/>
<path d="M8.02289 277.672H25.3545C26.5196 277.672 27.6627 277.975 28.6605 278.55C29.6583 279.124 30.4729 279.948 31.0166 280.932C31.4633 281.746 31.7121 282.646 31.7445 283.564C31.777 284.483 31.5922 285.397 31.204 286.238L24.4118 300.981L7.05676 300.819C7.05676 300.819 3.36209 282.128 8.02289 277.672Z" fill="#FAFAFA"/>
<path d="M248.728 275.587L159.3 274.01L101.098 272.992L81.9048 262.409C81.5399 262.206 81.2243 261.931 80.979 261.603C80.7336 261.275 80.5641 260.901 80.4816 260.505C80.3991 260.11 80.4055 259.702 80.5005 259.309C80.5955 258.916 80.7767 258.547 81.0323 258.226L92.983 243.237C93.597 242.465 94.3881 241.838 95.2955 241.404C96.203 240.969 97.2026 240.74 98.2176 240.732L163.317 240.229C163.317 240.229 187.827 238.865 207.143 249.174C227.455 260.06 248.728 275.587 248.728 275.587Z" fill="#263238"/>
<path d="M207.747 241.778C207.747 241.778 203.261 243.729 206.177 245.535C209.093 247.341 254.401 274.608 254.401 274.608L264.818 270.107C246.368 260.306 227.737 250.774 207.747 241.778Z" fill="#455A64"/>
<path d="M252.938 275.302L253.219 275.369L254.044 275.542L257.224 276.168C259.987 276.694 263.992 277.432 268.934 278.248C278.888 279.881 292.66 281.782 307.983 283.045C311.818 283.364 315.595 283.604 319.178 283.85C322.762 284.096 326.287 284.292 329.601 284.577C336.235 285.136 342.172 286.053 346.997 287.423C350.832 288.441 354.522 289.902 357.987 291.773C359.234 292.399 360.124 293.014 360.751 293.383L361.465 293.814L361.717 293.953C361.642 293.895 361.564 293.841 361.483 293.791L360.786 293.333C360.165 292.947 359.287 292.315 358.046 291.655C354.602 289.733 350.919 288.231 347.085 287.183C342.248 285.779 336.293 284.834 329.653 284.27C326.333 283.968 322.844 283.755 319.225 283.526C315.607 283.297 311.865 283.028 308.036 282.71C292.718 281.446 278.929 279.579 268.993 277.996C264.022 277.208 260.017 276.504 257.247 276.012L254.056 275.452L253.224 275.307L252.938 275.302Z" fill="#263238"/>
<path d="M1.09612 313.539C1.09612 313.623 7.05682 313.684 14.4052 313.684C21.7536 313.684 27.7201 313.623 27.7201 313.539C27.7201 313.455 21.7594 313.393 14.4052 313.393C7.05096 313.393 1.09612 313.461 1.09612 313.539Z" fill="#263238"/>
<path d="M110.139 328.064C110.139 328.148 143.784 328.21 185.28 328.21C226.776 328.21 260.427 328.148 260.427 328.064C260.427 327.981 226.788 327.919 185.28 327.919C143.772 327.919 110.139 327.986 110.139 328.064Z" fill="#263238"/>
<path d="M345.691 314.02C345.691 314.104 350.451 314.165 356.318 314.165C362.185 314.165 366.946 314.104 366.946 314.02C366.946 313.936 362.185 313.874 356.318 313.874C350.451 313.874 345.691 313.941 345.691 314.02Z" fill="#263238"/>
<path d="M36.3742 251.635C36.3742 251.635 40.3675 255.901 38.7983 259.032C37.2291 262.163 21.0041 273.132 21.0041 273.132L9.22916 275.24L36.3742 251.635Z" fill="#455A64"/>
<path d="M148.327 243.992L150.974 271.298L103.593 270.007L84.4988 259.406L96.8593 243.992H148.327Z" fill="#455A64"/>
<path d="M237.509 272.696C237.509 272.696 208.923 252.982 197.646 249.063C186.761 245.283 181.087 244.333 170.864 244.031C161.092 243.762 155.137 244.031 155.137 244.031L162.69 271.79L237.509 272.696Z" fill="#455A64"/>
<path d="M241.69 272.763C241.689 271.914 241.452 271.081 241.004 270.348C240.555 269.615 239.911 269.009 239.137 268.592L232.567 265.07C230.696 264.064 228.584 263.536 226.437 263.538C225.114 263.54 223.8 263.74 222.543 264.131C221.174 264.583 219.982 265.423 219.126 266.539C218.271 267.655 217.792 268.993 217.753 270.376C217.716 271.304 217.876 272.231 218.223 273.099C218.569 273.967 219.096 274.76 219.771 275.429C220.447 276.098 221.256 276.631 222.152 276.994C223.048 277.357 224.011 277.544 224.984 277.544H236.695C238.021 277.541 239.291 277.036 240.227 276.139C241.164 275.243 241.69 274.029 241.69 272.763Z" fill="#FF725E"/>
<path d="M241.689 272.763C241.689 272.763 241.689 272.976 241.613 273.367C241.525 273.943 241.327 274.498 241.028 275.005C240.555 275.804 239.857 276.461 239.014 276.901C238.488 277.163 237.916 277.334 237.327 277.404C236.655 277.451 235.981 277.464 235.307 277.443L225.289 277.409C224.339 277.434 223.394 277.286 222.502 276.973C221.561 276.637 220.705 276.115 219.99 275.44C219.276 274.766 218.719 273.954 218.356 273.06C217.987 272.116 217.838 271.106 217.917 270.102C217.996 269.112 218.301 268.15 218.812 267.285C219.323 266.421 220.027 265.674 220.874 265.098C221.692 264.558 222.613 264.178 223.585 263.98C226.255 263.377 229.059 263.634 231.56 264.712C232.315 265.036 233.006 265.444 233.691 265.797L235.647 266.837L239.014 268.615C239.861 269.05 240.56 269.708 241.028 270.51C241.323 271.019 241.521 271.573 241.613 272.148C241.672 272.54 241.666 272.752 241.684 272.752C241.706 272.548 241.706 272.341 241.684 272.137C241.618 271.55 241.435 270.981 241.145 270.46C240.685 269.625 239.978 268.937 239.113 268.48L235.77 266.663L233.826 265.607C233.147 265.249 232.456 264.835 231.683 264.488C229.135 263.368 226.269 263.093 223.538 263.706C222.531 263.897 221.574 264.277 220.722 264.824C219.836 265.423 219.1 266.201 218.566 267.102C218.032 268.004 217.712 269.007 217.63 270.04C217.544 271.089 217.7 272.142 218.087 273.127C218.465 274.061 219.047 274.909 219.794 275.612C220.541 276.316 221.436 276.86 222.42 277.208C223.345 277.526 224.324 277.676 225.306 277.65L235.325 277.622C236.007 277.636 236.689 277.615 237.368 277.56C237.985 277.479 238.58 277.289 239.125 277.001C239.988 276.54 240.695 275.854 241.163 275.022C241.449 274.5 241.629 273.931 241.695 273.345C241.71 273.151 241.708 272.957 241.689 272.763Z" fill="#263238"/>
<path d="M21.4608 345.626C21.4608 345.626 21.4608 345.497 21.4608 345.24C21.4608 344.983 21.414 344.597 21.3789 344.122C21.3437 343.647 21.2852 343.004 21.2501 342.277C21.2149 341.55 21.1915 340.7 21.1622 339.755C21.1329 338.81 21.1622 337.748 21.1622 336.596C21.1622 335.445 21.25 334.187 21.414 332.845C21.68 329.804 22.2466 326.793 23.1062 323.854C23.6125 322.14 24.2365 320.459 24.974 318.822C25.7571 317.054 26.7015 315.356 27.7962 313.746C30.2364 310.196 33.3408 307.107 36.9539 304.632C40.9308 301.875 45.37 299.784 50.0814 298.449C54.9647 297.023 60.2813 296.503 65.6916 296.464C70.9688 296.418 76.222 297.147 81.2667 298.627C83.6551 299.348 85.9744 300.263 88.1993 301.361C90.3204 302.438 92.3351 303.695 94.2185 305.119C97.7199 307.737 100.839 310.791 103.493 314.199C104.66 315.762 105.691 317.416 106.573 319.141C107.378 320.74 108.09 322.381 108.704 324.056C110.575 329.102 111.714 334.369 112.089 339.711C112.183 341.606 112.171 343.065 112.118 344.083C112.089 344.575 112.065 344.949 112.054 345.201C112.042 345.453 112.054 345.587 112.054 345.587C112.054 345.587 112.054 345.458 112.101 345.201C112.147 344.944 112.159 344.558 112.2 344.083C112.278 342.624 112.278 341.163 112.2 339.705C111.876 334.334 110.767 329.032 108.904 323.955C108.288 322.273 107.581 320.623 106.784 319.012C105.894 317.274 104.86 315.607 103.692 314.025C101.03 310.596 97.9008 307.52 94.3883 304.878C92.4934 303.444 90.4671 302.175 88.334 301.087C86.0942 299.98 83.7592 299.058 81.3545 298.331C76.2813 296.834 70.9956 296.096 65.6857 296.145C60.252 296.184 54.912 296.704 49.9877 298.147C45.2452 299.495 40.7781 301.605 36.7782 304.386C34.9259 305.688 33.1942 307.14 31.6022 308.725C30.09 310.212 28.742 311.844 27.5796 313.595C26.4815 315.219 25.5352 316.933 24.7515 318.716C24.0155 320.352 23.3954 322.033 22.8954 323.748C22.041 326.702 21.4861 329.728 21.2383 332.783C21.0802 334.125 21.0802 335.383 21.0158 336.54C20.9514 337.698 21.0158 338.777 21.0158 339.705C21.0158 340.633 21.1037 341.5 21.1388 342.232C21.1739 342.965 21.25 343.574 21.2969 344.077C21.3437 344.58 21.3788 344.944 21.4023 345.195C21.4257 345.447 21.4608 345.626 21.4608 345.626Z" fill="white"/>
<path d="M164.078 275.587H164.476L166.004 275.62L171.619 275.715C176.362 275.799 182.908 275.967 190.146 276.157C197.383 276.347 203.935 276.476 208.677 276.509C211.049 276.509 212.969 276.509 214.299 276.509H215.827H216.219C216.266 276.518 216.313 276.518 216.36 276.509C216.313 276.502 216.266 276.502 216.219 276.509H215.827L214.299 276.476L208.683 276.381C203.941 276.297 197.389 276.129 190.151 275.944C182.914 275.76 176.362 275.62 171.619 275.587C169.277 275.587 167.328 275.587 166.004 275.587H164.476H164.078Z" fill="white"/>
<path d="M171.707 283.99C173.412 284.137 175.125 284.186 176.836 284.135C178.548 284.186 180.261 284.137 181.966 283.99C180.26 283.846 178.548 283.798 176.836 283.845C175.125 283.798 173.413 283.846 171.707 283.99Z" fill="white"/>
<path d="M169.822 254.072C169.793 254.145 176.157 256.678 184.044 259.725C191.931 262.772 198.349 265.187 198.384 265.109C198.419 265.031 192.049 262.504 184.162 259.456C176.274 256.409 169.857 254 169.822 254.072Z" fill="white"/>
<path d="M182.727 255.99C182.692 256.068 188.758 258.618 196.27 261.687C203.782 264.757 209.895 267.189 209.931 267.116C209.966 267.044 203.9 264.494 196.387 261.419C188.875 258.344 182.762 255.906 182.727 255.99Z" fill="white"/>
<path d="M100.893 253.016C100.858 253.088 107.229 255.621 115.116 258.668C123.003 261.715 129.42 264.125 129.456 264.052C129.491 263.98 123.12 261.447 115.227 258.4C107.334 255.353 100.94 252.937 100.893 253.016Z" fill="white"/>
<path d="M113.822 254.922C113.787 255 119.853 257.55 127.359 260.619C134.866 263.689 140.991 266.121 141.026 266.048C141.061 265.976 134.995 263.426 127.482 260.351C119.97 257.276 113.822 254.872 113.822 254.922Z" fill="white"/>
<path d="M99.6463 275.559C99.6463 275.637 112.311 275.777 127.933 275.866C143.555 275.956 156.22 275.961 156.22 275.866C156.22 275.771 143.561 275.648 127.933 275.564C112.305 275.48 99.6463 275.497 99.6463 275.559Z" fill="white"/>
<path d="M85.6229 283.526C85.6229 283.604 89.1712 283.699 93.5568 283.738C97.9424 283.778 101.491 283.738 101.491 283.666C101.491 283.593 97.9424 283.487 93.5568 283.448C89.1712 283.409 85.6229 283.442 85.6229 283.526Z" fill="white"/>
<path d="M328.125 279.389C328.237 279.425 328.353 279.447 328.471 279.456L329.46 279.579C329.894 279.623 330.42 279.685 331.029 279.786C331.638 279.886 332.335 279.959 333.096 280.104C334.625 280.361 336.434 280.742 338.413 281.222C340.557 281.787 342.669 282.455 344.742 283.224C346.944 284.057 348.988 284.968 350.814 285.869C352.641 286.769 354.222 287.675 355.499 288.485C356.16 288.871 356.734 289.262 357.255 289.603C357.776 289.945 358.204 290.224 358.555 290.47L359.369 291.029C359.462 291.098 359.562 291.158 359.668 291.208C359.59 291.125 359.504 291.05 359.41 290.984L358.625 290.386C358.286 290.129 357.864 289.827 357.355 289.475C356.845 289.123 356.289 288.731 355.598 288.357C354.31 287.524 352.717 286.612 350.914 285.679C346.966 283.663 342.784 282.096 338.454 281.01C336.463 280.518 334.642 280.155 333.102 279.925C332.335 279.791 331.638 279.724 331.024 279.646C330.409 279.567 329.853 279.517 329.449 279.489L328.447 279.417C328.341 279.4 328.233 279.391 328.125 279.389Z" fill="white"/>
<path d="M223.562 266.199C223.562 266.199 223.731 265.981 224.147 265.679C224.709 265.269 225.377 265.012 226.079 264.936C227.133 264.852 228.194 264.96 229.206 265.254C232.771 266.112 236.083 267.74 238.885 270.012C240.278 271.131 241.016 271.952 241.057 271.913C240.915 271.7 240.751 271.501 240.565 271.321C240.081 270.807 239.569 270.318 239.031 269.856C237.243 268.335 235.21 267.096 233.012 266.188C231.805 265.684 230.553 265.285 229.27 264.997C228.226 264.707 227.132 264.616 226.05 264.729C225.315 264.825 224.627 265.126 224.071 265.595C223.923 265.722 223.792 265.865 223.679 266.02C223.585 266.132 223.55 266.194 223.562 266.199Z" fill="white"/>
<path d="M35.045 251.433C35.8612 251.622 36.7001 251.704 37.5393 251.679C38.5244 251.651 39.5046 251.535 40.467 251.333C41.7372 251.047 42.9838 250.674 44.1968 250.214C45.5494 249.728 46.9898 249.096 48.5473 248.476L50.9772 247.542C51.8145 247.223 52.6987 246.949 53.5887 246.636C57.497 245.372 61.482 244.336 65.5218 243.533C72.8661 242.073 80.3233 241.191 87.8187 240.894C89.2591 240.821 90.5589 240.821 91.7065 240.793H94.6342L96.4845 240.833H97.1344C97.0802 240.823 97.0246 240.823 96.9704 240.833L96.4903 240.799L94.6342 240.704L91.7065 240.654C90.5355 240.654 89.2591 240.654 87.8187 240.721C80.3026 240.955 72.8224 241.816 65.4632 243.293C61.4149 244.087 57.4233 245.125 53.5126 246.401C52.6226 246.714 51.756 246.994 50.8953 247.318L48.4653 248.274C46.9078 248.917 45.4733 249.543 44.1324 250.041C42.9359 250.502 41.7048 250.875 40.4494 251.159C39.5003 251.376 38.5319 251.507 37.5569 251.551C36.9414 251.571 36.3251 251.55 35.7125 251.489L35.2382 251.433H35.045Z" fill="#263238"/>
<path d="M347.689 372.934H27.2287V369.1H347.689V372.934Z" fill="#E0E0E0"/>
<path d="M312.677 372.934C312.677 372.88 248.772 372.834 169.959 372.834C91.1471 372.834 27.2287 372.865 27.2287 372.934C27.2287 373.003 91.1204 373.034 169.959 373.034C248.799 373.034 312.677 372.991 312.677 372.934Z" fill="#263238"/>
<path d="M312.677 369.1C312.677 369.046 248.772 369 169.959 369C91.1471 369 27.2287 369.046 27.2287 369.1C27.2287 369.154 91.1204 369.204 169.959 369.204C248.799 369.204 312.677 369.157 312.677 369.1Z" fill="#263238"/>
<path d="M34.3817 369.223C34.2273 370.449 34.2273 371.685 34.3817 372.911C34.5361 371.685 34.5361 370.449 34.3817 369.223Z" fill="#263238"/>
<path d="M49.6721 369.223C49.5177 370.449 49.5177 371.685 49.6721 372.911C49.8265 371.685 49.8265 370.449 49.6721 369.223Z" fill="#263238"/>
<path d="M64.9758 369.223C64.8214 370.449 64.8214 371.685 64.9758 372.911C65.1302 371.685 65.1302 370.449 64.9758 369.223Z" fill="#263238"/>
<path d="M80.2573 369.223C80.1029 370.449 80.1029 371.685 80.2573 372.911C80.4117 371.685 80.4117 370.449 80.2573 369.223Z" fill="#263238"/>
<path d="M95.5476 369.223C95.3932 370.449 95.3932 371.685 95.5476 372.911C95.702 371.685 95.702 370.449 95.5476 369.223Z" fill="#263238"/>
<path d="M110.851 369.223C110.697 370.449 110.697 371.685 110.851 372.911C111.006 371.685 111.006 370.449 110.851 369.223Z" fill="#263238"/>
<path d="M126.133 369.223C125.978 370.449 125.978 371.685 126.133 372.911C126.287 371.685 126.287 370.449 126.133 369.223Z" fill="#263238"/>
<path d="M141.423 369.223C141.269 370.449 141.269 371.685 141.423 372.911C141.578 371.685 141.578 370.449 141.423 369.223Z" fill="#263238"/>
<path d="M156.727 369.223C156.572 370.449 156.572 371.685 156.727 372.911C156.881 371.685 156.881 370.449 156.727 369.223Z" fill="#263238"/>
<path d="M172.008 369.223C171.854 370.449 171.854 371.685 172.008 372.911C172.163 371.685 172.163 370.449 172.008 369.223Z" fill="#263238"/>
<path d="M187.303 369.223C187.149 370.449 187.149 371.685 187.303 372.911C187.458 371.685 187.458 370.449 187.303 369.223Z" fill="#263238"/>
<path d="M202.602 369.223C202.448 370.449 202.448 371.685 202.602 372.911C202.757 371.685 202.757 370.449 202.602 369.223Z" fill="#263238"/>
<path d="M217.884 369.223C217.729 370.449 217.729 371.685 217.884 372.911C218.038 371.685 218.038 370.449 217.884 369.223Z" fill="#263238"/>
<path d="M233.179 369.223C233.024 370.449 233.024 371.685 233.179 372.911C233.333 371.685 233.333 370.449 233.179 369.223Z" fill="#263238"/>
<path d="M248.478 369.223C248.323 370.449 248.323 371.685 248.478 372.911C248.632 371.685 248.632 370.449 248.478 369.223Z" fill="#263238"/>
<path d="M263.764 369.223C263.609 370.449 263.609 371.685 263.764 372.911C263.918 371.685 263.918 370.449 263.764 369.223Z" fill="#263238"/>
<path d="M279.054 369.223C278.9 370.449 278.9 371.685 279.054 372.911C279.209 371.685 279.209 370.449 279.054 369.223Z" fill="#263238"/>
<path d="M294.353 369.223C294.199 370.449 294.199 371.685 294.353 372.911C294.508 371.685 294.508 370.449 294.353 369.223Z" fill="#263238"/>
<path d="M309.639 369.223C309.485 370.449 309.485 371.685 309.639 372.911C309.794 371.685 309.794 370.449 309.639 369.223Z" fill="#263238"/>
<path d="M324.93 369.223C324.775 370.449 324.775 371.685 324.93 372.911C325.084 371.685 325.084 370.449 324.93 369.223Z" fill="#263238"/>
<path d="M340.229 369.223C340.075 370.449 340.075 371.685 340.229 372.911C340.383 371.685 340.383 370.449 340.229 369.223Z" fill="#263238"/>
<defs>
<filter id="filter0_d_4_900" x="130.556" y="116.4" width="208.917" height="77.8314" filterUnits="userSpaceOnUse" color-interpolation-filters="sRGB">
<feFlood flood-opacity="0" result="BackgroundImageFix"/>
<feColorMatrix in="SourceAlpha" type="matrix" values="0 0 0 0 0 0 0 0 0 0 0 0 0 0 0 0 0 0 127 0" result="hardAlpha"/>
<feOffset/>
<feGaussianBlur stdDeviation="5"/>
<feComposite in2="hardAlpha" operator="out"/>
<feColorMatrix type="matrix" values="0 0 0 0 0.933333 0 0 0 0 0.354348 0 0 0 0 0.272222 0 0 0 1 0"/>
<feBlend mode="normal" in2="BackgroundImageFix" result="effect1_dropShadow_4_900"/>
<feBlend mode="normal" in="SourceGraphic" in2="effect1_dropShadow_4_900" result="shape"/>
</filter>
<filter id="filter1_dd_4_900" x="144.212" y="129.582" width="47.0519" height="46.969" filterUnits="userSpaceOnUse" color-interpolation-filters="sRGB">
<feFlood flood-opacity="0" result="BackgroundImageFix"/>
<feColorMatrix in="SourceAlpha" type="matrix" values="0 0 0 0 0 0 0 0 0 0 0 0 0 0 0 0 0 0 127 0" result="hardAlpha"/>
<feOffset/>
<feGaussianBlur stdDeviation="5"/>
<feComposite in2="hardAlpha" operator="out"/>
<feColorMatrix type="matrix" values="0 0 0 0 0.933333 0 0 0 0 0.354348 0 0 0 0 0.272222 0 0 0 1 0"/>
<feBlend mode="normal" in2="BackgroundImageFix" result="effect1_dropShadow_4_900"/>
<feColorMatrix in="SourceAlpha" type="matrix" values="0 0 0 0 0 0 0 0 0 0 0 0 0 0 0 0 0 0 127 0" result="hardAlpha"/>
<feOffset dy="2"/>
<feGaussianBlur stdDeviation="2"/>
<feComposite in2="hardAlpha" operator="out"/>
<feColorMatrix type="matrix" values="0 0 0 0 0 0 0 0 0 0 0 0 0 0 0 0 0 0 0.25 0"/>
<feBlend mode="normal" in2="effect1_dropShadow_4_900" result="effect2_dropShadow_4_900"/>
<feBlend mode="normal" in="SourceGraphic" in2="effect2_dropShadow_4_900" result="shape"/>
</filter>
</defs>
</svg>
