<svg width="136" height="262" viewBox="0 0 136 262" fill="none" xmlns="http://www.w3.org/2000/svg">
<path d="M116.069 64.7824H108.158L96.1404 99.2738L114.478 126.432C120.161 127.623 126.799 128.585 131.142 124.737C134.717 121.57 135.331 116.279 135.516 111.499C135.817 103.812 135.651 96.1142 135.02 88.4476C134.546 82.6904 133.732 76.7482 130.661 71.8494C127.59 66.9506 121.7 63.406 116.069 64.7824Z" fill="#455A64"/>
<path d="M123.683 126.95C123.905 126.917 124.125 126.872 124.342 126.817C124.953 126.633 125.506 126.293 125.948 125.832C126.645 125.1 127.125 124.188 127.331 123.198C127.592 121.878 127.748 120.539 127.798 119.195C128.358 111.394 128.516 103.569 128.271 95.7514C128.183 91.4499 127.859 87.1564 127.302 82.8902C126.831 79.4115 125.903 76.0101 124.542 72.7744C123.616 70.5976 122.414 68.5484 120.967 66.6768C120.442 66.0182 120.013 65.5298 119.717 65.1968L119.384 64.8194C119.342 64.7789 119.305 64.7343 119.273 64.6862C119.273 64.6862 119.325 64.6862 119.413 64.7972L119.776 65.145C120.094 65.4558 120.516 65.9294 121.078 66.5732C122.579 68.4258 123.823 70.4717 124.778 72.656C126.177 75.9075 127.133 79.3323 127.62 82.8384C128.205 87.1147 128.541 91.4213 128.626 95.7366C128.881 103.568 128.683 111.408 128.034 119.217C127.975 120.576 127.799 121.928 127.509 123.257C127.278 124.274 126.765 125.205 126.029 125.943C125.561 126.403 124.978 126.73 124.342 126.891C124.127 126.946 123.905 126.966 123.683 126.95Z" fill="#263238"/>
<path d="M135.76 105.445C134.766 106.2 133.565 106.631 132.319 106.681C131.083 106.862 129.821 106.664 128.7 106.111C129.886 106.286 131.085 106.348 132.282 106.296C133.464 106.116 134.628 105.831 135.76 105.445Z" fill="#263238"/>
<path d="M135.279 88.3736C134.247 89.1078 133.05 89.5756 131.794 89.7352C130.558 90.0216 129.27 89.9911 128.049 89.6464C128.049 89.528 129.729 89.7204 131.749 89.3578C133.769 88.9952 135.227 88.2626 135.279 88.3736Z" fill="#263238"/>
<path d="M116.801 64.6344C116.801 64.6344 115.817 60.7568 117.637 60.5274C119.458 60.298 124.734 62.6216 123.927 64.6936C123.462 65.9001 122.856 67.0476 122.122 68.1124L121.382 67.106C121.382 67.106 122.64 65.552 122.492 64.4864C122.344 63.4208 118.844 61.593 118.311 62.6586C117.992 63.2918 117.81 63.9853 117.778 64.6936L116.801 64.6344Z" fill="#263238"/>
<path d="M51.4814 69.5184L19.8612 70.1326L14.7478 69.6886C14.7478 69.6886 3.1816 69.363 2.0716 69.1928C0.791399 68.993 0.384409 69.5628 0.347409 70.0364C0.280809 70.7764 1.08741 71.4424 2.19741 71.6496C2.57481 71.7162 8.58361 72.5968 8.58361 72.5968C7.96408 72.8587 7.36325 73.1628 6.7854 73.507C5.5274 74.247 4.56541 76.208 4.29901 78.354C4.03261 80.5 4.15099 81.129 4.97979 81.2696C5.13816 81.2877 5.2986 81.2706 5.44957 81.2194C5.60053 81.1683 5.73831 81.0843 5.85301 80.9736C6.27737 80.5396 6.56102 79.9877 6.66699 79.39C7.36999 75.2978 8.99801 75.5642 8.99801 75.5642H9.73801C9.73801 75.5642 7.88801 77.4882 8.25801 79.2642C8.30801 79.5301 8.41393 79.7823 8.5688 80.0042C8.49396 80.4729 8.54362 80.9531 8.71279 81.3965C8.88196 81.84 9.1647 82.2312 9.53269 82.531C9.90067 82.8308 10.341 83.0286 10.8095 83.1047C11.278 83.1807 11.7583 83.1322 12.2022 82.9642C12.6314 82.8014 13.0606 82.4462 13.0384 81.9874C13.0091 81.747 12.9144 81.5192 12.7646 81.3288C12.6981 81.2193 12.6388 81.1056 12.587 80.9884L14.4814 80.8848C14.4814 80.8848 18.729 80.4334 20.6012 80.4482L50.3122 81.4324C54.5376 81.8764 59.1182 80.981 59.4882 76.7482C59.8582 72.0714 56.1064 69.2668 51.4814 69.5184Z" fill="#FFBE9D"/>
<path d="M19.2988 71.0576C19.2944 71.388 19.1863 71.7086 18.9897 71.9741C18.7932 72.2397 18.5182 72.4368 18.2036 72.5376C17.5968 72.7966 16.916 72.8336 16.2944 73.0408C14.4222 73.6624 13.2604 75.6974 11.3586 76.2302C11.0996 76.3042 10.7444 76.3116 10.6186 76.0674C10.4928 75.8232 10.663 75.579 10.8184 75.3792L14.8218 70.1992" fill="#FFBE9D"/>
<path d="M14.8218 70.214C14.6339 70.3606 14.467 70.5325 14.326 70.7246C14.03 71.0724 13.586 71.583 13.105 72.2046L11.3216 74.4246L10.811 75.0758C10.6874 75.1892 10.5877 75.3262 10.5178 75.4787C10.4479 75.6312 10.4092 75.7961 10.404 75.9638C10.4207 76.0727 10.4699 76.1741 10.5452 76.2547C10.6204 76.3352 10.7182 76.3911 10.8258 76.4152C11.0035 76.4563 11.1883 76.4563 11.366 76.4152C11.6737 76.3252 11.9712 76.2037 12.254 76.0526C13.2353 75.4039 14.1677 74.6842 15.0438 73.8992C15.4324 73.5878 15.8667 73.3382 16.3314 73.1592C16.7606 73.0038 17.2046 72.9372 17.6042 72.8262C17.9357 72.7723 18.2516 72.6471 18.5301 72.4593C18.8086 72.2715 19.0431 72.0255 19.2174 71.7384C19.2856 71.6291 19.3284 71.5058 19.3425 71.3777C19.3566 71.2496 19.3416 71.1199 19.2988 70.9984C19.266 71.224 19.1933 71.442 19.0842 71.6422C18.9039 71.8932 18.6733 72.1038 18.407 72.2605C18.1406 72.4173 17.8445 72.5167 17.5376 72.5524C17.0963 72.626 16.6591 72.7224 16.2278 72.841C15.7305 73.0133 15.2635 73.2631 14.844 73.581C13.9643 74.3331 13.0428 75.0347 12.0838 75.6826C11.8264 75.8176 11.5562 75.9267 11.2772 76.0082C11.0108 76.0748 10.7666 76.0082 10.7666 75.8824C10.7666 75.7566 10.922 75.4828 11.0922 75.2608L11.5954 74.6096L13.3122 72.323C13.7932 71.6718 14.1854 71.139 14.4444 70.7616C14.5896 70.5933 14.7162 70.4097 14.8218 70.214Z" fill="#EB996E"/>
<path d="M9.70838 75.5494C9.29238 75.5204 8.87562 75.5941 8.49477 75.764C8.09802 75.9665 7.77648 76.2906 7.57718 76.689C7.33612 77.1889 7.17387 77.7231 7.09618 78.2726C7.0141 78.8425 6.87528 79.4027 6.68178 79.945C6.51772 80.3992 6.23389 80.8007 5.86037 81.1068C5.72948 81.2098 5.57667 81.2814 5.41373 81.3161C5.25078 81.3507 5.08207 81.3475 4.92058 81.3066C4.69858 81.24 4.60237 81.1512 4.60977 81.1438C4.61717 81.1364 4.72818 81.1438 4.94278 81.2178C5.08801 81.237 5.23565 81.2251 5.37597 81.183C5.51628 81.1409 5.64608 81.0695 5.75678 80.9736C6.09238 80.6713 6.34681 80.2897 6.49678 79.8636C6.67396 79.3311 6.80274 78.7838 6.88158 78.2282C6.96436 77.6529 7.14189 77.0953 7.40697 76.578C7.63616 76.147 8.00366 75.8055 8.45037 75.6086C8.74838 75.4795 9.07439 75.4286 9.39757 75.4606C9.59737 75.4828 9.71578 75.5346 9.70838 75.5494Z" fill="#EB996E"/>
<path d="M1.82001 71.5608C2.22155 71.5805 2.62038 71.6375 3.0114 71.731L5.87522 72.2046L8.7464 72.6338C9.14806 72.6736 9.54628 72.7429 9.93781 72.841C9.53581 72.8801 9.13046 72.8676 8.7316 72.804C7.9916 72.7374 6.963 72.619 5.8382 72.4414C4.7134 72.2638 3.70701 72.064 2.98181 71.8938C2.58362 71.8252 2.19406 71.7136 1.82001 71.5608Z" fill="#EB996E"/>
<path d="M10.8554 77.1108C10.8043 77.2265 10.7397 77.3358 10.663 77.4364C10.5681 77.5671 10.5024 77.7167 10.4705 77.875C10.4386 78.0334 10.4412 78.1967 10.478 78.354C10.514 78.4514 10.5745 78.5379 10.6535 78.6053C10.7325 78.6727 10.8275 78.7186 10.9294 78.7388C11.1871 78.7935 11.4506 78.8159 11.7138 78.8054C12.0447 78.7861 12.3712 78.8887 12.6314 79.094C12.759 79.2213 12.8555 79.3763 12.9132 79.5471C12.971 79.7178 12.9885 79.8996 12.9644 80.0782C12.9356 80.2537 12.8716 80.4215 12.7763 80.5716C12.6809 80.7216 12.5561 80.8508 12.4094 80.9514C12.1483 81.1476 11.8331 81.2587 11.5066 81.2696C10.9856 81.2578 10.4692 81.168 9.97481 81.0032C9.6382 80.9071 9.32041 80.7545 9.03501 80.5518C8.93049 80.4758 8.84449 80.3771 8.78342 80.2632C8.78342 80.2632 8.88702 80.3446 9.08682 80.4704C9.3817 80.6361 9.6979 80.7606 10.0266 80.8404C10.5087 80.9741 11.0063 81.0438 11.5066 81.0476C11.7921 81.0401 12.067 80.9378 12.288 80.757C12.5091 80.5761 12.6637 80.3269 12.7276 80.0486C12.7497 79.9073 12.7385 79.7628 12.6948 79.6266C12.6511 79.4904 12.5762 79.3663 12.476 79.2642C12.2644 79.1016 12.0027 79.0178 11.736 79.0274C11.4544 79.0291 11.1736 78.9969 10.8998 78.9312C10.7702 78.8982 10.6511 78.8326 10.554 78.7407C10.4569 78.6487 10.3848 78.5334 10.3448 78.4058C10.307 78.226 10.3121 78.0399 10.3597 77.8625C10.4073 77.6851 10.496 77.5213 10.6186 77.3846C10.7444 77.1922 10.8406 77.1034 10.8554 77.1108Z" fill="#EB996E"/>
<path d="M12.2466 80.8256C12.3646 80.8151 12.4825 80.8465 12.5796 80.9144C12.7199 80.9975 12.8385 81.1125 12.926 81.2501C13.0134 81.3876 13.0671 81.5439 13.0828 81.7062C13.0994 81.9495 13.0522 82.1928 12.9458 82.4122C12.8393 82.6316 12.6774 82.8193 12.476 82.9568C11.9816 83.2776 11.3841 83.3992 10.8036 83.2972C10.2334 83.214 9.70315 82.9554 9.28659 82.5572C8.95301 82.226 8.71302 81.8124 8.59099 81.3584C8.50928 81.0548 8.48419 80.7387 8.51698 80.426C8.51698 80.2114 8.591 80.093 8.6058 80.1004C8.59483 80.5076 8.6447 80.9141 8.75379 81.3066C8.88832 81.7233 9.12489 82.0998 9.44198 82.4018C9.82982 82.7632 10.3169 83.0003 10.8406 83.0826C11.3526 83.1693 11.8787 83.0667 12.3206 82.794C12.4948 82.68 12.6377 82.524 12.7359 82.3404C12.8342 82.1568 12.8848 81.9514 12.883 81.7432C12.875 81.5996 12.8366 81.4594 12.7702 81.3318C12.7039 81.2042 12.6111 81.0922 12.4982 81.0032C12.3576 80.87 12.2392 80.8478 12.2466 80.8256Z" fill="#EB996E"/>
<path d="M16.8938 77.318C16.8938 77.318 16.8568 77.096 16.99 76.7482C17.1673 76.2738 17.5016 75.8743 17.9372 75.616V75.8232C17.6703 75.7574 17.4082 75.6734 17.1528 75.5716C16.2472 75.2533 15.4479 74.6897 14.844 73.9436C15.5892 74.4968 16.3932 74.9659 17.2416 75.3422C17.4837 75.4411 17.7306 75.5276 17.9816 75.6012L18.2406 75.6826L18.0038 75.8158C17.6029 76.0483 17.2788 76.393 17.0714 76.8074C16.9604 77.1108 16.9234 77.3254 16.8938 77.318Z" fill="#EB996E"/>
<path d="M6.667 75.8528C6.704 75.801 7.0962 76.097 7.2442 76.6594C7.3922 77.2218 7.1924 77.6732 7.1332 77.6436C7.074 77.614 7.13321 77.207 7.00741 76.7186C6.88161 76.2302 6.6152 75.8972 6.667 75.8528Z" fill="#EB996E"/>
<path d="M75.3464 49.5458C74.858 50.234 53.25 67.3428 50.5712 68.0458C47.8924 68.7488 23.1912 69.1262 23.1912 69.1262C23.1912 69.1262 21.2598 84.3184 21.8962 85.3544C24.242 89.1432 52.4582 99.1702 65.9188 85.5912L75.339 51.1516" fill="#E34F33"/>
<path d="M48.2254 77.3402C48.0571 76.9159 47.9668 76.4646 47.959 76.0082C47.7793 73.8049 48.204 71.5944 49.1874 69.6146C49.3644 69.1938 49.615 68.8079 49.9274 68.475C49.3384 69.8743 48.8657 71.3197 48.514 72.7966C48.2948 74.3008 48.1982 75.8203 48.2254 77.3402Z" fill="#263238"/>
<path d="M50.5712 77.9322C50.3959 77.457 50.2937 76.958 50.2678 76.4522C49.9522 74.0948 49.9026 71.7093 50.1198 69.3408C50.126 68.8374 50.2109 68.338 50.3714 67.8608C50.4824 67.8608 50.3196 70.0808 50.3714 72.8706C50.4232 75.6604 50.66 77.9174 50.5712 77.9322Z" fill="#263238"/>
<g opacity="0.3">
<path d="M49.809 68.5046C48.0195 70.0722 46.7312 72.132 46.1048 74.4271C45.4784 76.7221 45.5416 79.1508 46.2866 81.4102C46.5234 82.1058 46.9304 82.8902 47.6482 83.0012C47.9788 83.0329 48.3111 82.9609 48.5988 82.7952C48.8866 82.6294 49.1156 82.3781 49.254 82.0762C49.5141 81.4637 49.6402 80.8026 49.624 80.1374L50.179 68.2974" fill="black"/>
</g>
<path d="M75.5092 52.2764L76.079 48.6356L71.4836 52.6834L69.197 60.6162L75.5092 52.2764Z" fill="#263238"/>
<path d="M80.4672 44.8764L77.2408 46.6894L66.8808 64.1164L66.9252 73.2406C66.9252 73.2406 64.4832 79.6268 64.3352 84.7476C64.1872 89.8684 64.3352 108.62 64.3352 108.62L51.1854 195.555L62.3964 199.174L84.5964 97.9492V43.5L80.4672 44.8764Z" fill="#E34F33"/>
<g opacity="0.3">
<path d="M62.3964 199.174L53.5164 196.31L66.2 102.004C66.2 102.004 64.0762 88.1812 66.2 82.128C68.3238 76.0748 71.5872 67.18 71.5872 67.18L67.8872 84.0668C68.3534 96.7134 67.5764 111.809 66.2222 128.075H69.6114L62.3964 199.174Z" fill="black"/>
</g>
<path d="M72.9044 53.9636C72.8318 54.1254 72.7425 54.2791 72.638 54.4224C72.4678 54.7258 72.1718 55.1624 71.8388 55.7174C70.894 57.3221 70.0632 58.9912 69.3524 60.7124C68.3096 63.2716 67.4708 65.9093 66.8438 68.6008C66.0905 71.9022 65.5345 75.2455 65.1788 78.613C64.7718 82.202 64.5276 85.6282 64.4388 88.751C64.35 91.8738 64.3426 94.671 64.3648 97.0538C64.387 99.4366 64.3648 101.294 64.3648 102.663C64.3648 103.292 64.3648 103.795 64.3648 104.187C64.3777 104.362 64.3777 104.538 64.3648 104.713C64.3301 104.54 64.3152 104.364 64.3204 104.187C64.3204 103.803 64.3204 103.292 64.2686 102.663C64.2316 101.294 64.1798 99.3922 64.1206 97.0612C64.0614 94.7302 64.0244 91.8812 64.1206 88.7362C64.2168 85.5912 64.4536 82.165 64.8606 78.576C65.2209 75.192 65.7893 71.8335 66.5626 68.5194C67.2085 65.8144 68.0798 63.1683 69.1674 60.6088C69.9033 58.8838 70.7769 57.2208 71.7796 55.636C72.1274 55.081 72.4456 54.6666 72.6454 54.378C72.7185 54.232 72.8053 54.0933 72.9044 53.9636Z" fill="#263238"/>
<g opacity="0.3">
<path d="M59.207 90.12C60.335 84.9333 62.2331 79.9446 64.8384 75.32C64.8486 78.6524 64.6434 81.9819 64.2242 85.2878C64.1993 86.0041 63.9736 86.6989 63.573 87.2932C63.2334 87.6626 62.8266 87.964 62.3742 88.1812L58.9776 90.0682" fill="black"/>
</g>
<path d="M105.96 19.2724C106.79 17.325 108.245 15.7103 110.097 14.6844C111.024 14.1859 112.059 13.9195 113.112 13.9079C114.164 13.8963 115.204 14.1399 116.143 14.6178C117.065 15.1241 117.804 15.9093 118.253 16.861C118.702 17.8127 118.839 18.8821 118.644 19.9162C119.448 20.3151 120.167 20.8686 120.757 21.5451C121.348 22.2216 121.8 23.0078 122.087 23.8588C122.374 24.7098 122.49 25.6091 122.429 26.5051C122.369 27.4011 122.132 28.2765 121.733 29.0811C121.334 29.8857 120.781 30.6039 120.104 31.1946C119.428 31.7854 118.642 32.2371 117.791 32.524C116.94 32.8109 116.04 32.9273 115.144 32.8667C114.248 32.8061 113.373 32.5695 112.568 32.1706C114.293 34.4498 112.82 38.172 110.119 39.0896C107.418 40.0072 104.273 38.4162 102.926 35.9002C101.579 33.3842 101.824 30.2392 103.015 27.6418" fill="#263238"/>
<path d="M104.747 20.7228C104.947 20.2404 105.268 19.8177 105.679 19.495C106.09 19.1724 106.576 18.9607 107.092 18.8802C107.615 18.8243 108.142 18.938 108.595 19.2045C109.048 19.471 109.403 19.8762 109.608 20.3602C109.787 20.8495 109.775 21.3884 109.573 21.8687C109.371 22.3491 108.995 22.7354 108.521 22.9502C109.114 23.2166 109.599 23.6772 109.896 24.2562C110.193 24.8352 110.284 25.498 110.154 26.1355C110.024 26.773 109.681 27.3472 109.181 27.7636C108.681 28.18 108.054 28.4137 107.403 28.4262C107.708 28.959 107.818 29.5812 107.715 30.1864C107.612 30.7916 107.302 31.3422 106.838 31.7441C106.374 32.146 105.785 32.3744 105.172 32.3901C104.558 32.4058 103.958 32.2079 103.474 31.8302C102.762 31.2144 102.323 30.3417 102.253 29.403C102.19 28.4718 102.25 27.5363 102.43 26.6206C102.645 25.2294 102.852 23.8308 103.067 22.4396C103.118 21.8201 103.297 21.218 103.592 20.671C103.742 20.3987 103.971 20.1777 104.248 20.0365C104.525 19.8954 104.838 19.8406 105.146 19.8792" fill="#E34F33"/>
<path d="M70.9286 9.2824C69.9296 7.4916 70.5512 5.0866 72.0386 3.6658C73.6133 2.31186 75.6572 1.63143 77.7292 1.7714C79.7813 1.91861 81.8046 2.3392 83.7454 3.022C84.4873 2.06047 85.4816 1.32389 86.6176 0.894396C87.7536 0.464903 88.9866 0.359378 90.179 0.589582C91.3715 0.819786 92.4766 1.37667 93.3711 2.19815C94.2656 3.01963 94.9143 4.07341 95.245 5.242C95.9496 4.96251 96.7172 4.88091 97.4649 5.00604C98.2125 5.13118 98.9117 5.45827 99.4869 5.95197C100.062 6.44567 100.492 7.08719 100.729 7.80721C100.966 8.52722 101.001 9.29834 100.832 10.0372L92.137 14.4106L84.4336 33.14C83.1169 34.5514 81.3358 35.4412 79.4166 35.6465C77.4973 35.8518 75.5683 35.3588 73.9829 34.2578C72.3975 33.1568 71.2618 31.5216 70.7838 29.6515C70.3058 27.7814 70.5174 25.8017 71.38 24.075C70.7569 23.654 70.209 23.1312 69.7594 22.5284C68.9028 22.1616 68.128 21.6278 67.48 20.9582C66.832 20.2886 66.3239 19.4967 65.9854 18.6286C65.6857 17.6906 65.5762 16.7023 65.6634 15.7215C65.7505 14.7407 66.0326 13.7871 66.4929 12.9167C66.9533 12.0463 67.5828 11.2765 68.3444 10.6524C69.1061 10.0284 69.9846 9.5626 70.9286 9.2824Z" fill="#263238"/>
<path d="M81.6512 44.98C81.851 42.057 81.9916 40.0516 81.9916 40.0738C81.9916 40.096 76.3528 38.6752 75.7534 31.1198C75.4574 27.3606 76.1308 21.3 76.8338 16.3198C77.4702 11.8798 80.8668 6.611 85.292 7.4398L98.9376 12.0574C100.277 12.309 100.662 13.493 100.529 14.8472L100.588 15.4984L98.2494 36.84L97.3244 46.349C97.1177 48.3033 96.1878 50.1096 94.7172 51.4131C93.2466 52.7167 91.3417 53.4232 89.3768 53.3938C88.3086 53.3752 87.2553 53.1396 86.281 52.7013C85.3066 52.263 84.4316 51.6312 83.709 50.8442C82.9864 50.0573 82.4314 49.1316 82.0777 48.1235C81.7239 47.1154 81.5788 46.0459 81.6512 44.98Z" fill="#FFBE9D"/>
<path d="M78.2546 22.2546C78.2355 22.5045 78.3132 22.7521 78.4716 22.9463C78.63 23.1406 78.857 23.2664 79.1056 23.298C79.2263 23.3168 79.3495 23.3114 79.468 23.2819C79.5865 23.2525 79.698 23.1997 79.7959 23.1267C79.8937 23.0536 79.9761 22.9618 80.038 22.8565C80.0999 22.7512 80.1401 22.6346 80.1564 22.5136C80.1794 22.2641 80.1041 22.0154 79.9465 21.8205C79.789 21.6257 79.5616 21.5 79.3128 21.4702C79.1917 21.4513 79.0681 21.4567 78.9491 21.4861C78.8301 21.5154 78.7181 21.5681 78.6196 21.6411C78.5212 21.7141 78.4382 21.8059 78.3755 21.9112C78.3129 22.0165 78.2718 22.1332 78.2546 22.2546Z" fill="#263238"/>
<path d="M78.0844 20.4046C78.188 20.5378 78.9576 20.0568 79.9862 20.1456C81.0148 20.2344 81.7326 20.8042 81.851 20.6858C81.9694 20.5674 81.8066 20.3972 81.4958 20.1308C81.0748 19.7876 80.5577 19.5834 80.0158 19.5462C79.4822 19.5043 78.9489 19.6311 78.4914 19.9088C78.151 20.1234 78.04 20.3454 78.0844 20.4046Z" fill="#263238"/>
<path d="M87.6008 23.0094C87.58 23.2589 87.6572 23.5066 87.8161 23.7001C87.975 23.8935 88.203 24.0174 88.4518 24.0454C88.5725 24.0642 88.6957 24.0588 88.8142 24.0293C88.9328 23.9999 89.0442 23.9471 89.1421 23.8741C89.2399 23.801 89.3222 23.7092 89.3841 23.6039C89.4461 23.4986 89.4863 23.382 89.5026 23.261C89.5255 23.0123 89.4499 22.7645 89.2922 22.5708C89.1345 22.3772 88.9072 22.253 88.659 22.225C88.5378 22.2051 88.4138 22.2098 88.2944 22.2387C88.175 22.2676 88.0626 22.3202 87.9639 22.3933C87.8653 22.4665 87.7823 22.5587 87.7199 22.6645C87.6575 22.7704 87.617 22.8876 87.6008 23.0094Z" fill="#263238"/>
<path d="M87.9264 20.9892C88.0374 21.1224 88.807 20.6414 89.8356 20.7228C90.8642 20.8042 91.5746 21.3814 91.7004 21.263C91.8262 21.1446 91.656 20.9818 91.3452 20.7154C90.9241 20.3712 90.4075 20.1646 89.8652 20.1234C89.3282 20.0801 88.7914 20.2097 88.3334 20.4934C88.0004 20.708 87.8746 20.9226 87.9264 20.9892Z" fill="#263238"/>
<path d="M83.664 27.96C83.1375 27.7441 82.5854 27.5974 82.0212 27.5234C81.7548 27.4716 81.5106 27.405 81.481 27.22C81.488 26.9559 81.5702 26.6992 81.7178 26.48L82.6576 24.5338C83.96 21.7736 84.9294 19.4944 84.8184 19.4426C84.7074 19.3908 83.553 21.5886 82.2506 24.3488L81.3478 26.3024C81.1558 26.606 81.0772 26.9677 81.1258 27.3236C81.1565 27.4206 81.2092 27.5091 81.2798 27.5823C81.3504 27.6555 81.437 27.7113 81.5328 27.7454C81.673 27.7983 81.82 27.8306 81.9694 27.8416C82.5276 27.9481 83.0964 27.9878 83.664 27.96Z" fill="#263238"/>
<path d="M81.9916 40.1034C85.4984 40.4334 89.028 39.7854 92.1888 38.2312C92.1888 38.2312 89.2288 43.2928 81.8288 42.0052L81.9916 40.1034Z" fill="#EB996E"/>
<path d="M88.141 18.192C88.2446 18.4732 89.2732 18.3326 90.4868 18.4732C91.7004 18.6138 92.7068 18.932 92.84 18.6804C92.914 18.562 92.7364 18.2956 92.3442 18.0292C91.8195 17.6904 91.22 17.4846 90.5978 17.4298C89.9771 17.3596 89.3486 17.4356 88.7626 17.6518C88.3186 17.8368 88.0966 18.0588 88.141 18.192Z" fill="#263238"/>
<path d="M78.2768 18.3844C78.4692 18.636 79.3276 18.4584 80.3414 18.5324C81.3552 18.6064 82.1914 18.8358 82.406 18.6064C82.5022 18.4954 82.406 18.2512 82.0286 17.9996C81.5384 17.6806 80.9704 17.5014 80.3858 17.4816C79.8052 17.4374 79.2236 17.5552 78.706 17.822C78.3286 18.0366 78.188 18.266 78.2768 18.3844Z" fill="#263238"/>
<path d="M95.1562 7.6914C95.1015 8.44133 94.8824 9.17002 94.5144 9.82572C94.1463 10.4814 93.6384 11.048 93.0267 11.4852C92.415 11.9225 91.7145 12.2197 90.9749 12.3556C90.2354 12.4916 89.475 12.4631 88.7478 12.272C87.623 11.976 86.4168 11.3026 85.3882 11.8354C84.3596 12.3682 84.1376 13.9518 83.1682 14.6844C81.7622 15.7204 79.7568 14.492 78.0474 14.8546C76.7302 15.1432 75.8274 16.3346 74.895 17.2818C73.9626 18.229 72.601 19.1392 71.3356 18.6582C71.467 17.4981 71.7276 16.3564 72.1126 15.2542C72.5094 14.1482 73.2751 13.2127 74.2808 12.605C74.8432 12.2942 75.4796 12.1314 76.005 11.7688C77.1446 10.9918 77.485 9.50439 78.225 8.34999C78.7191 7.60761 79.3828 6.99354 80.1613 6.5586C80.9399 6.12366 81.8107 5.88035 82.702 5.8488C84.182 5.8118 85.662 6.36679 87.142 6.12259C88.215 5.93759 89.1918 5.31599 90.2796 5.19759C92.396 4.96079 94.2238 6.61099 95.6224 8.21679" fill="#263238"/>
<path d="M88.252 10.1482C89.2066 9.95579 91.1676 9.497 91.73 8.72C92.3013 7.89039 93.0805 7.22542 93.9896 6.79165C94.8987 6.35789 95.9057 6.17055 96.91 6.2484C97.9189 6.40708 98.8495 6.88766 99.563 7.61847C100.276 8.34928 100.735 9.29115 100.869 10.3036C102.085 10.4412 103.242 10.9042 104.218 11.6439C105.193 12.3836 105.951 13.3726 106.412 14.5068C106.888 15.692 107.07 16.9753 106.941 18.2462C106.812 19.5172 106.377 20.7378 105.672 21.8032C105.326 22.3533 105.019 22.927 104.754 23.52C105.284 24.0281 105.765 24.5856 106.19 25.185C108.165 28.3966 104.155 30.2392 104.155 30.2392C104.436 32.5332 102.319 32.7922 100.965 32.9624C99.611 33.1326 99.3224 36.84 98.2494 36.8326L97.8868 25.5328C97.7343 25.6126 97.569 25.6652 97.3984 25.6882C94.8528 26.0582 94.8972 21.1372 95.5632 19.7682C94.6769 18.9221 93.9011 17.9673 93.2544 16.9266C92.5746 15.29 92.32 13.508 92.5144 11.7466C91.582 11.7984 87.8302 10.237 88.252 10.1482Z" fill="#263238"/>
<path d="M97.576 26.2062C97.6251 25.8431 97.7633 25.4979 97.9783 25.2012C98.1933 24.9045 98.4783 24.6657 98.8081 24.506C99.1378 24.3462 99.5019 24.2706 99.868 24.2858C100.234 24.301 100.591 24.4065 100.906 24.593C101.646 25.0888 102.134 26.0138 101.942 27.6936C101.409 32.1706 97.021 30.7128 97.0284 30.587C97.0358 30.4612 97.3466 28.0562 97.576 26.2062Z" fill="#FFBE9D"/>
<path d="M98.5972 29.0552C98.5972 29.0552 98.6712 29.1144 98.7896 29.1884C98.9669 29.2891 99.1761 29.3183 99.3742 29.2698C99.6859 29.1226 99.9525 28.8947 100.146 28.6098C100.34 28.3248 100.454 27.9931 100.477 27.6492C100.531 27.265 100.501 26.8735 100.388 26.5022C100.363 26.3572 100.303 26.2205 100.212 26.1044C100.122 25.9882 100.004 25.8961 99.87 25.8362C99.7844 25.8012 99.6891 25.7976 99.6011 25.8261C99.5131 25.8545 99.438 25.9131 99.389 25.9916C99.3076 26.11 99.3298 26.2062 99.3076 26.2062C99.2854 26.2062 99.2188 26.1248 99.3076 25.9398C99.3426 25.831 99.4163 25.7388 99.5148 25.6808C99.6496 25.6044 99.8087 25.5832 99.9588 25.6216C100.14 25.6787 100.303 25.7816 100.433 25.9203C100.562 26.059 100.654 26.2289 100.699 26.4134C100.844 26.8237 100.887 27.263 100.825 27.6936C100.797 28.0942 100.652 28.478 100.409 28.7975C100.166 29.1171 99.8344 29.3584 99.4556 29.4918C99.3304 29.5124 99.2021 29.5044 99.0804 29.4685C98.9587 29.4327 98.8466 29.3698 98.7526 29.2846C98.5898 29.1588 98.5824 29.0552 98.5972 29.0552Z" fill="#EB996E"/>
<path d="M73.5186 23.1352C73.5186 23.1352 73.0894 22.8836 72.453 22.2768C71.5532 21.4081 70.9236 20.298 70.64 19.08C70.4407 18.2507 70.413 17.3895 70.5586 16.5492C70.7303 15.5883 71.1571 14.6912 71.7944 13.9518C72.5372 13.1184 73.4862 12.495 74.5461 12.1443C75.6059 11.7936 76.7394 11.7279 77.8328 11.9538C78.0407 11.9983 78.2458 12.0551 78.447 12.124C78.6468 12.1906 78.8318 12.2794 79.0168 12.3534L79.3054 12.4718L79.2684 12.1758C79.2108 11.6551 79.3393 11.1309 79.631 10.6958C79.925 10.2653 80.3119 9.90617 80.7632 9.64499C81.6312 9.14308 82.6392 8.93784 83.6344 9.0604C85.5436 9.2454 87.2308 9.8892 88.7478 9.867C89.9375 9.92108 91.1044 9.52771 92.0186 8.76439C92.2529 8.55351 92.4483 8.30302 92.5958 8.02439C92.6442 7.92525 92.6815 7.82101 92.7068 7.71359C92.5143 8.07471 92.2644 8.40211 91.9668 8.68299C91.055 9.37953 89.9225 9.72374 88.7774 9.65239C87.9853 9.60976 87.1995 9.4883 86.4316 9.2898C85.5299 9.05048 84.6125 8.8749 83.6862 8.76439C83.1733 8.71304 82.656 8.72796 82.147 8.80879C81.61 8.90617 81.0941 9.0965 80.6226 9.3712C80.1237 9.65639 79.6961 10.0511 79.372 10.5256C79.0284 11.0308 78.8787 11.643 78.9502 12.2498L79.2018 12.0648L78.595 11.8132C78.3811 11.7428 78.1638 11.6835 77.9438 11.6356C76.7881 11.3982 75.5903 11.4702 74.4715 11.8444C73.3527 12.2187 72.3526 12.8818 71.5724 13.7668C70.9073 14.5554 70.4675 15.5091 70.2996 16.527C70.1597 17.4069 70.2025 18.3062 70.4254 19.1688C70.7293 20.4182 71.4053 21.5459 72.3642 22.4026C72.6215 22.6361 72.9045 22.8397 73.2078 23.0094C73.3077 23.0599 73.4117 23.1019 73.5186 23.1352Z" fill="#455A64"/>
<path d="M72.4456 7.78021C72.8523 7.49217 73.3018 7.26991 73.7776 7.1216C74.3255 6.97364 74.8996 6.95088 75.4574 7.05501C76.1786 7.17977 76.8375 7.54178 77.3296 8.0836L77.522 8.29821L77.5886 8.01701C77.8334 7.14607 78.3048 6.35566 78.9549 5.72645C79.6049 5.09723 80.4102 4.65173 81.2886 4.4354C82.6873 4.20337 84.1235 4.42372 85.3882 5.0644C86.4561 5.58426 87.5744 5.99339 88.7256 6.2854C89.5174 6.48463 90.3462 6.48463 91.138 6.2854C91.3489 6.22403 91.5524 6.13965 91.7448 6.03381C91.8706 5.95981 91.9372 5.91541 91.9298 5.90061C91.9224 5.88581 91.6412 6.0338 91.101 6.1522C90.3329 6.30244 89.5405 6.27459 88.7848 6.0708C87.6581 5.74684 86.5633 5.32081 85.514 4.798C84.8699 4.50495 84.1981 4.27689 83.5086 4.1172C82.7512 3.94464 81.9646 3.94464 81.2072 4.1172C80.2675 4.34762 79.4079 4.82854 78.7199 5.50875C78.0319 6.18897 77.5412 7.04302 77.3 7.98001L77.559 7.91341C77.0168 7.33551 76.2937 6.95965 75.5092 6.84781C74.9146 6.74932 74.3049 6.79759 73.7332 6.98841C73.3692 7.10399 73.0302 7.28726 72.7342 7.5286C72.6251 7.59647 72.5277 7.68142 72.4456 7.78021Z" fill="#455A64"/>
<path d="M84.3078 30.18C84.4506 30.0174 84.6273 29.888 84.8255 29.8011C85.0237 29.7141 85.2385 29.6717 85.4548 29.6768C85.6973 29.6994 85.9324 29.7723 86.1452 29.8908C86.3579 30.0093 86.5437 30.1708 86.6906 30.365C86.6906 30.365 86.6906 30.365 86.735 30.4168C86.8486 30.5555 86.9159 30.7263 86.9274 30.9052C86.9194 31.1087 86.8611 31.3071 86.7578 31.4827C86.6545 31.6583 86.5094 31.8056 86.3354 31.9116C86.0718 32.0959 85.758 32.1948 85.4363 32.1948C85.1147 32.1948 84.8008 32.0959 84.5372 31.9116C84.2868 31.7057 84.1239 31.4124 84.0813 31.091C84.0388 30.7696 84.1197 30.444 84.3078 30.18Z" fill="#E34F33"/>
<path d="M86.9718 29.3142C86.9126 29.3142 86.8238 29.5362 86.6018 29.847C86.3253 30.2536 85.9314 30.5663 85.4727 30.7435C85.0139 30.9206 84.5121 30.9538 84.034 30.8386C83.664 30.7572 83.4346 30.6462 83.405 30.698C83.3754 30.7498 83.553 30.9422 83.9526 31.1124C84.4878 31.3252 85.0836 31.3274 85.6204 31.1188C86.1572 30.9101 86.5951 30.506 86.846 29.9876C87.031 29.5954 87.0236 29.3216 86.9718 29.3142Z" fill="#263238"/>
<path d="M104.251 16.9636C104.319 16.9205 104.384 16.8709 104.443 16.8156C104.622 16.6623 104.79 16.4967 104.946 16.3198C105.54 15.6684 105.958 14.8763 106.16 14.0184C106.297 13.4194 106.297 12.797 106.16 12.198C106.005 11.5069 105.659 10.8734 105.161 10.3702C104.882 10.091 104.549 9.87051 104.183 9.72181C103.817 9.57311 103.425 9.49919 103.03 9.5044C102.604 9.498 102.182 9.58942 101.798 9.77159C101.413 9.95377 101.075 10.2219 100.81 10.5552L101.017 10.6662V10.6144C101.595 9.09499 101.549 7.40908 100.891 5.92281C100.615 5.31996 100.195 4.79381 99.669 4.39013C99.1428 3.98644 98.5259 3.71747 97.872 3.6066C97.428 3.55798 96.9788 3.59839 96.5506 3.72545C96.1224 3.85251 95.7238 4.06368 95.3782 4.3466C95.1961 4.50046 95.0344 4.67704 94.8972 4.87201C94.8454 4.93871 94.8053 5.01379 94.7788 5.094C94.9704 4.8438 95.1915 4.61769 95.4374 4.42061C96.1303 3.90852 96.9971 3.69046 97.8498 3.81381C98.4687 3.9261 99.0512 4.18672 99.5474 4.57335C100.044 4.95998 100.439 5.4611 100.699 6.03381C101.315 7.47204 101.347 9.09387 100.788 10.5552V10.607L100.558 11.2952L100.995 10.7106C101.238 10.4059 101.548 10.1613 101.901 9.99575C102.254 9.83021 102.64 9.74817 103.03 9.756C103.395 9.75007 103.757 9.81632 104.096 9.95094C104.435 10.0856 104.744 10.2859 105.006 10.5404C105.485 11.0112 105.819 11.6096 105.968 12.2646C106.1 12.8342 106.1 13.4266 105.968 13.9962C105.784 14.8325 105.401 15.612 104.85 16.268C104.495 16.7268 104.229 16.9488 104.251 16.9636Z" fill="#263238"/>
<path d="M111.68 31.66L111.806 31.7118L112.169 31.845C112.487 31.956 112.961 32.1188 113.582 32.3112C114.335 32.5484 115.101 32.7411 115.876 32.8884C116.907 33.0893 117.962 33.1366 119.006 33.029C120.284 32.9047 121.504 32.4424 122.544 31.6896C123.125 31.238 123.611 30.676 123.974 30.0359C124.337 29.3959 124.57 28.6904 124.66 27.96C124.867 26.3407 124.61 24.696 123.92 23.2166C123.583 22.4268 123.078 21.7197 122.44 21.1446C121.755 20.5462 120.878 20.2151 119.968 20.2122C119.316 20.202 118.679 20.4075 118.155 20.7968L118.318 20.9744C118.887 20.3416 119.294 19.5796 119.502 18.7544C119.696 17.9699 119.729 17.1543 119.598 16.3568C119.482 15.6042 119.207 14.885 118.791 14.247C118.375 13.6091 117.828 13.067 117.186 12.6568C116.022 11.9076 114.643 11.5641 113.264 11.68C112.077 11.767 110.942 12.202 110.001 12.9306C109.237 13.5345 108.607 14.2905 108.151 15.1506C107.805 15.7939 107.555 16.4846 107.411 17.2004C107.323 17.6488 107.283 18.1052 107.292 18.562C107.292 18.71 107.292 18.821 107.292 18.9172C107.292 19.0134 107.292 19.0356 107.292 19.0356C107.285 18.4245 107.342 17.8144 107.462 17.2152C107.611 16.5144 107.86 15.8389 108.202 15.2098C108.654 14.374 109.277 13.6428 110.03 13.0638C110.953 12.365 112.058 11.9486 113.212 11.865C114.541 11.7628 115.867 12.0924 116.994 12.8048C117.608 13.2039 118.131 13.7288 118.528 14.3449C118.925 14.9611 119.186 15.6544 119.295 16.379C119.415 17.1478 119.38 17.9329 119.191 18.6878C118.991 19.4619 118.605 20.1756 118.067 20.7672L118.222 20.9374C118.702 20.5791 119.288 20.3916 119.887 20.4046C120.739 20.4085 121.561 20.7184 122.203 21.2778C122.838 21.8238 123.343 22.5036 123.683 23.2684C124.355 24.7088 124.611 26.3079 124.423 27.886C124.338 28.5929 124.114 29.276 123.763 29.8958C123.412 30.5156 122.943 31.0599 122.381 31.4972C121.369 32.2335 120.183 32.6926 118.94 32.8292C117.911 32.9412 116.872 32.9038 115.854 32.7182C115.083 32.5826 114.319 32.4048 113.567 32.1854L112.139 31.7636L111.769 31.6526C111.725 31.66 111.68 31.66 111.68 31.66Z" fill="#263238"/>
<path d="M104.85 38.8084C105.019 38.9331 105.197 39.0444 105.383 39.1414C105.883 39.4301 106.405 39.6776 106.944 39.8814C107.744 40.1905 108.596 40.3413 109.453 40.3254C110.522 40.2977 111.548 39.8972 112.354 39.1932C112.761 38.8149 113.073 38.3458 113.264 37.8242C113.429 37.3479 113.516 36.8482 113.523 36.3442C113.513 35.4865 113.334 34.6392 112.998 33.8504C112.786 33.3211 112.539 32.8068 112.258 32.3112C112.166 32.1219 112.055 31.9432 111.925 31.7784C111.993 31.9748 112.077 32.1653 112.176 32.3482C112.346 32.7182 112.605 33.2362 112.857 33.9096C113.163 34.6847 113.318 35.5109 113.316 36.3442C113.325 36.8456 113.232 37.3436 113.042 37.808C112.852 38.2723 112.57 38.6932 112.213 39.0452C111.446 39.7093 110.475 40.0906 109.46 40.1256C108.628 40.1511 107.797 40.0231 107.011 39.7482C105.642 39.2302 104.872 38.7566 104.85 38.8084Z" fill="#263238"/>
<path d="M102.46 41.7092C102.256 41.6734 102.062 41.5953 101.89 41.4798C101.666 41.3088 101.491 41.0823 101.382 40.8226C101.273 40.563 101.234 40.2793 101.269 39.9998C101.284 39.8133 101.337 39.632 101.427 39.4676C101.516 39.3032 101.638 39.1593 101.787 39.0452C101.95 38.9174 102.152 38.848 102.36 38.848C102.568 38.848 102.77 38.9174 102.934 39.0452C103.094 39.1955 103.19 39.4026 103.2 39.6224C103.199 39.7335 103.17 39.8425 103.114 39.9386C103.058 40.0347 102.978 40.1144 102.882 40.17C102.666 40.2839 102.418 40.3205 102.179 40.2736C101.915 40.2378 101.662 40.1443 101.439 39.9998C101.022 39.7062 100.679 39.319 100.439 38.8692C100.199 38.4195 100.067 37.9196 100.055 37.4098C100.038 36.5595 100.199 35.715 100.529 34.9308C100.69 34.3855 100.94 33.8705 101.269 33.4064C101.335 33.3284 101.418 33.2661 101.511 33.2239C101.605 33.1817 101.706 33.1606 101.809 33.1622C101.755 33.1481 101.699 33.1481 101.646 33.1622C101.479 33.1788 101.322 33.2519 101.202 33.3694C101.018 33.5468 100.87 33.7578 100.765 33.991C100.632 34.25 100.484 34.5534 100.344 34.8938C99.983 35.6964 99.7988 36.567 99.8034 37.4468C99.8299 37.9603 99.9582 38.4634 100.181 38.9268C100.421 39.4464 100.803 39.8876 101.283 40.1996C101.522 40.3738 101.803 40.4813 102.097 40.5113C102.39 40.5412 102.687 40.4923 102.956 40.3698C103.085 40.295 103.193 40.187 103.267 40.0569C103.341 39.9269 103.379 39.7795 103.378 39.6298C103.373 39.4901 103.34 39.3528 103.281 39.2257C103.223 39.0987 103.14 38.9845 103.037 38.8898C102.833 38.7138 102.566 38.626 102.297 38.6456C102.052 38.6638 101.817 38.7482 101.616 38.8898C101.449 39.0221 101.312 39.1891 101.214 39.3795C101.117 39.5698 101.063 39.7789 101.054 39.9924C101.026 40.2961 101.08 40.6018 101.21 40.8776C101.34 41.1535 101.542 41.3895 101.794 41.5612C101.934 41.6477 102.09 41.7032 102.253 41.724C102.401 41.7314 102.46 41.7166 102.46 41.7092Z" fill="#263238"/>
<path d="M117.933 31.9856C118.002 31.9975 118.072 31.9975 118.141 31.9856C118.336 31.995 118.531 31.97 118.718 31.9116C119.061 31.7948 119.374 31.6006 119.63 31.344C119.887 31.0874 120.081 30.7752 120.198 30.4316C120.337 29.9034 120.334 29.3476 120.189 28.8211C120.043 28.2945 119.76 27.8161 119.369 27.4346C118.912 26.9539 118.355 26.579 117.738 26.3361C117.12 26.0932 116.457 25.9883 115.795 26.0286C115.485 26.0496 115.178 26.0992 114.877 26.1766L115.018 26.332C115.205 25.7478 115.241 25.1254 115.122 24.5235C115.003 23.9216 114.733 23.3598 114.337 22.891C113.996 22.4867 113.562 22.1717 113.072 21.9734C112.647 21.8091 112.195 21.7287 111.74 21.7366C111.086 21.7348 110.446 21.9225 109.897 22.2768C109.747 22.367 109.608 22.4737 109.483 22.595C109.401 22.6838 109.357 22.7282 109.364 22.7356C109.372 22.743 109.557 22.5728 109.941 22.3508C110.402 22.088 110.917 21.9335 111.446 21.8989C111.976 21.8643 112.506 21.9505 112.998 22.151C113.458 22.3409 113.862 22.6438 114.174 23.0316C114.54 23.4728 114.788 23.9989 114.897 24.5615C115.006 25.1241 114.971 25.705 114.796 26.2506L114.722 26.4652L114.936 26.406C115.222 26.3316 115.515 26.2846 115.81 26.2654C116.438 26.2283 117.067 26.3267 117.655 26.554C118.242 26.7812 118.774 27.132 119.214 27.5826C119.582 27.9376 119.851 28.3818 119.997 28.872C120.142 29.3622 120.158 29.8817 120.042 30.3798C119.942 30.712 119.768 31.0174 119.533 31.2735C119.299 31.5296 119.01 31.7299 118.688 31.8598C118.444 31.9378 118.19 31.9802 117.933 31.9856Z" fill="#455A64"/>
<path d="M118.474 18.1624C118.381 18.1047 118.278 18.0646 118.17 18.044C117.875 17.9722 117.569 17.9546 117.267 17.9922C116.803 18.0403 116.357 18.1975 115.965 18.451C115.458 18.7677 115.065 19.2365 114.84 19.7904L115.033 19.7534C114.661 19.3477 114.158 19.0857 113.612 19.0134C112.834 18.9201 112.048 19.1035 111.392 19.5314C110.867 19.8828 110.413 20.3296 110.052 20.8486C109.806 21.1868 109.586 21.543 109.394 21.9142C109.307 22.0432 109.242 22.1858 109.201 22.336C109.238 22.336 109.549 21.7736 110.186 20.9448C110.556 20.4651 111.004 20.05 111.51 19.7164C112.13 19.3215 112.868 19.1565 113.597 19.2502C114.085 19.3118 114.537 19.5391 114.877 19.894L115.003 20.0346L115.07 19.8644C115.273 19.3502 115.629 18.911 116.091 18.6064C116.456 18.3603 116.87 18.1962 117.304 18.1254C117.694 18.0851 118.087 18.0975 118.474 18.1624Z" fill="#455A64"/>
<path d="M98.1384 40.688L81.3922 43.0634L80.6522 48.3544C80.6522 48.3544 72.3272 62.9102 71.5872 67.18C70.8472 71.4498 67.1472 81.98 67.8872 89.9572C68.6272 97.9344 66.2 128.06 66.2 128.06H70.455L86.957 87.9L98.1384 40.688Z" fill="#263238"/>
<path d="M109.697 234.494L113.9 249.701C113.9 249.701 99.611 257.959 100.114 260.845L130.136 254.874L124.556 230.912L109.697 234.494Z" fill="#E34F33"/>
<g opacity="0.6">
<path d="M122.803 246.216C123.109 246.237 123.398 246.37 123.613 246.589C123.829 246.809 123.956 247.1 123.972 247.407C123.964 247.715 123.839 248.008 123.621 248.225C123.403 248.443 123.11 248.569 122.803 248.576C122.478 248.554 122.172 248.413 121.945 248.179C121.719 247.946 121.586 247.636 121.574 247.311C121.615 246.991 121.778 246.7 122.029 246.499C122.281 246.297 122.6 246.201 122.921 246.23" fill="white"/>
</g>
<g opacity="0.6">
<path d="M130.136 254.874L129.574 252.461L100.788 259.232C100.513 259.452 100.298 259.737 100.162 260.062C100.026 260.386 99.9743 260.74 100.011 261.09L130.136 254.874Z" fill="white"/>
</g>
<path d="M113.382 249.664C113.427 249.805 114.167 249.664 114.996 249.997C115.824 250.33 116.35 250.818 116.476 250.737C116.601 250.656 116.18 249.864 115.173 249.523C114.167 249.183 113.323 249.538 113.382 249.664Z" fill="#263238"/>
<path d="M110.6 251.699C110.6 251.847 111.288 251.943 111.925 252.439C112.561 252.935 112.864 253.556 113.012 253.512C113.16 253.468 113.012 252.631 112.272 252.032C111.532 251.433 110.541 251.558 110.6 251.699Z" fill="#263238"/>
<path d="M109.69 255.88C109.823 255.88 109.853 255.103 109.29 254.4C108.728 253.697 107.973 253.534 107.943 253.66C107.914 253.786 108.432 254.119 108.883 254.703C109.335 255.288 109.542 255.88 109.69 255.88Z" fill="#263238"/>
<path d="M112.82 246.09C112.909 246.208 113.56 245.853 114.367 245.712C115.173 245.572 115.906 245.675 115.95 245.535C115.995 245.394 115.255 245.017 114.27 245.202C113.286 245.387 112.709 245.994 112.82 246.09Z" fill="#263238"/>
<g opacity="0.3">
<path d="M110.533 237.506L111.281 240.214L125.881 236.596L125.311 234.131L110.533 237.506Z" fill="black"/>
</g>
<path d="M112.021 243.011C112.538 243.026 113.049 242.901 113.501 242.649C114.014 242.423 114.498 242.138 114.944 241.798C115.206 241.596 115.453 241.376 115.684 241.139C115.824 241.003 115.946 240.849 116.046 240.68C116.118 240.554 116.145 240.408 116.123 240.264C116.102 240.121 116.033 239.989 115.928 239.889C115.828 239.801 115.709 239.74 115.58 239.709C115.451 239.678 115.317 239.679 115.188 239.711C115 239.757 114.818 239.827 114.648 239.918C114.35 240.076 114.066 240.256 113.797 240.458C113.349 240.804 112.96 241.219 112.642 241.687C112.102 242.493 111.991 243.093 112.05 243.108C112.11 243.122 112.354 242.604 112.931 241.909C113.268 241.505 113.656 241.147 114.085 240.843C114.336 240.666 114.601 240.51 114.877 240.377C115.173 240.222 115.44 240.155 115.558 240.273C115.676 240.392 115.61 240.34 115.558 240.451C115.482 240.573 115.39 240.685 115.284 240.784C115.07 241.01 114.843 241.222 114.603 241.42C114.196 241.76 113.758 242.06 113.294 242.316C112.854 242.518 112.428 242.75 112.021 243.011Z" fill="#263238"/>
<path d="M112.258 243.174C112.44 242.683 112.458 242.145 112.309 241.642C112.2 241.083 112 240.546 111.717 240.051C111.544 239.762 111.343 239.489 111.118 239.237C110.991 239.061 110.821 238.919 110.624 238.827C110.427 238.735 110.21 238.696 109.993 238.712C109.862 238.749 109.744 238.82 109.652 238.92C109.559 239.019 109.495 239.141 109.468 239.274C109.439 239.468 109.439 239.665 109.468 239.859C109.498 240.204 109.577 240.543 109.705 240.865C109.919 241.406 110.265 241.884 110.711 242.257C111.451 242.886 112.124 242.915 112.124 242.863C112.124 242.812 111.577 242.619 110.955 241.983C110.598 241.617 110.325 241.178 110.156 240.695C110.054 240.417 109.995 240.125 109.978 239.829C109.978 239.496 109.978 239.215 110.134 239.223C110.289 239.23 110.585 239.363 110.77 239.585C110.978 239.816 111.166 240.063 111.333 240.325C111.611 240.767 111.827 241.245 111.976 241.746C112.198 242.56 112.176 243.167 112.258 243.174Z" fill="#263238"/>
<path d="M65.8374 233.576L63.98 249.22C63.98 249.22 47.626 251.44 47.0044 254.311L77.0484 260.15L80.9482 235.9L65.8374 233.576Z" fill="#E34F33"/>
<g opacity="0.6">
<path d="M73.526 249.383C73.8043 249.517 74.0232 249.749 74.1407 250.034C74.2582 250.32 74.266 250.639 74.1624 250.929C74.0384 251.211 73.811 251.434 73.5273 251.552C73.2436 251.671 72.9252 251.675 72.638 251.566C72.3444 251.424 72.1141 251.178 71.9923 250.875C71.8706 250.573 71.8659 250.236 71.9794 249.93C72.1384 249.65 72.4002 249.442 72.7094 249.351C73.0187 249.26 73.3513 249.293 73.637 249.442" fill="white"/>
</g>
<g opacity="0.6">
<path d="M77.041 260.172L77.4332 257.723L48.2254 253.098C47.8875 253.198 47.58 253.382 47.3306 253.631C47.0813 253.88 46.898 254.188 46.7972 254.526L77.041 260.172Z" fill="white"/>
</g>
<path d="M63.5064 249.013C63.5064 249.161 64.2464 249.338 64.868 249.93C65.4896 250.522 65.8152 251.196 65.9558 251.159C66.0964 251.122 66.015 250.234 65.2158 249.538C64.4166 248.843 63.499 248.872 63.5064 249.013Z" fill="#263238"/>
<path d="M60.132 249.827C60.0728 249.967 60.6796 250.315 61.0792 251.018C61.4788 251.721 61.5306 252.402 61.6786 252.424C61.8266 252.446 62.0486 251.618 61.5306 250.752C61.0126 249.886 60.1542 249.686 60.132 249.827Z" fill="#263238"/>
<path d="M57.7418 253.342C57.8676 253.394 58.1932 252.691 57.9342 251.825C57.6752 250.959 57.0388 250.522 56.9574 250.641C56.876 250.759 57.2386 251.248 57.4384 251.965C57.6382 252.683 57.5938 253.305 57.7418 253.342Z" fill="#263238"/>
<path d="M64.3278 245.52C64.3722 245.661 65.0678 245.564 65.904 245.749C66.7402 245.934 67.3396 246.297 67.4358 246.186C67.532 246.075 66.9918 245.446 66.015 245.239C65.0382 245.032 64.276 245.357 64.3278 245.52Z" fill="#263238"/>
<g opacity="0.3">
<path d="M65.4748 236.677L65.1344 239.467L80.0232 241.65L80.4302 239.149L65.4748 236.677Z" fill="black"/>
</g>
<path d="M64.7644 242.331C65.2385 242.548 65.7642 242.628 66.2814 242.56C66.8414 242.548 67.398 242.469 67.939 242.323C68.2592 242.236 68.5731 242.127 68.8788 241.998C69.0659 241.93 69.2408 241.832 69.3968 241.709C69.5095 241.618 69.5889 241.493 69.6224 241.352C69.6559 241.211 69.6416 241.064 69.5818 240.932C69.5234 240.819 69.4396 240.72 69.3369 240.644C69.2342 240.569 69.1154 240.518 68.9898 240.495C68.7958 240.47 68.5992 240.47 68.4052 240.495C68.0697 240.523 67.7377 240.582 67.4136 240.673C66.8673 240.823 66.3479 241.058 65.8744 241.369C65.0752 241.909 64.7496 242.427 64.794 242.464C64.8384 242.501 65.2676 242.109 66.0668 241.687C66.5339 241.44 67.0316 241.256 67.5468 241.139C67.8481 241.067 68.1552 241.023 68.4644 241.006C68.7974 240.969 69.0712 241.006 69.1304 241.161C69.1896 241.317 69.1304 241.243 69.0712 241.332C68.9526 241.413 68.8262 241.483 68.6938 241.539C68.3978 241.672 68.1018 241.776 67.8206 241.872C67.3131 242.027 66.7932 242.139 66.2666 242.205C65.7637 242.215 65.2619 242.257 64.7644 242.331Z" fill="#263238"/>
<path d="M64.9198 242.56C64.9716 242.56 65.349 242.109 65.5488 241.161C65.6652 240.604 65.6827 240.03 65.6006 239.467C65.5525 239.134 65.4707 238.806 65.3564 238.49C65.3076 238.277 65.2042 238.08 65.0562 237.919C64.9083 237.758 64.721 237.639 64.5128 237.572C64.3712 237.549 64.2258 237.567 64.0944 237.625C63.963 237.683 63.8513 237.778 63.7728 237.898C63.6708 238.064 63.5912 238.244 63.536 238.431C63.4285 238.761 63.3736 239.105 63.3732 239.452C63.3715 240.032 63.5112 240.603 63.7802 241.117C64.2464 241.99 64.8384 242.264 64.8532 242.212C64.868 242.16 64.4462 241.783 64.1132 240.962C63.9194 240.493 63.8309 239.988 63.8542 239.482C63.8695 239.187 63.9243 238.896 64.017 238.616C64.1132 238.298 64.276 238.061 64.3944 238.113C64.5128 238.164 64.757 238.416 64.8458 238.69C64.9536 238.975 65.0353 239.27 65.09 239.57C65.1813 240.083 65.2012 240.606 65.1492 241.124C65.09 242.012 64.8458 242.56 64.9198 242.56Z" fill="#263238"/>
<path d="M88.5258 187.201C88.5258 187.756 81.6512 241.48 81.6512 241.48L61.6712 237.691L69.7002 182.243L88.5258 187.201Z" fill="#263238"/>
<path d="M112.857 181.458C113.042 181.984 126.917 236.218 126.917 236.218L107.929 240.592L91.6486 182.243L112.857 181.458Z" fill="#263238"/>
<path d="M94.9638 42.4048L98.871 41.0728L105.694 50.3968L107.529 80.352L102.815 95.781C102.815 95.781 116.135 125.144 116.32 132.433C116.505 139.722 122.507 207.58 122.507 207.58L61.02 212.59L72.379 101.59C72.379 101.59 73.859 74.3728 75.598 70.3028C77.337 66.2328 94.9638 42.4048 94.9638 42.4048Z" fill="#E34F33"/>
<path d="M100.24 138.879C100.169 138.932 100.089 138.972 100.003 138.997C99.7639 139.088 99.516 139.155 99.2632 139.197C98.3063 139.323 97.3332 139.182 96.4512 138.79C95.1515 138.191 94.05 137.234 93.2766 136.03C92.3561 134.572 91.625 133.003 91.101 131.36C90.0974 128.405 89.5631 125.312 89.5174 122.192C89.5098 121.25 89.5517 120.309 89.6432 119.372C89.6581 119.027 89.7127 118.684 89.806 118.351C89.8335 118.693 89.8335 119.037 89.806 119.38C89.806 120.046 89.7616 121.008 89.806 122.184C89.9284 125.268 90.4915 128.318 91.4784 131.242C91.9945 132.85 92.7026 134.391 93.5874 135.83C94.3059 136.988 95.3302 137.925 96.5474 138.538C97.3827 138.932 98.3045 139.108 99.2262 139.049C99.8848 138.96 100.24 138.842 100.24 138.879Z" fill="#263238"/>
<path d="M122.507 207.58H122.203L121.3 207.669L117.83 207.987L104.917 209.097L61.02 212.775H60.798V212.546C61.2864 207.721 61.797 202.726 62.3224 197.605C64.498 176.537 66.4738 157.467 67.902 143.652C68.642 136.762 69.2192 131.175 69.6336 127.305C69.8482 125.388 70.011 123.894 70.122 122.865C70.1812 122.369 70.2256 121.984 70.2626 121.711C70.2753 121.579 70.2951 121.448 70.3218 121.318C70.3218 121.318 70.3218 121.452 70.3218 121.711C70.3218 121.97 70.27 122.377 70.2256 122.872C70.1294 123.901 69.9888 125.403 69.8038 127.312C69.4264 131.19 68.8714 136.777 68.1906 143.674C66.792 157.497 64.8606 176.567 62.7294 197.635C62.204 202.755 61.6934 207.75 61.1976 212.575L60.9904 212.368L104.887 208.86L117.808 207.861L121.286 207.61L122.181 207.558C122.29 207.558 122.399 207.566 122.507 207.58Z" fill="#263238"/>
<path d="M102.371 45.8532C102.371 45.8532 102.319 45.8976 102.208 45.9716L101.72 46.275L99.8256 47.4294C99.0042 47.9252 97.9978 48.5394 96.8656 49.2794C96.2884 49.6568 95.6742 50.0564 95.0748 50.5226C94.938 50.6236 94.816 50.7432 94.7122 50.8778C94.7122 51.0332 94.6678 51.27 94.6382 51.4624C94.5938 51.8694 94.542 52.2912 94.4754 52.713C94.2016 54.5778 93.8236 56.4257 93.3432 58.2482C92.8216 60.358 92.0489 62.3977 91.0418 64.3236C89.9244 66.3956 87.9264 67.883 86.0838 69.5036C85.1235 70.2933 84.2856 71.221 83.5974 72.2564C82.9126 73.3226 82.6245 74.5956 82.7834 75.8528C83.0202 77.118 83.3796 78.3572 83.8564 79.5528C84.2831 80.7585 84.5324 82.0198 84.5964 83.2972C84.6595 85.7113 84.2316 88.1131 83.3384 90.3568C82.5619 92.3825 81.5904 94.328 80.4376 96.1658C79.3794 97.8974 78.336 99.4736 77.3888 100.909C75.487 103.78 73.97 106.089 72.9858 107.776C72.4974 108.605 72.1274 109.256 71.8832 109.693L71.602 110.196C71.5709 110.257 71.5337 110.314 71.491 110.366C71.491 110.366 71.491 110.3 71.565 110.181L71.8092 109.656C72.0386 109.205 72.3864 108.539 72.86 107.702C73.7998 106.015 75.2872 103.655 77.1594 100.761C78.0918 99.2812 79.1278 97.7346 80.1638 96.003C81.2938 94.1772 82.2454 92.2467 83.0054 90.2384C83.8687 88.0365 84.2813 85.6837 84.219 83.3194C84.1508 82.0738 83.9016 80.8449 83.479 79.6712C82.9917 78.4551 82.6272 77.1933 82.3912 75.9046C82.2149 74.5622 82.5218 73.2009 83.257 72.064C83.9654 70.9955 84.8311 70.04 85.8248 69.2298C87.6896 67.6018 89.6358 66.1514 90.7162 64.1608C91.7143 62.2645 92.4867 60.2578 93.0176 58.1816C93.5112 56.3745 93.904 54.5415 94.1942 52.6908C94.2632 52.2715 94.3224 51.8571 94.3718 51.4476C94.3718 51.233 94.4088 51.0628 94.4532 50.8334C94.5646 50.6385 94.719 50.4714 94.9046 50.345C95.5336 49.8714 96.1552 49.4792 96.7324 49.1166C97.8942 48.3766 98.9154 47.792 99.7516 47.311L101.683 46.2232L102.194 45.9494C102.25 45.9128 102.31 45.8806 102.371 45.8532Z" fill="#263238"/>
<path d="M101.461 95.0336C100.828 95.0623 100.193 94.9924 99.5814 94.8264C98.0819 94.4879 96.6474 93.9081 95.3338 93.1096C94.027 92.3137 92.8554 91.3145 91.8632 90.1496C91.4294 89.6837 91.0767 89.1484 90.8198 88.566C92.1651 90.212 93.7549 91.6421 95.5336 92.8062C97.3872 93.8404 99.3851 94.5912 101.461 95.0336Z" fill="#263238"/>
<path d="M102.667 96.3286C102.207 96.5202 101.72 96.6424 101.224 96.6912C98.856 97.0835 96.438 97.0659 94.0758 96.6394C93.5794 96.5861 93.0947 96.4537 92.6402 96.2472C92.6402 96.1362 94.8602 96.5728 97.65 96.5876C100.44 96.6024 102.645 96.2102 102.667 96.3286Z" fill="#263238"/>
<path d="M103.422 48.0954C103.422 48.0954 98.3382 48.1694 96.577 51.1738C94.8158 54.1782 91.2786 75.9786 101.868 94.8338C102.356 95.6996 102.815 95.7514 102.815 95.7514L104.369 90.6602C104.369 90.6602 101.491 69.6294 101.061 67.3132C100.632 64.997 99.9366 51.4032 101.964 51.1442C102.468 51.0835 102.974 51.0514 103.481 51.048C105.926 51.0276 108.299 51.8686 110.186 53.4234L111.666 54.6C110.911 52.9363 109.768 51.4777 108.334 50.346C106.9 49.2144 105.216 48.4426 103.422 48.0954Z" fill="#263238"/>
<g opacity="0.3">
<path d="M99.9514 57.4564C94.468 67.587 94.0314 79.7822 96.0072 91.1338C96.133 92.518 96.6092 93.8474 97.391 94.9966C98.2494 96.077 99.8552 96.6986 101.091 96.0104C102.016 95.4924 102.786 95.7292 103.133 94.7302C104.251 91.5852 105.22 87.5226 106.338 84.3702C104.251 75.32 102.001 66.5288 99.9514 57.4564Z" fill="black"/>
</g>
<g opacity="0.3">
<path d="M89.7838 121.333C88.4013 128.766 89.3686 136.446 92.5514 143.304C93.2051 144.873 94.1605 146.299 95.3634 147.5C95.9672 148.098 96.695 148.557 97.4955 148.843C98.2959 149.129 99.1494 149.237 99.9958 149.157C102.105 148.861 103.755 147.056 104.48 145.05C104.998 143.57 105.057 141.816 104.007 140.684C102.734 139.308 100.551 139.537 98.7008 139.204C95.319 138.583 92.6772 135.741 91.3526 132.544C90.028 129.347 89.7838 125.884 89.5618 122.428" fill="black"/>
</g>
<path d="M125.703 87.9592C125.526 83.3712 116.779 65.2338 116.779 65.2338C116.779 65.2338 112.731 56.2206 111.777 54.4002C109.697 50.4412 103.896 50.0194 101.801 51.2256L103.422 73.6032L108.225 89.8832L98.871 107.532L110.519 119.002C126.051 117.086 125.874 92.5472 125.703 87.9592Z" fill="#E34F33"/>
<path d="M121.9 90.4456C121.179 90.48 120.458 90.3771 119.776 90.1422C118.481 89.8166 116.816 89.0618 114.87 88.6104C113.971 88.3851 113.04 88.315 112.117 88.4032C111.37 88.4856 110.647 88.7198 109.993 89.0914C109.403 89.4646 108.884 89.9409 108.461 90.4974C108.504 90.3068 108.588 90.1277 108.706 89.972C109.004 89.5271 109.393 89.1491 109.845 88.862C110.518 88.4339 111.275 88.1563 112.065 88.048C113.028 87.9354 114.003 87.9981 114.944 88.233C116.942 88.7066 118.592 89.4984 119.843 89.8758C121.093 90.2532 121.907 90.3864 121.9 90.4456Z" fill="#263238"/>
<path d="M116.453 83.5044C115.895 83.6614 115.322 83.763 114.744 83.8078C113.379 83.9687 112.055 84.3775 110.837 85.014C109.648 85.6839 108.766 86.7908 108.38 88.0998C108.268 88.6548 108.236 89.2229 108.284 89.787C108.284 89.787 108.188 89.639 108.114 89.3356C108.027 88.9082 108.027 88.468 108.114 88.0406C108.275 87.3341 108.583 86.6693 109.018 86.0894C109.453 85.5094 110.004 85.0271 110.637 84.6736C111.895 84.011 113.28 83.6249 114.7 83.5414C115.28 83.4489 115.87 83.4365 116.453 83.5044Z" fill="#263238"/>
<path d="M111.984 119.217C111.689 119.136 111.404 119.025 111.133 118.884C110.371 118.545 109.63 118.162 108.913 117.737C107.849 117.113 106.831 116.415 105.864 115.65C104.682 114.71 103.572 113.683 102.541 112.579C101.528 111.461 100.595 110.271 99.7516 109.02C99.073 107.99 98.4624 106.917 97.9238 105.808C97.5592 105.063 97.238 104.297 96.9618 103.514C96.8445 103.233 96.7577 102.94 96.7028 102.641C96.7694 102.641 97.206 103.832 98.1828 105.682C98.7469 106.764 99.3745 107.812 100.062 108.82C100.913 110.044 101.84 111.213 102.837 112.32C103.855 113.411 104.946 114.432 106.101 115.376C107.044 116.143 108.033 116.852 109.061 117.5C110.829 118.61 112.013 119.15 111.984 119.217Z" fill="#263238"/>
<path d="M108.225 89.9054C107.856 89.1392 107.549 88.3449 107.307 87.53C106.789 86.05 106.116 83.9854 105.45 81.684C104.784 79.3826 104.243 77.281 103.896 75.764C103.669 74.9447 103.511 74.1082 103.422 73.2628C103.727 74.0554 103.975 74.869 104.162 75.6974C104.576 77.1774 105.161 79.2938 105.827 81.6174C106.493 83.941 107.092 85.8798 107.573 87.4856C107.847 88.2759 108.065 89.0845 108.225 89.9054Z" fill="#263238"/>
<path d="M98.871 107.554C98.7748 107.503 100.795 103.514 103.378 98.6374C105.96 93.7608 108.128 89.8536 108.225 89.898C108.321 89.9424 106.301 93.9458 103.718 98.815C101.135 103.684 98.9672 107.606 98.871 107.554Z" fill="#263238"/>
<path d="M92.6476 198.9C92.544 198.9 93.1064 191.759 93.913 182.975C94.7196 174.191 95.4522 167.08 95.5558 167.08C95.6594 167.08 95.097 174.221 94.2978 183.005C93.4986 191.789 92.7586 198.9 92.6476 198.9Z" fill="#263238"/>
<path d="M99.5518 201.771C98.8938 199.506 98.3602 197.206 97.9534 194.882C97.4179 192.585 97.0079 190.26 96.725 187.918C97.3846 190.184 97.9206 192.484 98.3308 194.808C98.8625 197.105 99.2701 199.43 99.5518 201.771Z" fill="#263238"/>
<path d="M93.7354 183.36C93.7354 183.471 87.2382 183.301 79.2314 182.99C71.2246 182.679 64.7348 182.346 64.7422 182.25C64.7496 182.154 71.2394 182.309 79.2462 182.613C87.253 182.916 93.7354 183.219 93.7354 183.36Z" fill="#FAFAFA"/>
<path d="M120.583 186.438C120.583 186.549 114.603 186.483 107.263 186.298C99.9218 186.113 93.9426 185.876 93.9426 185.765C93.9426 185.654 99.9218 185.728 107.3 185.913C114.677 186.098 120.59 186.32 120.583 186.438Z" fill="#FAFAFA"/>
<path d="M94.32 175.553C94.32 175.657 87.7858 175.442 79.742 175.072C71.6982 174.702 65.1714 174.332 65.1788 174.199C65.1862 174.066 71.7056 174.31 79.7568 174.687C87.808 175.065 94.357 175.449 94.32 175.553Z" fill="#FAFAFA"/>
<path d="M119.968 178.979C119.968 179.09 114.226 178.979 107.159 178.765C100.092 178.55 94.3496 178.269 94.357 178.165C94.3644 178.062 100.092 178.165 107.166 178.38C114.241 178.594 119.976 178.876 119.968 178.979Z" fill="#FAFAFA"/>
</svg>
