<svg width="35" height="35" viewBox="0 0 35 35" fill="none" xmlns="http://www.w3.org/2000/svg">
<path d="M24.8889 23.042H28V25.3753C28 25.8047 27.6516 26.1531 27.2222 26.1531H25.6667C25.2374 26.1531 24.8889 25.8047 24.8889 25.3753V23.042Z" stroke="#263238" stroke-width="1.8"/>
<path d="M7.77777 23.042H10.8889V25.3753C10.8889 25.8047 10.5404 26.1531 10.1111 26.1531H8.55555C8.12622 26.1531 7.77777 25.8047 7.77777 25.3753V23.042Z" stroke="#263238" stroke-width="1.8"/>
<path d="M10.8889 15.2637H24.8889C26.607 15.2637 28 16.6567 28 18.3748V22.2637C28 22.693 27.6515 23.0415 27.2222 23.0415H8.55555C8.12622 23.0415 7.77777 22.693 7.77777 22.2637V18.3748C7.77777 16.6567 9.17077 15.2637 10.8889 15.2637Z" stroke="#263238" stroke-width="1.8"/>
<path d="M24.8889 18.376C25.3182 18.376 25.6666 18.7244 25.6666 19.1538C25.6666 19.5831 25.3182 19.9315 24.8889 19.9315C24.4595 19.9315 24.1111 19.5831 24.1111 19.1538C24.1111 18.7244 24.4595 18.376 24.8889 18.376Z" fill="#3C3C3C"/>
<path d="M10.8889 18.376C11.3182 18.376 11.6666 18.7244 11.6666 19.1538C11.6666 19.5831 11.3182 19.9315 10.8889 19.9315C10.4595 19.9315 10.1111 19.5831 10.1111 19.1538C10.1111 18.7244 10.4595 18.376 10.8889 18.376Z" fill="#3C3C3C"/>
<path d="M12.2056 9.04199H23.5721C23.8964 9.04199 24.1865 9.24344 24.3001 9.54677L26.4444 15.2642H9.33331L11.4776 9.54677C11.5912 9.24344 11.8813 9.04199 12.2056 9.04199Z" stroke="#263238" stroke-width="1.8"/>
<path d="M7 12.9307H9.33333V14.4862H7V12.9307Z" fill="#3C3C3C"/>
<path d="M26.4445 12.9307H28.7778V14.4862H26.4445V12.9307Z" fill="#3C3C3C"/>
<path d="M13.2222 19.1533H22.5556" stroke="#263238" stroke-width="1.8"/>
</svg>
