<svg width="35" height="35" viewBox="0 0 35 35" fill="none" xmlns="http://www.w3.org/2000/svg">
<path d="M0.671917 10.1113L0.671705 10.1126C0.108998 13.5806 0.941832 17.1305 2.98698 19.9828C5.03207 22.835 8.12207 24.7562 11.5781 25.325L0.671917 10.1113ZM0.671917 10.1113C0.986712 8.1376 1.74538 6.26175 2.89033 4.62592C4.03528 2.9901 5.53643 1.63726 7.27993 0.669833L7.27994 0.669837M0.671917 10.1113L7.27994 0.669837M7.27994 0.669837L7.28176 0.668817M7.27994 0.669837L7.28176 0.668817M7.28176 0.668817C7.50342 0.54461 7.75587 0.486921 8.0091 0.50249C8.26234 0.518059 8.50593 0.606246 8.71088 0.756734L8.71732 0.761462M7.28176 0.668817L8.71732 0.761462M8.71732 0.761462L8.72391 0.765983M8.71732 0.761462L8.72391 0.765983M8.72391 0.765983C8.9324 0.909047 9.09515 1.10994 9.19215 1.34437C9.23142 1.43929 9.25922 1.53802 9.27532 1.6385L8.81889 1.60328L8.69215 2.59395L9.13413 2.67323C8.73278 5.41959 9.26537 8.22732 10.6545 10.6397C12.1276 13.1979 14.4665 15.1422 17.2471 16.1194L17.2485 16.1199C19.3877 16.8644 21.689 17.0092 23.9043 16.5386M8.72391 0.765983L23.9043 16.5386M23.9043 16.5386C24.1481 16.4913 24.4003 16.5129 24.6327 16.601C24.8662 16.6896 25.0707 16.8419 25.2228 17.0409C25.375 17.24 25.4688 17.4779 25.4935 17.7278C25.5179 17.9753 25.4735 18.2248 25.3654 18.4485C24.2439 20.5719 22.5681 22.3496 20.5172 23.5916C18.4644 24.8348 16.1131 25.4945 13.7152 25.5C12.9993 25.4997 12.2846 25.4412 11.5781 25.325L23.9043 16.5386ZM8.34396 2.03378L8.53932 0.977024L7.60513 1.50824C6.10075 2.36371 4.79284 3.52704 3.76635 4.92254C2.73987 6.31803 2.01779 7.91446 1.64697 9.60802C1.27615 11.3016 1.26488 13.0544 1.61388 14.7527C1.96285 16.4507 2.66425 18.0562 3.67256 19.4648C4.88803 21.1686 6.51578 22.5345 8.40283 23.4339C10.29 24.3333 12.3744 24.7365 14.4599 24.6056C16.5454 24.4746 18.5633 23.8137 20.3238 22.6853C22.0843 21.5568 23.5295 19.9979 24.5235 18.1553L25.0296 17.2171L23.9846 17.4278C21.6452 17.8994 19.2229 17.7384 16.966 16.9613C13.9901 15.9145 11.4851 13.8349 9.90376 11.0977C8.3221 8.35995 7.7688 5.14504 8.34396 2.03378Z" fill="#263238" stroke="#263238"/>
</svg>
