<svg width="35" height="35" viewBox="0 0 35 35" fill="none" xmlns="http://www.w3.org/2000/svg">
<path d="M11.5729 9.84408C11.5729 6.57553 14.2315 3.91699 17.5 3.91699C20.7679 3.91699 23.426 6.57448 23.4271 9.84214C23.4136 13.0492 20.9147 15.6358 17.7297 15.7566H17.7296H17.7296H17.7295H17.7295H17.7294H17.7294H17.7293H17.7293H17.7292H17.7292H17.7291H17.7291H17.729H17.729H17.7289H17.7289H17.7288H17.7288H17.7287H17.7287H17.7287H17.7286H17.7286H17.7285H17.7285H17.7284H17.7283H17.7283H17.7282H17.7282H17.7281H17.7281H17.728H17.728H17.7279H17.7279H17.7278H17.7278H17.7277H17.7277H17.7276H17.7276H17.7275H17.7275H17.7274H17.7274H17.7273H17.7273H17.7272H17.7271H17.7271H17.727H17.727H17.7269H17.7269H17.7268H17.7268H17.7267H17.7266H17.7266H17.7265H17.7265H17.7264H17.7264H17.7263H17.7263H17.7262H17.7261H17.7261H17.726H17.726H17.7259H17.7258H17.7258H17.7257H17.7257H17.7256H17.7256H17.7255H17.7254H17.7254H17.7253H17.7253H17.7252H17.7251H17.7251H17.725H17.7249H17.7249H17.7248H17.7248H17.7247H17.7246H17.7246H17.7245H17.7244H17.7244H17.7243H17.7243H17.7242H17.7241H17.7241H17.724H17.7239H17.7239H17.7238H17.7237H17.7237H17.7236H17.7235H17.7235H17.7234H17.7233H17.7233H17.7232H17.7231H17.7231H17.723H17.7229H17.7228H17.7228H17.7227H17.7226H17.7226H17.7225H17.7224H17.7224H17.7223H17.7222H17.7221H17.7221H17.722H17.7219H17.7218H17.7218H17.7217H17.7216H17.7216H17.7215H17.7214H17.7213H17.7212H17.7212H17.7211H17.721H17.7209H17.7209H17.7208H17.7207H17.7206H17.7206H17.7205H17.7204H17.7203H17.7202H17.7202H17.7201H17.72H17.7199H17.7198H17.7198H17.7197H17.7196H17.7195H17.7194H17.7193H17.7193H17.7192H17.7191H17.719H17.7189H17.7188H17.7188H17.7186H17.7184H17.7182H17.7181H17.7179H17.7177H17.7176H17.7174H17.7172H17.7171H17.7169H17.7167H17.7166H17.7164H17.7162H17.7161H17.7159H17.7157H17.7156H17.7154H17.7152H17.7151H17.7149H17.7147H17.7146H17.7144H17.7143H17.7141H17.7139H17.7138H17.7136H17.7134H17.7133H17.7131H17.713H17.7128H17.7126H17.7125H17.7123H17.7122H17.712H17.7119H17.7117H17.7115H17.7114H17.7112H17.7111H17.7109H17.7108H17.7106H17.7104H17.7103H17.7101H17.71C17.5677 15.7414 17.4242 15.7432 17.2932 15.7546C14.0366 15.6092 11.5729 13.0245 11.5729 9.84408Z" stroke="#263238" stroke-width="2"/>
<path d="M24.355 21.4826L24.3549 21.4826L24.3595 21.4857C25.9815 22.5541 26.7552 23.9473 26.768 25.3213C26.7665 26.7126 25.9878 28.0938 24.3514 29.198C22.508 30.4354 20.0302 31.0839 17.5013 31.0839C14.9721 31.0839 12.4939 30.4352 10.6505 29.1974L10.6477 29.1956C9.01234 28.1053 8.23471 26.7237 8.23471 25.3464C8.23471 23.9676 9.01387 22.573 10.6593 21.4847L10.6596 21.4845C12.5119 20.2584 14.9926 19.6162 17.5196 19.6162C20.0469 19.6162 22.5187 20.2585 24.355 21.4826Z" stroke="#263238" stroke-width="2"/>
</svg>
