<svg width="35" height="35" viewBox="0 0 35 35" fill="none" xmlns="http://www.w3.org/2000/svg">
<path d="M14.5833 13.125C14.5833 12.5481 14.7544 11.9842 15.0749 11.5046C15.3953 11.0249 15.8509 10.6511 16.3838 10.4303C16.9168 10.2096 17.5032 10.1518 18.069 10.2644C18.6347 10.3769 19.1545 10.6547 19.5624 11.0626C19.9703 11.4705 20.2481 11.9902 20.3607 12.556C20.4731 13.1218 20.4154 13.7082 20.1947 14.2412C19.9739 14.7741 19.6 15.2297 19.1204 15.5501C18.6407 15.8706 18.0769 16.0417 17.5 16.0417V17.5M20.7813 27.7083L18.6667 30.5277C18.0833 31.3056 16.9167 31.3056 16.3333 30.5277L14.2188 27.7083H10.2083C6.98667 27.7083 4.375 25.0966 4.375 21.875V10.2083C4.375 6.98667 6.98667 4.375 10.2083 4.375H24.7917C28.0133 4.375 30.625 6.98667 30.625 10.2083V21.875C30.625 25.0966 28.0133 27.7083 24.7917 27.7083H20.7813Z" stroke="#263238" stroke-width="2" stroke-linecap="round" stroke-linejoin="round"/>
<path d="M17.5 23.3337C18.3054 23.3337 18.9583 22.6807 18.9583 21.8753C18.9583 21.0699 18.3054 20.417 17.5 20.417C16.6946 20.417 16.0417 21.0699 16.0417 21.8753C16.0417 22.6807 16.6946 23.3337 17.5 23.3337Z" fill="#263238"/>
</svg>
