<svg width="32" height="32" viewBox="0 0 32 32" fill="none" xmlns="http://www.w3.org/2000/svg">
<g clip-path="url(#clip0_402_116)">
<path d="M16.0301 0C7.20753 0 0.0301208 7.17741 0.0301208 16C0.0301208 24.8226 7.20753 32 16.0301 32C24.8527 32 32.0301 24.8226 32.0301 16C32.0301 7.17741 24.8508 0 16.0301 0ZM1.95953 16.9412H7.488C7.57083 18.8687 7.88518 20.7642 8.45365 22.5882H3.55389C2.64847 20.8828 2.09318 18.9685 1.95953 16.9412ZM7.488 15.0588H1.95953C2.09318 13.0315 2.64847 11.1172 3.55389 9.41177H8.448C7.88142 11.2358 7.56894 13.1313 7.488 15.0588ZM10.4414 9.41177H21.5398C22.1609 11.2282 22.5224 13.1238 22.6108 15.0588H9.37036C9.45695 13.1238 9.82024 11.2282 10.4414 9.41177ZM9.37036 16.9412H22.6127C22.5205 18.8762 22.1591 20.7718 21.536 22.5882H10.4471C9.82401 20.7718 9.46071 18.8762 9.37036 16.9412ZM24.4951 16.9412H30.1007C29.9671 18.9685 29.4118 20.8828 28.5064 22.5882H23.5294C24.0979 20.7642 24.4122 18.8687 24.4951 16.9412ZM24.4951 15.0588C24.4141 13.1313 24.1017 11.2358 23.5351 9.41177H28.5064C29.4099 11.1172 29.9652 13.0315 30.1007 15.0588H24.4951ZM27.2979 7.52941H22.8668C22.1289 5.73176 21.1426 4.032 19.9492 2.44706C22.9195 3.30729 25.4795 5.12 27.2979 7.52941ZM17.0805 1.93506C18.6315 3.62353 19.8739 5.51153 20.7925 7.52941H11.1887C12.1054 5.51341 13.3459 3.62729 14.8969 1.93882C15.2715 1.91059 15.6461 1.88235 16.0301 1.88235C16.384 1.88235 16.7322 1.91059 17.0805 1.93506ZM12.0151 2.47153C10.8311 4.04894 9.84847 5.74118 9.11624 7.52941H4.76047C6.55812 5.14447 9.08424 3.34306 12.0151 2.47153ZM4.76047 24.4706H9.12189C9.85789 26.2607 10.8442 27.9548 12.0339 29.5322C9.09553 28.6645 6.56189 26.8612 4.76047 24.4706ZM14.9195 30.0612C13.3647 28.3727 12.1186 26.4866 11.1962 24.4706H20.7849C19.8626 26.4885 18.6165 28.3765 17.0598 30.0649C16.7191 30.0894 16.3765 30.1176 16.0301 30.1176C15.6537 30.1176 15.2866 30.0894 14.9195 30.0612ZM19.9285 29.5586C21.1257 27.9736 22.1195 26.2701 22.8593 24.4706H27.2979C25.4758 26.8856 22.9082 28.7002 19.9285 29.5586Z" fill="#263238"/>
</g>
<defs>
<clipPath id="clip0_402_116">
<rect width="32" height="32" fill="white"/>
</clipPath>
</defs>
</svg>
