<svg width="35" height="35" viewBox="0 0 35 35" fill="none" xmlns="http://www.w3.org/2000/svg">
<path d="M13.1278 10.2087C13.1455 7.03674 13.2862 5.31895 14.4067 4.1984C15.6882 2.91699 17.7505 2.91699 21.8753 2.91699H23.3336C27.4584 2.91699 29.5209 2.91699 30.8022 4.1984C32.0836 5.47981 32.0836 7.5422 32.0836 11.667V23.3337C32.0836 27.4584 32.0836 29.5208 30.8022 30.8022C29.5209 32.0837 27.4584 32.0837 23.3336 32.0837H21.8753C17.7505 32.0837 15.6882 32.0837 14.4067 30.8022C13.2862 29.6816 13.1455 27.9639 13.1278 24.792" stroke="#EE5A45" stroke-width="2" stroke-linecap="round"/>
<path d="M21.875 17.5H2.91667M2.91667 17.5L8.02084 13.125M2.91667 17.5L8.02084 21.875" stroke="#EE5A45" stroke-width="2" stroke-linecap="round" stroke-linejoin="round"/>
</svg>
