<svg width="58" height="45" viewBox="0 0 58 45" fill="none" xmlns="http://www.w3.org/2000/svg">
<g filter="url(#filter0_d_402_234)">
<path d="M48.4444 0H16.5V36.1111H48.4444C49.9179 36.1111 51.3309 35.5258 52.3728 34.4839C53.4147 33.4421 54 32.029 54 30.5556V5.55556C54 4.08213 53.4147 2.66905 52.3728 1.62718C51.3309 0.585316 49.9179 0 48.4444 0ZM35.25 28.4333C32.4873 28.4333 29.8378 27.3359 27.8843 25.3824C25.9308 23.4289 24.8333 20.7793 24.8333 18.0167C24.8333 12.85 28.5986 8.57361 33.5319 7.75278C31.6664 8.61723 30.152 10.093 29.2397 11.9356C28.3273 13.7783 28.0718 15.8773 28.5153 17.885C28.9588 19.8928 30.0748 21.6888 31.6784 22.9756C33.2821 24.2625 35.2772 24.963 37.3333 24.9611C39.0532 24.9603 40.7371 24.4679 42.1864 23.5419C43.6358 22.6159 44.7903 21.295 45.5139 19.7347C44.6931 24.6694 40.4167 28.4333 35.25 28.4333ZM42.3472 13.9556L40.6625 16.7639L40.3736 13.5014L37.1819 12.7681L40.1958 11.4847L39.9083 8.22222L42.0583 10.6931L45.0722 9.40972L43.3889 12.2194L45.5389 14.6903L42.3472 13.9556Z" fill="#004600"/>
<path d="M9.55556 0C8.08213 0 6.66905 0.585316 5.62718 1.62718C4.58532 2.66905 4 4.08213 4 5.55556L4 30.5556C4 32.029 4.58532 33.4421 5.62718 34.4839C6.66905 35.5258 8.08213 36.1111 9.55556 36.1111H16.5V0H9.55556Z" fill="#EEEEEE"/>
<path d="M45.0723 9.41016L42.0584 10.6935L39.9084 8.22266L40.1959 11.4852L37.182 12.7685L40.3736 13.5018L40.6625 16.7643L42.3473 13.956L45.5389 14.6907L43.3889 12.2199L45.0723 9.41016Z" fill="white"/>
<path d="M37.3333 24.9613C35.2772 24.9631 33.2821 24.2626 31.6784 22.9758C30.0748 21.6889 28.9588 19.8929 28.5153 17.8852C28.0718 15.8774 28.3273 13.7784 29.2397 11.9358C30.152 10.0931 31.6664 8.61738 33.532 7.75293C28.5986 8.57515 24.8333 12.8515 24.8333 18.0168C24.8333 20.7795 25.9308 23.429 27.8843 25.3825C29.8378 27.336 32.4873 28.4335 35.25 28.4335C40.4167 28.4335 44.6931 24.6682 45.5139 19.7349C44.7906 21.2954 43.6361 22.6165 42.1867 23.5425C40.7373 24.4685 39.0533 24.9608 37.3333 24.9613Z" fill="white"/>
</g>
<defs>
<filter id="filter0_d_402_234" x="0" y="0" width="58" height="44.1113" filterUnits="userSpaceOnUse" color-interpolation-filters="sRGB">
<feFlood flood-opacity="0" result="BackgroundImageFix"/>
<feColorMatrix in="SourceAlpha" type="matrix" values="0 0 0 0 0 0 0 0 0 0 0 0 0 0 0 0 0 0 127 0" result="hardAlpha"/>
<feOffset dy="4"/>
<feGaussianBlur stdDeviation="2"/>
<feComposite in2="hardAlpha" operator="out"/>
<feColorMatrix type="matrix" values="0 0 0 0 0 0 0 0 0 0 0 0 0 0 0 0 0 0 0.25 0"/>
<feBlend mode="normal" in2="BackgroundImageFix" result="effect1_dropShadow_402_234"/>
<feBlend mode="normal" in="SourceGraphic" in2="effect1_dropShadow_402_234" result="shape"/>
</filter>
</defs>
</svg>
