<svg width="35" height="35" viewBox="0 0 35 35" fill="none" xmlns="http://www.w3.org/2000/svg">
<path d="M8.75 11.667H14.5833" stroke="#263238" stroke-width="2" stroke-linecap="round" stroke-linejoin="round"/>
<path d="M30.3819 13.125H26.5866C23.9845 13.125 21.875 15.0837 21.875 17.5C21.875 19.9163 23.9845 21.875 26.5866 21.875H30.3819C30.5035 21.875 30.5642 21.875 30.6155 21.8719C31.402 21.824 32.0284 21.2424 32.08 20.512C32.0833 20.4644 32.0833 20.4079 32.0833 20.2952V14.7048C32.0833 14.5921 32.0833 14.5356 32.08 14.488C32.0284 13.7577 31.402 13.176 30.6155 13.1281C30.5642 13.125 30.5035 13.125 30.3819 13.125Z" stroke="#263238" stroke-width="2"/>
<path d="M30.574 13.1247C30.4607 10.3942 30.095 8.72014 28.9164 7.54155C27.208 5.83301 24.458 5.83301 18.9583 5.83301H14.5833C9.08361 5.83301 6.33377 5.83301 4.62521 7.54155C2.91667 9.2501 2.91667 11.9999 2.91667 17.4997C2.91667 22.9993 2.91667 25.7493 4.62521 27.4578C6.33377 29.1663 9.08361 29.1663 14.5833 29.1663H18.9583C24.458 29.1663 27.208 29.1663 28.9164 27.4578C30.095 26.2793 30.4607 24.6051 30.574 21.8747" stroke="#263238" stroke-width="2"/>
<path d="M26.2372 17.5H26.2503" stroke="#263238" stroke-width="2" stroke-linecap="round" stroke-linejoin="round"/>
</svg>
