<svg width="336" height="330" viewBox="0 0 336 330" fill="none" xmlns="http://www.w3.org/2000/svg">
<path d="M91.6003 83.4048C85.4943 83.4048 79.6384 81.0226 75.3208 76.7821C71.0032 72.5416 68.5776 66.7902 68.5776 60.7932C68.5776 54.7963 71.0032 49.0449 75.3208 44.8044C79.6384 40.5639 85.4943 38.1816 91.6003 38.1816C97.7063 38.1816 103.562 40.5639 107.88 44.8044C112.197 49.0449 114.623 54.7963 114.623 60.7932C114.623 66.7902 112.197 72.5416 107.88 76.7821C103.562 81.0226 97.7063 83.4048 91.6003 83.4048Z" fill="#EBEBEB"/>
<path d="M85.9219 55.7568H81.1574V70.8774H85.9219V55.7568Z" fill="white"/>
<path d="M83.5162 53.7768C84.0795 53.7821 84.6317 53.6228 85.1027 53.3192C85.5736 53.0157 85.9422 52.5815 86.1614 52.0718C86.3807 51.5622 86.4408 51 86.3342 50.4567C86.2276 49.9135 85.959 49.4135 85.5626 49.0205C85.1661 48.6274 84.6597 48.3588 84.1076 48.249C83.5554 48.1391 82.9825 48.1928 82.4615 48.4033C81.9406 48.6138 81.495 48.9716 81.1815 49.4313C80.8679 49.8909 80.7005 50.4317 80.7005 50.985C80.6987 51.7214 80.9939 52.4286 81.5216 52.9518C82.0492 53.4749 82.7664 53.7716 83.5162 53.7768Z" fill="white"/>
<path d="M93.5424 62.9382C93.5424 60.813 94.537 59.5458 96.4454 59.5458C98.1926 59.5458 99.0394 60.7602 99.0394 62.9382V70.8582H103.777V61.3014C103.777 57.249 101.445 55.2954 98.1792 55.2954C97.253 55.2836 96.3394 55.5072 95.527 55.9443C94.7146 56.3814 94.031 57.0172 93.5424 57.7902V55.7574H88.9661V70.8714H93.5424V62.9382Z" fill="white"/>
<path d="M122.452 15.7676L125.604 21.4238L131.369 24.5258L125.604 27.6212L122.452 33.2774L119.3 27.6212L113.534 24.5258L119.3 21.4238L122.452 15.7676Z" fill="#F5F5F5"/>
<path d="M253.929 169.139L256.294 173.389L260.615 175.706L256.294 178.029L253.929 182.279L251.563 178.029L247.242 175.706L251.563 173.389L253.929 169.139Z" fill="#EBEBEB"/>
<path d="M260.615 148.177L261.684 150.091L263.632 151.14L261.684 152.19L260.615 154.104L259.553 152.19L257.598 151.14L259.553 150.091L260.615 148.177Z" fill="#E0E0E0"/>
<path d="M99.9331 17.8926L101.002 19.8132L102.95 20.856L101.002 21.9054L99.9331 23.8194L98.8714 21.9054L96.9158 20.856L98.8714 19.8132L99.9331 17.8926Z" fill="#E0E0E0"/>
<path d="M46.4554 195.862C47.6953 195.304 48.7417 194.402 49.4654 193.266C50.1891 192.131 50.5584 190.812 50.5277 189.473C50.5277 185.691 47.5373 182.655 43.9286 182.682C40.32 182.708 37.4237 185.804 37.4573 189.585C37.4475 190.936 37.8459 192.258 38.6019 193.386C39.3579 194.514 40.4376 195.396 41.7043 195.921C31.6646 197.538 32.256 208.27 32.256 208.27L56.0381 208.072C56.0381 208.072 56.448 197.215 46.4554 195.862Z" fill="#E0E0E0"/>
<path d="M274.606 266.601C274.439 265.754 273.97 264.994 273.284 264.455C272.599 263.916 271.74 263.634 270.862 263.66C269.985 263.685 269.145 264.016 268.492 264.594C267.84 265.171 267.418 265.957 267.301 266.812C267.179 265.959 266.753 265.175 266.097 264.602C265.442 264.029 264.601 263.703 263.723 263.682C262.846 263.662 261.99 263.948 261.307 264.49C260.625 265.031 260.16 265.794 259.997 266.64C259.821 267.892 260.144 269.161 260.897 270.185C261.643 271.194 262.52 272.103 263.505 272.891C264.849 274.059 266.065 275.148 267.396 276.309C268.74 275.135 269.835 274.032 271.152 272.858C272.133 272.062 273.002 271.144 273.739 270.125C274.475 269.102 274.785 267.841 274.606 266.601Z" fill="#EBEBEB"/>
<path d="M290.096 127.479L292.643 126.984L296.675 118.286L295.667 113.289C295.667 113.289 299.557 112.286 300.418 118.919C301.278 125.552 301.439 123.79 301.439 123.79C301.439 123.79 309.805 122.193 310.645 122.767C311.257 123.189 313.132 131.307 314.113 135.716C314.384 136.773 314.288 137.889 313.838 138.885C313.389 139.882 312.613 140.702 311.633 141.214C311.354 141.349 311.058 141.447 310.753 141.504C308.67 141.914 297.676 142.323 297.676 142.323L293.274 143.181L290.096 127.479Z" fill="#E0E0E0"/>
<path d="M282.522 127.525L287.542 144.342L291.91 143.49L288.523 126.72L282.522 127.525Z" fill="#E0E0E0"/>
<path d="M316.156 309.752C316.156 309.851 249.514 309.923 167.328 309.923C85.1424 309.923 18.48 309.851 18.48 309.752C18.48 309.653 85.1088 309.58 167.328 309.58C249.547 309.58 316.156 309.659 316.156 309.752Z" fill="#263238"/>
<path d="M264.385 120.879C257.872 123.988 250.369 124.43 243.525 122.107C236.681 119.783 231.057 114.886 227.889 108.491C224.723 102.095 224.274 94.7254 226.639 88.0037C229.004 81.2819 233.991 75.7579 240.502 72.6463C243.727 71.106 247.229 70.2046 250.808 69.9935C254.387 69.7825 257.974 70.2659 261.363 71.4163C264.752 72.5667 267.877 74.3614 270.56 76.698C273.242 79.0346 275.43 81.8674 276.998 85.0345C278.567 88.2015 279.485 91.6409 279.699 95.1562C279.914 98.6716 279.422 102.194 278.251 105.523C277.08 108.851 275.252 111.921 272.873 114.555C270.494 117.19 267.61 119.339 264.385 120.879Z" fill="#E34F33"/>
<path d="M245.697 102.756C245.797 102.754 245.895 102.729 245.984 102.685C246.074 102.641 246.152 102.577 246.213 102.499C246.274 102.422 246.317 102.331 246.338 102.235C246.359 102.139 246.358 102.04 246.335 101.944C246.268 101.621 246.086 100.802 246.019 100.466C245.925 99.997 245.811 99.8716 245.347 99.6604C244.143 99.1168 243.186 98.1555 242.659 96.961C240.603 92.803 241.927 87.5692 247.007 85.147C251.503 82.9954 255.313 84.487 257.087 88.117C259.432 92.8624 259.278 97.885 256.106 99.403C255.71 99.6168 255.27 99.7364 254.818 99.7522C254.367 99.768 253.919 99.6795 253.509 99.494C253.099 99.3084 252.739 99.0309 252.458 98.6838C252.178 98.3367 251.984 97.9297 251.892 97.4956C251.368 95.1724 251.22 92.4598 250.481 90.955C249.809 89.635 248.519 88.8364 247 89.5624C245.206 90.4204 244.668 92.9284 245.878 95.3638C246.309 96.2645 246.93 97.0653 247.699 97.7134C247.699 97.7134 249.648 106.214 249.984 107.706C250.656 110.669 252.82 113.646 253.028 113.982C253.058 114.02 253.098 114.048 253.143 114.064C253.189 114.08 253.238 114.083 253.285 114.073C253.332 114.062 253.375 114.039 253.41 114.006C253.444 113.972 253.468 113.93 253.478 113.883C253.539 113.593 254.392 109.989 253.835 107.059C253.68 106.227 252.773 101.97 252.773 101.97C253.895 102.782 256.072 102.934 257.88 102.069C263.256 99.4954 264.533 92.9284 261.334 86.4736C258.922 81.5962 252.457 79.0618 246.066 82.1176C238.103 85.9192 236.867 93.4366 239.178 98.1094C240.576 100.941 242.894 102.96 245.697 102.756Z" fill="white"/>
<path d="M291.648 196.522C289.337 195.656 287.222 194.352 285.425 192.683C283.628 191.014 282.183 189.013 281.174 186.795C280.165 184.577 279.611 182.186 279.543 179.758C279.476 177.329 279.897 174.912 280.782 172.643C281.662 170.373 282.99 168.297 284.689 166.531C286.387 164.766 288.423 163.347 290.681 162.355C292.938 161.363 295.373 160.818 297.845 160.751C300.317 160.684 302.778 161.096 305.088 161.964C307.399 162.83 309.514 164.134 311.311 165.803C313.108 167.472 314.553 169.473 315.562 171.691C316.571 173.909 317.125 176.3 317.193 178.729C317.26 181.157 316.839 183.575 315.954 185.843C315.074 188.113 313.746 190.19 312.047 191.955C310.349 193.72 308.313 195.139 306.055 196.131C303.798 197.123 301.363 197.668 298.891 197.735C296.419 197.802 293.958 197.39 291.648 196.522Z" fill="#37E333"/>
<path fill-rule="evenodd" clip-rule="evenodd" d="M308.206 182.385C309.046 179.959 308.901 177.308 307.802 174.984C306.703 172.66 304.734 170.841 302.305 169.906C299.876 168.971 297.173 168.992 294.759 169.964C292.345 170.936 290.405 172.784 289.343 175.125C289.283 175.257 289.229 175.395 289.175 175.527C288.517 177.209 288.345 179.036 288.678 180.807L285.042 185.117L290.929 185.447C292.064 186.765 293.527 187.77 295.177 188.365C296.826 188.96 298.604 189.123 300.337 188.84C302.071 188.557 303.699 187.836 305.063 186.748C306.427 185.66 307.48 184.243 308.119 182.636C308.153 182.554 308.182 182.47 308.206 182.385ZM295.626 186.827C294.068 186.246 292.72 185.226 291.749 183.896L288.315 183.705L290.432 181.197C289.957 179.507 290.044 177.713 290.68 176.075C290.781 175.824 290.895 175.574 291.016 175.336C291.974 173.473 293.604 172.029 295.589 171.285C297.574 170.542 299.77 170.552 301.747 171.315C303.724 172.078 305.34 173.538 306.279 175.41C307.218 177.282 307.411 179.43 306.822 181.434C306.761 181.646 306.694 181.85 306.613 182.055C305.799 184.118 304.185 185.779 302.125 186.673C300.065 187.568 297.728 187.623 295.626 186.827Z" fill="white"/>
<path fill-rule="evenodd" clip-rule="evenodd" d="M302.266 182.556C302.071 182.358 301.15 181.381 300.962 181.236C300.774 181.091 300.639 180.985 300.397 181.157C300.156 181.328 299.504 181.665 299.316 181.764C299.127 181.863 298.98 181.83 298.791 181.632C298.21 181.109 297.725 180.49 297.36 179.804C297.034 179.158 296.807 178.469 296.688 177.758C296.648 177.481 296.809 177.401 296.97 177.335C297.132 177.269 297.306 177.157 297.474 177.071L297.602 176.992C297.69 176.925 297.773 176.853 297.851 176.774C297.908 176.725 297.951 176.662 297.976 176.592C298 176.521 298.006 176.445 297.992 176.372C297.992 176.24 297.945 174.946 297.924 174.425C297.904 173.903 297.683 173.903 297.548 173.851C297.414 173.798 297.266 173.719 297.111 173.666C296.993 173.624 296.866 173.606 296.74 173.614C296.614 173.622 296.491 173.655 296.379 173.712C296.024 173.858 295.703 174.075 295.437 174.349C295.171 174.622 294.965 174.947 294.833 175.303C294.736 175.564 294.675 175.837 294.652 176.114C294.613 176.749 294.689 177.386 294.874 177.995C294.934 178.187 295.505 181.104 297.508 182.899C299.51 184.694 299.638 184.391 300.082 184.51C300.434 184.577 300.796 184.568 301.144 184.484C301.493 184.4 301.818 184.242 302.098 184.021C302.383 183.743 302.578 183.386 302.655 182.998C302.581 182.873 302.454 182.754 302.266 182.556Z" fill="white"/>
<path d="M46.7914 111.038C42.9827 111.038 39.33 109.552 36.6369 106.907C33.9437 104.262 32.4307 100.675 32.4307 96.9343C32.4307 93.1936 33.9437 89.6062 36.6369 86.9611C39.33 84.316 42.9827 82.8301 46.7914 82.8301C48.6772 82.8301 50.5446 83.1949 52.2869 83.9037C54.0293 84.6125 55.6124 85.6514 56.9459 86.9611C58.2794 88.2708 59.3372 89.8256 60.0589 91.5368C60.7806 93.248 61.152 95.0821 61.152 96.9343C61.152 98.7865 60.7806 100.621 60.0589 102.332C59.3372 104.043 58.2794 105.598 56.9459 106.907C55.6124 108.217 54.0293 109.256 52.2869 109.965C50.5446 110.674 48.6772 111.038 46.7914 111.038Z" fill="#33AEE3"/>
<path d="M39.144 101.64C40.5232 102.504 42.1174 102.98 43.7529 103.016C45.3884 103.051 47.0025 102.645 48.4193 101.842C49.8361 101.039 51.0012 99.8688 51.7877 98.4599C52.5742 97.0511 52.9519 95.4573 52.8797 93.8521C53.4868 93.4192 54.0121 92.8854 54.432 92.2747C53.8567 92.5227 53.2478 92.6872 52.6243 92.7631C53.2815 92.3859 53.7779 91.7882 54.0221 91.0801C53.4001 91.4434 52.7176 91.6959 52.0061 91.8259C51.5348 91.3196 50.9053 90.9818 50.2169 90.8658C49.5284 90.7498 48.8203 90.8621 48.2041 91.1852C47.5879 91.5082 47.0987 92.0235 46.8137 92.6498C46.5287 93.2761 46.4641 93.9778 46.6301 94.6441C45.3815 94.581 44.1603 94.2611 43.0456 93.7052C41.9308 93.1492 40.9473 92.3696 40.1587 91.4167C39.7592 92.0966 39.6375 92.9002 39.8184 93.6648C39.9993 94.4294 40.4693 95.098 41.1331 95.5351C40.6337 95.5225 40.1449 95.3911 39.7085 95.1523C39.7002 95.871 39.9473 96.57 40.4073 97.129C40.8672 97.688 41.5113 98.072 42.2285 98.2147C41.7662 98.3384 41.2811 98.3565 40.8106 98.2675C41.0118 98.879 41.4021 99.4137 41.9273 99.797C42.4525 100.18 43.0863 100.393 43.7405 100.406C42.4315 101.392 40.7815 101.835 39.144 101.64Z" fill="white"/>
<path d="M72.576 269.023C66.1984 270.511 59.4803 269.45 53.8982 266.076C48.3161 262.701 44.3265 257.287 42.8064 251.025C42.0528 247.92 41.9296 244.7 42.4438 241.548C42.9581 238.397 44.0998 235.376 45.8036 232.658C47.5074 229.94 49.7399 227.579 52.3735 225.709C55.0071 223.839 57.9901 222.497 61.152 221.76C64.3113 221.021 67.588 220.9 70.7949 221.404C74.0019 221.908 77.0762 223.028 79.8425 224.699C82.6088 226.371 85.0128 228.561 86.9172 231.145C88.8216 233.729 90.1892 236.656 90.9418 239.759C91.6951 242.865 91.8175 246.086 91.3019 249.239C90.7864 252.391 89.643 255.413 87.9372 258.131C86.2314 260.849 83.9966 263.21 81.3608 265.079C78.7249 266.948 75.7397 268.288 72.576 269.023Z" fill="#B3008B"/>
<path d="M64.2903 234.775C67.8115 233.95 68.2349 233.865 69.6663 233.601C70.5039 233.416 71.3676 233.373 72.2199 233.475C72.8437 233.549 73.4429 233.759 73.9738 234.089C74.5096 234.408 74.9682 234.839 75.3178 235.35C75.7934 236.052 76.1434 236.828 76.3527 237.646C76.7491 238.999 76.8634 239.409 77.6967 242.867C78.5299 246.325 78.6173 246.741 78.8861 248.147C79.0778 248.969 79.121 249.818 79.0138 250.655C78.9452 251.269 78.7311 251.859 78.3888 252.378C78.0679 252.905 77.6318 253.356 77.112 253.698C76.3945 254.164 75.6015 254.508 74.7667 254.714C73.4227 255.103 72.9792 255.216 69.4579 256.034C65.9367 256.852 65.5133 256.945 64.0819 257.209C63.2424 257.397 62.376 257.439 61.5216 257.334C60.8973 257.262 60.2977 257.052 59.7677 256.72C59.2372 256.391 58.7911 255.946 58.464 255.42C57.9842 254.719 57.6317 253.942 57.4224 253.123C57.0327 251.77 56.9184 251.368 56.0784 247.909C55.2384 244.451 55.1511 244.035 54.8823 242.629C54.6977 241.804 54.6546 240.954 54.7546 240.115C54.8372 239.504 55.0499 238.918 55.3787 238.394C55.7075 237.869 56.1452 237.419 56.6631 237.072C57.3772 236.602 58.1682 236.256 59.0016 236.049C60.3456 235.666 60.7959 235.554 64.3171 234.729M63.7527 232.393C60.1709 233.231 59.7207 233.35 58.3296 233.746C57.2412 234.011 56.207 234.458 55.272 235.066C54.4787 235.604 53.8081 236.299 53.3026 237.106C52.7971 237.912 52.4677 238.813 52.3354 239.752C52.1942 240.852 52.2442 241.968 52.4832 243.052C52.7587 244.444 52.8461 244.893 53.6995 248.411C54.553 251.929 54.6739 252.371 55.0435 253.731C55.3124 254.8 55.767 255.816 56.3875 256.734C56.9344 257.542 57.6574 258.22 58.5043 258.72C59.3193 259.224 60.2369 259.546 61.1923 259.664C62.3126 259.803 63.4489 259.754 64.5523 259.519C65.9703 259.255 66.4272 259.162 70.009 258.324C73.5907 257.486 74.041 257.367 75.4253 257.004C76.5121 256.734 77.5455 256.288 78.4829 255.684C79.2844 255.153 79.9585 254.457 80.4586 253.645C80.9688 252.842 81.2987 251.942 81.4263 251.005C81.5653 249.904 81.5131 248.788 81.2717 247.705C81.0029 246.306 80.9088 245.863 80.0554 242.346C79.2019 238.828 79.081 238.386 78.7114 237.019C78.4353 235.952 77.9812 234.938 77.3674 234.016C76.8266 233.231 76.1179 232.571 75.2909 232.083C74.4772 231.575 73.5593 231.25 72.6029 231.132C71.4826 230.993 70.3464 231.042 69.2429 231.277C67.8183 231.548 67.368 231.634 63.7863 232.472" fill="white"/>
<path d="M65.2512 238.742C63.9119 239.055 62.6972 239.751 61.7609 240.743C60.8245 241.734 60.2085 242.976 59.9906 244.311C59.7728 245.646 59.963 247.015 60.5371 248.244C61.1113 249.473 62.0436 250.508 63.2162 251.216C64.3888 251.925 65.749 252.276 67.1249 252.226C68.5007 252.175 69.8305 251.725 70.946 250.933C72.0614 250.14 72.9125 249.04 73.3917 247.772C73.8708 246.505 73.9564 245.126 73.6378 243.81C73.2087 242.047 72.0846 240.522 70.5122 239.572C68.9398 238.622 67.0476 238.323 65.2512 238.742ZM67.9392 249.717C67.0691 249.919 66.1575 249.863 65.3198 249.556C64.482 249.25 63.7557 248.706 63.2325 247.994C62.7093 247.282 62.4127 246.433 62.3803 245.556C62.3478 244.678 62.5809 243.811 63.0501 243.063C63.5193 242.316 64.2036 241.722 65.0165 241.356C65.8293 240.99 66.7343 240.87 67.6171 241.009C68.4999 241.148 69.3208 241.541 69.9762 242.139C70.6315 242.736 71.0919 243.511 71.2992 244.365C71.4371 244.933 71.4595 245.522 71.3652 246.099C71.2709 246.676 71.0617 247.228 70.7496 247.725C70.4375 248.223 70.0286 248.654 69.5464 248.996C69.0641 249.338 68.518 249.583 67.9392 249.717Z" fill="white"/>
<path d="M73.8125 236.465C73.886 236.772 73.8651 237.094 73.7526 237.389C73.6401 237.685 73.4409 237.941 73.1802 238.126C72.9196 238.31 72.6091 238.415 72.288 238.426C71.9668 238.438 71.6495 238.355 71.376 238.19C71.1024 238.024 70.885 237.783 70.7511 237.496C70.6171 237.209 70.5728 236.889 70.6235 236.578C70.6742 236.266 70.8178 235.976 71.0362 235.745C71.2545 235.513 71.5378 235.35 71.8502 235.277C72.0586 235.227 72.2749 235.218 72.4867 235.251C72.6986 235.284 72.9016 235.358 73.0842 235.468C73.2667 235.579 73.4251 235.724 73.5501 235.895C73.6751 236.066 73.7643 236.26 73.8125 236.465Z" fill="white"/>
<path d="M259.936 247.645C258.421 247.646 256.921 247.354 255.521 246.785C254.121 246.216 252.849 245.382 251.778 244.33C250.706 243.279 249.856 242.03 249.276 240.655C248.697 239.281 248.398 237.808 248.398 236.32C248.398 234.832 248.697 233.359 249.276 231.984C249.856 230.61 250.706 229.361 251.778 228.309C252.849 227.257 254.121 226.423 255.521 225.854C256.921 225.286 258.421 224.993 259.936 224.994C261.452 224.992 262.954 225.283 264.355 225.851C265.757 226.419 267.03 227.252 268.103 228.304C269.176 229.356 270.028 230.606 270.608 231.981C271.189 233.356 271.488 234.831 271.488 236.32C271.488 237.809 271.189 239.283 270.608 240.658C270.028 242.034 269.176 243.283 268.103 244.335C267.03 245.387 265.757 246.221 264.355 246.789C262.954 247.357 261.452 247.648 259.936 247.645Z" fill="#006A9C"/>
<path d="M258.176 243.163H260.985V236.28H262.94L263.155 233.97H260.985V232.65C260.985 232.108 261.099 231.891 261.657 231.891H263.182V229.488H261.233C259.143 229.488 258.203 230.392 258.203 232.128V233.976H256.704V236.28H258.162L258.176 243.163Z" fill="white"/>
<path d="M220.597 310.233L127.935 310.2C122.589 310.2 117.461 308.114 113.68 304.401C109.899 300.687 107.775 295.651 107.775 290.4L107.816 62.2512C107.816 59.6477 108.338 57.0698 109.354 54.6649C110.37 52.2601 111.858 50.0756 113.735 48.2365C115.611 46.3974 117.838 44.9397 120.289 43.947C122.739 42.9543 125.365 42.446 128.016 42.4512L220.671 42.504C226.018 42.504 231.146 44.5901 234.927 48.3033C238.707 52.0165 240.831 57.0527 240.831 62.304L240.791 290.4C240.795 293.006 240.276 295.587 239.263 297.995C238.25 300.403 236.762 302.591 234.886 304.434C233.01 306.276 230.782 307.737 228.33 308.732C225.878 309.727 223.251 310.237 220.597 310.233Z" fill="#263238"/>
<path d="M220.571 50.5033H202.601C201.422 50.531 200.302 51.0156 199.485 51.8514C198.668 52.6872 198.22 53.8064 198.24 54.9649V58.1659C198.253 58.7411 198.151 59.3133 197.939 59.8496C197.727 60.386 197.409 60.876 197.004 61.2916C196.599 61.7073 196.115 62.0404 195.578 62.2719C195.042 62.5033 194.464 62.6287 193.879 62.6407H158.861C158.275 62.6278 157.697 62.5017 157.161 62.2695C156.624 62.0373 156.14 61.7036 155.735 61.2874C155.33 60.8713 155.012 60.3808 154.8 59.844C154.588 59.3073 154.486 58.7348 154.5 58.1593V54.9385C154.523 53.7771 154.077 52.6538 153.26 51.8141C152.443 50.9744 151.321 50.4865 150.138 50.4571H143.808H128.09C126.234 50.4527 124.395 50.808 122.679 51.5026C120.963 52.1972 119.403 53.2174 118.09 54.5049C116.776 55.7923 115.733 57.3217 115.022 59.0054C114.31 60.6892 113.944 62.4942 113.944 64.3171L113.897 287.008C113.897 290.684 115.384 294.209 118.031 296.808C120.677 299.407 124.267 300.868 128.009 300.868L220.49 300.92C222.343 300.92 224.178 300.562 225.89 299.865C227.603 299.169 229.158 298.148 230.469 296.861C231.779 295.574 232.819 294.046 233.528 292.364C234.237 290.683 234.602 288.881 234.602 287.06L234.649 64.3633C234.649 60.6931 233.167 57.1727 230.528 54.5744C227.888 51.9761 224.307 50.512 220.571 50.5033Z" fill="white"/>
<path d="M221.921 68.594C221.921 68.6534 219.583 68.7194 216.707 68.7392C213.83 68.759 211.485 68.7392 211.485 68.6798C211.485 68.6204 213.817 68.5478 216.7 68.528C219.583 68.5082 221.921 68.5346 221.921 68.594Z" fill="#263238"/>
<path d="M221.941 71.2139C221.941 71.2733 219.61 71.3393 216.727 71.3657C213.844 71.3921 211.505 71.3657 211.505 71.2997C211.505 71.2337 213.844 71.1743 216.727 71.1479C219.61 71.1215 221.941 71.1545 221.941 71.2139Z" fill="#263238"/>
<path d="M221.968 73.834C221.968 73.8934 219.63 73.966 216.747 73.9858C213.864 74.0056 211.532 73.9858 211.525 73.9198C211.519 73.8538 213.864 73.7944 216.747 73.768C219.63 73.7416 221.968 73.7746 221.968 73.834Z" fill="#263238"/>
<path d="M123.648 76.3953H123.924H124.683L127.492 76.3293L127.411 76.4019C127.411 75.7947 127.411 75.1281 127.378 74.4219C127.378 74.0523 127.378 73.7025 127.378 73.2735C127.422 73.0517 127.537 72.8497 127.706 72.6966C127.875 72.5435 128.09 72.4473 128.318 72.4221C128.775 72.4221 129.172 72.4221 129.662 72.4221C129.919 72.4628 130.153 72.5922 130.322 72.7869C130.491 72.9816 130.583 73.229 130.583 73.4847C130.583 74.4219 130.583 75.3921 130.617 76.4019L130.489 76.2765H134.03L133.896 76.4085C133.896 75.0093 133.896 73.5573 133.856 72.0723C133.856 71.7027 133.856 71.3397 133.856 70.9701C133.84 70.8058 133.788 70.647 133.702 70.5053C133.616 70.3637 133.498 70.2428 133.358 70.1517L131.813 68.6469L130.314 67.2015L129.595 66.5019C129.347 66.2643 129.152 66.0201 128.863 65.9607C128.724 65.9249 128.579 65.9199 128.439 65.9462C128.298 65.9724 128.165 66.0293 128.05 66.1125C127.835 66.2907 127.606 66.5415 127.378 66.7725L126.101 68.0331C125.301 68.8449 124.468 69.5907 123.863 70.2969C123.683 70.713 123.623 71.1694 123.688 71.6169C123.688 72.0459 123.688 72.4551 123.688 72.8379C123.688 73.5903 123.688 74.2503 123.688 74.8179C123.688 75.3855 123.688 75.7353 123.688 76.0785C123.698 76.2301 123.698 76.3822 123.688 76.5339C123.68 76.3954 123.68 76.2566 123.688 76.1181C123.688 75.7815 123.688 75.3657 123.688 74.8707C123.688 74.3757 123.688 73.6365 123.641 72.8907C123.641 72.4947 123.641 72.0789 123.641 71.6367C123.641 71.4123 123.641 71.1879 123.641 70.9767C123.64 70.722 123.707 70.4715 123.836 70.2507C124.508 69.4653 125.274 68.7657 126.081 67.9275L127.344 66.6537C127.572 66.4359 127.754 66.2181 128.016 65.9937C128.161 65.8855 128.328 65.8109 128.506 65.7755C128.684 65.74 128.868 65.7447 129.044 65.7891C129.379 65.9097 129.674 66.1173 129.898 66.3897L130.623 67.0893L132.122 68.5347L133.674 70.0263C133.82 70.1545 133.952 70.2959 134.071 70.4487C134.187 70.6238 134.252 70.827 134.259 71.0361C134.259 71.4057 134.259 71.7753 134.259 72.1449C134.259 73.6299 134.259 75.0819 134.292 76.4811V76.6131H134.158H130.617H130.368V76.4877C130.368 75.4779 130.368 74.5077 130.368 73.5705C130.372 73.3691 130.303 73.1729 130.172 73.0177C130.041 72.8626 129.858 72.7589 129.656 72.7257C129.246 72.7257 128.762 72.7257 128.365 72.7257C128.184 72.7435 128.014 72.8168 127.877 72.9352C127.741 73.0537 127.646 73.2113 127.606 73.3857C127.606 73.7355 127.606 74.1381 127.606 74.4945C127.606 75.2139 127.606 75.8871 127.606 76.4745V76.5537H127.525H124.669H123.924C123.826 76.5104 123.734 76.4573 123.648 76.3953Z" fill="#263238"/>
<path d="M184.8 250.411C184.478 250.461 184.152 250.483 183.826 250.477L181.178 250.53C178.947 250.563 175.856 250.582 172.442 250.582C169.028 250.582 165.937 250.582 163.706 250.53L161.058 250.477C160.732 250.482 160.406 250.46 160.084 250.411C160.406 250.357 160.732 250.335 161.058 250.345L163.706 250.285C165.937 250.285 169.028 250.239 172.442 250.239C175.856 250.239 178.94 250.239 181.178 250.285L183.826 250.345C184.152 250.335 184.478 250.357 184.8 250.411Z" fill="#455A64"/>
<path d="M223.621 256.377C223.621 256.476 209.395 256.548 191.849 256.548C174.303 256.548 160.077 256.476 160.077 256.377C160.077 256.278 174.303 256.205 191.849 256.205C209.395 256.205 223.621 256.284 223.621 256.377Z" fill="#455A64"/>
<path d="M203.764 262.02C203.764 262.119 193.986 262.192 181.924 262.192C169.861 262.192 160.077 262.119 160.077 262.02C160.077 261.921 169.855 261.849 181.924 261.849C193.993 261.849 203.764 261.901 203.764 262.02Z" fill="#455A64"/>
<path d="M224.878 272.93L222.902 270.983L221.021 272.824V267.254H224.871L224.878 272.93ZM222.902 270.739L222.963 270.798L224.703 272.514V267.432H221.202V272.415L222.902 270.739Z" fill="#263238"/>
<path d="M172.308 272.203L171.636 271.9C171.234 272.085 170.777 272.117 170.353 271.989C169.929 271.861 169.57 271.582 169.344 271.207C169.119 270.832 169.044 270.388 169.134 269.961C169.224 269.535 169.473 269.157 169.832 268.901C170.191 268.646 170.634 268.531 171.075 268.579C171.516 268.627 171.922 268.835 172.215 269.162C172.508 269.49 172.666 269.912 172.658 270.348C172.65 270.783 172.477 271.2 172.173 271.517L172.308 272.203ZM170.688 268.494C170.229 268.526 169.799 268.728 169.486 269.06C169.173 269.393 169.002 269.829 169.006 270.282C169.01 270.734 169.19 271.168 169.509 271.494C169.828 271.821 170.262 272.015 170.722 272.038C171.028 272.018 171.326 271.925 171.588 271.768L172.106 271.992L171.985 271.497C172.222 271.243 172.378 270.927 172.434 270.586C172.491 270.246 172.445 269.897 172.302 269.583C172.159 269.268 171.926 269.001 171.631 268.815C171.336 268.628 170.992 268.531 170.641 268.534L170.688 268.494Z" fill="#263238"/>
<path d="M176.783 271.92L175.99 270.006L174.492 268.686H178.12L176.783 271.92ZM174.828 268.798L176.104 269.946L176.776 271.576L177.919 268.771L174.828 268.798Z" fill="#263238"/>
<path d="M178.044 268.643L176.062 269.91L176.135 270.021L178.118 268.754L178.044 268.643Z" fill="#263238"/>
<path d="M166.589 269.055C166.535 268.801 166.392 268.573 166.184 268.412C165.976 268.251 165.717 268.168 165.452 268.176C165.188 268.185 164.935 268.285 164.738 268.459C164.542 268.634 164.414 268.87 164.378 269.128C164.342 268.867 164.212 268.628 164.012 268.453C163.811 268.278 163.554 268.18 163.286 268.175C163.019 268.17 162.758 268.26 162.551 268.427C162.345 268.595 162.206 268.829 162.16 269.088C162.109 269.468 162.207 269.853 162.436 270.164C162.663 270.47 162.929 270.745 163.229 270.983C163.639 271.332 164.008 271.643 164.412 272.012C164.815 271.656 165.151 271.319 165.554 270.963C165.849 270.72 166.111 270.44 166.333 270.131C166.558 269.819 166.65 269.433 166.589 269.055Z" fill="#E34F33"/>
<path d="M228.924 277.86C228.924 277.86 228.924 277.642 228.924 277.239C228.924 276.837 228.924 276.223 228.924 275.431C228.924 273.84 228.924 271.471 228.89 268.461C228.89 262.396 228.856 253.572 228.829 242.504L228.944 242.616L121.484 242.675L121.659 242.504C121.659 254.793 121.659 266.706 121.659 277.86L121.491 277.695L198.388 277.767L220.833 277.814H226.881H228.44H228.977H228.46H226.921H220.933L198.522 277.86L121.511 277.939H121.336V277.86C121.336 266.706 121.336 254.793 121.336 242.504V242.332H121.524L228.984 242.391H229.098V242.504C229.098 253.598 229.051 262.449 229.038 268.534C229.038 271.557 229.038 273.887 229.038 275.477C229.038 276.256 229.038 276.85 229.038 277.259C229.038 277.668 228.924 277.86 228.924 277.86Z" fill="#263238"/>
<path d="M125.934 248.415L125.797 271.792L155.566 271.96L155.703 248.584L125.934 248.415Z" fill="#EBEBEB"/>
<path d="M155.696 248.569H155.124H153.498H147.39L125.886 248.523L126.047 248.371C126.013 255.334 125.973 263.307 125.933 271.741C125.966 271.788 125.604 271.418 125.758 271.57H127.808H129.824H133.856L141.584 271.616L155.521 271.715L155.38 271.86C155.447 264.838 155.508 259.017 155.555 254.925C155.555 252.892 155.602 251.295 155.615 250.179C155.615 249.645 155.615 249.229 155.615 248.925C155.615 248.622 155.615 248.483 155.615 248.483C155.615 248.483 155.615 248.615 155.615 248.892C155.615 249.169 155.615 249.598 155.615 250.126C155.615 251.229 155.615 252.819 155.615 254.839C155.615 258.951 155.615 264.805 155.615 271.86V271.999H155.467L141.53 271.946L133.802 271.906H129.77H127.754H125.704L125.523 271.728C125.583 263.287 125.63 255.314 125.677 248.358V248.199H125.839L147.41 248.391L153.458 248.47H155.051H155.454L155.696 248.569Z" fill="#263238"/>
<path d="M126.954 249.893L126.834 270.326L154.513 270.483L154.633 250.049L126.954 249.893Z" fill="#E0E0E0"/>
<path d="M126.82 270.31L136.564 257.664L142.504 265.643L146.59 261.419L154.5 270.468L126.82 270.31Z" fill="#F5F5F5"/>
<path d="M145.105 256.159C145.104 256.584 144.974 256.999 144.733 257.351C144.491 257.703 144.149 257.977 143.749 258.138C143.349 258.299 142.909 258.339 142.486 258.255C142.062 258.17 141.674 257.964 141.37 257.663C141.065 257.361 140.859 256.978 140.777 256.561C140.695 256.144 140.74 255.713 140.908 255.321C141.075 254.93 141.357 254.596 141.718 254.362C142.079 254.129 142.502 254.005 142.934 254.008C143.221 254.009 143.504 254.065 143.769 254.174C144.033 254.282 144.273 254.441 144.474 254.641C144.676 254.841 144.836 255.078 144.944 255.339C145.052 255.599 145.107 255.878 145.105 256.159Z" fill="#F5F5F5"/>
<path d="M176.124 96.9345C176.018 96.9522 175.909 96.9522 175.802 96.9345L174.895 96.9675L171.535 97.0269C168.706 97.0269 164.815 97.0731 160.474 97.0731C156.132 97.0731 152.242 97.0731 149.412 97.0269L146.052 96.9675L145.139 96.9345C145.034 96.9528 144.927 96.9528 144.823 96.9345C144.926 96.9094 145.032 96.8983 145.139 96.9015H146.052L149.412 96.8487C152.242 96.8157 156.132 96.7959 160.474 96.7959C164.815 96.7959 168.706 96.7959 171.535 96.8487L174.895 96.9015H175.802C175.91 96.8988 176.019 96.9099 176.124 96.9345Z" fill="#263238"/>
<path d="M220.1 226.149L217.17 223.258L214.368 225.997V217.721H220.093L220.1 226.149ZM217.17 222.902L217.258 222.987L219.845 225.535V217.985H214.63V225.39L217.17 222.902Z" fill="#263238"/>
<path d="M145.602 225.278L144.258 224.677C143.476 225.035 142.585 225.092 141.762 224.84C140.938 224.587 140.24 224.041 139.803 223.309C139.367 222.578 139.225 221.713 139.404 220.883C139.583 220.054 140.07 219.32 140.77 218.825C141.471 218.33 142.334 218.109 143.192 218.206C144.049 218.302 144.839 218.71 145.407 219.348C145.975 219.987 146.28 220.81 146.263 221.658C146.245 222.505 145.907 223.316 145.313 223.931L145.602 225.278ZM142.397 217.985C141.931 217.989 141.47 218.083 141.041 218.261C140.612 218.44 140.223 218.7 139.897 219.026C139.57 219.353 139.312 219.739 139.137 220.163C138.963 220.588 138.875 221.042 138.879 221.499C138.883 221.957 138.979 222.409 139.161 222.83C139.343 223.252 139.607 223.634 139.939 223.955C140.272 224.275 140.665 224.529 141.097 224.7C141.529 224.872 141.991 224.958 142.457 224.954C143.062 224.918 143.648 224.737 144.164 224.426L144.225 224.393L145.233 224.835L145.004 223.859L145.051 223.812C145.518 223.312 145.826 222.689 145.936 222.019C146.047 221.349 145.955 220.662 145.673 220.042C145.391 219.423 144.93 218.898 144.348 218.532C143.766 218.167 143.088 217.976 142.397 217.985Z" fill="#263238"/>
<path d="M154.419 224.704L152.846 220.935L149.903 218.295L157.053 218.242L154.419 224.704ZM150.568 218.546L153.082 220.81L154.426 224.017L156.67 218.5L150.568 218.546Z" fill="#263238"/>
<path d="M156.911 218.231L153.013 220.722L153.156 220.937L157.054 218.447L156.911 218.231Z" fill="#263238"/>
<path d="M134.353 219.12C134.251 218.615 133.97 218.162 133.56 217.841C133.15 217.52 132.636 217.354 132.112 217.37C131.588 217.387 131.087 217.586 130.699 217.932C130.31 218.278 130.06 218.748 129.992 219.259C129.915 218.75 129.656 218.285 129.263 217.946C128.869 217.607 128.366 217.416 127.842 217.407C127.319 217.399 126.809 217.573 126.404 217.899C125.999 218.224 125.725 218.681 125.63 219.186C125.529 219.933 125.724 220.689 126.175 221.298C126.626 221.9 127.152 222.443 127.74 222.915C128.54 223.575 129.273 224.235 130.072 224.941C130.852 224.242 131.524 223.582 132.31 222.876C132.891 222.396 133.408 221.846 133.849 221.239C134.286 220.622 134.467 219.864 134.353 219.12Z" fill="#E34F33"/>
<path d="M133.701 101.699C136.381 101.699 138.553 99.5659 138.553 96.9341C138.553 94.3024 136.381 92.1689 133.701 92.1689C131.022 92.1689 128.849 94.3024 128.849 96.9341C128.849 99.5659 131.022 101.699 133.701 101.699Z" fill="#EBEBEB"/>
<path d="M218.272 198.825C218.272 198.924 197.938 199.003 172.859 199.003C147.78 199.003 127.438 198.924 127.438 198.825C127.438 198.726 147.773 198.653 172.859 198.653C197.944 198.653 218.272 198.733 218.272 198.825Z" fill="#455A64"/>
<path d="M218.272 191.4C218.272 191.493 197.938 191.572 172.859 191.572C147.78 191.572 127.438 191.493 127.438 191.4C127.438 191.308 147.773 191.229 172.859 191.229C197.944 191.229 218.272 191.308 218.272 191.4Z" fill="#455A64"/>
<path d="M176.877 206.355C176.877 206.448 165.809 206.527 152.161 206.527C138.513 206.527 127.438 206.448 127.438 206.355C127.438 206.263 138.506 206.184 152.161 206.184C165.816 206.184 176.877 206.263 176.877 206.355Z" fill="#455A64"/>
<path d="M170.782 287.291C170.775 287.666 170.656 288.031 170.439 288.34C170.221 288.648 169.916 288.886 169.561 289.025C169.206 289.163 168.818 289.195 168.444 289.117C168.07 289.039 167.729 288.854 167.462 288.586C167.195 288.318 167.015 287.978 166.945 287.609C166.874 287.24 166.917 286.859 167.066 286.514C167.216 286.169 167.466 285.875 167.785 285.669C168.104 285.463 168.478 285.355 168.86 285.357C169.116 285.36 169.368 285.412 169.603 285.511C169.838 285.61 170.051 285.753 170.23 285.932C170.409 286.112 170.549 286.325 170.644 286.558C170.739 286.791 170.786 287.04 170.782 287.291Z" fill="#263238"/>
<path d="M176.736 287.318C176.728 287.691 176.608 288.053 176.391 288.36C176.174 288.666 175.87 288.903 175.516 289.04C175.163 289.177 174.776 289.208 174.405 289.13C174.033 289.052 173.693 288.868 173.428 288.601C173.162 288.334 172.983 287.996 172.913 287.629C172.842 287.262 172.884 286.883 173.032 286.54C173.18 286.196 173.428 285.903 173.745 285.697C174.062 285.492 174.434 285.383 174.814 285.384C175.07 285.386 175.323 285.437 175.558 285.535C175.794 285.634 176.007 285.777 176.186 285.957C176.365 286.137 176.505 286.35 176.6 286.583C176.694 286.817 176.74 287.066 176.736 287.318Z" fill="#263238"/>
<path d="M182.737 287.344C182.729 287.717 182.609 288.08 182.392 288.386C182.175 288.692 181.871 288.929 181.517 289.066C181.164 289.203 180.777 289.235 180.405 289.157C180.034 289.079 179.694 288.895 179.429 288.627C179.163 288.36 178.984 288.022 178.914 287.656C178.843 287.289 178.885 286.91 179.033 286.566C179.181 286.222 179.429 285.929 179.746 285.724C180.063 285.518 180.435 285.409 180.815 285.41C181.071 285.413 181.323 285.465 181.558 285.564C181.793 285.662 182.006 285.805 182.185 285.985C182.363 286.165 182.504 286.377 182.599 286.61C182.694 286.844 182.741 287.093 182.737 287.344Z" fill="#263238"/>
<path d="M229.569 106.359H122.096V170.907H229.569V106.359Z" fill="#E0E0E0"/>
<path d="M132.021 170.927L162.812 130.442L181.91 155.76L194.846 142.217L220.228 170.9L132.021 170.927Z" fill="#F5F5F5"/>
<path d="M190.001 125.473C190.003 126.823 189.596 128.143 188.834 129.266C188.071 130.389 186.986 131.265 185.717 131.783C184.447 132.3 183.05 132.436 181.701 132.174C180.353 131.911 179.114 131.262 178.142 130.308C177.169 129.353 176.507 128.137 176.238 126.813C175.97 125.489 176.107 124.117 176.633 122.87C177.158 121.622 178.049 120.556 179.192 119.806C180.335 119.056 181.678 118.655 183.053 118.655C184.894 118.655 186.661 119.373 187.964 120.652C189.267 121.93 189.999 123.664 190.001 125.473Z" fill="#F5F5F5"/>
<path d="M229.28 230.901C229.28 229.522 229.212 171.211 229.118 84.883L229.28 85.0414H121.82L121.995 84.8698C121.995 139.478 121.995 190.014 121.995 230.888L121.847 230.75L229.32 230.888L121.847 231.033H121.706V230.888C121.706 190.014 121.706 139.478 121.672 84.8698V84.6982H121.86H229.32H229.481V84.85C229.448 128.06 229.421 164.578 229.401 190.305C229.401 203.148 229.367 213.293 229.36 220.236C229.36 223.694 229.36 226.354 229.36 228.156C229.36 229.047 229.36 229.727 229.36 230.189C229.36 230.651 229.28 230.901 229.28 230.901Z" fill="#263238"/>
<path d="M178.752 249.018L181.131 241.171C181.548 239.468 182.099 237.462 182.838 235.172C183.51 233.112 185.217 230.948 186.776 229.39C189.202 226.968 190.357 226.955 191.984 225.668C192.132 225.575 192.3 225.437 192.441 225.364C192.748 225.2 193.018 224.975 193.234 224.704C194.638 223.212 193.287 220.896 190.431 221.12C188.288 221.285 184.78 221.886 179.081 227.661C179.007 227.753 178.933 227.826 178.866 227.912C175.876 231.733 173.067 220.83 172.556 216.771C172.457 216.142 172.215 215.543 171.848 215.018C171.482 214.493 170.999 214.056 170.437 213.739C169.875 213.422 169.248 213.234 168.601 213.187C167.955 213.141 167.306 213.238 166.703 213.471L152.82 219.846C151.495 219.469 150.083 219.515 148.788 219.978C147.816 220.313 147.006 220.992 146.517 221.881C146.027 222.771 145.893 223.808 146.14 224.79L151.778 246.84L135.24 300.894H170.89L178.752 249.018Z" fill="#FFBE9D"/>
<path d="M206.17 199.373L195.149 220.585L189.638 219.08L161.952 241.21C160.822 242.118 159.376 242.557 157.921 242.434C156.467 242.311 155.118 241.635 154.164 240.55L143.613 228.518C143.613 228.518 164.882 219.523 168.813 212.078C172.744 204.633 168.202 202.937 168.202 202.937L178.208 191.77L206.17 199.373Z" fill="#E34F33"/>
<path d="M191.876 156.051C191.876 156.051 175.748 152.546 153.041 131.109C130.334 109.672 119.676 81.1801 116.928 81.3385C114.18 81.4969 102.016 75.9463 78.9398 125.242C55.8634 174.537 64.9555 185.962 69.5318 185.896C74.1082 185.83 105.296 177.27 124.77 179.441C144.245 181.612 169.277 191.585 169.277 191.585L191.876 156.051Z" fill="#E34F33"/>
<path d="M226.141 182.919L220.638 193.195L218.172 197.815C216.544 200.856 213.79 203.168 210.477 204.273C207.165 205.378 203.547 205.193 200.37 203.755L165.796 191.921L185.956 146.777L220.497 164.855C223.674 166.525 226.051 169.361 227.108 172.745C228.166 176.129 227.818 179.786 226.141 182.919Z" fill="#E34F33"/>
<g opacity="0.4">
<path d="M226.141 182.919L220.638 193.195L218.172 197.815C216.544 200.856 213.79 203.168 210.477 204.273C207.165 205.378 203.547 205.193 200.37 203.755L165.796 191.921L185.956 146.777L220.497 164.855C223.674 166.525 226.051 169.361 227.108 172.745C228.166 176.129 227.818 179.786 226.141 182.919Z" fill="black"/>
</g>
<path d="M80.7811 126.139C68.5037 152.843 63.3898 176.643 69.3571 179.289C75.3245 181.936 90.1286 162.439 102.406 135.729C114.684 109.019 119.797 85.2326 113.83 82.5794C107.863 79.9262 93.0586 99.4358 80.7811 126.139Z" fill="#E34F33"/>
<g opacity="0.5">
<path d="M80.7811 126.139C68.5037 152.843 63.3898 176.643 69.3571 179.289C75.3245 181.936 90.1286 162.439 102.406 135.729C114.684 109.019 119.797 85.2326 113.83 82.5794C107.863 79.9262 93.0586 99.4358 80.7811 126.139Z" fill="black"/>
</g>
<path d="M229.112 197.769L219.737 194.879L225.537 184.055L232.566 188.345L229.112 197.769Z" fill="#E34F33"/>
<g opacity="0.6">
<path d="M225.537 184.055L219.737 194.879L221.666 195.473L226.377 184.563L225.537 184.055Z" fill="black"/>
</g>
<path d="M219.072 186.549C218.938 186.846 214.26 185.064 208.629 182.589C202.998 180.114 198.549 177.818 198.677 177.521C198.804 177.224 203.488 179.012 209.126 181.514C214.764 184.015 219.213 186.252 219.072 186.549Z" fill="#E34F33"/>
<path d="M221.962 180.101C221.814 180.391 217.58 178.642 212.507 176.187C207.433 173.732 203.441 171.507 203.589 171.21C203.737 170.913 207.964 172.669 213.037 175.124C218.111 177.579 222.109 179.804 221.962 180.101Z" fill="#E34F33"/>
<path d="M215.443 193.314C215.396 193.473 214.281 193.222 212.507 192.654C211.62 192.384 210.564 192.041 209.402 191.651C208.239 191.262 207.05 190.641 205.766 190.067C200.639 187.731 196.721 185.447 196.849 185.17C196.977 184.893 201.19 186.681 206.257 188.998C207.534 189.566 208.716 190.186 209.832 190.641C210.948 191.097 211.949 191.499 212.789 191.869C214.469 192.628 215.49 193.156 215.443 193.314Z" fill="#E34F33"/>
<path d="M105.813 120.206C105.813 120.206 91.7952 111.665 84.1277 130.271C76.4602 148.876 91.2038 151.932 91.2038 151.932C97.5707 142.085 102.489 131.404 105.813 120.206Z" fill="#E34F33"/>
<g opacity="0.5">
<path d="M120.725 98.0303C120.812 98.0303 120.611 99.3107 120.18 101.588C119.75 103.865 119.105 107.158 118.205 111.21L116.256 117.725C115.902 118.891 115.537 120.098 115.161 121.348L114.589 123.242C114.381 123.902 114.106 124.503 113.864 125.143L110.699 133.169C110.423 133.868 110.141 134.568 109.865 135.274C109.59 135.98 109.193 136.653 108.877 137.353L106.794 141.577L104.704 145.794C104.348 146.454 104.032 147.194 103.649 147.84C103.266 148.487 102.863 149.16 102.48 149.787L98.0112 157.199C97.6483 157.78 97.3392 158.381 96.936 158.935L95.7734 160.552L93.5424 163.641L89.5104 169.165C86.8224 172.353 84.5779 174.867 83.0323 176.616C82.2732 177.564 81.4347 178.447 80.5258 179.256C81.1575 178.226 81.8769 177.25 82.6762 176.339C84.168 174.471 86.2714 171.858 88.8518 168.644L92.7158 163.08L94.8797 159.984C95.256 159.456 95.6323 158.915 96.0154 158.367C96.3984 157.82 96.6874 157.219 97.057 156.632L101.472 149.226L102.621 147.286C103.018 146.626 103.293 145.966 103.663 145.253L105.732 141.062C106.404 139.643 107.124 138.251 107.809 136.871C108.132 136.211 108.521 135.512 108.79 134.812L109.63 132.726L112.842 124.806C113.091 124.146 113.373 123.559 113.588 122.925C113.803 122.292 113.985 121.671 114.18 121.051L115.322 117.467L117.385 111.032L119.717 101.528C119.951 100.336 120.288 99.1659 120.725 98.0303Z" fill="black"/>
</g>
<g opacity="0.4">
<path d="M146.96 227.04C148.243 229.324 149.547 231.66 151.435 233.462C153.324 235.264 155.904 236.544 158.592 236.28C161.28 236.016 163.733 233.865 163.76 231.264C165.023 232.195 166.965 231.693 168.013 230.525C169.062 229.357 169.404 227.74 169.525 226.189C171.246 227.185 173.638 226.4 174.787 224.796C175.315 223.961 175.649 223.021 175.765 222.045C175.881 221.069 175.777 220.079 175.459 219.147C174.804 217.291 173.874 215.541 172.697 213.952C174.041 214.058 175.426 214.15 176.608 213.563C177.791 212.976 178.624 211.431 177.905 210.322C177.433 209.703 176.747 209.274 175.977 209.115C173.9 208.455 172.449 207.966 170.285 208.21C169.788 208.21 171.152 213.807 157.597 221.45C149.554 225.971 146.96 227.04 146.96 227.04Z" fill="black"/>
</g>
<path d="M177.482 235.092C177.482 235.151 176.575 234.98 175.11 235.019C173.206 235.064 171.334 235.505 169.617 236.314C167.9 237.123 166.378 238.281 165.151 239.712C164.203 240.807 163.807 241.606 163.719 241.573C163.775 241.367 163.864 241.171 163.981 240.992C164.269 240.489 164.595 240.008 164.956 239.553C166.164 238.048 167.707 236.834 169.468 236.006C171.228 235.177 173.158 234.756 175.11 234.775C175.696 234.779 176.28 234.832 176.857 234.933C177.073 234.95 177.285 235.003 177.482 235.092Z" fill="#EB996E"/>
<path d="M147.84 223.47C150.024 225.529 151.516 227.806 153.807 229.878C154.849 230.822 156.495 232.604 157.839 232.842C159.183 233.079 160.124 232.901 160.675 231.621C161.125 230.584 160.319 229.165 159.768 228.321C158.31 226.07 156.912 224.314 155.823 222.565C155.306 221.747 155.971 221.575 156.213 221.958C157.261 223.027 158.834 223.938 159.775 225.12C161.065 226.71 161.293 228.829 164.667 228.156C165.118 228.084 165.546 227.91 165.917 227.647C167.187 226.69 167.261 225.007 166.71 223.687C166.234 222.669 165.599 221.729 164.828 220.902C166.266 222.493 167.832 224.202 170.117 224.347C170.762 224.424 171.416 224.302 171.988 223.998C172.56 223.695 173.021 223.224 173.309 222.651C173.981 221.146 173.02 219.688 172.045 218.513C170.321 216.424 168.402 214.497 166.313 212.758C165.533 212.114 164.55 211.757 163.531 211.748C162.348 211.748 160.843 211.959 160.171 212.962C159.787 213.446 159.508 214.002 159.349 214.595C159.191 215.189 159.158 215.808 159.251 216.414C159.251 216.414 156.294 214.942 153.915 216.48C152.451 217.49 151.398 218.978 150.945 220.678L147.84 223.47Z" fill="#FFBE9D"/>
<path d="M163.598 211.115C163.126 210.575 162.832 209.907 162.758 209.199C162.683 208.491 162.831 207.777 163.182 207.155C163.686 206.184 164.317 205.241 164.963 205.029C167.778 204.099 180.089 206.191 179.975 208.871C179.861 211.55 178.96 212.831 172.287 211.887C171.111 211.722 169.27 211.497 169.27 211.497L167.657 213.873L163.598 211.115Z" fill="#FFBE9D"/>
<path d="M165.803 222.348C164.187 219.731 161.831 217.633 159.022 216.309C159.48 216.381 159.922 216.533 160.326 216.757C162.349 217.718 164.047 219.23 165.218 221.113C165.489 221.486 165.687 221.904 165.803 222.348Z" fill="#EB996E"/>
<path d="M167.872 214.104C167.812 214.156 166.999 213.51 165.89 212.843C165.426 212.555 164.946 212.292 164.452 212.058C164.069 211.886 163.813 211.84 163.82 211.787C163.827 211.734 164.109 211.708 164.532 211.833C165.078 212.005 165.597 212.247 166.078 212.553C167.214 213.232 167.96 214.031 167.872 214.104Z" fill="#EB996E"/>
<path d="M169.942 211.609C169.141 211.701 168.33 211.611 167.57 211.345C167.014 211.178 166.498 210.905 166.051 210.54C165.715 210.256 165.574 210.025 165.608 209.992C166.254 210.403 166.946 210.739 167.671 210.995C168.441 211.15 169.2 211.355 169.942 211.609Z" fill="#EB996E"/>
<path d="M157.98 225.667C157.556 225.23 157.18 224.75 156.858 224.235C156.091 223.016 155.121 221.932 153.989 221.028C152.815 220.184 151.361 219.807 149.916 219.972C149.324 220.076 148.748 220.255 148.203 220.506C148.203 220.506 148.324 220.368 148.599 220.203C148.992 219.969 149.425 219.808 149.876 219.727C150.628 219.608 151.397 219.637 152.138 219.813C152.879 219.988 153.576 220.307 154.19 220.75C155.36 221.673 156.336 222.81 157.067 224.097C157.416 224.594 157.721 225.119 157.98 225.667Z" fill="#EB996E"/>
<path d="M167.395 252.397C165.738 252.744 164.058 252.98 162.369 253.104C160.688 253.343 158.993 253.466 157.295 253.473C158.955 253.127 160.636 252.891 162.328 252.767C164.007 252.532 165.7 252.408 167.395 252.397Z" fill="#EB996E"/>
<path d="M273.255 32.8945L274.015 34.2607L275.399 35.0065L274.015 35.7523L273.255 37.1119L272.496 35.7523L271.112 35.0065L272.496 34.2607L273.255 32.8945Z" fill="#E34F33"/>
<path d="M289.121 66.667L289.881 68.0332L291.265 68.779L289.881 69.5248L289.121 70.8844L288.362 69.5248L286.971 68.779L288.362 68.0332L289.121 66.667Z" fill="#E34F33"/>
<path d="M34.8768 156.77L35.6362 158.136L37.0272 158.882L35.6362 159.621L34.8768 160.987L34.1174 159.621L32.7331 158.882L34.1174 158.136L34.8768 156.77Z" fill="#E34F33"/>
<path d="M252.444 41.29L254.197 44.4382L257.403 46.1608L254.197 47.8768L252.444 51.025L250.696 47.8768L247.491 46.1608L250.696 44.4382L252.444 41.29Z" fill="#E34F33"/>
<path d="M49.0963 135.366L50.8435 138.501L54.0422 140.217L50.8435 141.94L49.0963 145.075L47.3491 141.94L44.1504 140.217L47.3491 138.501L49.0963 135.366Z" fill="#E34F33"/>
<path d="M293.436 210.25L295.183 213.392L298.375 215.108L295.183 216.824L293.436 219.965L291.688 216.824L288.49 215.108L291.688 213.392L293.436 210.25Z" fill="#E34F33"/>
</svg>
