<svg width="28" height="28" viewBox="0 0 28 28" fill="none" xmlns="http://www.w3.org/2000/svg">
<path opacity="0.4" d="M25.8762 15.9368C25.7012 14.0118 25.1879 11.9585 21.4429 11.9585H6.5562C2.8112 11.9585 2.30953 14.0118 2.12287 15.9368L1.46953 23.0418C1.38787 23.9285 1.67953 24.8152 2.2862 25.4802C2.90453 26.1568 3.77953 26.5418 4.71287 26.5418H6.9062C8.7962 26.5418 9.15787 25.4568 9.3912 24.7452L9.62453 24.0452C9.89287 23.2402 9.96287 23.0418 11.0129 23.0418H16.9862C18.0362 23.0418 18.0712 23.1585 18.3745 24.0452L18.6079 24.7452C18.8412 25.4568 19.2029 26.5418 21.0929 26.5418H23.2862C24.2079 26.5418 25.0945 26.1568 25.7129 25.4802C26.3195 24.8152 26.6112 23.9285 26.5295 23.0418L25.8762 15.9368Z" fill="#EE5A45"/>
<path d="M24.5 8.45842H23.3333C23.3217 8.45842 23.3217 8.45842 23.31 8.45842L22.8667 6.34676C22.4467 4.30509 21.5717 2.42676 18.095 2.42676H14.875H13.125H9.905C6.42833 2.42676 5.55333 4.30509 5.13333 6.34676L4.69 8.45842C4.67833 8.45842 4.67833 8.45842 4.66667 8.45842H3.5C3.02167 8.45842 2.625 8.85509 2.625 9.33342C2.625 9.81176 3.02167 10.2084 3.5 10.2084H4.32833L3.83833 12.5418C4.46833 12.1801 5.34333 11.9584 6.55667 11.9584H21.4433C22.6567 11.9584 23.5317 12.1801 24.1617 12.5418L23.6717 10.2084H24.5C24.9783 10.2084 25.375 9.81176 25.375 9.33342C25.375 8.85509 24.9783 8.45842 24.5 8.45842Z" fill="#EE5A45"/>
<path d="M10.5 18.375H7C6.52167 18.375 6.125 17.9783 6.125 17.5C6.125 17.0217 6.52167 16.625 7 16.625H10.5C10.9783 16.625 11.375 17.0217 11.375 17.5C11.375 17.9783 10.9783 18.375 10.5 18.375Z" fill="#EE5A45"/>
<path d="M21 18.375H17.5C17.0217 18.375 16.625 17.9783 16.625 17.5C16.625 17.0217 17.0217 16.625 17.5 16.625H21C21.4783 16.625 21.875 17.0217 21.875 17.5C21.875 17.9783 21.4783 18.375 21 18.375Z" fill="#EE5A45"/>
</svg>
