<svg width="24" height="22" viewBox="0 0 24 22" fill="none" xmlns="http://www.w3.org/2000/svg">
<path d="M16.8484 1.8335H7.42279C4.82132 1.8335 2.70998 3.87766 2.70998 6.3985V11.8802V12.7968C2.70998 15.3177 4.82132 17.3618 7.42279 17.3618H8.83663C9.09112 17.3618 9.43045 17.5268 9.59068 17.7285L11.0045 19.5527C11.6266 20.3593 12.6446 20.3593 13.2667 19.5527L14.6805 17.7285C14.8596 17.4993 15.1424 17.3618 15.4346 17.3618H16.8484C19.4499 17.3618 21.5612 15.3177 21.5612 12.7968V6.3985C21.5612 3.87766 19.4499 1.8335 16.8484 1.8335ZM13.0782 12.6043H7.42279C7.03634 12.6043 6.71587 12.2927 6.71587 11.9168C6.71587 11.541 7.03634 11.2293 7.42279 11.2293H13.0782C13.4646 11.2293 13.7851 11.541 13.7851 11.9168C13.7851 12.2927 13.4646 12.6043 13.0782 12.6043ZM16.8484 8.021H7.42279C7.03634 8.021 6.71587 7.70933 6.71587 7.3335C6.71587 6.95766 7.03634 6.646 7.42279 6.646H16.8484C17.2349 6.646 17.5553 6.95766 17.5553 7.3335C17.5553 7.70933 17.2349 8.021 16.8484 8.021Z" fill="#EE5A45"/>
</svg>
