<svg width="30" height="30" viewBox="0 0 30 30" fill="none" xmlns="http://www.w3.org/2000/svg">
<path fill-rule="evenodd" clip-rule="evenodd" d="M0.489133 8.56861C-0.299128 10.2128 -0.0224216 12.1359 0.530992 15.9821L0.937578 18.8076C1.64847 23.7483 2.00392 26.2186 3.71776 27.6943C5.43158 29.17 7.94498 29.17 12.9717 29.17H16.1982C21.225 29.17 23.7384 29.17 25.4523 27.6943C27.166 26.2186 27.5215 23.7483 28.2325 18.8076L28.639 15.9821C29.1925 12.1359 29.4691 10.2128 28.6808 8.56861C27.8926 6.92437 26.2148 5.92492 22.8592 3.92601L20.8393 2.72283C17.7922 0.90761 16.2685 0 14.585 0C12.9014 0 11.3778 0.90761 8.33058 2.72283L6.31079 3.92601C2.95519 5.92492 1.27739 6.92437 0.489133 8.56861ZM9.11577 23.3357C9.11577 22.7316 9.60552 22.2418 10.2096 22.2418H18.9606C19.5648 22.2418 20.0545 22.7316 20.0545 23.3357C20.0545 23.9398 19.5648 24.4296 18.9606 24.4296H10.2096C9.60552 24.4296 9.11577 23.9398 9.11577 23.3357Z" fill="#00674F"/>
</svg>
