<svg width="23" height="22" viewBox="0 0 23 22" fill="none" xmlns="http://www.w3.org/2000/svg">
<path d="M13.9292 14.2519L13.4998 14.6914C13.4998 14.6914 12.4794 15.7363 9.69414 12.8844C6.90889 10.0326 7.92929 8.98782 7.92929 8.98782L8.19963 8.71102C8.8656 8.02914 8.92839 6.93439 8.34735 6.13518L7.1588 4.50031C6.43965 3.51113 5.05001 3.38046 4.22573 4.22442L2.74629 5.73922C2.33757 6.15769 2.06368 6.70017 2.0969 7.30195C2.18187 8.84151 2.85832 12.1539 6.63295 16.0188C10.6358 20.1172 14.3916 20.2801 15.9275 20.1327C16.4133 20.086 16.8357 19.8313 17.1762 19.4827L18.5152 18.1117C19.419 17.1863 19.1641 15.5999 18.0077 14.9525L16.207 13.9444C15.4476 13.5194 14.5226 13.6442 13.9292 14.2519Z" fill="#EE5A45"/>
</svg>
