<svg width="35" height="35" viewBox="0 0 35 35" fill="none" xmlns="http://www.w3.org/2000/svg">
<path d="M17.5 2.91675C13.6792 2.91675 10.5729 6.023 10.5729 9.84383C10.5729 13.5917 13.5042 16.6251 17.325 16.7563C17.4417 16.7417 17.5583 16.7417 17.6458 16.7563C17.675 16.7563 17.6896 16.7563 17.7188 16.7563C17.7333 16.7563 17.7333 16.7563 17.7479 16.7563C21.4813 16.6251 24.4125 13.5917 24.4271 9.84383C24.4271 6.023 21.3208 2.91675 17.5 2.91675Z" fill="#898D98"/>
<path d="M24.9097 20.6508C20.8409 17.9383 14.2055 17.9383 10.1076 20.6508C8.25554 21.8758 7.23471 23.5529 7.23471 25.3467C7.23471 27.1404 8.25554 28.8029 10.093 30.0279C12.1347 31.3987 14.818 32.0842 17.5013 32.0842C20.1847 32.0842 22.868 31.3987 24.9097 30.0279C26.7472 28.7883 27.768 27.1258 27.768 25.3175C27.7534 23.5383 26.7472 21.8612 24.9097 20.6508ZM20.1701 26.3529H14.8472C14.293 26.3529 13.841 25.9008 13.841 25.3467C13.841 24.7925 14.293 24.3404 14.8472 24.3404H20.1701C20.7242 24.3404 21.1763 24.7925 21.1763 25.3467C21.1763 25.9008 20.7242 26.3529 20.1701 26.3529Z" fill="#898D98"/>
</svg>
