<svg width="29" height="29" viewBox="0 0 29 29" fill="none" xmlns="http://www.w3.org/2000/svg">
<path d="M13.0137 22.1126C11.2142 22.1126 9.45502 21.579 7.95874 20.5792C6.46246 19.5794 5.29625 18.1583 4.60759 16.4957C3.91892 14.8332 3.73873 13.0037 4.08981 11.2387C4.4409 9.47374 5.30746 7.85249 6.57995 6.58001C7.85243 5.30752 9.47368 4.44096 11.2387 4.08988C13.0036 3.73879 14.8331 3.91898 16.4957 4.60765C18.1582 5.29631 19.5793 6.46252 20.5791 7.9588C21.5789 9.45508 22.1125 11.2142 22.1125 13.0138C22.1125 14.2086 21.8771 15.3918 21.4199 16.4957C20.9626 17.5997 20.2924 18.6027 19.4475 19.4476C18.6026 20.2924 17.5996 20.9627 16.4957 21.4199C15.3917 21.8772 14.2085 22.1126 13.0137 22.1126ZM13.0137 5.73962C11.5798 5.73962 10.1781 6.16484 8.98585 6.96148C7.7936 7.75811 6.86434 8.89041 6.31561 10.2152C5.76687 11.5399 5.6233 12.9976 5.90304 14.404C6.18278 15.8104 6.87328 17.1022 7.88721 18.1161C8.90114 19.13 10.193 19.8206 11.5993 20.1003C13.0056 20.38 14.4634 20.2365 15.7882 19.6878C17.1129 19.139 18.2452 18.2098 19.0419 17.0175C19.8385 15.8252 20.2637 14.4236 20.2637 12.9896C20.2637 11.0668 19.5 9.22274 18.1402 7.8631C16.7806 6.50346 14.9366 5.73962 13.0137 5.73962Z" fill="black"/>
<path d="M23.1672 24.7922C23.0654 24.7926 22.9644 24.7727 22.8703 24.7337C22.7762 24.6947 22.6909 24.6372 22.6193 24.5648L18.3499 20.2959C18.2129 20.1489 18.1384 19.9545 18.1419 19.7537C18.1454 19.5528 18.2269 19.3613 18.3689 19.2192C18.511 19.0772 18.7026 18.9958 18.9035 18.9923C19.1043 18.9888 19.2987 19.0633 19.4457 19.2003L23.7151 23.4691C23.8602 23.6145 23.9418 23.8115 23.9418 24.017C23.9418 24.2223 23.8602 24.4194 23.7151 24.5648C23.6436 24.6372 23.5582 24.6947 23.4641 24.7337C23.37 24.7727 23.269 24.7926 23.1672 24.7922Z" fill="black"/>
</svg>
