<svg width="25" height="24" viewBox="0 0 25 24" fill="none" xmlns="http://www.w3.org/2000/svg">
<path d="M2 22.5V2H23V22.5" stroke="#1A2125" stroke-width="3" stroke-linecap="round"/>
<path d="M9.63991 16H7.3331L10.848 5.81818H13.6222L17.1321 16H14.8253L12.2749 8.14489H12.1953L9.63991 16ZM9.49574 11.9979H14.9446V13.6783H9.49574V11.9979Z" fill="#1A2125"/>
<path d="M6.58585 19.1866C6.5759 19.0864 6.53323 19.0085 6.45783 18.9529C6.38242 18.8974 6.28009 18.8697 6.15083 18.8697C6.063 18.8697 5.98884 18.8821 5.92835 18.907C5.86786 18.931 5.82146 18.9645 5.78915 19.0076C5.75766 19.0507 5.74192 19.0996 5.74192 19.1543C5.74026 19.1999 5.74979 19.2396 5.7705 19.2736C5.79205 19.3076 5.82146 19.337 5.85875 19.3619C5.89604 19.3859 5.93912 19.407 5.98801 19.4252C6.0369 19.4426 6.0891 19.4576 6.14462 19.47L6.37331 19.5247C6.48434 19.5495 6.58626 19.5827 6.67906 19.6241C6.77187 19.6655 6.85224 19.7165 6.92018 19.777C6.98813 19.8375 7.04075 19.9087 7.07803 19.9908C7.11615 20.0728 7.13562 20.1668 7.13645 20.2729C7.13562 20.4287 7.09585 20.5637 7.01713 20.6781C6.93924 20.7916 6.82655 20.8799 6.67906 20.9428C6.5324 21.005 6.35549 21.036 6.14835 21.036C5.94285 21.036 5.76388 21.0046 5.61141 20.9416C5.45978 20.8786 5.34129 20.7854 5.25594 20.6619C5.17143 20.5376 5.1271 20.3839 5.12295 20.2008H5.64373C5.64953 20.2862 5.67397 20.3574 5.71706 20.4146C5.76098 20.4709 5.81939 20.5136 5.89231 20.5426C5.96605 20.5708 6.04933 20.5849 6.14213 20.5849C6.23328 20.5849 6.31241 20.5716 6.37952 20.5451C6.44747 20.5186 6.50009 20.4817 6.53737 20.4345C6.57466 20.3873 6.5933 20.333 6.5933 20.2717C6.5933 20.2145 6.57632 20.1664 6.54234 20.1275C6.5092 20.0885 6.46031 20.0554 6.39568 20.0281C6.33188 20.0007 6.25358 19.9759 6.16077 19.9535L5.88361 19.8839C5.669 19.8317 5.49955 19.7501 5.37526 19.639C5.25097 19.528 5.18924 19.3784 5.19007 19.1903C5.18924 19.0362 5.23026 18.9016 5.31312 18.7864C5.39681 18.6712 5.51157 18.5813 5.6574 18.5167C5.80323 18.4521 5.96895 18.4197 6.15456 18.4197C6.34348 18.4197 6.50837 18.4521 6.64923 18.5167C6.79092 18.5813 6.90113 18.6712 6.97984 18.7864C7.05856 18.9016 7.09916 19.035 7.10165 19.1866H6.58585ZM8.30344 21V18.4545H9.3077C9.50077 18.4545 9.66524 18.4914 9.80113 18.5652C9.93702 18.6381 10.0406 18.7396 10.1119 18.8697C10.1839 18.9989 10.22 19.1481 10.22 19.3171C10.22 19.4862 10.1835 19.6353 10.1106 19.7646C10.0377 19.8938 9.93205 19.9945 9.79368 20.0666C9.65613 20.1387 9.48958 20.1747 9.29403 20.1747H8.65394V19.7434H9.20703C9.3106 19.7434 9.39595 19.7256 9.46307 19.69C9.53101 19.6535 9.58156 19.6034 9.6147 19.5396C9.64867 19.475 9.66566 19.4008 9.66566 19.3171C9.66566 19.2326 9.64867 19.1589 9.6147 19.0959C9.58156 19.0321 9.53101 18.9828 9.46307 18.948C9.39512 18.9123 9.30895 18.8945 9.20454 18.8945H8.84162V21H8.30344ZM13.7137 19.7273C13.7137 20.0049 13.6611 20.241 13.5558 20.4357C13.4514 20.6304 13.3089 20.7792 13.1283 20.8819C12.9485 20.9838 12.7463 21.0348 12.5218 21.0348C12.2955 21.0348 12.0925 20.9834 11.9127 20.8807C11.7329 20.7779 11.5908 20.6292 11.4864 20.4345C11.382 20.2398 11.3298 20.004 11.3298 19.7273C11.3298 19.4497 11.382 19.2135 11.4864 19.0188C11.5908 18.8241 11.7329 18.6758 11.9127 18.5739C12.0925 18.4711 12.2955 18.4197 12.5218 18.4197C12.7463 18.4197 12.9485 18.4711 13.1283 18.5739C13.3089 18.6758 13.4514 18.8241 13.5558 19.0188C13.6611 19.2135 13.7137 19.4497 13.7137 19.7273ZM13.1681 19.7273C13.1681 19.5475 13.1411 19.3958 13.0873 19.2724C13.0342 19.1489 12.9593 19.0553 12.8623 18.9915C12.7654 18.9277 12.6518 18.8958 12.5218 18.8958C12.3917 18.8958 12.2781 18.9277 12.1812 18.9915C12.0843 19.0553 12.0088 19.1489 11.955 19.2724C11.902 19.3958 11.8754 19.5475 11.8754 19.7273C11.8754 19.9071 11.902 20.0587 11.955 20.1822C12.0088 20.3056 12.0843 20.3993 12.1812 20.4631C12.2781 20.5269 12.3917 20.5588 12.5218 20.5588C12.6518 20.5588 12.7654 20.5269 12.8623 20.4631C12.9593 20.3993 13.0342 20.3056 13.0873 20.1822C13.1411 20.0587 13.1681 19.9071 13.1681 19.7273ZM14.7042 18.8983V18.4545H16.7947V18.8983H16.0154V21H15.4835V18.8983H14.7042ZM19.3249 19.1866C19.3149 19.0864 19.2723 19.0085 19.1969 18.9529C19.1215 18.8974 19.0191 18.8697 18.8899 18.8697C18.802 18.8697 18.7279 18.8821 18.6674 18.907C18.6069 18.931 18.5605 18.9645 18.5282 19.0076C18.4967 19.0507 18.481 19.0996 18.481 19.1543C18.4793 19.1999 18.4888 19.2396 18.5095 19.2736C18.5311 19.3076 18.5605 19.337 18.5978 19.3619C18.6351 19.3859 18.6782 19.407 18.7271 19.4252C18.7759 19.4426 18.8281 19.4576 18.8837 19.47L19.1124 19.5247C19.2234 19.5495 19.3253 19.5827 19.4181 19.6241C19.5109 19.6655 19.5913 19.7165 19.6592 19.777C19.7272 19.8375 19.7798 19.9087 19.8171 19.9908C19.8552 20.0728 19.8747 20.1668 19.8755 20.2729C19.8747 20.4287 19.8349 20.5637 19.7562 20.6781C19.6783 20.7916 19.5656 20.8799 19.4181 20.9428C19.2714 21.005 19.0945 21.036 18.8874 21.036C18.6819 21.036 18.5029 21.0046 18.3505 20.9416C18.1988 20.8786 18.0803 20.7854 17.995 20.6619C17.9105 20.5376 17.8661 20.3839 17.862 20.2008H18.3828C18.3886 20.2862 18.413 20.3574 18.4561 20.4146C18.5 20.4709 18.5584 20.5136 18.6314 20.5426C18.7051 20.5708 18.7884 20.5849 18.8812 20.5849C18.9723 20.5849 19.0515 20.5716 19.1186 20.5451C19.1865 20.5186 19.2391 20.4817 19.2764 20.4345C19.3137 20.3873 19.3323 20.333 19.3323 20.2717C19.3323 20.2145 19.3154 20.1664 19.2814 20.1275C19.2482 20.0885 19.1994 20.0554 19.1347 20.0281C19.0709 20.0007 18.9926 19.9759 18.8998 19.9535L18.6227 19.8839C18.408 19.8317 18.2386 19.7501 18.1143 19.639C17.99 19.528 17.9283 19.3784 17.9291 19.1903C17.9283 19.0362 17.9693 18.9016 18.0522 18.7864C18.1358 18.6712 18.2506 18.5813 18.3964 18.5167C18.5423 18.4521 18.708 18.4197 18.8936 18.4197C19.0825 18.4197 19.2474 18.4521 19.3883 18.5167C19.53 18.5813 19.6402 18.6712 19.7189 18.7864C19.7976 18.9016 19.8382 19.035 19.8407 19.1866H19.3249Z" fill="#1A2125"/>
</svg>
