<svg width="28" height="28" viewBox="0 0 28 28" fill="none" xmlns="http://www.w3.org/2000/svg">
<path opacity="0.5" d="M14 25.6668C20.4433 25.6668 25.6667 20.4434 25.6667 14.0002C25.6667 7.55684 20.4433 2.3335 14 2.3335C7.55667 2.3335 2.33333 7.55684 2.33333 14.0002C2.33333 20.4434 7.55667 25.6668 14 25.6668Z" fill="#00674F"/>
<path fill-rule="evenodd" clip-rule="evenodd" d="M14 8.4585C14.4832 8.4585 14.875 8.85025 14.875 9.3335V13.6377L17.5354 16.2981C17.8771 16.6399 17.8771 17.1938 17.5354 17.5355C17.1936 17.8772 16.6397 17.8772 16.298 17.5355L13.3813 14.6188C13.2172 14.4548 13.125 14.2322 13.125 14.0002V9.3335C13.125 8.85025 13.5168 8.4585 14 8.4585Z" fill="#00674F"/>
</svg>
