<svg width="30" height="24" viewBox="0 0 30 24" fill="none" xmlns="http://www.w3.org/2000/svg">
<path fill-rule="evenodd" clip-rule="evenodd" d="M11.6607 0H17.5093C23.0233 0 25.7803 -1.73867e-07 27.4933 1.70873C28.6728 2.88525 29.0402 4.55546 29.1545 7.27714C29.1773 7.81688 29.1886 8.08676 29.0879 8.26682C28.9871 8.44685 28.5847 8.67156 27.7799 9.12102C26.8861 9.62011 26.282 10.5737 26.282 11.668C26.282 12.7623 26.8861 13.7159 27.7799 14.215C28.5847 14.6645 28.9871 14.8891 29.0879 15.0692C29.1886 15.2492 29.1773 15.5192 29.1545 16.0588C29.0402 18.7805 28.6728 20.4508 27.4933 21.6272C25.7803 23.336 23.0233 23.336 17.5093 23.336H11.6607C6.14667 23.336 3.38965 23.336 1.67666 21.6272C0.497215 20.4508 0.129849 18.7805 0.0154293 16.0588C-0.00726494 15.5192 -0.0186122 15.2492 0.0821701 15.0692C0.182967 14.8891 0.585338 14.6645 1.39006 14.215C2.2838 13.7159 2.88793 12.7623 2.88793 11.668C2.88793 10.5737 2.2838 9.62011 1.39006 9.12102C0.585338 8.67156 0.182967 8.44685 0.0821701 8.2668C-0.0186122 8.08676 -0.00726494 7.81688 0.0154293 7.27714C0.129849 4.55546 0.497215 2.88525 1.67666 1.70873C3.38965 -1.73867e-07 6.14668 0 11.6607 0ZM19.7594 6.51901C20.1878 6.94619 20.1878 7.6388 19.7594 8.06598L10.9867 16.8169C10.5585 17.2441 9.86413 17.2441 9.43589 16.8169C9.00763 16.3897 9.00763 15.6972 9.43589 15.27L18.2086 6.51901C18.637 6.09183 19.3312 6.09183 19.7594 6.51901ZM18.253 16.7727C19.0605 16.7727 19.7151 16.1198 19.7151 15.3142C19.7151 14.5087 19.0605 13.8557 18.253 13.8557C17.4455 13.8557 16.7908 14.5087 16.7908 15.3142C16.7908 16.1198 17.4455 16.7727 18.253 16.7727ZM10.9424 9.48024C11.7498 9.48024 12.4045 8.82727 12.4045 8.02174C12.4045 7.21624 11.7498 6.56325 10.9424 6.56325C10.1348 6.56325 9.48023 7.21624 9.48023 8.02174C9.48023 8.82727 10.1348 9.48024 10.9424 9.48024Z" fill="#898D98"/>
</svg>
