<svg width="32" height="33" viewBox="0 0 32 33" fill="none" xmlns="http://www.w3.org/2000/svg">
<path fill-rule="evenodd" clip-rule="evenodd" d="M2.66669 16.6866C2.66669 9.66275 8.28002 3.33325 16.0267 3.33325C23.6 3.33325 29.3334 9.54257 29.3334 16.6466C29.3334 24.8856 22.6134 29.9999 16 29.9999C13.8134 29.9999 11.3867 29.4124 9.44002 28.264C8.76002 27.85 8.18669 27.5429 7.45335 27.7833L4.76002 28.5845C4.08002 28.7981 3.46669 28.264 3.66669 27.5429L4.56002 24.5517C4.70669 24.1378 4.68002 23.6971 4.46669 23.3499C3.32002 21.2401 2.66669 18.93 2.66669 16.6866ZM14.2667 16.6866C14.2667 17.6347 15.0267 18.3958 15.9734 18.4092C16.92 18.4092 17.68 17.6347 17.68 16.7C17.68 15.7519 16.92 14.9907 15.9734 14.9907C15.04 14.9774 14.2667 15.7519 14.2667 16.6866ZM20.4134 16.7C20.4134 17.6347 21.1734 18.4092 22.12 18.4092C23.0667 18.4092 23.8267 17.6347 23.8267 16.7C23.8267 15.7519 23.0667 14.9907 22.12 14.9907C21.1734 14.9907 20.4134 15.7519 20.4134 16.7ZM9.82669 18.4092C8.89335 18.4092 8.12002 17.6347 8.12002 16.7C8.12002 15.7519 8.88002 14.9907 9.82669 14.9907C10.7734 14.9907 11.5334 15.7519 11.5334 16.7C11.5334 17.6347 10.7734 18.3958 9.82669 18.4092Z" fill="#E34F33"/>
</svg>
