<svg width="198" height="212" viewBox="0 0 198 212" fill="none" xmlns="http://www.w3.org/2000/svg">
<path d="M8.8405 184.701L0.262817 196.364L14.7069 207.129C15.6616 205.695 10.2343 197.339 10.2343 197.339L16.0387 190.093L8.8405 184.701Z" fill="#455A64"/>
<path d="M6.25338 193.391C6.08352 193.329 5.89677 193.332 5.72925 193.4C5.56172 193.468 5.42533 193.596 5.34644 193.759C5.27935 193.927 5.27904 194.115 5.34557 194.284C5.41211 194.453 5.54047 194.59 5.70444 194.667C5.88441 194.731 6.08146 194.725 6.2577 194.652C6.43393 194.579 6.5769 194.443 6.65911 194.27C6.71185 194.087 6.69157 193.891 6.60254 193.722C6.51351 193.554 6.36267 193.426 6.18178 193.367" fill="white"/>
<path d="M0.243713 196.393L1.15542 195.14L14.6496 206.02C14.6496 206.02 15.0792 206.784 14.6496 207.181L0.243713 196.393Z" fill="#263238"/>
<path d="M10.5493 197.444C10.4968 197.516 10.1197 197.286 9.59467 197.253C9.0696 197.22 8.67341 197.382 8.64 197.306C8.60659 197.229 9.00755 196.899 9.62808 196.947C10.2486 196.995 10.5875 197.392 10.5493 197.444Z" fill="#263238"/>
<path d="M11.5756 199.203C11.5374 199.285 11.146 199.175 10.683 199.294C10.22 199.414 9.91928 199.681 9.84768 199.624C9.77608 199.567 10.0338 199.146 10.6114 198.998C11.189 198.85 11.6234 199.136 11.5756 199.203Z" fill="#263238"/>
<path d="M11.084 201.66C11.0076 201.627 11.1747 201.182 11.6425 200.948C12.1102 200.714 12.5542 200.79 12.5398 200.872C12.5255 200.953 12.1675 201.005 11.7904 201.221C11.4133 201.436 11.1604 201.703 11.084 201.66Z" fill="#263238"/>
<path d="M11.6663 195.647C11.5851 195.69 11.3369 195.351 10.9169 195.083C10.4968 194.815 10.0959 194.705 10.1006 194.605C10.1054 194.505 10.578 194.486 11.0839 194.811C11.5899 195.136 11.7427 195.618 11.6663 195.647Z" fill="#263238"/>
<path d="M43.7622 135.878C44.0199 137.341 44.4304 149.783 44.693 156.346C44.9555 162.909 44.3016 166.135 43.5522 167.608C42.8027 169.08 14.5398 189.935 12.3871 194.93L5.22705 189.151C5.22705 189.151 15.7284 170.275 20.2058 166.843C24.6832 163.411 33.299 160.261 33.299 160.261L30.8503 124.32L42.5879 123.679L43.7622 135.878Z" fill="#263238"/>
<path d="M17.4945 196.235L17.3704 210.704L35.3707 210.952C35.2895 209.232 26.0245 205.642 26.0245 205.642L26.5018 196.364L17.4945 196.235Z" fill="#455A64"/>
<path d="M20.4683 204.806C20.2946 204.856 20.1456 204.969 20.0496 205.122C19.9536 205.275 19.9174 205.459 19.948 205.637C19.9923 205.813 20.1019 205.965 20.2545 206.063C20.407 206.161 20.5911 206.197 20.7691 206.163C20.9525 206.109 21.1094 205.988 21.2098 205.825C21.3101 205.662 21.347 205.467 21.3132 205.279C21.2492 205.1 21.1183 204.953 20.9482 204.869C20.778 204.785 20.582 204.771 20.4015 204.83" fill="white"/>
<path d="M17.3657 210.757V209.203L34.669 210.102C34.669 210.102 35.4614 210.47 35.3611 211.034L17.3657 210.757Z" fill="#263238"/>
<path d="M26.3014 205.575C26.3014 205.666 25.8574 205.699 25.4231 205.977C24.9887 206.254 24.75 206.617 24.6689 206.584C24.5877 206.55 24.7262 206.039 25.2608 205.714C25.7954 205.389 26.3396 205.494 26.3014 205.575Z" fill="#263238"/>
<path d="M28.2107 206.402C28.2107 206.488 27.8431 206.632 27.5424 207C27.2417 207.368 27.1462 207.764 27.0651 207.755C26.9839 207.745 26.9266 207.253 27.3133 206.799C27.6999 206.345 28.2107 206.302 28.2107 206.402Z" fill="#263238"/>
<path d="M29.2369 208.663C29.1558 208.663 29.0412 208.238 29.2703 207.76C29.4994 207.282 29.9195 207.095 29.9529 207.167C29.9863 207.239 29.7333 207.497 29.5472 207.894C29.361 208.29 29.3228 208.654 29.2369 208.663Z" fill="#263238"/>
<path d="M26.1868 203.448C26.1486 203.529 25.7477 203.4 25.2321 203.448C24.7166 203.496 24.3443 203.625 24.2775 203.548C24.2107 203.472 24.6068 203.166 25.194 203.142C25.7811 203.118 26.2298 203.381 26.1868 203.448Z" fill="#263238"/>
<path d="M45.0606 122.193C45.0606 123.039 46.4305 144.458 39.4376 159.955C39.4376 159.955 37.0175 164.802 36.5736 166.919C36.1297 169.037 27.0842 204.16 27.0842 204.16L16.6306 203.778C16.6306 203.778 14.9599 186.183 16.6306 175.996C18.3012 165.81 21.4039 167.005 21.4039 160.428C21.4039 153.851 19.843 140.213 19.843 140.213C19.843 140.213 17.5614 136.49 16.7833 129.267C16.1485 123.402 18.9075 117.116 18.9075 117.116L21.633 112.284L44.693 111.074L45.0606 122.193Z" fill="#263238"/>
<path d="M45.0605 122.193C45.0605 122.193 45.0605 121.944 45.0605 121.461C45.0605 120.979 45.0319 120.262 45.0128 119.32C44.9698 117.432 44.8982 114.65 44.8123 111.055V111.003H44.755L21.6951 112.179H21.6473L21.6187 112.222C20.7738 113.722 19.843 115.362 18.8883 117.054C18.1783 118.769 17.624 120.545 17.232 122.36C16.7989 124.271 16.6049 126.228 16.6544 128.187C16.7997 130.232 17.1191 132.262 17.6091 134.253C18.0818 136.343 18.8247 138.363 19.8191 140.261V140.213C20.2153 143.779 20.5829 147.474 20.8931 151.279C21.0459 153.191 21.1795 155.103 21.275 157.068C21.3227 158.024 21.3609 159.027 21.3657 160.017C21.3657 160.495 21.3657 161.006 21.3371 161.499C21.3031 161.992 21.2425 162.484 21.1557 162.971C20.9603 163.952 20.6141 164.897 20.1294 165.772C19.6521 166.666 19.1747 167.55 18.6974 168.482C17.8329 170.374 17.2029 172.364 16.8215 174.409C15.9909 178.52 15.8239 182.793 15.7761 187.1C15.7761 192.784 16.0434 198.367 16.5112 203.763V203.878H16.621L27.0746 204.26H27.1748L27.1987 204.16C30.2298 192.396 33.0556 181.402 35.5473 171.517L36.4494 167.861C36.6069 167.254 36.7072 166.651 36.8934 166.078C37.0795 165.504 37.2895 164.935 37.5091 164.381C37.9578 163.272 38.4638 162.196 38.9411 161.15L39.3134 160.371C39.4457 160.116 39.5636 159.854 39.6667 159.587C39.8815 159.056 40.0963 158.535 40.3111 158.014C41.7955 154.159 42.9002 150.168 43.6094 146.097C44.6317 140.299 45.1587 134.424 45.1846 128.536C45.2133 124.415 45.0462 122.178 45.0462 122.178C45.0462 122.178 45.0462 122.317 45.0462 122.589C45.0462 122.862 45.0462 123.278 45.0748 123.813C45.1035 124.889 45.1226 126.476 45.0748 128.536C45.0307 134.419 44.499 140.288 43.4853 146.083C42.7597 150.14 41.6406 154.117 40.144 157.957L39.5044 159.52C39.3993 159.787 39.28 160.041 39.1511 160.299C39.0223 160.557 38.8981 160.82 38.774 161.083C38.2967 162.13 37.7907 163.205 37.342 164.319C37.1177 164.878 36.9029 165.447 36.7167 166.03C36.5306 166.613 36.4208 167.23 36.268 167.823C35.9673 169.027 35.6666 170.241 35.3563 171.479C32.8217 181.355 30.0007 192.349 26.9791 204.112L27.1032 204.021L16.6496 203.634L16.7738 203.749C16.2964 198.362 16.0196 192.784 16.0387 187.11C16.0864 182.808 16.2535 178.554 17.0792 174.472C17.4595 172.446 18.083 170.473 18.9361 168.597C19.3657 167.674 19.8907 166.8 20.3681 165.891C20.8495 164.993 21.1908 164.026 21.38 163.023C21.4705 162.525 21.5327 162.023 21.5662 161.518C21.5662 161.04 21.6139 160.514 21.5948 160.022C21.5948 159.027 21.5519 158.038 21.5041 157.058C21.4087 155.098 21.2702 153.167 21.1127 151.265C20.7945 147.441 20.4333 143.749 20.0292 140.189V140.161C19.0344 138.287 18.2882 136.291 17.8096 134.224C17.3223 132.247 17.003 130.232 16.8549 128.201C16.8035 126.26 16.9927 124.321 17.4182 122.427C17.8028 120.63 18.3442 118.871 19.0363 117.169L21.7571 112.332L21.6807 112.379L44.7407 111.132L44.6787 111.079C44.7932 114.669 44.8791 117.451 44.9364 119.339C44.9698 120.295 44.9937 120.993 45.0128 121.48C45.0319 121.968 45.0605 122.193 45.0605 122.193Z" fill="#455A64"/>
<path d="M37.5616 78.3314C37.5616 78.3314 31.3563 77.232 31.9339 85.2289C32.2967 90.0089 33.7 98.2114 34.4781 103.446C34.7454 105.257 35.3373 108.498 37.7287 110.4L54.865 122.274L60.2732 115.797L44.9699 101.204L42.5832 86.7681L37.5616 78.3314Z" fill="#455A64"/>
<path d="M38.2919 49.5081C39.2755 50.3012 40.0537 51.32 40.5606 52.4783C41.0674 53.6365 41.288 54.9001 41.2037 56.1618C41.1082 57.3855 40.7693 58.7765 41.5664 59.7086C42.3636 60.6407 43.891 60.6072 44.6452 61.5537C45.5283 62.6722 44.7884 64.3356 45.1226 65.7266C45.2929 66.3763 45.6884 66.9442 46.2385 67.3286C46.7886 67.713 47.4573 67.889 48.125 67.825C46.5585 69.1087 44.6692 69.9356 42.6643 70.215L41.0986 68.26C41.681 68.9483 41.5235 70.0429 40.965 70.7456C40.3583 71.3996 39.576 71.8643 38.712 72.084C36.6556 72.7175 34.481 72.8672 32.3574 72.5215C30.2337 72.1758 28.2185 71.3439 26.4684 70.0907" fill="#263238"/>
<path d="M15.3657 60.2967C15.6711 59.3407 16.1867 58.4946 16.3919 57.5338C16.8311 55.4641 15.8239 53.1315 16.8263 51.2673C17.5423 49.9432 19.0602 49.2931 20.5018 48.8486C21.9433 48.404 23.4803 48.0312 24.5543 46.9748C25.3371 46.2005 25.7858 45.1297 26.5687 44.3554C27.6856 43.2464 29.3372 42.8688 30.9029 42.7732C32.5195 42.6168 34.1491 42.8819 35.6332 43.5428C36.3702 43.8795 37.0177 44.385 37.5235 45.0186C38.0293 45.6521 38.3792 46.3959 38.545 47.1899C38.6691 47.9643 38.5736 48.7817 38.8218 49.5321C39.0891 50.3543 39.7335 50.9948 40.1345 51.7644C40.5361 52.5909 40.6522 53.5275 40.4648 54.4272C40.2773 55.327 39.7968 56.1389 39.0987 56.7356L28.0341 71.0469C25.7095 71.9264 20.0769 70.8653 18.2822 69.1349C16.4874 67.4045 14.5971 62.6628 15.3657 60.2967Z" fill="#263238"/>
<path d="M38.8075 54.9191C38.3301 51.6687 35.8814 47.8304 32.6594 48.4231L22.7118 51.7691C21.7571 51.9508 22.4349 53.5521 22.5304 54.5415L24.6927 77.0075C24.6927 77.0075 23.3466 77.9635 22.8693 77.7819C22.8421 77.7724 22.8127 77.7716 22.785 77.7796C22.7574 77.7877 22.7329 77.8041 22.715 77.8267C22.6972 77.8494 22.6868 77.877 22.6854 77.9058C22.6839 77.9346 22.6915 77.9631 22.707 77.9874C23.9147 79.7321 29.5424 87.318 35.3707 84.9901C36.669 84.4691 35.2322 80.3726 35.3707 78.8574L35.1988 74.9808C35.0699 73.0019 35.0079 72.1893 35.0079 72.2084C35.0079 72.2275 39.1225 71.195 39.5664 65.6837C39.7908 62.9543 39.3134 58.528 38.8075 54.9191Z" fill="#FFBF9D"/>
<path d="M38.1154 59.919C38.1302 60.1009 38.0737 60.2815 37.9578 60.4224C37.842 60.5634 37.676 60.6537 37.4948 60.6742C37.4066 60.6884 37.3164 60.6847 37.2296 60.6634C37.1428 60.6421 37.0612 60.6035 36.9895 60.55C36.9179 60.4966 36.8577 60.4292 36.8125 60.352C36.7672 60.2748 36.738 60.1893 36.7263 60.1006C36.7115 59.9187 36.768 59.7381 36.8838 59.5971C36.9997 59.4562 37.1657 59.3659 37.3469 59.3454C37.4351 59.3312 37.5253 59.3349 37.6121 59.3562C37.6988 59.3775 37.7805 59.4161 37.8521 59.4696C37.9238 59.523 37.984 59.5904 38.0292 59.6676C38.0744 59.7448 38.1037 59.8302 38.1154 59.919Z" fill="#263238"/>
<path d="M31.3372 60.3445C31.3533 60.5259 31.2979 60.7065 31.1829 60.8476C31.0678 60.9888 30.9022 61.0792 30.7214 61.0997C30.6333 61.1132 30.5433 61.1091 30.4568 61.0875C30.3703 61.0659 30.2889 61.0273 30.2174 60.9739C30.1459 60.9205 30.0857 60.8535 30.0403 60.7766C29.9949 60.6997 29.9652 60.6146 29.9529 60.5261C29.9381 60.3442 29.9946 60.1636 30.1105 60.0226C30.2263 59.8817 30.3923 59.7914 30.5735 59.7709C30.6614 59.7567 30.7513 59.7604 30.8378 59.7818C30.9243 59.8032 31.0057 59.8418 31.0769 59.8953C31.1482 59.9489 31.208 60.0162 31.2527 60.0934C31.2974 60.1706 31.3262 60.256 31.3372 60.3445Z" fill="#263238"/>
<path d="M38.3636 57.6149C38.2872 57.7439 37.638 57.3329 36.8265 57.4524C36.0151 57.5719 35.4948 58.1263 35.3945 58.026C35.2943 57.9256 35.3945 57.7583 35.6284 57.5049C35.9221 57.1748 36.3237 56.9602 36.7611 56.8998C37.1985 56.8393 37.6431 56.937 38.0151 57.1751C38.2824 57.3615 38.4017 57.5575 38.3636 57.6149Z" fill="#263238"/>
<path d="M31.0747 58.222C30.9792 58.3415 30.3444 57.8779 29.4709 57.9161C28.5974 57.9544 27.9768 58.4467 27.8766 58.3368C27.7763 58.2268 27.9195 58.0786 28.1916 57.8588C28.5488 57.5635 28.9937 57.3954 29.4566 57.3808C29.9172 57.3626 30.3707 57.4989 30.7454 57.7679C31.0174 57.9639 31.1177 58.1647 31.0747 58.222Z" fill="#263238"/>
<path d="M33.8098 63.3701C34.1952 63.2126 34.5996 63.1065 35.0127 63.0546C35.1988 63.0212 35.3802 62.9686 35.3993 62.8347C35.4018 62.6349 35.3417 62.4393 35.2275 62.2755C35.0127 61.8262 34.7883 61.3529 34.5497 60.8415C33.595 58.8195 32.9029 57.1561 32.984 57.1179C33.0651 57.0796 33.9005 58.6857 34.8456 60.7029C35.0747 61.2048 35.2943 61.6589 35.4995 62.1369C35.6392 62.3587 35.695 62.6231 35.6571 62.8825C35.6352 62.9525 35.5976 63.0164 35.5471 63.0695C35.4966 63.1225 35.4346 63.1632 35.3659 63.1885C35.2625 63.2239 35.155 63.2464 35.0461 63.2554C34.64 63.3424 34.225 63.381 33.8098 63.3701Z" fill="#263238"/>
<path d="M35.0079 72.218C32.4517 72.453 29.8806 71.9731 27.5806 70.8318C27.5806 70.8318 29.7047 74.5124 35.1033 73.5851L35.0079 72.218Z" fill="#FF9A6C"/>
<path d="M31.5234 65.5594C31.6085 65.3705 31.7399 65.2061 31.9052 65.0814C32.1076 64.985 32.3375 64.963 32.5544 65.0193C32.8768 65.0664 33.1751 65.2174 33.4041 65.4495C33.5165 65.5666 33.5956 65.7116 33.6334 65.8696C33.6711 66.0275 33.6661 66.1927 33.6189 66.3481C33.533 66.6636 33.0652 66.8261 32.7454 66.893C32.414 66.9415 32.0762 66.8721 31.7907 66.697C31.6665 66.6404 31.558 66.5541 31.4748 66.4458C31.3916 66.3375 31.3362 66.2104 31.3134 66.0756C31.3345 65.8875 31.4072 65.7088 31.5234 65.5594Z" fill="#FF9A6C"/>
<path d="M31.6761 64.5029C31.7954 64.5029 31.8623 65.3012 32.6021 65.827C33.342 66.3528 34.2012 66.1951 34.2155 66.305C34.2298 66.4149 34.0389 66.4771 33.6714 66.5153C33.1944 66.5591 32.7175 66.432 32.3253 66.1568C31.9468 65.8953 31.6862 65.4953 31.5997 65.0431C31.552 64.7133 31.6188 64.5029 31.6761 64.5029Z" fill="#263238"/>
<path d="M31.0078 55.2823C30.9458 55.4879 30.1916 55.4496 29.3181 55.6265C28.4445 55.8033 27.7524 56.1045 27.6235 55.9181C27.5663 55.8368 27.6713 55.636 27.9434 55.4162C28.3078 55.1442 28.7297 54.9597 29.1766 54.8769C29.6235 54.794 30.0834 54.815 30.5209 54.9382C30.8551 55.0338 31.0317 55.1819 31.0078 55.2823Z" fill="#263238"/>
<path d="M37.9006 54.8761C37.7621 55.0577 37.1607 54.9287 36.4686 54.9765C35.7764 55.0243 35.1654 55.1916 35.0127 55.0243C34.9459 54.943 35.0127 54.7614 35.2752 54.5797C35.6204 54.3519 36.0219 54.2245 36.4351 54.2117C36.8457 54.1821 37.2563 54.2699 37.6189 54.465C37.8671 54.6084 37.9626 54.7805 37.9006 54.8761Z" fill="#263238"/>
<path d="M20.5113 52.5529C20.9886 51.7786 21.9146 51.3818 22.7738 51.052C26.4845 49.6172 30.3528 48.6304 34.2967 48.1123C34.774 48.9201 34.3349 50.0243 33.595 50.6122C32.8551 51.2002 31.9005 51.4344 31.0174 51.7642C30.1343 52.094 29.2226 52.6103 28.8551 53.485C28.4875 54.3598 28.7978 55.5117 28.4541 56.4582C27.867 58.0929 25.5901 58.6187 25.0221 60.2487C24.5829 61.4867 25.2989 62.8012 25.4994 64.1014C25.5911 64.7613 25.5412 65.4331 25.3529 66.0721C25.1647 66.7111 24.8426 67.3025 24.408 67.807C23.9734 68.3114 23.4364 68.7172 22.8327 68.9972C22.2291 69.2773 21.5727 69.4252 20.9075 69.4311C20.6402 64.7499 20.3713 60.0719 20.1008 55.397C20.0196 54.4219 19.9814 53.3703 20.5113 52.5529Z" fill="#263238"/>
<path d="M11.0983 64.3739C11.8382 63.7095 12.7642 63.1359 13.0554 62.1894C13.485 60.808 12.3775 59.1876 13.0935 57.9304C13.7427 56.7832 15.6568 56.8454 16.263 55.6743C16.7404 54.7565 16.1914 53.9487 16.368 53.1457C16.5447 52.3426 17.6903 51.6399 18.5017 51.7355L24.8693 60.9944C25.4612 64.1014 26.0579 65.7744 25.3944 67.5717C24.9556 68.5394 24.6242 69.5525 24.4063 70.5927C24.2631 71.6443 24.5352 72.8345 25.3896 73.4607C21.571 73.7618 18.0005 71.7638 14.6974 69.8279L11.2176 67.782C10.8367 67.5995 10.5082 67.3232 10.263 66.979C9.74266 66.1281 10.3632 65.0335 11.0983 64.3739Z" fill="#263238"/>
<path d="M14.6162 68.8863C14.7494 68.9292 14.8872 68.9564 15.0267 68.9675C15.4249 69.0056 15.8267 68.9766 16.2153 68.8815C16.8356 68.7327 17.4064 68.4246 17.8716 67.9876C18.4861 67.3955 18.8716 66.6048 18.9599 65.7554C19.0173 65.2628 18.9751 64.7638 18.8358 64.2879C18.6647 63.7808 18.4271 63.2986 18.1294 62.8539C17.8137 62.4026 17.5675 61.9063 17.3991 61.3817C17.3096 61.1135 17.2816 60.8285 17.3171 60.548C17.3527 60.2675 17.4508 59.9986 17.6043 59.7613C17.948 59.2833 18.5924 59.1829 19.1938 58.9439C19.5187 58.827 19.8012 58.6156 20.0053 58.3368C20.1932 58.0387 20.2849 57.6899 20.2678 57.3378C20.1853 56.6629 20.0399 55.9971 19.8335 55.3493C19.7602 55.0349 19.7602 54.7078 19.8335 54.3933C19.9175 54.0762 20.1123 53.7998 20.3824 53.6142C20.9632 53.2788 21.6213 53.1009 22.2917 53.0979C22.9856 53.075 23.6623 52.876 24.2583 52.5196C24.8384 52.1655 25.3092 51.6576 25.6187 51.0521C25.8728 50.4707 26.0339 49.8529 26.0961 49.2214C26.1623 48.6367 26.287 48.0602 26.4684 47.5006C26.6694 46.9916 26.9752 46.5307 27.3658 46.1478C28.0862 45.4632 29.0163 45.0422 30.0054 44.9528C30.8302 44.8822 31.6579 45.048 32.3921 45.4308C32.9443 45.7138 33.442 46.0925 33.8623 46.5493C34.2135 46.9481 34.5178 47.386 34.7692 47.8543C34.7692 47.8543 34.7692 47.8208 34.7358 47.7539C34.6966 47.659 34.652 47.5664 34.6021 47.4767C34.4199 47.1297 34.1972 46.8056 33.9387 46.5111C33.5188 46.0359 33.0177 45.6393 32.4589 45.34C31.717 44.9317 30.874 44.7442 30.0293 44.7999C28.9927 44.8759 28.0136 45.3062 27.256 46.0188C26.8386 46.4225 26.513 46.9116 26.3013 47.4528C26.1121 48.0228 25.9809 48.6105 25.9099 49.207C25.8437 49.8178 25.6826 50.4146 25.4326 50.9756C25.1415 51.5398 24.7026 52.0141 24.1629 52.3475C23.5941 52.6816 22.9508 52.8673 22.2917 52.8876C21.5735 52.8861 20.8679 53.0776 20.2487 53.4421C19.939 53.6531 19.7153 53.9687 19.6187 54.3312C19.535 54.6848 19.535 55.0531 19.6187 55.4067C19.8208 56.0423 19.9646 56.6951 20.0483 57.3569C20.0679 57.6643 19.9912 57.9701 19.8287 58.2317C19.6443 58.4742 19.3941 58.6584 19.1079 58.7622C18.8263 58.8817 18.5208 58.963 18.2249 59.0873C17.9167 59.2038 17.6449 59.4001 17.4373 59.6561C17.2687 59.92 17.1607 60.2182 17.121 60.529C17.0814 60.8398 17.1112 61.1555 17.2081 61.4534C17.3869 61.9948 17.6442 62.507 17.9719 62.9734C18.2626 63.3961 18.4954 63.8559 18.664 64.3405C18.7992 64.7925 18.8447 65.2667 18.7977 65.7363C18.7194 66.5538 18.358 67.3181 17.7762 67.8968C17.3308 68.3287 16.7816 68.6382 16.1819 68.7955C15.6711 68.929 15.139 68.9599 14.6162 68.8863Z" fill="#455A64"/>
<path d="M9.52785 62.3042C9.4654 62.3981 9.42314 62.5039 9.40374 62.6149C9.34026 62.9428 9.39794 63.2825 9.56604 63.5709C9.68252 63.7768 9.84611 63.9521 10.0434 64.0824C10.2893 64.2314 10.5723 64.3076 10.8596 64.3023C11.2088 64.2946 11.5492 64.1912 11.8438 64.0032C12.1384 63.8153 12.3758 63.55 12.5303 63.2363C12.7118 62.8763 12.8051 62.4781 12.8024 62.0748C12.7908 61.6413 12.7002 61.2137 12.5351 60.8129C12.2343 59.9859 11.6806 59.1781 11.6711 58.2125C11.653 57.9748 11.683 57.7359 11.7593 57.51C11.8356 57.2842 11.9566 57.076 12.115 56.898C12.502 56.578 12.9993 56.4235 13.4993 56.4679C14.0556 56.5086 14.6148 56.4503 15.1508 56.2958C15.4317 56.1813 15.6691 55.9804 15.8286 55.7222C15.9823 55.4655 16.0784 55.1784 16.1103 54.8809C16.1378 54.3101 16.0913 53.7381 15.9719 53.1792C15.8864 52.6547 15.9174 52.1178 16.0625 51.6066C16.3331 50.6308 16.9669 49.796 17.8335 49.274C18.656 48.8544 19.5692 48.6442 20.4922 48.6621C21.3125 48.664 22.1278 48.5349 22.9075 48.2797C23.5414 48.0468 24.1224 47.6892 24.6164 47.2281C24.9946 46.8782 25.3166 46.4719 25.571 46.0236C25.7949 45.6517 25.9486 45.2417 26.0245 44.8142C25.8824 45.2178 25.7051 45.6081 25.4946 45.9805C24.8933 46.9856 23.967 47.7546 22.8693 48.1602C22.0961 48.3971 21.2911 48.5132 20.4826 48.5044C19.5328 48.4776 18.5912 48.6878 17.7428 49.1162C16.8315 49.6513 16.1587 50.5148 15.8621 51.5301C15.7093 52.0692 15.6751 52.6351 15.7618 53.1888C15.8736 53.7294 15.92 54.2814 15.9002 54.8331C15.889 55.0954 15.806 55.3495 15.6604 55.5678C15.5148 55.7861 15.3121 55.9602 15.0745 56.0711C14.5644 56.2161 14.0327 56.2695 13.504 56.2289C12.9504 56.1804 12.4 56.3521 11.9718 56.7069C11.797 56.9062 11.6645 57.1391 11.5824 57.3914C11.5003 57.6437 11.4704 57.9101 11.4945 58.1743C11.5155 58.6706 11.6339 59.1578 11.8429 59.6083C12.0291 60.0385 12.2343 60.44 12.3919 60.8416C12.552 61.2222 12.6426 61.6286 12.6592 62.0413C12.6657 62.4183 12.5839 62.7915 12.4205 63.1312C12.282 63.4242 12.0659 63.6736 11.7958 63.8523C11.5256 64.0309 11.2117 64.132 10.8883 64.1445C10.6229 64.1541 10.3601 64.0895 10.1293 63.9581C9.93169 63.8426 9.76726 63.678 9.65196 63.4801C9.48463 63.2141 9.41541 62.8979 9.45625 62.5863C9.48012 62.4142 9.54217 62.309 9.52785 62.3042Z" fill="#263238"/>
<path d="M49.7336 64.5842C49.8471 64.9076 49.8471 65.26 49.7336 65.5833C49.6706 65.7689 49.5666 65.9379 49.4295 66.0777C49.2923 66.2176 49.1254 66.3247 48.9412 66.3911C48.6956 66.4636 48.4347 66.4662 48.1877 66.3987C47.9407 66.3312 47.7174 66.1961 47.5426 66.0087C47.3422 65.788 47.2256 65.5037 47.2133 65.2057C47.2041 64.8806 47.2543 64.5566 47.3613 64.2497C47.5617 63.6044 47.977 62.9017 47.915 62.0556C47.8848 61.6267 47.7657 61.2087 47.5651 60.8285C47.3646 60.4482 47.0871 60.1141 46.7503 59.8473C46.3976 59.5645 45.9942 59.352 45.5617 59.2211C45.12 59.0985 44.6644 59.0326 44.2061 59.0251C43.7619 59.0214 43.3192 58.975 42.8839 58.8865C42.4775 58.8026 42.114 58.5774 41.8576 58.2507C41.6306 57.9155 41.5031 57.5227 41.4901 57.1179C41.4688 56.7234 41.5009 56.3279 41.5855 55.942C41.795 55.2141 41.9105 54.4623 41.9292 53.705C41.8908 53.0326 41.6531 52.3869 41.2466 51.8503C40.9029 51.4245 40.4818 51.0677 40.0055 50.7987C39.6576 50.5925 39.3243 50.3625 39.0079 50.1104C38.7485 49.888 38.5373 49.6147 38.3874 49.3074C38.3874 49.3074 38.3874 49.3074 38.3874 49.3743C38.4062 49.439 38.4318 49.5014 38.4638 49.5607C38.5828 49.793 38.7448 50.0007 38.9411 50.1726C39.2505 50.4423 39.5809 50.6868 39.9292 50.9039C40.3846 51.1752 40.7859 51.5284 41.113 51.9459C41.4913 52.4603 41.7074 53.0762 41.7335 53.7145C41.7052 54.4547 41.5849 55.1885 41.3755 55.899C41.2831 56.3032 41.2462 56.7181 41.2657 57.1322C41.2835 57.5783 41.4257 58.0105 41.6762 58.3798C41.9608 58.7486 42.3667 59.0043 42.8218 59.1016C43.2696 59.1936 43.7251 59.2433 44.1822 59.2498C44.624 59.2556 45.0634 59.3166 45.4901 59.4314C45.8951 59.5575 46.2737 59.7567 46.6071 60.0193C46.9208 60.267 47.1799 60.5771 47.368 60.93C47.5562 61.283 47.6692 61.6711 47.7002 62.07C47.767 62.8396 47.3851 63.504 47.1751 64.1971C47.0648 64.5296 47.0162 64.8795 47.0319 65.2296C47.0527 65.5636 47.1895 65.8798 47.4185 66.1234C47.6146 66.3291 47.8645 66.4754 48.1397 66.5455C48.4149 66.6157 48.7042 66.6069 48.9746 66.5202C49.1722 66.4434 49.3497 66.3226 49.4936 66.1669C49.6375 66.0112 49.7441 65.8247 49.8052 65.6215C49.8918 65.3724 49.905 65.1036 49.8434 64.8472C49.8226 64.7537 49.7855 64.6647 49.7336 64.5842Z" fill="#263238"/>
<path d="M45.1703 102.026V96.7394C45.7622 93.771 45.4806 90.2529 44.1011 87.5426C43.1003 85.7958 41.994 84.1117 40.7884 82.4997L35.5377 75.6691C32.6451 77.7771 28.1152 76.2523 24.2297 74.8374C24.2297 74.8374 20.411 76.9645 18.6067 78.9625C16.7308 81.0657 23.1461 107.38 23.1461 107.38C20.2392 113.202 16.4873 118.374 15.9193 123.679L46.2777 124.851L44.9889 110.912L45.1703 102.026Z" fill="#455A64"/>
<path d="M44.7503 111.06C44.7201 110.863 44.7121 110.662 44.7264 110.463C44.7264 110.028 44.7264 109.507 44.7264 108.842C44.7503 107.408 44.7789 105.558 44.8124 103.498C44.8458 101.438 44.9078 99.5212 44.9746 98.1542C45.0081 97.4706 45.0415 96.9161 45.0701 96.5337C45.0734 96.3355 45.099 96.1383 45.1465 95.9458C45.1658 96.1429 45.1658 96.3414 45.1465 96.5385C45.1465 96.9735 45.1465 97.4945 45.1465 98.1589C45.1226 99.5929 45.0892 101.443 45.0558 103.503C45.0224 105.563 44.9651 107.48 44.8983 108.847C44.8649 109.531 44.8314 110.085 44.798 110.467C44.8055 110.666 44.7895 110.865 44.7503 111.06Z" fill="#263238"/>
<path d="M58.6168 115.869C58.6168 115.869 61.5763 116.031 63.3901 117.179C65.204 118.326 68.1635 120.114 69.3807 122.327C69.9392 123.345 68.3496 123.56 67.562 122.972C66.7744 122.384 65.5763 121.266 64.9797 121.132L64.383 120.993C64.9277 122.228 65.5347 123.434 66.2016 124.607C66.8174 125.563 67.352 127.15 65.5 127.221C65.5 127.221 64.2541 128.847 62.994 127.642C62.994 127.642 62.0107 129.119 60.4259 127.073C60.4259 127.073 59.4999 128.244 59.118 127.795C58.7362 127.346 57.4712 126.638 57.1037 125.176C56.5522 123.473 55.9149 121.799 55.1943 120.161L58.6168 115.869Z" fill="#FFBF9D"/>
<path d="M124.875 74.7894C125.205 74.7894 138.756 73.3554 138.756 73.3554C138.756 73.3554 139.907 67.8393 139.845 66.4053C139.783 64.9713 138.818 55.483 138.818 55.483L143.892 53.093C143.892 53.093 150.675 75.9988 149.196 77.9012C147.716 79.8037 144.933 81.5101 144.694 81.5197C144.456 81.5292 131.563 87.2557 122.594 84.2777C113.625 81.2998 124.875 74.7894 124.875 74.7894Z" fill="#FFBF9D"/>
<path d="M112.999 87.1555C114.995 89.1392 118.431 90.7883 124.169 89.3543C135.51 86.515 144.012 84.0963 147.391 82.2799C150.771 80.4635 149.453 72.3471 149.74 71.979C150.594 70.87 149.654 68.4896 148.437 68.1168C144.966 67.0652 138.928 67.481 138.623 67.7965C136.842 69.6703 138.465 71.9455 138.465 71.9455L123.51 73.9101C121.672 73.8238 119.829 73.9408 118.016 74.2591" fill="#455A64"/>
<path d="M118.016 74.2589L118.374 74.1824C118.613 74.1394 118.966 74.0773 119.434 74.0199C120.787 73.8493 122.152 73.7918 123.515 73.8478L138.465 71.8403L138.394 72.0075C137.902 71.284 137.661 70.4195 137.706 69.5458C137.747 69.094 137.894 68.6582 138.136 68.2744C138.257 68.0815 138.394 67.8992 138.546 67.7294C138.606 67.6851 138.672 67.6497 138.742 67.6243L138.914 67.5813C139.028 67.5526 139.138 67.543 139.248 67.5191C141.1 67.3053 142.969 67.2669 144.828 67.4044C145.804 67.464 146.774 67.5982 147.73 67.8059C147.969 67.8585 148.208 67.9302 148.456 67.9923C148.71 68.0736 148.943 68.2108 149.138 68.3939C149.518 68.755 149.807 69.2003 149.983 69.694C150.173 70.1885 150.24 70.7215 150.179 71.2475C150.135 71.5213 150.033 71.7822 149.878 72.0123C149.835 72.0601 149.84 72.1892 149.835 72.3135V72.6959C149.869 73.7236 149.916 74.7704 149.888 75.822C149.895 77.3148 149.652 78.7983 149.167 80.21C148.918 80.9173 148.49 81.548 147.926 82.0408C147.634 82.2696 147.313 82.4592 146.971 82.6048C146.656 82.7721 146.322 82.9012 146.017 83.0541C144.709 83.6134 143.396 84.0723 142.102 84.4881C140.809 84.904 139.539 85.3055 138.284 85.6736C133.291 87.1076 128.737 88.2691 124.947 89.2203C124.042 89.46 123.124 89.6499 122.198 89.7891C121.368 89.905 120.529 89.9498 119.692 89.923C118.346 89.8942 117.018 89.6053 115.782 89.0721C115.007 88.7295 114.284 88.279 113.634 87.7338C113.405 87.5486 113.192 87.3456 112.995 87.1267C112.995 87.1267 113.214 87.337 113.668 87.6955C114.326 88.221 115.051 88.6551 115.825 88.9861C117.054 89.4939 118.367 89.7648 119.696 89.7844C120.525 89.8043 121.354 89.7531 122.174 89.6314C123.094 89.4861 124.005 89.2914 124.904 89.0483C128.723 88.0923 133.238 86.9164 138.217 85.4537C139.463 85.0856 140.732 84.6937 142.036 84.2635C143.339 83.8333 144.632 83.3792 145.926 82.8295C146.241 82.6813 146.57 82.5522 146.881 82.3849C147.199 82.2444 147.499 82.0646 147.773 81.8496C148.306 81.3859 148.709 80.7912 148.943 80.124C149.413 78.7308 149.647 77.2686 149.635 75.7981C149.663 74.7513 149.635 73.714 149.582 72.6815V72.2896C149.582 72.2226 149.582 72.1557 149.582 72.084C149.578 72.0459 149.578 72.0074 149.582 71.9693C149.593 71.9398 149.606 71.911 149.62 71.8833L149.644 71.845C149.778 71.649 149.867 71.4252 149.902 71.1902C149.958 70.7041 149.894 70.2117 149.716 69.7562C149.556 69.2997 149.291 68.8871 148.943 68.5516C148.774 68.3929 148.571 68.2737 148.351 68.2027C148.112 68.1405 147.873 68.0736 147.639 68.0163C146.696 67.8115 145.739 67.6789 144.775 67.6195C142.935 67.4786 141.086 67.5139 139.253 67.7247C139.143 67.7247 139.033 67.7533 138.928 67.782L138.775 67.8155C138.742 67.8285 138.71 67.8445 138.68 67.8633C138.536 68.0202 138.407 68.1898 138.293 68.37C138.066 68.7216 137.928 69.1237 137.892 69.5411C137.851 70.3626 138.075 71.1756 138.532 71.8594L138.627 72.0075H138.46L123.501 73.9195C122.146 73.8507 120.788 73.889 119.439 74.0343C118.961 74.0821 118.613 74.1346 118.374 74.1681C118.136 74.2016 118.016 74.2589 118.016 74.2589Z" fill="#263238"/>
<path d="M77.5254 89.8264L71.434 78.8669L186.648 14.6499C187.976 13.91 189.542 13.7285 191.003 14.1453C192.464 14.5621 193.7 15.543 194.439 16.8722L194.961 17.812C195.7 19.1412 195.881 20.7099 195.465 22.173C195.049 23.6361 194.07 24.8737 192.742 25.6135L77.5278 89.8306L77.5254 89.8264Z" fill="#E34F33"/>
<path d="M174.138 31.8662L160.031 6.48482C159.962 6.36196 159.919 6.22684 159.903 6.08716C159.887 5.94748 159.898 5.80599 159.937 5.67076C159.975 5.53553 160.04 5.40921 160.127 5.29902C160.214 5.18883 160.322 5.09691 160.445 5.02853L166.918 1.42062C167.041 1.35224 167.176 1.30872 167.315 1.29256C167.455 1.2764 167.596 1.28791 167.731 1.32643C167.866 1.36495 167.992 1.42973 168.102 1.51707C168.212 1.60441 168.304 1.7126 168.372 1.83546L182.48 27.2168L174.138 31.8662Z" fill="#E34F33"/>
<path d="M146.385 20.0472L156.667 38.5454C157.083 39.2928 158.024 39.5615 158.771 39.1455L164.41 36.0025C165.156 35.5865 165.424 34.6434 165.009 33.8961L154.727 15.3978C154.312 14.6504 153.37 14.3818 152.624 14.7978L146.985 17.9407C146.238 18.3567 145.97 19.2998 146.385 20.0472Z" fill="#E34F33"/>
<path d="M155.463 18.9671L161.829 30.4194L174.783 23.199L168.418 11.7466L155.463 18.9671Z" fill="#E34F33"/>
<path d="M184.962 15.613C184.996 15.6704 162.384 28.3374 134.47 43.9011C106.555 59.4647 83.8725 72.0361 83.8725 71.974C83.8725 71.9119 106.446 59.2496 134.37 43.6812C162.294 28.1127 184.929 15.5509 184.962 15.613Z" fill="#263238"/>
<path d="M30.8646 110.998C39.3612 126.294 57.2755 132.508 70.8795 124.932C84.4835 117.356 88.6363 98.8091 80.1398 83.5323C71.6432 68.2554 53.7337 62.0223 40.1249 69.5986C26.5161 77.1749 22.3729 95.7213 30.8646 110.998ZM72.7698 87.6431C78.7221 98.3503 75.8151 111.338 66.278 116.648C56.7409 121.959 44.1918 117.604 38.2394 106.887C32.2871 96.1706 35.1941 83.1929 44.7264 77.8775C54.2588 72.5622 66.8174 76.9359 72.7698 87.6431Z" fill="#E34F33"/>
<path d="M90.8282 67.925L97.1147 79.2353C97.9506 80.7393 99.8458 81.2799 101.348 80.4428L101.857 80.1592C103.358 79.3221 103.898 77.4243 103.062 75.9203L96.7758 64.61C95.9399 63.1061 94.0447 62.5654 92.5429 63.4025L92.034 63.6862C90.5322 64.5232 89.9923 66.421 90.8282 67.925Z" fill="#E34F33"/>
<path d="M102.901 61.1953L109.188 72.5056C110.024 74.0096 111.919 74.5502 113.421 73.7131L113.93 73.4295C115.432 72.5924 115.971 70.6946 115.135 69.1906L108.849 57.8803C108.013 56.3763 106.118 55.8357 104.616 56.6728L104.107 56.9564C102.605 57.7935 102.066 59.6913 102.901 61.1953Z" fill="#E34F33"/>
<path d="M96.6412 64.4361C96.7033 64.4027 98.1591 66.9695 99.9014 70.1721C101.644 73.3747 103.004 75.9846 102.942 76.0181C102.88 76.0515 101.424 73.4894 99.6818 70.2821C97.9395 67.0747 96.5791 64.4361 96.6412 64.4361Z" fill="#263238"/>
<path d="M91.0993 68.3795C91.1614 68.346 92.5838 70.7982 94.2832 73.8478C95.9825 76.8974 97.3047 79.4069 97.2474 79.4404C97.1901 79.4739 95.7629 77.0217 94.0827 73.996C92.4025 70.9702 91.0421 68.4129 91.0993 68.3795Z" fill="#263238"/>
<path d="M108.789 57.7774C108.851 57.744 110.336 60.2965 112.107 63.48C113.878 66.6634 115.262 69.2781 115.2 69.3116C115.138 69.345 113.658 66.7877 111.887 63.6042C110.116 60.4208 108.732 57.8109 108.789 57.7774Z" fill="#263238"/>
<path d="M102.961 61.3004C103.018 61.2669 104.474 63.8051 106.202 66.9695C107.93 70.1338 109.291 72.7055 109.228 72.758C109.166 72.8106 107.72 70.2533 105.987 67.089C104.255 63.9246 102.899 61.3338 102.961 61.3004Z" fill="#263238"/>
<path d="M137.582 44.0588C138.138 44.1243 138.698 43.9804 139.154 43.655C139.609 43.3296 139.928 42.846 140.047 42.2984C140.166 41.7508 140.077 41.1785 139.798 40.6927C139.519 40.207 139.069 39.8427 138.537 39.6708C138.881 39.3177 139.106 38.8652 139.179 38.3772C139.252 37.8893 139.17 37.3906 138.945 36.9518C138.719 36.513 138.362 36.1563 137.923 35.9323C137.484 35.7082 136.986 35.6281 136.499 35.7034C136.478 35.218 136.333 34.7461 136.077 34.3336C135.821 33.921 135.463 33.5818 135.037 33.3489C134.612 33.1161 134.133 32.9974 133.648 33.0046C133.163 33.0118 132.688 33.1445 132.269 33.3899C131.723 32.9429 131.044 32.6917 130.339 32.6761C129.634 32.6605 128.944 32.8814 128.379 33.3038C127.904 33.2131 127.413 33.2779 126.978 33.4888C126.543 33.6997 126.187 34.0454 125.964 34.4746C125.74 34.9038 125.661 35.3937 125.738 35.8716C125.814 36.3495 126.042 36.79 126.389 37.1278" fill="#263238"/>
<path d="M127.897 35.5315H128.374C130.781 35.5335 133.099 36.4431 134.866 38.0791C136.633 39.7151 137.721 41.9576 137.911 44.3602C138.269 48.992 138.604 54.1114 138.565 56.597C138.475 61.7594 133.348 62.5241 133.348 62.5241L133.763 68.7095L121.291 68.3032L120.255 45.885C119.816 40.5362 122.551 35.8279 127.897 35.5315Z" fill="#FFBF9D"/>
<path d="M133.391 62.524C131.005 62.5175 128.671 61.8257 126.665 60.5308C126.665 60.5308 128.317 64.4265 133.444 63.9771L133.391 62.524Z" fill="#FF9A6C"/>
<path d="M135.09 49.2117C135.092 49.4032 135.018 49.5876 134.885 49.7252C134.752 49.8629 134.57 49.9428 134.379 49.9478C134.286 49.9543 134.192 49.9422 134.104 49.9122C134.015 49.8822 133.934 49.835 133.864 49.7732C133.793 49.7114 133.736 49.6363 133.695 49.5522C133.654 49.4681 133.63 49.3767 133.625 49.2834C133.625 49.0917 133.699 48.9075 133.831 48.7693C133.964 48.6312 134.145 48.5499 134.336 48.5425C134.43 48.536 134.524 48.5482 134.612 48.5785C134.701 48.6088 134.783 48.6564 134.853 48.7187C134.924 48.781 134.981 48.8567 135.021 48.9413C135.062 49.0259 135.086 49.1178 135.09 49.2117Z" fill="#263238"/>
<path d="M136.799 46.8885C136.709 46.9841 136.15 46.5731 135.367 46.5731C134.584 46.5731 133.997 46.965 133.911 46.8694C133.825 46.7738 133.964 46.6543 134.217 46.4679C134.559 46.2323 134.966 46.1087 135.382 46.1142C135.792 46.1125 136.192 46.2432 136.522 46.487C136.761 46.6734 136.842 46.8503 136.799 46.8885Z" fill="#263238"/>
<path d="M127.973 48.8676C127.977 49.0621 127.904 49.2501 127.77 49.3907C127.636 49.5314 127.452 49.6131 127.257 49.6181C127.164 49.6246 127.071 49.6125 126.982 49.5825C126.894 49.5526 126.812 49.5053 126.742 49.4435C126.672 49.3817 126.614 49.3066 126.574 49.2225C126.533 49.1385 126.509 49.0471 126.503 48.9537C126.502 48.7617 126.575 48.5768 126.708 48.4384C126.841 48.3 127.023 48.219 127.214 48.2128C127.307 48.2056 127.401 48.2169 127.489 48.246C127.577 48.275 127.659 48.3213 127.73 48.3822C127.8 48.4431 127.858 48.5173 127.9 48.6006C127.942 48.6839 127.967 48.7747 127.973 48.8676Z" fill="#263238"/>
<path d="M129.038 47.0131C128.947 47.1087 128.389 46.6976 127.606 46.6976C126.823 46.6976 126.236 47.0895 126.15 46.9939C126.064 46.8983 126.202 46.7788 126.455 46.5924C126.798 46.3568 127.205 46.2332 127.62 46.2387C128.031 46.237 128.431 46.3677 128.761 46.6115C129 46.798 129.081 46.97 129.038 47.0131Z" fill="#263238"/>
<path d="M131.883 52.8875C132.299 52.7564 132.731 52.6793 133.167 52.658C133.367 52.658 133.558 52.6007 133.596 52.4621C133.613 52.2539 133.567 52.0456 133.463 51.8646L132.871 50.3254C132.05 48.1314 131.439 46.3293 131.544 46.3006C131.649 46.272 132.37 48.0167 133.191 50.2059C133.386 50.746 133.577 51.2623 133.759 51.7546C133.882 51.9996 133.918 52.28 133.859 52.5481C133.829 52.6189 133.783 52.682 133.725 52.7325C133.667 52.783 133.599 52.8197 133.525 52.8397C133.415 52.8724 133.301 52.8885 133.186 52.8875C132.753 52.9417 132.315 52.9417 131.883 52.8875Z" fill="#263238"/>
<path d="M129.73 43.9728C129.625 44.1736 128.952 43.9728 128.117 43.925C127.281 43.8772 126.584 44.035 126.508 43.8246C126.475 43.7243 126.622 43.5474 126.923 43.3849C127.311 43.193 127.742 43.1041 128.174 43.1268C128.602 43.142 129.019 43.2706 129.381 43.4996C129.654 43.686 129.778 43.882 129.73 43.9728Z" fill="#263238"/>
<path d="M136.847 43.6336C136.68 43.8104 136.026 43.6336 135.243 43.6336C134.46 43.6336 133.811 43.7531 133.644 43.5619C133.577 43.471 133.682 43.2894 133.973 43.1221C134.374 42.9115 134.824 42.811 135.276 42.8305C135.727 42.8366 136.167 42.9637 136.551 43.1986C136.828 43.3611 136.919 43.5427 136.847 43.6336Z" fill="#263238"/>
<path d="M137.425 42.0179C137.425 42.0179 136.078 38.7914 134.527 38.0361C132.651 37.1184 131.84 39.1786 130.05 38.6719C128.26 38.1652 126.47 37.2905 124.637 38.6719C122.632 40.1824 123.568 41.2483 123.434 43.5331C122.909 52.7872 121.21 55.3971 120.747 51.0377C120.694 50.5597 119.372 50.1773 119.181 48.1697C118.933 45.5551 118.842 42.3764 119.434 40.5217C119.911 38.9587 120.823 37.8784 122.422 36.6977C124.952 34.824 128.417 34.7857 130.771 35.0391C133.124 35.2924 137.649 37.9836 137.425 42.0179Z" fill="#263238"/>
<path d="M121.071 50.8943C121.066 50.7055 121.022 50.5197 120.943 50.3482C120.864 50.1767 120.751 50.023 120.611 49.8966C120.471 49.7701 120.306 49.6734 120.128 49.6124C119.949 49.5514 119.76 49.5273 119.572 49.5416C118.618 49.6324 117.544 50.1726 117.601 52.1563C117.701 55.6743 121.209 54.8474 121.214 54.7422C121.219 54.6371 121.128 52.3666 121.071 50.8943Z" fill="#FFBF9D"/>
<path d="M120.408 53.4422C120.408 53.4422 120.35 53.49 120.245 53.5378C120.103 53.6033 119.941 53.6118 119.792 53.5617C119.56 53.4243 119.369 53.2273 119.239 52.9911C119.109 52.7549 119.044 52.4881 119.052 52.2185C119.034 51.9183 119.083 51.6178 119.195 51.339C119.226 51.2287 119.282 51.1276 119.36 51.0443C119.439 50.961 119.536 50.8981 119.644 50.861C119.714 50.8396 119.789 50.8438 119.856 50.8726C119.924 50.9015 119.979 50.9532 120.011 51.0187C120.059 51.1143 120.04 51.186 120.059 51.1908C120.078 51.1956 120.131 51.1286 120.097 50.9852C120.078 50.898 120.027 50.8212 119.954 50.7701C119.906 50.7346 119.851 50.7092 119.793 50.6952C119.735 50.6813 119.674 50.6791 119.615 50.6889C119.471 50.7213 119.338 50.7902 119.229 50.889C119.119 50.9878 119.037 51.1131 118.99 51.2529C118.848 51.5609 118.784 51.899 118.804 52.2376C118.847 52.945 119.229 53.5999 119.758 53.7337C119.853 53.7587 119.952 53.7618 120.048 53.7427C120.144 53.7237 120.234 53.683 120.312 53.6238C120.408 53.5282 120.422 53.4422 120.408 53.4422Z" fill="#FF9A6C"/>
<path d="M121.162 44.0781C121.592 44.4289 122.102 44.6671 122.646 44.7712C122.92 44.8141 123.2 44.7564 123.434 44.6088C123.668 44.4612 123.841 44.2336 123.921 43.9682C123.964 43.7244 123.921 43.4376 124.064 43.2512C124.207 43.0647 124.613 43.0982 124.904 43.1317C125.926 43.2416 127.124 42.1135 127.386 41.1193C127.519 41.31 127.719 41.4428 127.946 41.4908C128.173 41.5387 128.41 41.4982 128.608 41.3774C128.933 41.1787 129.22 40.9248 129.458 40.6269C129.596 40.4373 129.778 40.2839 129.989 40.1799C130.199 40.0759 130.431 40.0243 130.666 40.0294C130.913 40.1149 131.169 40.1711 131.429 40.1967C131.907 40.1585 132.117 39.6184 132.188 39.1595C132.26 38.7006 132.317 38.17 132.709 37.9215C133.11 37.7638 133.554 37.752 133.964 37.888C134.389 37.9549 134.919 37.8545 135.047 37.4387C135.065 37.3275 135.06 37.214 135.033 37.1048C135.006 36.9956 134.957 36.893 134.89 36.8029C134.606 36.3766 134.187 36.0587 133.7 35.9008C133.213 35.7429 132.687 35.7543 132.207 35.933C132.038 35.3447 131.698 34.8201 131.231 34.426C130.763 34.0319 130.189 33.7861 129.581 33.72C128.973 33.6538 128.36 33.7703 127.818 34.0546C127.277 34.3389 126.833 34.7782 126.541 35.3164C126.17 34.9754 125.721 34.7295 125.234 34.5997C124.747 34.4699 124.235 34.4599 123.744 34.5708C123.252 34.6816 122.794 34.9098 122.409 35.2361C122.024 35.5623 121.724 35.9769 121.534 36.4444C121.104 36.3297 120.65 36.344 120.229 36.4856C119.807 36.6272 119.436 36.8898 119.163 37.2409C118.889 37.5919 118.724 38.0158 118.689 38.4598C118.654 38.9037 118.751 39.3482 118.966 39.7379C118.639 39.8996 118.358 40.142 118.15 40.4421C117.943 40.7423 117.814 41.0904 117.778 41.4539C117.778 42.1804 118.47 42.8879 119.171 42.7158C119.026 43.0021 118.995 43.3333 119.086 43.6415C119.177 43.9496 119.382 44.2113 119.659 44.3728C119.936 44.5343 120.265 44.5833 120.577 44.5099C120.89 44.4364 121.162 44.246 121.338 43.9777" fill="#263238"/>
<path d="M132.465 36.9653C132.465 36.9653 132.465 36.9653 132.465 37.0323C132.465 37.0992 132.465 37.1374 132.441 37.2187C132.392 37.4572 132.305 37.6864 132.183 37.8974C131.99 38.2282 131.724 38.5109 131.405 38.7244C130.985 39.0117 130.482 39.1543 129.973 39.1307L130.031 39.0542C130.134 39.3698 130.108 39.7135 129.959 40.0102C129.801 40.3247 129.599 40.6145 129.358 40.8706C129.241 41.0199 129.108 41.1561 128.961 41.2769C128.702 41.448 128.39 41.5212 128.081 41.4836C127.773 41.4459 127.488 41.2998 127.276 41.0714L127.405 41.0331C127.356 41.3984 127.231 41.7492 127.037 42.0629C126.844 42.3766 126.587 42.6462 126.284 42.8543C125.95 43.1028 125.544 43.2354 125.128 43.2319C124.738 43.2106 124.355 43.125 123.992 42.9786L124.088 42.9356C123.904 43.3612 123.617 43.7342 123.253 44.0206C123.086 44.1632 122.89 44.2669 122.679 44.3239C122.467 44.381 122.246 44.3901 122.031 44.3504C121.661 44.27 121.324 44.0833 121.059 43.8132C120.795 43.5432 120.615 43.2016 120.541 42.8304L120.622 42.8686C120.251 43.0613 119.825 43.1219 119.415 43.0407C119.109 42.9823 118.821 42.853 118.575 42.6631C118.421 42.5425 118.289 42.3971 118.183 42.2329C118.145 42.1759 118.116 42.1129 118.097 42.0465C118.231 42.2663 118.404 42.4592 118.608 42.6153C118.851 42.7915 119.133 42.9077 119.429 42.9547C119.819 43.0286 120.222 42.9644 120.57 42.773L120.637 42.7348V42.8113C120.709 43.1567 120.88 43.4736 121.129 43.7232C121.379 43.9728 121.695 44.1442 122.04 44.2166C122.237 44.251 122.439 44.241 122.631 44.1872C122.824 44.1335 123.002 44.0374 123.152 43.9059C123.494 43.6336 123.763 43.2805 123.935 42.8782L123.964 42.8161H124.031C124.376 42.9552 124.742 43.036 125.114 43.0551C125.499 43.0582 125.874 42.9357 126.183 42.7061C126.469 42.5095 126.711 42.2554 126.894 41.9599C127.076 41.6645 127.195 41.3342 127.243 40.9901V40.8228L127.353 40.9519C127.477 41.0892 127.633 41.194 127.807 41.2574C127.981 41.3207 128.167 41.3405 128.35 41.3151C128.521 41.2923 128.685 41.2301 128.828 41.1335C128.966 41.0222 129.091 40.8955 129.2 40.7559C129.436 40.512 129.636 40.235 129.792 39.9337C129.862 39.7995 129.905 39.6526 129.918 39.5016C129.932 39.3506 129.915 39.1985 129.868 39.0542L129.84 38.9682H129.93C130.418 38.9985 130.902 38.8693 131.31 38.6001C131.623 38.3981 131.887 38.1287 132.083 37.8114C132.259 37.5542 132.389 37.2677 132.465 36.9653Z" fill="#455A64"/>
<path d="M131.873 55.5117C131.845 55.3826 130.99 55.5929 130.198 55.0098C129.405 54.4266 129.277 53.4897 129.157 53.5136C129.038 53.5375 129.038 53.7622 129.124 54.1494C129.241 54.6545 129.534 55.1016 129.95 55.4113C130.346 55.7075 130.843 55.8378 131.334 55.7746C131.701 55.7172 131.892 55.569 131.873 55.5117Z" fill="#263238"/>
<path d="M158.346 189.251L161.735 200.814C161.735 200.814 174.623 201.244 175.449 203.324L153.272 210.704L147.248 192.899L158.346 189.251Z" fill="#455A64"/>
<path d="M154.566 202.138C154.374 202.274 154.24 202.476 154.188 202.706C154.136 202.935 154.17 203.175 154.284 203.381C154.412 203.578 154.611 203.717 154.839 203.772C155.068 203.826 155.308 203.79 155.511 203.673C155.714 203.528 155.856 203.313 155.91 203.069C155.963 202.825 155.925 202.57 155.802 202.353C155.646 202.162 155.423 202.038 155.178 202.007C154.934 201.977 154.687 202.043 154.489 202.191" fill="#E0E0E0"/>
<path d="M174.198 202.487C174.198 202.487 175.33 202.587 175.449 203.324L153.272 210.704L152.737 208.883L174.179 202.478" fill="#263238"/>
<path d="M162.055 200.58C162.088 200.69 161.578 200.919 161.148 201.445C160.718 201.971 160.599 202.521 160.484 202.511C160.37 202.502 160.327 201.823 160.842 201.197C161.358 200.57 162.045 200.475 162.055 200.58Z" fill="white"/>
<path d="M164.699 200.766C164.761 200.867 164.356 201.206 164.136 201.785C163.917 202.363 163.979 202.889 163.869 202.917C163.759 202.946 163.487 202.358 163.769 201.641C164.05 200.924 164.666 200.666 164.699 200.766Z" fill="white"/>
<path d="M166.948 203.113C166.857 203.171 166.528 202.678 166.609 201.995C166.69 201.311 167.115 200.9 167.191 200.977C167.267 201.053 167.057 201.455 167 202.038C166.943 202.621 167.053 203.056 166.948 203.113Z" fill="white"/>
<path d="M160.991 198.032C160.991 198.147 160.432 198.161 159.835 198.405C159.239 198.649 158.823 199.003 158.737 198.931C158.652 198.859 158.981 198.319 159.692 198.037C160.403 197.755 161.019 197.927 160.991 198.032Z" fill="white"/>
<path d="M106.632 189.352L101.806 200.394C101.806 200.394 111.396 208.998 110.703 211.139L88.9847 202.535L95.7963 185.021L106.632 189.352Z" fill="#455A64"/>
<path d="M95.4622 196.794C95.2286 196.776 94.9963 196.844 94.8097 196.986C94.6231 197.128 94.4952 197.334 94.4502 197.564C94.4235 197.797 94.4867 198.032 94.6268 198.22C94.7669 198.408 94.9735 198.536 95.2044 198.577C95.4524 198.596 95.6984 198.522 95.8956 198.37C96.0928 198.219 96.2274 198 96.2736 197.755C96.2736 197.277 95.8392 196.732 95.3715 196.799" fill="#E0E0E0"/>
<path d="M110.279 209.695C110.279 209.695 111.081 210.503 110.703 211.129L88.9847 202.525L89.7437 200.79L110.269 209.681" fill="#263238"/>
<path d="M102.197 200.422C102.154 200.527 101.605 200.365 100.947 200.499C100.288 200.632 99.8345 200.977 99.7534 200.891C99.6723 200.805 100.073 200.26 100.87 200.111C101.668 199.963 102.264 200.331 102.197 200.422Z" fill="white"/>
<path d="M104.107 202.267C104.107 202.377 103.563 202.377 103.023 202.683C102.484 202.989 102.197 203.424 102.068 203.381C101.94 203.338 102.135 202.707 102.808 202.339C103.481 201.971 104.145 202.167 104.107 202.267Z" fill="white"/>
<path d="M104.326 205.508C104.221 205.508 104.283 204.906 104.804 204.433C105.324 203.96 105.892 203.921 105.901 204.026C105.911 204.132 105.481 204.323 105.076 204.72C104.67 205.116 104.436 205.542 104.326 205.508Z" fill="white"/>
<path d="M103.023 197.798C102.942 197.874 102.512 197.54 101.897 197.32C101.281 197.1 100.741 197.129 100.722 197.019C100.703 196.909 101.3 196.703 102.021 196.942C102.741 197.181 103.109 197.722 103.023 197.798Z" fill="white"/>
<path d="M114.761 128.694L107.152 159.601C107.152 159.601 93.4287 182.736 91.1041 194.313L103.658 199.256C103.658 199.256 112.789 176.957 115.467 172.866C116.672 171.032 118.057 169.323 119.601 167.765C120.605 166.768 121.325 165.521 121.687 164.152L127.448 142.102L114.761 128.694Z" fill="#263238"/>
<path d="M111.52 123.751C111.52 123.751 112.579 132.03 120.536 135.701L137.3 163.043C137.3 163.043 138.613 171.933 141.119 179.424C143.625 186.914 148.69 201.35 148.69 201.35L162.48 196.187L153.692 166.102L152.26 155.667L138.58 120.773L126.828 113.718L111.52 123.751Z" fill="#263238"/>
<path d="M111.52 123.751L111.773 123.579L112.532 123.072L115.51 121.103L126.804 113.67L126.842 113.646L126.88 113.67L138.642 120.711V120.74L152.351 155.6V155.624C152.804 158.922 153.305 162.455 153.783 166.059C156.169 174.185 158.699 182.88 161.315 191.837C161.738 193.281 162.158 194.715 162.575 196.139L162.609 196.249L162.499 196.288L148.709 201.45L148.589 201.493L148.551 201.374C146.165 194.438 143.854 187.76 141.673 181.427C141.124 179.844 140.584 178.277 140.136 176.709C139.687 175.141 139.281 173.583 138.914 172.043C138.188 168.965 137.606 165.959 137.148 163.043V163.081L120.479 135.73L120.508 135.754C118.492 134.81 116.701 133.444 115.257 131.748C114.199 130.503 113.33 129.108 112.68 127.609C112.277 126.683 111.958 125.723 111.725 124.741C111.644 124.416 111.596 124.162 111.567 123.99C111.539 123.818 111.534 123.732 111.534 123.732C111.534 123.732 111.534 123.818 111.586 123.985C111.639 124.153 111.668 124.406 111.758 124.736C112.005 125.706 112.334 126.652 112.742 127.566C113.4 129.05 114.272 130.43 115.329 131.662C116.778 133.34 118.568 134.689 120.579 135.62L137.377 162.942V162.966C137.854 165.873 138.427 168.874 139.152 171.948C139.52 173.482 139.921 175.036 140.374 176.599C140.828 178.162 141.363 179.72 141.911 181.302C144.102 187.636 146.408 194.314 148.804 201.245L148.647 201.173L162.437 196.01L162.36 196.159C161.947 194.734 161.527 193.3 161.1 191.857L153.578 166.073C153.1 162.469 152.594 158.937 152.146 155.639V155.667L138.489 120.773L138.527 120.816L126.785 113.747H126.856L115.563 121.146L112.555 123.087L111.782 123.589L111.52 123.751Z" fill="#455A64"/>
<path d="M118.904 64.6845C118.904 64.6845 114.885 67.7819 112.933 71.2426C110.594 75.3869 110.341 81.5292 110.269 91.0701C110.197 99.894 111.515 102.346 111.009 105.673C110.011 112.169 109.271 133.971 109.271 133.971C109.271 133.971 122.159 129.014 124.661 126.801L127.176 124.611L143.305 129.951L140.05 110.104L137.816 85.3675L134.952 72.2464L134.475 67.0984L120.622 61.5249L118.904 64.6845Z" fill="#455A64"/>
<path d="M133.954 66.826C134.121 66.8595 133.558 67.9923 132.565 69.6558L132.522 69.7227L132.446 69.694C131.047 69.1491 129.195 68.4656 127.171 67.7247C124.89 66.8929 122.828 66.1186 121.353 65.5163C120.613 65.2152 120.021 64.9618 119.615 64.7754C119.4 64.6919 119.192 64.5896 118.995 64.4695C119.221 64.5201 119.442 64.5937 119.653 64.6894L121.415 65.3538L127.257 67.4904C129.281 68.2313 131.129 68.9244 132.508 69.5172L132.393 69.5554C133.434 67.9254 134.05 66.8499 133.954 66.826Z" fill="#263238"/>
<path d="M150.623 56.5204C150.623 56.5204 149.601 54.9287 148.637 53.4612C147.673 51.9938 146.212 51.272 145.978 50.5072C145.745 49.7424 144.46 46.3343 144.255 45.4882C144.077 44.6688 143.994 43.8315 144.007 42.993C144.007 42.993 145.062 42.5437 145.568 44.0542C145.873 44.9624 146.847 48.0455 147.057 48.1985C147.267 48.3514 147.535 48.1268 147.535 48.1268C147.101 46.9724 146.727 45.7965 146.413 44.6039C146.365 44.0446 146.561 40.3354 146.561 40.3354C146.822 40.2825 147.094 40.3253 147.327 40.456C147.56 40.5866 147.739 40.7965 147.83 41.0476C148.332 42.0036 148.351 44.3936 148.351 44.3936L149.11 47.0608L148.842 44.4223L149.224 39.5706C149.595 39.6235 149.941 39.7896 150.214 40.0461C150.487 40.3027 150.675 40.6374 150.752 41.0046C151.072 42.3143 150.647 44.1402 150.862 44.5274C151.076 44.9146 151.31 47.2568 151.31 47.2568C151.31 47.2568 151.573 41.5686 152.179 41.4061C152.785 41.2436 153.282 41.8458 153.196 42.993C153.11 44.1402 153.086 46.5685 153.401 47.6392C153.716 48.7099 156.948 52.8972 156.685 54.7327C156.524 55.8417 156.424 56.9587 156.384 58.0787H150.847L150.623 56.5204Z" fill="#FFBF9D"/>
<path d="M131.2 70.846C131.51 70.9655 144.737 74.2446 144.737 74.2446C144.737 74.2446 147.692 69.4645 148.126 68.0783C148.561 66.6922 150.885 57.4572 150.885 57.4572L156.475 56.9314C156.475 56.9314 155.043 80.7788 153.019 82.0646C150.995 83.3505 147.768 84.0005 147.558 83.9288C147.348 83.8571 133.262 84.837 125.84 78.9815C118.417 73.126 131.2 70.846 131.2 70.846Z" fill="#FFBF9D"/>
<g opacity="0.3">
<path d="M121.72 83.4699C123.14 85.079 125.034 86.194 127.128 86.6534C130.637 87.4278 138.107 88.7996 138.107 88.7996L137.744 85.1286L121.515 83.3887" fill="black"/>
</g>
<path d="M115.83 78.4223C117.033 80.9653 119.706 83.6803 125.582 84.2969C137.214 85.5015 146.021 86.142 149.826 85.5684C153.63 84.9948 155.143 76.931 155.554 76.6824C156.737 75.9367 156.661 73.3746 155.64 72.6098C152.737 70.4349 146.919 68.7858 146.527 68.9627C144.212 70.1147 144.966 72.8106 144.966 72.8106L130.217 69.5506C128.518 68.843 126.746 68.3268 124.933 68.0115" fill="#455A64"/>
<path d="M124.933 68.0114C124.933 68.0114 125.057 68.0114 125.296 68.0592C125.534 68.107 125.892 68.1643 126.35 68.2647C127.681 68.5669 128.984 68.9794 130.245 69.4979L144.986 72.7101L144.861 72.8439C144.643 71.9968 144.71 71.1012 145.052 70.2962C145.241 69.884 145.526 69.5233 145.883 69.2446C146.064 69.1033 146.257 68.9785 146.46 68.8718C146.53 68.851 146.602 68.8397 146.675 68.8383H146.852C146.971 68.8383 147.076 68.8765 147.191 68.8957C149.005 69.3252 150.774 69.9254 152.475 70.6882C153.371 71.0792 154.238 71.5362 155.067 72.0552C155.272 72.1891 155.477 72.3373 155.683 72.4807C155.895 72.6422 156.068 72.8497 156.189 73.0877C156.421 73.5571 156.542 74.0741 156.542 74.5982C156.554 75.1286 156.436 75.6538 156.198 76.1278C156.066 76.3723 155.88 76.5833 155.654 76.7444C155.597 76.7731 155.558 76.8974 155.511 77.0121L155.387 77.3706C155.072 78.3266 154.757 79.3495 154.375 80.3342C153.874 81.7463 153.142 83.0646 152.208 84.2347C151.869 84.6794 151.437 85.0442 150.942 85.3036C150.447 85.5629 149.901 85.7104 149.344 85.7356C148.986 85.7882 148.628 85.7977 148.274 85.8264C146.842 85.9125 145.468 85.8933 144.107 85.8551C142.747 85.8169 141.415 85.7452 140.121 85.6639C134.933 85.3293 130.279 84.8561 126.374 84.4498C125.441 84.368 124.514 84.2339 123.596 84.0483C122.782 83.8738 121.983 83.6307 121.21 83.3217C119.956 82.834 118.807 82.1104 117.825 81.1898C117.212 80.6024 116.685 79.9314 116.26 79.1966C116.107 78.9444 115.975 78.6807 115.863 78.4079C115.863 78.4079 115.997 78.6803 116.303 79.1727C116.744 79.8891 117.278 80.5433 117.892 81.1181C118.873 82.0187 120.017 82.7229 121.262 83.1926C122.037 83.492 122.835 83.727 123.649 83.8953C124.564 84.071 125.488 84.1971 126.417 84.2729C130.322 84.6601 134.976 85.1142 140.155 85.4392C141.453 85.5157 142.78 85.5826 144.136 85.6161C145.491 85.6496 146.881 85.6687 148.284 85.5874C148.632 85.554 148.99 85.5444 149.339 85.4918C149.687 85.4735 150.03 85.4075 150.36 85.2958C151.02 85.0412 151.602 84.6195 152.05 84.0722C152.964 82.9247 153.681 81.6322 154.169 80.2482C154.551 79.2922 154.862 78.2836 155.177 77.2989L155.31 76.9261C155.31 76.8687 155.358 76.8066 155.387 76.7396C155.404 76.7027 155.425 76.6675 155.449 76.6345C155.467 76.6115 155.488 76.5906 155.511 76.5723L155.544 76.5437C155.742 76.4063 155.906 76.2247 156.021 76.0131C156.245 75.569 156.353 75.0759 156.336 74.5791C156.338 74.0955 156.228 73.618 156.017 73.1833C155.912 72.9781 155.764 72.7985 155.582 72.6575C155.377 72.5189 155.181 72.3707 154.976 72.2417C154.159 71.7263 153.303 71.2741 152.418 70.8889C150.735 70.1295 148.985 69.531 147.191 69.1012C147.081 69.1012 146.971 69.0534 146.866 69.0438H146.709H146.604C146.416 69.1444 146.237 69.2611 146.069 69.3928C145.737 69.6439 145.47 69.9719 145.291 70.3488C144.975 71.1049 144.909 71.9427 145.105 72.7388L145.148 72.9061L144.981 72.8678L130.265 69.5696C129.014 69.0429 127.725 68.6145 126.408 68.2886C125.93 68.1787 125.601 68.1022 125.362 68.0544C125.124 68.0066 124.933 68.0114 124.933 68.0114Z" fill="#263238"/>
<path d="M149.826 77.4234C149.486 77.3392 149.164 77.1986 148.871 77.0075C148.139 76.5986 147.465 76.0939 146.866 75.5066C146.265 74.9215 145.739 74.2631 145.301 73.5468C145.101 73.2533 144.948 72.9309 144.847 72.5908C145.501 73.5563 146.234 74.466 147.038 75.3106C147.902 76.0969 148.835 76.804 149.826 77.4234Z" fill="#263238"/>
<path d="M45.977 116.792C45.977 116.792 48.9365 116.949 50.7504 118.101C52.5642 119.253 55.5237 121.031 56.7409 123.249C57.2994 124.267 55.7099 124.483 54.927 123.89C54.1442 123.297 52.9366 122.188 52.3399 122.05L51.7432 121.916C52.2873 123.149 52.8943 124.354 53.5619 125.525C54.1776 126.481 54.7122 128.068 52.865 128.144C52.865 128.144 51.6144 129.769 50.3542 128.565C50.3542 128.565 49.3709 130.037 47.7861 127.996C47.7861 127.996 46.8649 129.162 46.4782 128.718C46.0916 128.273 44.8314 127.561 44.4639 126.098C43.9155 124.394 43.2781 122.721 42.5546 121.084L45.977 116.792Z" fill="#FFBF9D"/>
<path d="M20.7929 77.8201C19.2759 78.3093 17.9666 79.2939 17.0745 80.6164C15.9384 82.3659 15.59 85.3964 15.9146 87.6525C16.6019 92.4086 18.7786 100.434 20.0053 105.587C20.4254 107.365 21.2893 110.549 23.824 112.236L41.9101 123.096L46.7455 115.926L30.2584 102.471L26.9982 84.0293L20.7929 77.8201Z" fill="#455A64"/>
<path d="M17.6664 95.9459C17.6912 96.0062 17.7103 96.0686 17.7237 96.1323L17.8764 96.6916C18.0053 97.1983 18.1867 97.9248 18.4253 98.8569C18.9027 100.769 19.5805 103.484 20.4254 106.863C20.9159 108.704 21.9549 110.352 23.4039 111.586C24.2317 112.25 25.1166 112.838 26.0484 113.345L28.9553 115.104L41.9817 122.982L41.8147 123.02L43.5569 120.434L46.6501 115.831L46.6739 115.998L30.3348 102.523H30.3062V102.49C29.2274 97.944 28.4446 94.2203 27.9481 91.6296C27.7047 90.3342 27.5329 89.3256 27.4231 88.6373C27.3753 88.3027 27.3372 88.0398 27.3085 87.8534C27.2799 87.667 27.2751 87.5857 27.2751 87.5857C27.301 87.672 27.3217 87.7598 27.3372 87.8486C27.3706 88.035 27.4183 88.2931 27.4756 88.6277C27.6045 89.3113 27.7906 90.3199 28.0579 91.6105C28.5782 94.1917 29.3897 97.9057 30.4923 102.447L30.4589 102.394L46.8267 115.807L46.9126 115.879L46.8505 115.969L43.7574 120.572L42.0152 123.158L41.9531 123.254L41.8481 123.197L28.8408 115.295L25.9386 113.532C25.0007 113.019 24.1094 112.426 23.275 111.758C21.8009 110.494 20.7496 108.807 20.2631 106.926C19.4468 103.537 18.7929 100.798 18.3537 98.9C18.1389 97.944 17.9671 97.2317 17.8478 96.7251L17.7093 96.1371C17.6906 96.0745 17.6762 96.0106 17.6664 95.9459Z" fill="#263238"/>
<path d="M17.9623 80.3679C18.0746 80.294 18.1991 80.2406 18.3299 80.2101C18.6764 80.103 19.0307 80.023 19.3896 79.9711C20.5868 79.7863 21.8119 79.9523 22.9171 80.4491C23.9852 81.0068 24.8924 81.8297 25.5519 82.8391C25.7519 83.1442 25.9123 83.4734 26.0293 83.819C26.0805 83.942 26.1096 84.0731 26.1152 84.2062C25.9089 83.7674 25.6712 83.344 25.404 82.9395C24.7245 81.9975 23.8355 81.2267 22.8073 80.6881C21.7408 80.2148 20.568 80.0334 19.4087 80.1623C18.516 80.234 17.9767 80.4109 17.9623 80.3679Z" fill="#263238"/>
</svg>
