<svg width="358" height="239" viewBox="0 0 358 239" fill="none" xmlns="http://www.w3.org/2000/svg">
<path d="M207.082 106.049C207.082 106.049 207.082 106.006 207.082 105.934V105.619C207.082 105.332 207.082 104.926 207.082 104.41C207.082 103.348 207.082 101.819 207.043 99.8972L207.115 99.9689L183.893 100.012C183.945 99.9593 183.773 100.131 184.012 99.8972V103.014C184.012 104.037 184.012 105.05 184.012 106.039L183.897 105.92L200.447 105.973L205.33 106.006H206.652H206.996C207.037 106.002 207.078 106.002 207.12 106.006H207.015H206.681H205.387L200.48 106.116L183.85 106.169H183.735V106.054C183.735 105.064 183.735 104.051 183.735 103.028V99.902L183.855 99.7825L207.077 99.8255H207.163V99.902C207.163 101.843 207.134 103.387 207.125 104.457C207.125 104.969 207.125 105.366 207.125 105.652C207.125 105.777 207.125 105.877 207.125 105.953C207.114 105.987 207.1 106.019 207.082 106.049Z" fill="#E0E0E0"/>
<path d="M251.75 41.7007C251.746 41.6641 251.746 41.6272 251.75 41.5907C251.75 41.5095 251.75 41.4043 251.75 41.2752C251.75 40.9837 251.75 40.5821 251.75 40.0611C251.75 39 251.727 37.4751 251.712 35.5488L251.784 35.6205L228.562 35.6683C228.614 35.6157 228.442 35.7878 228.676 35.5488V41.7007L228.557 41.5859L245.106 41.6385L249.994 41.672H251.316H251.66H251.784C251.747 41.6765 251.71 41.6765 251.674 41.672H251.345H250.046L245.187 41.7054L228.557 41.758H228.442V35.5584C228.676 35.3241 228.504 35.4914 228.562 35.4389L251.784 35.4867H251.855V35.5584C251.855 37.5038 251.822 39.043 251.812 40.1137C251.812 40.6252 251.812 41.0267 251.812 41.3087C251.812 41.433 251.812 41.5334 251.812 41.6146C251.794 41.6451 251.774 41.6739 251.75 41.7007Z" fill="#E0E0E0"/>
<path d="M337.871 133.84C337.866 133.804 337.866 133.767 337.871 133.73V133.415C337.871 133.128 337.871 132.722 337.871 132.205C337.871 131.144 337.871 129.615 337.833 127.688L337.904 127.76L314.682 127.808L314.801 127.688V133.84L314.687 133.725L331.236 133.778L336.119 133.811H337.441H337.785H337.909C337.909 133.811 337.875 133.811 337.799 133.811H337.47H336.176L331.317 133.845L314.687 133.897H314.567V127.712L314.687 127.597L337.909 127.64H337.952V127.712C337.952 129.658 337.923 131.197 337.914 132.272C337.914 132.784 337.914 133.18 337.914 133.467V133.768C337.901 133.793 337.887 133.817 337.871 133.84Z" fill="#E0E0E0"/>
<path d="M341.021 127.707C341.014 127.669 341.014 127.631 341.021 127.593C341.021 127.502 341.021 127.397 341.021 127.268C341.021 126.962 341.021 126.551 341.021 126.034C341.021 124.954 340.997 123.429 340.978 121.555L341.064 121.642L327.112 121.675C327.002 121.78 327.255 121.532 327.226 121.555V124.72C327.226 125.752 327.226 126.747 327.226 127.703L327.112 127.593L337.098 127.645L340.005 127.679H340.787H341.069C340.985 127.685 340.9 127.685 340.816 127.679H340.052L337.188 127.712L327.131 127.765H326.973V127.65C326.973 126.694 326.973 125.7 326.973 124.667V121.503C326.945 121.532 327.198 121.278 327.093 121.388L341.045 121.417H341.131V121.498C341.131 123.41 341.098 124.935 341.088 126.025C341.088 126.536 341.088 126.943 341.088 127.244C341.075 127.399 341.052 127.554 341.021 127.707Z" fill="#E0E0E0"/>
<path d="M121.505 202.968L116.254 205.229L116.608 174.04C116.77 170.307 115.056 168.715 114.126 167.654C105.672 158.027 93.0656 165.01 92.9558 174.766L92.6408 202.639L87.5286 202.581L88.0345 173.423C88.0727 170.139 90.6217 164.442 93.1945 162.4C107.419 151.115 121.973 162.773 121.835 175.106L121.505 202.968Z" fill="#F5F5F5"/>
<path d="M121.505 202.968V202.409C121.505 202.041 121.505 201.501 121.505 200.794C121.505 199.36 121.534 197.28 121.553 194.58C121.572 191.879 121.605 188.605 121.639 184.785C121.658 182.873 121.677 180.839 121.696 178.681C121.696 176.521 121.892 174.221 121.448 171.86C121.003 169.387 120.003 167.048 118.522 165.02C118.326 164.757 118.14 164.489 117.935 164.231C117.73 163.973 117.496 163.753 117.276 163.49C116.827 162.992 116.349 162.521 115.844 162.08C115.601 161.846 115.314 161.66 115.047 161.445C114.78 161.229 114.517 161.01 114.216 160.837C113.638 160.451 113.035 160.103 112.412 159.795C111.137 159.153 109.787 158.671 108.393 158.361L107.314 158.185L106.775 158.094L106.226 158.06L105.118 157.989C104.746 157.989 104.374 158.013 104.001 158.027C100.916 158.167 97.9286 159.16 95.3712 160.895C92.68 162.72 90.5704 165.282 89.2948 168.275C88.654 169.819 88.233 171.446 88.0441 173.108C87.9009 174.781 87.9391 176.506 87.9057 178.232C87.8293 185.149 87.7482 192.309 87.667 199.646C87.667 200.625 87.6559 201.6 87.6336 202.572L87.5143 202.447L92.6265 202.505L92.5072 202.624C92.5677 197.079 92.6297 191.662 92.6934 186.372C92.722 183.74 92.7522 181.145 92.7841 178.586C92.7841 177.311 92.7984 176.044 92.827 174.786C92.8544 173.529 93.0634 172.283 93.4476 171.086C94.231 168.757 95.7067 166.724 97.6767 165.259C97.9101 165.075 98.1539 164.904 98.407 164.748L99.1708 164.27C99.689 163.995 100.227 163.758 100.779 163.562C101.326 163.363 101.886 163.203 102.455 163.084C102.736 163.022 103.023 162.998 103.304 162.95L103.729 162.893H104.159C105.28 162.831 106.405 162.926 107.5 163.175C108.568 163.432 109.598 163.825 110.565 164.346C113.316 165.876 115.369 168.413 116.293 171.425C116.562 172.359 116.723 173.322 116.77 174.293C116.77 174.532 116.77 174.771 116.794 175.005C116.818 175.24 116.794 175.483 116.794 175.708C116.794 176.186 116.794 176.635 116.794 177.094C116.794 178.007 116.794 178.906 116.761 179.785C116.713 183.303 116.675 186.535 116.636 189.451C116.555 195.277 116.493 199.838 116.45 202.868L116.417 202.835L120.274 202.897H121.228H121.539H120.288L116.412 202.873H116.379V202.839C116.379 199.809 116.445 195.249 116.498 189.422C116.527 186.506 116.56 183.27 116.593 179.752C116.593 178.872 116.593 177.974 116.622 177.061C116.622 176.583 116.622 176.143 116.622 175.675C116.622 175.445 116.622 175.197 116.622 174.977L116.593 174.274C116.522 172.315 115.942 170.409 114.908 168.744C113.831 166.96 112.305 165.492 110.484 164.485C109.533 163.975 108.521 163.589 107.472 163.337C106.39 163.095 105.28 163.004 104.173 163.07H103.753L103.338 163.132C103.056 163.175 102.775 163.199 102.498 163.261C101.376 163.501 100.292 163.891 99.2758 164.422L98.5264 164.872C98.2787 165.017 98.0396 165.177 97.8104 165.35C95.8741 166.792 94.4263 168.794 93.6623 171.086C93.2864 172.261 93.0838 173.485 93.0609 174.719C93.0609 175.974 93.0466 177.241 93.0179 178.519C92.9893 181.068 92.9607 183.664 92.932 186.305C92.8747 191.563 92.8127 196.998 92.7506 202.557V202.677H92.6313L87.5143 202.619H87.395V202.5C87.395 201.544 87.4061 200.569 87.4284 199.575C87.5143 192.242 87.5954 185.082 87.6766 178.16C87.71 176.43 87.6766 174.723 87.815 173.012C88.0098 171.329 88.4388 169.681 89.0895 168.117C89.755 166.623 90.6153 165.223 91.648 163.954C92.6942 162.718 93.8997 161.627 95.2328 160.708C97.8235 158.949 100.85 157.943 103.978 157.802C104.355 157.802 104.732 157.759 105.109 157.769L106.393 157.845L107.099 157.926L108.169 158.103L108.646 158.208C109.971 158.519 111.254 158.991 112.465 159.614C113.097 159.924 113.708 160.277 114.293 160.67C114.593 160.847 114.851 161.086 115.128 161.287C115.405 161.488 115.687 161.693 115.939 161.927C116.445 162.376 116.923 162.855 117.372 163.361L118.04 164.112C118.245 164.375 118.431 164.647 118.627 164.915C120.121 166.966 121.129 169.332 121.572 171.831C122.016 174.221 121.792 176.535 121.806 178.696C121.82 180.856 121.749 182.912 121.725 184.824C121.672 188.648 121.625 191.936 121.586 194.627C121.548 197.318 121.52 199.407 121.496 200.813C121.496 201.511 121.496 202.051 121.467 202.414C121.438 202.777 121.505 202.968 121.505 202.968Z" fill="#E0E0E0"/>
<path d="M81.6893 184.375L127.988 184.901C128.461 184.906 128.913 185.1 129.244 185.439C129.575 185.778 129.758 186.235 129.752 186.709L129.347 222.542C129.342 222.973 129.166 223.384 128.858 223.686C128.55 223.987 128.136 224.154 127.705 224.149L81.2637 223.621L81.7084 184.375L81.6893 184.375Z" fill="#E0E0E0"/>
<path d="M81.6899 184.275L122.406 184.682C122.92 184.687 123.411 184.897 123.771 185.264C124.131 185.632 124.33 186.128 124.325 186.642L123.977 221.536C123.97 222.17 123.713 222.776 123.261 223.219C122.809 223.663 122.199 223.909 121.566 223.902L81.365 223.5C80.8333 223.495 80.3255 223.278 79.9533 222.898C79.581 222.517 79.3749 222.005 79.3802 221.472L79.7325 186.196C79.7377 185.681 79.9468 185.19 80.3138 184.829C80.6809 184.469 81.1759 184.269 81.6899 184.275Z" fill="#EBEBEB"/>
<path d="M107.806 200.832C107.814 200.098 107.675 199.371 107.398 198.692C107.12 198.014 106.709 197.398 106.189 196.882C105.669 196.366 105.05 195.959 104.37 195.687C103.69 195.414 102.963 195.282 102.23 195.297C100.822 195.339 99.4829 195.918 98.4865 196.915C97.4902 197.913 96.912 199.254 96.87 200.664C96.848 201.86 97.2192 203.03 97.9265 203.994C98.6337 204.958 99.6378 205.663 100.784 205.999L97.1325 213.513L106.56 213.795L103.772 206.018C104.916 205.71 105.928 205.037 106.656 204.101C107.384 203.165 107.787 202.018 107.806 200.832Z" fill="#E0E0E0"/>
<path d="M123.715 220.401C123.648 220.401 123.715 213.57 123.835 205.148C123.954 196.726 124.126 189.89 124.193 189.89C124.259 189.89 124.193 196.721 124.073 205.148C123.954 213.575 123.782 220.406 123.715 220.401Z" fill="#FAFAFA"/>
<path d="M113.768 185.942C113.768 186.009 107.768 186.076 100.364 186.09C92.9607 186.105 86.9558 186.062 86.9558 185.995C86.9558 185.928 92.9559 185.866 100.364 185.851C107.772 185.837 113.768 185.866 113.768 185.942Z" fill="white"/>
<path d="M96.66 203.657C96.5665 203.555 96.4907 203.439 96.4356 203.313C96.2643 202.98 96.1268 202.631 96.0251 202.271C95.6836 201.07 95.7153 199.794 96.1161 198.612C96.5169 197.43 97.2677 196.399 98.2686 195.655C98.5661 195.43 98.886 195.236 99.2233 195.077C99.342 195.011 99.4712 194.965 99.6051 194.943C99.6051 194.981 99.0848 195.206 98.3688 195.789C97.4284 196.541 96.723 197.547 96.3363 198.688C95.9497 199.83 95.898 201.058 96.1874 202.228C96.4213 203.15 96.6982 203.628 96.66 203.657Z" fill="white"/>
<path d="M98.808 206.276C98.7746 206.334 98.4548 206.195 98.092 205.97C97.7292 205.746 97.4667 205.516 97.5001 205.459C97.5335 205.401 97.8581 205.54 98.2209 205.765C98.5837 205.989 98.808 206.219 98.808 206.276Z" fill="white"/>
<path d="M103.352 159.255C103.048 159.314 102.74 159.353 102.431 159.375C101.597 159.487 100.774 159.664 99.9679 159.905C97.2905 160.683 94.8897 162.209 93.0461 164.303C91.2025 166.397 89.9924 168.974 89.5573 171.731C89.4136 172.561 89.3418 173.403 89.3425 174.245C89.3425 174.838 89.3425 175.173 89.3425 175.173C89.3168 175.096 89.3039 175.015 89.3043 174.934C89.3043 174.776 89.2566 174.546 89.2518 174.245C89.2181 173.395 89.266 172.543 89.395 171.702C89.7932 168.898 91.0026 166.273 92.8738 164.149C94.7451 162.026 97.1963 160.497 99.9249 159.752C100.741 159.512 101.579 159.352 102.426 159.274C102.722 159.241 102.956 159.246 103.114 159.241C103.193 159.238 103.273 159.243 103.352 159.255Z" fill="white"/>
<path d="M89.0895 179.403C88.9808 178.933 88.9518 178.448 89.0036 177.969C88.971 177.486 89.021 177.001 89.1516 176.535C89.2955 177.487 89.2745 178.458 89.0895 179.403Z" fill="white"/>
<path d="M118.508 46.2561H95.2853V52.408H118.508V46.2561Z" fill="#F5F5F5"/>
<path d="M108.689 58.8895C108.689 58.8895 108.689 58.8513 108.689 58.7796V58.4641C108.689 58.1725 108.689 57.7662 108.689 57.25C108.689 56.1888 108.689 54.664 108.651 52.7377L108.722 52.8094L85.4999 52.8572C85.5524 52.8046 85.3806 52.9719 85.6193 52.7377V55.8542C85.6193 56.8803 85.6193 57.8889 85.6193 58.88L85.5047 58.7652L102.054 58.8178L106.937 58.8513H108.259H108.603C108.644 58.8472 108.686 58.8472 108.727 58.8513H108.622H108.288H106.994L102.135 58.8847L85.5047 58.9373H85.3901V58.8226C85.3901 57.8315 85.3901 56.823 85.3901 55.7969V52.6803L85.5095 52.5608L108.732 52.6086H108.803V52.6803C108.803 54.621 108.775 56.1649 108.765 57.2356C108.765 57.7471 108.765 58.1438 108.765 58.4306C108.765 58.5549 108.765 58.6553 108.765 58.7318C108.765 58.8083 108.694 58.8895 108.689 58.8895Z" fill="#E0E0E0"/>
<path d="M334.448 30.1953H311.226V36.3472H334.448V30.1953Z" fill="#F5F5F5"/>
<path d="M324.63 42.8289C324.626 42.7924 324.626 42.7556 324.63 42.719V42.4035C324.63 42.1119 324.63 41.7104 324.63 41.1894C324.63 40.1282 324.63 38.6034 324.591 36.6771L324.663 36.7488L301.441 36.7966C301.493 36.744 301.321 36.9113 301.56 36.6771V37.4562C301.56 37.7191 301.56 37.982 301.56 38.2401V42.8289L301.445 42.7142L317.995 42.7668L322.878 42.8003H324.2H324.544H324.668H324.558H324.229H322.935L318.076 42.8337L301.445 42.8863H301.326V36.6866L301.445 36.5671L324.668 36.6149H324.739V36.6866C324.739 38.6273 324.711 40.1713 324.701 41.242C324.701 41.7534 324.701 42.1502 324.701 42.437C324.701 42.5613 324.701 42.6616 324.701 42.7429C324.701 42.8242 324.634 42.8289 324.63 42.8289Z" fill="#E0E0E0"/>
<path d="M202.012 152.496H178.79V158.648H202.012V152.496Z" fill="#F5F5F5"/>
<path d="M192.193 165.13C192.19 165.092 192.19 165.053 192.193 165.015V164.7C192.193 164.413 192.193 164.007 192.193 163.49C192.193 162.429 192.17 160.904 192.155 158.978L192.227 159.05L169.005 159.098C169.057 159.045 168.885 159.212 169.119 158.978V165.12L169.005 165.006L185.554 165.058L190.437 165.092H191.759H192.103H192.227H192.117H191.788H190.494L185.635 165.125L168.976 165.245H168.857V158.988L168.976 158.868L192.198 158.916H192.27V158.988C192.27 160.928 192.241 162.472 192.232 163.543C192.232 164.054 192.232 164.451 192.232 164.738C192.232 164.862 192.232 164.963 192.232 165.039C192.221 165.07 192.208 165.101 192.193 165.13Z" fill="#E0E0E0"/>
<path d="M49.7668 36.6197C49.7626 36.5832 49.7626 36.5463 49.7668 36.5098C49.7668 36.4285 49.7668 36.3234 49.7668 36.1943C49.7668 35.9027 49.7668 35.5012 49.7668 34.9802C49.7668 33.919 49.7668 32.3942 49.7286 30.4679L49.8002 30.5396L26.5445 30.5921C26.597 30.5396 26.4252 30.7116 26.6591 30.4726V36.6197L26.5445 36.505L43.0937 36.5576L47.9768 36.591H49.299H49.6427H49.7668C49.7303 36.5955 49.6934 36.5955 49.657 36.591H49.3276H48.0293L43.1748 36.6245L26.5445 36.6771H26.4252V30.4774L26.5445 30.3579L49.7668 30.4057H49.8384V30.4774C49.8384 32.4229 49.8097 33.962 49.8002 35.0328C49.8002 35.5442 49.8002 35.9457 49.8002 36.2278C49.8002 36.352 49.8002 36.4524 49.8002 36.5337C49.7913 36.5632 49.7801 36.592 49.7668 36.6197Z" fill="#E0E0E0"/>
<path d="M281.345 214.015C281.345 214.015 281.345 213.977 281.345 213.905V213.59C281.345 213.298 281.345 212.896 281.345 212.375C281.345 211.314 281.345 209.789 281.307 207.863L281.378 207.935L258.156 207.983L258.276 207.863V210.98C258.276 212.009 258.276 213.018 258.276 214.005L258.161 213.891L274.71 213.943L279.593 213.977H280.915H281.264H281.383C281.383 213.977 281.35 213.977 281.278 213.977H280.944H279.651L274.791 214.01L258.161 214.063H258.046V213.948C258.046 212.957 258.046 211.948 258.046 210.922V207.806L258.166 207.686L281.388 207.734H281.46V207.806C281.46 209.746 281.431 211.29 281.421 212.361C281.421 212.873 281.421 213.269 281.421 213.556C281.421 213.68 281.421 213.781 281.421 213.862C281.421 213.943 281.35 214.02 281.345 214.015Z" fill="#E0E0E0"/>
<path d="M188.241 27.7862C188.241 27.7862 188.241 27.7432 188.241 27.6715V27.356C188.241 27.0692 188.241 26.6629 188.241 26.1467C188.241 25.0855 188.241 23.5559 188.203 21.6344L188.275 21.7061L165.052 21.7491L165.172 21.6344V24.7605C165.172 25.7898 165.172 26.7983 165.172 27.7862L165.057 27.6715L181.606 27.7241L186.489 27.7528H187.812H188.16C188.2 27.7488 188.24 27.7488 188.279 27.7528H188.174H187.84H186.547L181.687 27.7862L165.057 27.8388H164.943V27.7241C164.943 26.7346 164.943 25.726 164.943 24.6983V21.6439L165.062 21.5244L188.284 21.5722H188.356V21.6439C188.356 23.5846 188.327 25.1285 188.318 26.1993C188.318 26.7107 188.318 27.1075 188.318 27.3943V27.6954C188.297 27.7292 188.271 27.7599 188.241 27.7862Z" fill="#E0E0E0"/>
<path d="M191.411 21.6343C191.407 21.5946 191.407 21.5546 191.411 21.5148C191.411 21.4288 191.411 21.3188 191.411 21.1898C191.411 20.8886 191.411 20.4775 191.411 19.9565C191.411 18.8762 191.382 17.3562 191.363 15.4824L191.449 15.5637L177.496 15.5972L177.611 15.4824V18.642C177.611 19.6697 177.611 20.6687 177.611 21.6247L177.501 21.51L187.482 21.5626L190.389 21.5961H191.172H191.454C191.369 21.6029 191.285 21.6029 191.201 21.5961H190.437L187.573 21.6247L177.515 21.6773H177.401V21.5674C177.401 20.6114 177.401 19.6124 177.401 18.5847V15.492C177.372 15.492 177.625 15.2673 177.52 15.3725L191.473 15.406H191.559V15.492C191.559 17.404 191.52 18.924 191.511 20.0187C191.511 20.5301 191.511 20.9316 191.511 21.2328C191.511 21.5339 191.411 21.6391 191.411 21.6343Z" fill="#E0E0E0"/>
<path d="M41.6998 174.47C41.6978 174.433 41.6978 174.397 41.6998 174.36C41.6998 174.279 41.6998 174.174 41.6998 174.045C41.6998 173.753 41.6998 173.352 41.6998 172.835C41.6998 171.774 41.6998 170.245 41.6616 168.318L41.7332 168.39L18.511 168.438L18.6303 168.318V171.44C18.6303 172.466 18.6303 173.474 18.6303 174.465L18.5157 174.351L35.0649 174.403L39.948 174.437H41.2702H41.6187H41.738C41.738 174.437 41.7046 174.437 41.633 174.437H41.2989H40.0053L35.146 174.47L18.5157 174.523H18.4012V174.47C18.4012 173.481 18.4012 172.472 18.4012 171.444V168.323C18.6399 168.089 18.468 168.261 18.5205 168.208L41.7428 168.251H41.8144V168.323C41.8144 170.268 41.7857 171.808 41.7762 172.883C41.7762 173.395 41.7762 173.791 41.7762 174.078V174.379C41.7046 174.47 41.7046 174.47 41.6998 174.47Z" fill="#E0E0E0"/>
<path d="M44.8693 168.328C44.8655 168.289 44.8655 168.251 44.8693 168.213C44.8693 168.122 44.8693 168.017 44.8693 167.888C44.8693 167.582 44.8693 167.171 44.8693 166.655C44.8693 165.574 44.8406 164.049 44.8216 162.176L44.9075 162.262L30.955 162.295C30.85 162.4 31.0982 162.152 31.0696 162.176V165.34C31.0696 166.373 31.0696 167.367 31.0696 168.323L30.9598 168.213L40.9408 168.265L43.8478 168.299H44.6306H44.9122C44.8281 168.306 44.7435 168.306 44.6593 168.299H43.8955L41.0315 168.332L30.9741 168.385H30.8596V168.27C30.8596 167.314 30.8596 166.32 30.8596 165.288V162.123L30.9789 162.004L44.8693 162.09H44.9552V162.176C44.9552 164.088 44.917 165.613 44.9075 166.702C44.9075 167.214 44.9075 167.62 44.9075 167.921C44.9075 168.222 44.8693 168.337 44.8693 168.328Z" fill="#E0E0E0"/>
<path d="M114.827 123.893C114.823 123.856 114.823 123.819 114.827 123.783V123.467C114.827 123.176 114.827 122.774 114.827 122.258C114.827 121.192 114.803 119.667 114.789 117.741L114.861 117.813L91.6384 117.86C91.6909 117.808 91.5191 117.98 91.753 117.741V123.883L91.6384 123.768L108.188 123.821L113.071 123.854H114.393H114.737H114.861H114.751H114.422H113.123L108.269 123.883L91.6384 123.936H91.5191V117.674L91.6384 117.554L114.861 117.602H114.932V117.674C114.932 119.619 114.904 121.159 114.894 122.234C114.894 122.741 114.894 123.142 114.894 123.424V123.73C114.88 123.787 114.858 123.842 114.827 123.893Z" fill="#E0E0E0"/>
<path d="M117.978 117.741C117.971 117.703 117.971 117.664 117.978 117.626C117.978 117.535 117.978 117.43 117.978 117.296L117.954 116.063C117.954 114.988 117.954 113.463 117.911 111.589L117.997 111.675L104.04 111.709L104.159 111.589V114.754C104.159 115.781 104.159 116.78 104.159 117.736L104.044 117.626L114.025 117.679L116.937 117.708H117.72H118.002C117.916 117.714 117.83 117.714 117.744 117.708H116.985L114.121 117.741L104.063 117.794H103.954V117.679C103.954 116.723 103.954 115.724 103.954 114.696V111.532C103.954 111.556 104.183 111.307 104.073 111.412L118.03 111.446H118.116V111.532C118.116 113.444 118.083 114.969 118.073 116.058C118.073 116.57 118.073 116.976 118.049 117.273C118.025 117.569 117.982 117.746 117.978 117.741Z" fill="#E0E0E0"/>
<path d="M331.441 224.129C331.441 224.196 263.397 224.254 179.487 224.254C95.5764 224.254 27.5135 224.182 27.5135 224.129C27.5135 224.077 95.543 224.005 179.487 224.005C263.431 224.005 331.441 224.062 331.441 224.129Z" fill="#263238"/>
<path d="M326.2 60.6582H217.841V199.919H326.2V60.6582Z" fill="white"/>
<path d="M326.2 199.914C326.2 198.934 326.152 143.309 326.086 60.6582L326.2 60.7681H217.845L217.97 60.6438C217.97 112.301 217.97 160.264 217.97 199.9L217.865 199.799L326.219 199.9L217.865 200.005H217.764V199.9C217.764 160.264 217.764 112.301 217.74 60.6438V60.5195H217.879H326.234H326.343V60.6343C326.243 143.309 326.2 198.934 326.2 199.914Z" fill="#263238"/>
<path d="M315.016 113.788H229.359C228.976 113.788 228.667 114.098 228.667 114.481V128.152C228.667 128.535 228.976 128.845 229.359 128.845H315.016C315.398 128.845 315.708 128.535 315.708 128.152V114.481C315.708 114.098 315.398 113.788 315.016 113.788Z" fill="#EBEBEB"/>
<path d="M315.102 134.466H229.445C229.062 134.466 228.752 134.776 228.752 135.159V148.83C228.752 149.213 229.062 149.523 229.445 149.523H315.102C315.484 149.523 315.794 149.213 315.794 148.83V135.159C315.794 134.776 315.484 134.466 315.102 134.466Z" fill="#EBEBEB"/>
<path d="M238.189 120.456C238.189 121.211 237.64 121.67 236.757 121.67H235.898V122.722H235.421V119.242H236.776C237.626 119.232 238.189 119.691 238.189 120.456ZM237.712 120.456C237.712 119.978 237.378 119.672 236.757 119.672H235.912V121.235H236.757C237.344 121.226 237.679 120.934 237.679 120.456H237.712Z" fill="#263238"/>
<path d="M240.896 121.12V122.712H240.442V122.368C240.342 122.5 240.211 122.604 240.06 122.671C239.908 122.737 239.743 122.765 239.578 122.75C238.982 122.75 238.624 122.43 238.624 121.971C238.624 121.512 238.896 121.202 239.683 121.202H240.438V121.106C240.438 120.705 240.204 120.47 239.731 120.47C239.429 120.468 239.135 120.567 238.896 120.752L238.7 120.394C239.015 120.166 239.396 120.049 239.784 120.059C240.485 120.054 240.896 120.399 240.896 121.12ZM240.418 121.909V121.541H239.683C239.206 121.541 239.077 121.723 239.077 121.947C239.077 122.172 239.297 122.373 239.66 122.373C239.821 122.382 239.981 122.341 240.117 122.254C240.253 122.167 240.359 122.04 240.418 121.89V121.909Z" fill="#263238"/>
<path d="M241.445 122.435L241.64 122.057C241.917 122.235 242.238 122.33 242.566 122.33C243.01 122.33 243.192 122.196 243.192 121.971C243.192 121.378 241.531 121.895 241.531 120.843C241.531 120.365 241.951 120.054 242.629 120.054C242.962 120.048 243.292 120.13 243.583 120.293L243.383 120.671C243.155 120.526 242.889 120.453 242.619 120.461C242.204 120.461 241.998 120.614 241.998 120.824C241.998 121.445 243.669 120.939 243.669 121.962C243.669 122.44 243.235 122.745 242.533 122.745C242.147 122.754 241.768 122.646 241.445 122.435Z" fill="#263238"/>
<path d="M243.917 122.435L244.118 122.057C244.392 122.236 244.712 122.331 245.039 122.33C245.483 122.33 245.664 122.196 245.664 121.971C245.664 121.378 244.003 121.895 244.003 120.843C244.003 120.365 244.423 120.054 245.101 120.054C245.435 120.049 245.764 120.132 246.056 120.293L245.851 120.671C245.624 120.527 245.36 120.454 245.092 120.461C244.672 120.461 244.466 120.614 244.466 120.824C244.466 121.445 246.137 120.939 246.137 121.962C246.137 122.44 245.703 122.746 245.001 122.746C244.617 122.754 244.239 122.645 243.917 122.435Z" fill="#263238"/>
<path d="M250.686 120.078L249.703 122.712H249.225L248.466 120.714L247.736 122.712H247.259L246.304 120.078H246.757L247.521 122.177L248.314 120.078H248.691L249.469 122.186L250.252 120.078H250.686Z" fill="#263238"/>
<path d="M250.848 121.412C250.843 121.14 250.92 120.872 251.067 120.643C251.215 120.415 251.427 120.235 251.677 120.128C251.927 120.02 252.203 119.989 252.47 120.04C252.738 120.09 252.984 120.219 253.178 120.409C253.372 120.6 253.505 120.845 253.56 121.111C253.615 121.378 253.589 121.655 253.486 121.907C253.383 122.159 253.207 122.375 252.982 122.527C252.756 122.679 252.49 122.76 252.218 122.76C252.038 122.768 251.858 122.74 251.689 122.675C251.521 122.611 251.367 122.512 251.239 122.386C251.11 122.259 251.009 122.107 250.942 121.94C250.875 121.772 250.843 121.592 250.848 121.412ZM253.101 121.412C253.094 121.238 253.035 121.069 252.933 120.928C252.831 120.787 252.689 120.679 252.526 120.618C252.363 120.557 252.186 120.545 252.016 120.583C251.846 120.622 251.692 120.71 251.572 120.837C251.451 120.963 251.371 121.122 251.34 121.293C251.31 121.465 251.33 121.642 251.399 121.802C251.468 121.962 251.582 122.098 251.728 122.194C251.873 122.289 252.044 122.34 252.218 122.339C252.339 122.342 252.458 122.32 252.57 122.274C252.681 122.228 252.782 122.159 252.865 122.071C252.948 121.984 253.012 121.88 253.053 121.767C253.093 121.653 253.11 121.532 253.101 121.412Z" fill="#263238"/>
<path d="M255.66 120.054V120.532H255.55C255.434 120.525 255.317 120.544 255.209 120.587C255.1 120.63 255.003 120.697 254.923 120.782C254.844 120.868 254.784 120.97 254.749 121.081C254.714 121.193 254.704 121.311 254.719 121.426V122.736H254.242V120.102H254.719V120.542C254.815 120.381 254.954 120.251 255.12 120.164C255.287 120.078 255.473 120.04 255.66 120.054Z" fill="#263238"/>
<path d="M258.715 119.022V122.712H258.237V122.296C258.127 122.444 257.982 122.561 257.816 122.64C257.649 122.718 257.466 122.754 257.283 122.746C256.94 122.725 256.618 122.574 256.383 122.324C256.148 122.074 256.017 121.744 256.017 121.4C256.017 121.056 256.148 120.726 256.383 120.476C256.618 120.226 256.94 120.075 257.283 120.054C257.462 120.04 257.643 120.069 257.809 120.139C257.975 120.209 258.122 120.317 258.237 120.456V119.022H258.715ZM258.237 121.412C258.23 121.238 258.171 121.07 258.069 120.929C257.967 120.788 257.826 120.68 257.664 120.618C257.501 120.557 257.324 120.545 257.154 120.583C256.984 120.622 256.83 120.709 256.709 120.835C256.589 120.961 256.508 121.119 256.477 121.29C256.446 121.462 256.465 121.638 256.534 121.799C256.602 121.959 256.715 122.096 256.86 122.192C257.005 122.288 257.176 122.339 257.349 122.339C257.47 122.342 257.59 122.32 257.702 122.274C257.813 122.228 257.914 122.159 257.998 122.072C258.081 121.984 258.146 121.881 258.187 121.767C258.228 121.654 258.245 121.533 258.237 121.412Z" fill="#263238"/>
<path d="M235.087 142.626C235.083 142.385 235.129 142.147 235.221 141.925C235.313 141.703 235.45 141.502 235.622 141.335C235.795 141.168 236 141.038 236.225 140.953C236.45 140.868 236.689 140.831 236.929 140.843C237.175 140.833 237.42 140.877 237.647 140.971C237.875 141.065 238.079 141.207 238.247 141.388L237.927 141.698C237.802 141.564 237.65 141.459 237.482 141.388C237.313 141.317 237.131 141.283 236.948 141.287C236.594 141.287 236.254 141.428 236.003 141.679C235.753 141.93 235.612 142.271 235.612 142.626C235.612 142.981 235.753 143.321 236.003 143.572C236.254 143.823 236.594 143.964 236.948 143.964C237.132 143.968 237.314 143.933 237.483 143.86C237.652 143.788 237.803 143.68 237.927 143.543L238.247 143.859C238.078 144.04 237.873 144.182 237.645 144.276C237.417 144.37 237.171 144.414 236.924 144.404C236.685 144.415 236.447 144.377 236.223 144.292C235.999 144.208 235.795 144.078 235.623 143.912C235.45 143.745 235.314 143.545 235.222 143.324C235.13 143.103 235.084 142.865 235.087 142.626Z" fill="#263238"/>
<path d="M238.533 143.046C238.528 142.774 238.604 142.507 238.752 142.278C238.899 142.049 239.111 141.87 239.361 141.762C239.61 141.655 239.886 141.624 240.154 141.674C240.421 141.723 240.667 141.852 240.861 142.042C241.055 142.232 241.189 142.476 241.244 142.743C241.299 143.009 241.274 143.286 241.172 143.538C241.07 143.79 240.895 144.006 240.67 144.159C240.445 144.311 240.179 144.393 239.908 144.394C239.727 144.403 239.547 144.374 239.378 144.31C239.21 144.245 239.056 144.147 238.927 144.02C238.798 143.894 238.696 143.742 238.628 143.574C238.561 143.407 238.528 143.227 238.533 143.046ZM240.791 143.046C240.791 142.81 240.697 142.584 240.531 142.417C240.364 142.251 240.138 142.157 239.903 142.157C239.667 142.157 239.442 142.251 239.275 142.417C239.109 142.584 239.015 142.81 239.015 143.046C239.015 143.282 239.109 143.508 239.275 143.675C239.442 143.842 239.667 143.935 239.903 143.935C240.138 143.935 240.364 143.842 240.531 143.675C240.697 143.508 240.791 143.282 240.791 143.046Z" fill="#263238"/>
<path d="M244.428 142.85V144.356H243.951V142.922C243.951 142.406 243.693 142.152 243.244 142.152C243.129 142.143 243.013 142.159 242.905 142.201C242.796 142.242 242.699 142.307 242.619 142.39C242.538 142.474 242.478 142.575 242.442 142.685C242.406 142.795 242.394 142.912 242.409 143.027V144.356H241.932V141.722H242.409V142.119C242.522 141.976 242.668 141.863 242.834 141.789C243 141.715 243.182 141.682 243.364 141.693C243.513 141.686 243.663 141.711 243.802 141.768C243.941 141.825 244.065 141.911 244.167 142.022C244.268 142.132 244.344 142.264 244.39 142.407C244.435 142.55 244.448 142.701 244.428 142.85Z" fill="#263238"/>
<path d="M246.251 140.647C246.442 140.638 246.629 140.692 246.786 140.8L246.643 141.163C246.537 141.083 246.408 141.039 246.275 141.039C245.994 141.039 245.851 141.197 245.851 141.517V141.746H246.614V142.138H245.86V144.356H245.383V142.114H244.934V141.722H245.383V141.488C245.374 141.373 245.391 141.257 245.433 141.15C245.474 141.042 245.538 140.944 245.621 140.864C245.704 140.784 245.803 140.723 245.912 140.685C246.021 140.648 246.137 140.635 246.251 140.647ZM247.378 140.914C247.378 140.872 247.386 140.83 247.403 140.792C247.419 140.753 247.443 140.717 247.474 140.688C247.504 140.659 247.54 140.636 247.579 140.62C247.618 140.605 247.66 140.598 247.703 140.599C247.763 140.602 247.821 140.622 247.87 140.658C247.919 140.693 247.957 140.743 247.978 140.799C248 140.856 248.004 140.918 247.991 140.977C247.978 141.036 247.948 141.09 247.904 141.132C247.861 141.175 247.806 141.203 247.747 141.215C247.687 141.226 247.626 141.22 247.57 141.197C247.514 141.173 247.466 141.134 247.432 141.084C247.398 141.034 247.379 140.975 247.378 140.914ZM247.464 141.732H247.941V144.356H247.464V141.732Z" fill="#263238"/>
<path d="M250.261 141.703V142.181H250.151C250.036 142.174 249.919 142.192 249.812 142.235C249.704 142.278 249.607 142.344 249.528 142.43C249.449 142.515 249.39 142.616 249.355 142.727C249.32 142.838 249.31 142.955 249.326 143.07V144.356H248.848V141.722H249.302V142.162C249.403 142.004 249.547 141.877 249.716 141.796C249.886 141.715 250.074 141.683 250.261 141.703Z" fill="#263238"/>
<path d="M255.221 142.85V144.356H254.743V142.922C254.743 142.406 254.495 142.152 254.061 142.152C253.626 142.152 253.273 142.454 253.273 143.027V144.356H252.796V142.922C252.796 142.406 252.547 142.152 252.113 142.152C251.679 142.152 251.326 142.454 251.326 143.027V144.356H250.848V141.722H251.326V142.114C251.43 141.974 251.568 141.863 251.726 141.789C251.884 141.716 252.058 141.683 252.232 141.694C252.414 141.678 252.597 141.714 252.758 141.799C252.92 141.884 253.054 142.013 253.144 142.172C253.262 142.015 253.416 141.889 253.593 141.806C253.77 141.723 253.965 141.684 254.161 141.694C254.311 141.685 254.461 141.71 254.6 141.766C254.739 141.823 254.863 141.909 254.965 142.02C255.066 142.131 255.142 142.263 255.186 142.406C255.23 142.55 255.242 142.702 255.221 142.85Z" fill="#263238"/>
<path d="M260.309 142.1C260.309 142.855 259.76 143.309 258.877 143.309H258.018V144.356H257.54V140.876H258.896C259.76 140.886 260.309 141.34 260.309 142.1ZM259.808 142.1C259.808 141.622 259.478 141.316 258.853 141.316H257.999V142.879H258.844C259.478 142.879 259.808 142.597 259.808 142.1Z" fill="#263238"/>
<path d="M263.011 142.774V144.356H262.562V144.007C262.461 144.137 262.329 144.24 262.178 144.306C262.027 144.372 261.862 144.399 261.698 144.385C261.101 144.385 260.743 144.069 260.743 143.61C260.743 143.151 261.015 142.841 261.798 142.841H262.533V142.745C262.533 142.344 262.304 142.109 261.832 142.109C261.53 142.107 261.235 142.206 260.996 142.391L260.796 142.033C261.111 141.802 261.494 141.683 261.884 141.694C262.619 141.703 263.011 142.052 263.011 142.774ZM262.533 143.558V143.19H261.798C261.321 143.19 261.197 143.376 261.197 143.601C261.197 143.825 261.412 144.026 261.774 144.026C261.934 144.039 262.094 144.001 262.23 143.916C262.367 143.832 262.473 143.706 262.533 143.558Z" fill="#263238"/>
<path d="M263.579 144.088L263.774 143.711C264.051 143.889 264.372 143.983 264.7 143.983C265.14 143.983 265.326 143.849 265.326 143.625C265.326 143.032 263.66 143.543 263.66 142.497C263.66 142.019 264.085 141.703 264.758 141.703C265.091 141.698 265.42 141.78 265.712 141.942L265.507 142.32C265.279 142.179 265.016 142.108 264.748 142.114C264.333 142.114 264.128 142.267 264.128 142.477C264.128 143.099 265.798 142.592 265.798 143.615C265.798 144.093 265.359 144.394 264.657 144.394C264.275 144.403 263.9 144.296 263.579 144.088Z" fill="#263238"/>
<path d="M266.066 144.088L266.261 143.711C266.537 143.889 266.859 143.983 267.187 143.983C267.626 143.983 267.813 143.849 267.813 143.625C267.813 143.032 266.147 143.543 266.147 142.497C266.147 142.019 266.572 141.703 267.245 141.703C267.578 141.698 267.907 141.78 268.199 141.942L267.994 142.32C267.766 142.179 267.503 142.108 267.235 142.114C266.82 142.114 266.615 142.267 266.615 142.477C266.615 143.099 268.285 142.592 268.285 143.615C268.285 144.093 267.846 144.394 267.144 144.394C266.762 144.403 266.387 144.296 266.066 144.088Z" fill="#263238"/>
<path d="M272.82 141.732L271.837 144.356H271.359L270.6 142.358L269.846 144.356H269.369L268.414 141.722H268.863L269.631 143.821L270.424 141.722H270.825L271.607 143.83L272.39 141.722L272.82 141.732Z" fill="#263238"/>
<path d="M272.982 143.046C272.977 142.774 273.054 142.506 273.201 142.278C273.349 142.049 273.561 141.869 273.811 141.762C274.061 141.654 274.337 141.624 274.604 141.674C274.872 141.724 275.118 141.853 275.312 142.044C275.506 142.235 275.639 142.479 275.694 142.746C275.749 143.012 275.723 143.29 275.62 143.542C275.517 143.794 275.341 144.009 275.116 144.161C274.89 144.313 274.624 144.394 274.352 144.394C274.172 144.403 273.992 144.374 273.823 144.31C273.655 144.245 273.501 144.147 273.373 144.02C273.244 143.894 273.143 143.742 273.076 143.574C273.009 143.406 272.977 143.227 272.982 143.046ZM275.235 143.046C275.235 142.81 275.142 142.584 274.975 142.417C274.809 142.251 274.583 142.157 274.347 142.157C274.112 142.157 273.886 142.251 273.72 142.417C273.553 142.584 273.46 142.81 273.46 143.046C273.46 143.282 273.553 143.508 273.72 143.675C273.886 143.842 274.112 143.935 274.347 143.935C274.583 143.935 274.809 143.842 274.975 143.675C275.142 143.508 275.235 143.282 275.235 143.046Z" fill="#263238"/>
<path d="M277.808 141.703V142.181H277.698C277.582 142.173 277.465 142.191 277.357 142.233C277.249 142.276 277.151 142.342 277.071 142.427C276.992 142.513 276.932 142.615 276.897 142.726C276.862 142.837 276.852 142.955 276.868 143.07V144.356H276.39V141.722H276.868V142.162C276.967 142.007 277.108 141.882 277.274 141.801C277.44 141.72 277.624 141.686 277.808 141.703Z" fill="#263238"/>
<path d="M280.834 140.675V144.356H280.357V143.94C280.247 144.088 280.102 144.206 279.936 144.283C279.769 144.361 279.586 144.396 279.402 144.385C279.06 144.364 278.738 144.213 278.503 143.963C278.267 143.713 278.136 143.383 278.136 143.039C278.136 142.695 278.267 142.365 278.503 142.115C278.738 141.865 279.06 141.714 279.402 141.693C279.578 141.686 279.753 141.721 279.912 141.795C280.071 141.869 280.211 141.98 280.319 142.119V140.685L280.834 140.675ZM280.357 143.065C280.349 142.891 280.289 142.724 280.187 142.583C280.084 142.443 279.942 142.335 279.779 142.275C279.616 142.214 279.439 142.203 279.269 142.242C279.1 142.282 278.946 142.37 278.826 142.496C278.706 142.623 278.626 142.782 278.596 142.953C278.566 143.125 278.586 143.301 278.655 143.461C278.724 143.621 278.839 143.757 278.984 143.852C279.13 143.948 279.3 143.998 279.474 143.997C279.597 144.001 279.719 143.979 279.833 143.932C279.947 143.885 280.049 143.814 280.133 143.723C280.217 143.633 280.281 143.526 280.321 143.41C280.36 143.293 280.374 143.169 280.362 143.046L280.357 143.065Z" fill="#263238"/>
<path d="M314.591 157.783H228.939C228.556 157.783 228.246 158.093 228.246 158.476V172.147C228.246 172.53 228.556 172.84 228.939 172.84H314.591C314.974 172.84 315.283 172.53 315.283 172.147V158.476C315.283 158.093 314.974 157.783 314.591 157.783Z" fill="#E34F33"/>
<path d="M261.001 165.426C260.999 165.179 261.048 164.935 261.145 164.708C261.242 164.481 261.384 164.276 261.563 164.107C261.742 163.937 261.954 163.806 262.186 163.723C262.418 163.639 262.664 163.604 262.91 163.619C263.193 163.606 263.475 163.658 263.734 163.771C263.993 163.885 264.223 164.057 264.404 164.274L263.779 164.843C263.684 164.715 263.56 164.611 263.417 164.54C263.275 164.469 263.118 164.432 262.958 164.432C262.706 164.449 262.47 164.562 262.298 164.747C262.125 164.932 262.03 165.176 262.03 165.429C262.03 165.682 262.125 165.925 262.298 166.11C262.47 166.295 262.706 166.408 262.958 166.425C263.117 166.425 263.274 166.387 263.417 166.316C263.559 166.244 263.683 166.141 263.779 166.014L264.404 166.583C264.222 166.799 263.993 166.971 263.734 167.084C263.475 167.198 263.193 167.25 262.91 167.238C262.664 167.254 262.417 167.218 262.185 167.134C261.953 167.05 261.741 166.919 261.561 166.749C261.382 166.579 261.24 166.374 261.144 166.146C261.047 165.918 260.999 165.673 261.001 165.426Z" fill="white"/>
<path d="M267.665 165.627V167.171H266.71V165.78C266.71 165.393 266.538 165.23 266.266 165.23C265.994 165.23 265.731 165.417 265.731 165.866V167.171H264.777V163.476H265.731V164.724C265.952 164.524 266.241 164.418 266.538 164.427C266.695 164.415 266.854 164.438 267.001 164.495C267.148 164.552 267.28 164.642 267.388 164.757C267.497 164.872 267.578 165.01 267.625 165.161C267.673 165.311 267.687 165.471 267.665 165.627Z" fill="white"/>
<path d="M270.782 165.67V167.171H269.903V166.822C269.822 166.957 269.704 167.066 269.562 167.135C269.421 167.205 269.263 167.232 269.106 167.214C268.462 167.214 268.104 166.851 268.104 166.382C268.104 165.914 268.467 165.579 269.302 165.579H269.837C269.837 165.302 269.636 165.149 269.264 165.149C269.002 165.15 268.747 165.232 268.533 165.383L268.218 164.743C268.577 164.528 268.989 164.419 269.407 164.427C270.28 164.432 270.782 164.814 270.782 165.67ZM269.827 166.306V166.071H269.421C269.116 166.071 269.006 166.177 269.006 166.344C269.006 166.511 269.14 166.616 269.359 166.616C269.462 166.623 269.563 166.596 269.649 166.54C269.735 166.484 269.801 166.402 269.837 166.306H269.827Z" fill="white"/>
<path d="M274.242 165.627V167.171H273.288V165.78C273.288 165.393 273.121 165.23 272.848 165.23C272.576 165.23 272.309 165.417 272.309 165.866V167.171H271.354V164.475H272.252V164.766C272.363 164.654 272.497 164.566 272.644 164.508C272.791 164.45 272.948 164.422 273.106 164.427C273.264 164.413 273.424 164.435 273.572 164.492C273.72 164.548 273.854 164.637 273.963 164.753C274.072 164.868 274.154 165.006 274.203 165.158C274.251 165.309 274.264 165.469 274.242 165.627Z" fill="white"/>
<path d="M277.77 164.475V166.679C277.77 167.697 277.192 168.18 276.19 168.18C275.719 168.196 275.254 168.073 274.853 167.826L275.197 167.166C275.463 167.353 275.779 167.453 276.104 167.453C276.61 167.453 276.825 167.224 276.825 166.803V166.712C276.724 166.821 276.6 166.905 276.462 166.96C276.324 167.014 276.175 167.038 276.028 167.028C275.683 167.028 275.353 166.891 275.109 166.647C274.866 166.403 274.729 166.072 274.729 165.727C274.729 165.383 274.866 165.052 275.109 164.808C275.353 164.564 275.683 164.427 276.028 164.427C276.188 164.415 276.349 164.443 276.496 164.508C276.644 164.573 276.773 164.673 276.872 164.8V164.475H277.77ZM276.815 165.727C276.823 165.61 276.795 165.493 276.735 165.391C276.676 165.289 276.587 165.208 276.48 165.158C276.374 165.107 276.255 165.09 276.139 165.108C276.022 165.126 275.914 165.179 275.828 165.26C275.742 165.34 275.682 165.445 275.657 165.56C275.631 165.675 275.64 165.795 275.683 165.904C275.726 166.014 275.801 166.108 275.898 166.175C275.995 166.241 276.11 166.277 276.228 166.277C276.306 166.289 276.386 166.284 276.462 166.261C276.538 166.239 276.609 166.2 276.668 166.148C276.728 166.095 276.775 166.031 276.807 165.958C276.839 165.885 276.855 165.807 276.853 165.727H276.815Z" fill="white"/>
<path d="M281.111 166.062H279.154C279.198 166.199 279.288 166.317 279.409 166.395C279.53 166.474 279.674 166.508 279.818 166.492C280.047 166.499 280.27 166.414 280.438 166.258L280.915 166.774C280.768 166.928 280.589 167.048 280.39 167.124C280.191 167.2 279.977 167.231 279.765 167.214C278.81 167.214 278.185 166.621 278.185 165.813C278.186 165.623 278.226 165.435 278.302 165.26C278.378 165.086 278.489 164.929 278.628 164.799C278.767 164.669 278.931 164.569 279.111 164.505C279.29 164.441 279.48 164.415 279.67 164.427C279.858 164.415 280.047 164.442 280.224 164.508C280.401 164.574 280.562 164.676 280.697 164.808C280.832 164.94 280.938 165.099 281.008 165.275C281.077 165.45 281.109 165.639 281.102 165.828C281.149 165.895 281.116 165.985 281.111 166.062ZM279.14 165.56H280.242C280.221 165.429 280.154 165.309 280.053 165.223C279.952 165.137 279.824 165.09 279.691 165.09C279.558 165.09 279.43 165.137 279.329 165.223C279.228 165.309 279.161 165.429 279.14 165.56Z" fill="white"/>
<path d="M263.669 92.4357H262.872V93.8076H261.412V88.6404H263.77C265.178 88.6404 266.066 89.3717 266.066 90.5524C266.078 90.8941 265.989 91.2319 265.808 91.5223C265.628 91.8127 265.365 92.0426 265.054 92.1824L266.166 93.8076H264.605L263.669 92.4357ZM263.669 89.7924H262.858V91.2981H263.669C264.271 91.2981 264.576 91.0208 264.576 90.5476C264.576 90.0744 264.285 89.7924 263.684 89.7924H263.669Z" fill="#263238"/>
<path d="M270.863 92.1631H267.961C268.023 92.3629 268.152 92.5353 268.325 92.6518C268.499 92.7683 268.707 92.8219 268.915 92.8036C269.084 92.8099 269.253 92.7822 269.411 92.7223C269.569 92.6623 269.714 92.5714 269.837 92.4547L270.572 93.2243C270.353 93.4505 270.088 93.626 269.794 93.7383C269.5 93.8507 269.186 93.8971 268.872 93.8744C267.44 93.8744 266.529 92.9948 266.529 91.7998C266.529 91.5174 266.587 91.238 266.699 90.9789C266.811 90.7198 266.975 90.4865 267.181 90.2934C267.387 90.1003 267.63 89.9515 267.895 89.8563C268.161 89.761 268.443 89.7214 268.724 89.7397C269.004 89.7207 269.285 89.7609 269.549 89.8576C269.812 89.9542 270.053 90.1052 270.254 90.3008C270.456 90.4963 270.614 90.7321 270.719 90.9928C270.824 91.2535 270.873 91.5333 270.863 91.8142C270.887 91.9193 270.872 92.0484 270.863 92.1631ZM267.937 91.4222H269.574C269.541 91.2288 269.441 91.0533 269.291 90.9269C269.141 90.8004 268.951 90.731 268.755 90.731C268.559 90.731 268.37 90.8004 268.22 90.9269C268.07 91.0533 267.97 91.2288 267.937 91.4222Z" fill="#263238"/>
<path d="M271.216 93.4585L271.636 92.5025C272.062 92.7422 272.542 92.8689 273.03 92.8706C273.507 92.8706 273.655 92.7654 273.655 92.5981C273.655 92.058 271.297 92.6698 271.297 91.0685C271.297 90.318 271.989 89.7397 273.245 89.7397C273.789 89.7292 274.328 89.8454 274.82 90.079L274.4 91.035C274.048 90.8404 273.652 90.74 273.249 90.7435C272.772 90.7435 272.61 90.8725 272.61 91.0207C272.61 91.5752 274.963 90.9777 274.963 92.5646C274.963 93.3008 274.285 93.8791 272.987 93.8791C272.371 93.8898 271.762 93.7452 271.216 93.4585Z" fill="#263238"/>
<path d="M279.627 92.1631H276.724C276.788 92.3624 276.916 92.5343 277.09 92.6507C277.263 92.7671 277.471 92.821 277.679 92.8036C277.848 92.8098 278.017 92.7822 278.175 92.7223C278.333 92.6623 278.478 92.5714 278.6 92.4547L279.34 93.2243C279.121 93.4504 278.854 93.6257 278.56 93.738C278.266 93.8503 277.95 93.8968 277.636 93.8744C276.204 93.8744 275.292 92.9948 275.292 91.7998C275.292 91.5174 275.35 91.238 275.463 90.9789C275.575 90.7198 275.739 90.4865 275.945 90.2934C276.15 90.1003 276.394 89.9515 276.659 89.8563C276.925 89.761 277.207 89.7214 277.488 89.7397C277.768 89.7207 278.049 89.7609 278.313 89.8576C278.576 89.9542 278.816 90.1052 279.018 90.3008C279.22 90.4963 279.378 90.7321 279.483 90.9928C279.588 91.2535 279.637 91.5333 279.627 91.8142C279.65 91.9193 279.636 92.0484 279.627 92.1631ZM276.701 91.4222H278.338C278.313 91.2262 278.215 91.047 278.063 90.9202C277.912 90.7935 277.719 90.7287 277.522 90.7387C277.325 90.7307 277.132 90.7962 276.98 90.9225C276.828 91.0487 276.729 91.2268 276.701 91.4222Z" fill="#263238"/>
<path d="M283.059 93.6449C282.766 93.8047 282.437 93.8839 282.104 93.8744C281.078 93.8744 280.481 93.3964 280.481 92.3448V91.0016H279.899V89.9548H280.481V88.908H281.88V89.95H282.796V90.9968H281.88V92.3257C281.869 92.3859 281.872 92.4479 281.888 92.5068C281.904 92.5658 281.934 92.6203 281.974 92.6663C282.015 92.7123 282.065 92.7485 282.121 92.7723C282.178 92.7961 282.239 92.8068 282.3 92.8037C282.452 92.8058 282.602 92.7625 282.729 92.6794L283.059 93.6449Z" fill="#263238"/>
<path d="M246.256 100.241V102.096H244.796V100.217L242.829 96.9287H244.366L245.593 98.9793L246.815 96.9287H248.247L246.256 100.241Z" fill="#263238"/>
<path d="M247.841 100.088C247.841 98.8837 248.796 98.0281 250.094 98.0281C251.392 98.0281 252.352 98.8837 252.352 100.088C252.352 101.293 251.397 102.163 250.094 102.163C248.791 102.163 247.841 101.298 247.841 100.088ZM250.934 100.088C250.947 99.9702 250.934 99.8509 250.898 99.738C250.861 99.6251 250.802 99.5211 250.722 99.4328C250.643 99.3446 250.546 99.274 250.438 99.2257C250.33 99.1774 250.213 99.1524 250.094 99.1524C249.976 99.1524 249.858 99.1774 249.75 99.2257C249.642 99.274 249.545 99.3446 249.466 99.4328C249.386 99.5211 249.327 99.6251 249.29 99.738C249.254 99.8509 249.241 99.9702 249.254 100.088C249.241 100.206 249.254 100.326 249.29 100.439C249.327 100.551 249.386 100.655 249.466 100.744C249.545 100.832 249.642 100.903 249.75 100.951C249.858 100.999 249.976 101.024 250.094 101.024C250.213 101.024 250.33 100.999 250.438 100.951C250.546 100.903 250.643 100.832 250.722 100.744C250.802 100.655 250.861 100.551 250.898 100.439C250.934 100.326 250.947 100.206 250.934 100.088Z" fill="#263238"/>
<path d="M257.202 98.0951V102.096H255.851V101.666C255.697 101.824 255.512 101.949 255.307 102.031C255.102 102.113 254.883 102.152 254.662 102.144C253.707 102.144 252.968 101.58 252.968 100.313V98.0759H254.366V100.084C254.366 100.705 254.61 100.944 255.03 100.944C255.45 100.944 255.784 100.671 255.784 99.9879V98.0759L257.202 98.0951Z" fill="#263238"/>
<path d="M260.777 98.0283V99.2902C260.672 99.276 260.567 99.268 260.462 99.2663C260.33 99.2528 260.197 99.2694 260.073 99.3148C259.949 99.3602 259.836 99.4334 259.744 99.5287C259.652 99.624 259.583 99.7389 259.542 99.8649C259.501 99.9909 259.489 100.125 259.507 100.256V102.096H258.108V98.0952H259.44V98.5732C259.606 98.3859 259.813 98.2393 260.045 98.1449C260.277 98.0504 260.527 98.0105 260.777 98.0283Z" fill="#263238"/>
<path d="M268.233 98.8407C268.233 100.012 267.345 100.753 265.937 100.753H265.039V102.105H263.579V96.9287H265.937C267.345 96.9287 268.233 97.6601 268.233 98.8407ZM266.758 98.8407C266.758 98.3627 266.452 98.0807 265.851 98.0807H265.039V99.5912H265.875C266.452 99.5912 266.758 99.3139 266.758 98.8407Z" fill="#263238"/>
<path d="M272.581 99.8734V102.096H271.278V101.58C271.157 101.78 270.981 101.942 270.772 102.045C270.562 102.149 270.327 102.189 270.094 102.163C269.14 102.163 268.605 101.623 268.605 100.93C268.605 100.237 269.144 99.7348 270.385 99.7348H271.178C271.178 99.3285 270.887 99.099 270.333 99.099C269.945 99.0988 269.566 99.219 269.249 99.4432L268.772 98.4872C269.304 98.1689 269.914 98.0035 270.533 98.0092C271.837 98.0283 272.581 98.6019 272.581 99.8734ZM271.178 100.829V100.48H270.576C270.128 100.48 269.965 100.643 269.965 100.887C269.965 101.131 270.156 101.293 270.486 101.293C270.638 101.301 270.789 101.258 270.914 101.17C271.04 101.083 271.132 100.956 271.178 100.81V100.829Z" fill="#263238"/>
<path d="M273.149 101.747L273.569 100.791C273.993 101.035 274.474 101.164 274.963 101.164C275.44 101.164 275.588 101.059 275.588 100.891C275.588 100.351 273.23 100.963 273.23 99.3618C273.23 98.6065 273.923 98.0329 275.173 98.0329C275.719 98.0219 276.26 98.1381 276.753 98.3723L276.333 99.3283C275.981 99.1329 275.585 99.0308 275.183 99.032C274.705 99.032 274.543 99.1658 274.543 99.314C274.543 99.8685 276.892 99.271 276.892 100.858C276.892 101.594 276.214 102.172 274.915 102.172C274.3 102.182 273.693 102.036 273.149 101.747Z" fill="#263238"/>
<path d="M277.183 101.747L277.603 100.791C278.025 101.035 278.504 101.163 278.992 101.164C279.469 101.164 279.622 101.059 279.622 100.891C279.622 100.351 277.264 100.963 277.264 99.3617C277.264 98.6065 277.956 98.0329 279.207 98.0329C279.752 98.0224 280.293 98.1386 280.787 98.3723L280.367 99.3283C280.014 99.134 279.618 99.032 279.216 99.0319C278.739 99.0319 278.572 99.1657 278.572 99.3139C278.572 99.8684 280.925 99.2709 280.925 100.858C280.925 101.594 280.247 102.172 278.949 102.172C278.334 102.182 277.726 102.036 277.183 101.747Z" fill="#263238"/>
<path d="M288.075 98.0951L286.643 102.096H285.288L284.543 99.902L283.765 102.082H282.41L280.978 98.0808H282.304L283.121 100.499L283.966 98.0808H285.164L285.99 100.523L286.834 98.0808L288.075 98.0951Z" fill="#263238"/>
<path d="M288.142 100.088C288.142 98.8837 289.097 98.0281 290.4 98.0281C291.703 98.0281 292.653 98.8837 292.653 100.088C292.653 101.293 291.698 102.163 290.4 102.163C289.102 102.163 288.142 101.298 288.142 100.088ZM291.24 100.088C291.219 99.9271 291.152 99.7754 291.047 99.6514C290.942 99.5274 290.804 99.4362 290.649 99.3889C290.493 99.3415 290.328 99.3399 290.172 99.3843C290.016 99.4287 289.875 99.5172 289.768 99.6393C289.661 99.7613 289.591 99.9117 289.567 100.072C289.543 100.233 289.565 100.397 289.632 100.546C289.699 100.694 289.807 100.82 289.943 100.908C290.079 100.997 290.238 101.044 290.4 101.044C290.521 101.045 290.64 101.02 290.75 100.971C290.861 100.922 290.959 100.849 291.039 100.759C291.118 100.668 291.178 100.561 291.212 100.446C291.247 100.33 291.257 100.208 291.24 100.088Z" fill="#263238"/>
<path d="M295.98 98.0282V99.2902C295.874 99.2758 295.767 99.2678 295.66 99.2663C295.528 99.2517 295.395 99.2677 295.27 99.3128C295.146 99.3579 295.033 99.431 294.941 99.5265C294.848 99.622 294.779 99.7374 294.739 99.8638C294.698 99.9902 294.687 100.124 294.706 100.256V102.096H293.302V98.0952H294.639V98.5732C294.805 98.3846 295.013 98.2372 295.245 98.1426C295.478 98.0481 295.73 98.0089 295.98 98.0282Z" fill="#263238"/>
<path d="M300.763 96.6182V102.096H299.431V101.695C299.285 101.859 299.103 101.988 298.9 102.071C298.696 102.154 298.476 102.188 298.257 102.173C297.727 102.147 297.226 101.918 296.86 101.533C296.494 101.148 296.289 100.637 296.289 100.105C296.289 99.5735 296.494 99.0621 296.86 98.6772C297.226 98.2923 297.727 98.0634 298.257 98.0378C298.46 98.0262 298.663 98.0568 298.854 98.1275C299.044 98.1983 299.218 98.3077 299.364 98.4489V96.6277L300.763 96.6182ZM299.383 100.088C299.362 99.9269 299.295 99.7749 299.19 99.6507C299.084 99.5265 298.945 99.4354 298.79 99.3884C298.634 99.3413 298.468 99.3403 298.311 99.3855C298.155 99.4307 298.015 99.5202 297.908 99.6431C297.802 99.766 297.732 99.9172 297.709 100.079C297.686 100.24 297.71 100.404 297.778 100.552C297.846 100.7 297.956 100.826 298.093 100.913C298.231 101 298.39 101.046 298.553 101.044C298.673 101.045 298.792 101.02 298.901 100.97C299.011 100.92 299.108 100.848 299.187 100.757C299.266 100.666 299.324 100.56 299.358 100.444C299.392 100.329 299.401 100.207 299.383 100.088Z" fill="#263238"/>
<path d="M286.481 65.8828L282.71 65.0989L287.484 42.1023C287.661 40.8965 287.397 39.6671 286.739 38.6416C280.729 30.31 270.953 33.6943 269.455 40.8929L265.159 61.4469L261.388 60.6582L266.204 37.5135C266.452 36.3161 266.963 35.1892 267.701 34.2144C268.438 33.2396 269.383 32.4414 270.467 31.8779C282.61 25.6113 292.801 35.3529 290.725 45.3383L286.481 65.8828Z" fill="#E0E0E0"/>
<path d="M286.481 65.8828C286.481 65.8828 286.505 65.7394 286.562 65.4717C286.62 65.204 286.696 64.7977 286.801 64.2767L287.756 59.7022C288.166 57.7185 288.663 55.2951 289.24 52.4796L290.195 47.9769C290.491 46.3804 290.982 44.7074 291.002 42.9005C291.03 41.009 290.629 39.1357 289.827 37.4226C289.722 37.2028 289.622 36.9733 289.512 36.7534L289.13 36.1081C288.87 35.6758 288.585 35.2592 288.276 34.8606C288.123 34.6502 287.942 34.4686 287.775 34.2726C287.608 34.0766 287.445 33.8759 287.25 33.7038C286.879 33.3334 286.483 32.9885 286.066 32.6713C285.219 32.0077 284.292 31.4536 283.307 31.0222L282.538 30.7354L282.104 30.592L281.703 30.4868L280.896 30.2765C280.62 30.2144 280.343 30.1857 280.066 30.1379C277.763 29.7946 275.411 30.0957 273.269 31.0079C271.568 31.7315 270.046 32.8188 268.809 34.1936C267.572 35.5685 266.65 37.1975 266.109 38.9666C265.76 40.1855 265.536 41.4617 265.264 42.7332C264.204 47.8335 263.101 53.1154 261.98 58.5072C261.827 59.229 261.679 59.9412 261.531 60.663L261.459 60.5531L265.23 61.3418L265.125 61.4135C265.975 57.3266 266.81 53.3257 267.617 49.4635C268.021 47.5228 268.42 45.6108 268.815 43.7275L269.397 40.9264C269.602 40.0012 269.936 39.1096 270.39 38.2783C271.31 36.6738 272.695 35.387 274.362 34.5881C274.567 34.4973 274.763 34.3873 274.977 34.3156L275.608 34.0958C276.03 33.9686 276.46 33.8712 276.896 33.8042C277.329 33.7383 277.766 33.7031 278.204 33.699C278.419 33.699 278.639 33.699 278.853 33.7277H279.173L279.493 33.7803C280.333 33.8949 281.153 34.1283 281.927 34.4734C282.676 34.8186 283.377 35.2587 284.013 35.7831C285.23 36.8118 286.157 38.1418 286.701 39.6406C287.226 41.0433 287.379 42.5585 287.145 44.0382L287.059 44.5687C287.025 44.7408 286.987 44.9129 286.954 45.085L286.739 46.1079C286.596 46.7819 286.457 47.4415 286.324 48.0916C285.78 50.6824 285.278 53.0676 284.83 55.2138C283.923 59.5158 283.216 62.8618 282.748 65.1036L282.725 65.0702L285.589 65.6772L286.285 65.8302L286.515 65.8828L286.29 65.8397L285.598 65.7059L282.734 65.1227V65.0941L284.768 55.1995C285.211 53.0485 285.722 50.6632 286.242 48.0677C286.376 47.4224 286.515 46.758 286.653 46.084C286.72 45.7494 286.791 45.4052 286.863 45.0659C286.901 44.8938 286.935 44.7217 286.973 44.5448C287.011 44.368 287.025 44.1959 287.054 44.0238C287.283 42.5661 287.13 41.0739 286.61 39.6931C286.072 38.219 285.156 36.912 283.956 35.9026C283.327 35.3872 282.634 34.955 281.894 34.6168C281.134 34.2812 280.33 34.0528 279.507 33.938L279.192 33.8902H278.872C278.662 33.8902 278.452 33.8615 278.238 33.8902C277.374 33.9 276.516 34.0319 275.689 34.2822L275.068 34.5021C274.863 34.5795 274.662 34.6688 274.467 34.7697C272.83 35.5535 271.471 36.8193 270.572 38.3978C270.13 39.2122 269.808 40.0865 269.617 40.9933C269.426 41.9206 269.232 42.8543 269.035 43.7944C268.643 45.6777 268.245 47.5897 267.841 49.5304L265.354 61.4804V61.5712H265.264L261.493 60.7825H261.407V60.6917C261.555 59.9795 261.703 59.2577 261.856 58.5359C262.982 53.1297 264.08 47.8478 265.144 42.7619C265.416 41.4856 265.622 40.2189 265.994 38.9761C266.382 37.7613 266.936 36.6063 267.641 35.5441C269.037 33.49 270.997 31.8833 273.283 30.9171C275.453 29.9958 277.835 29.6931 280.166 30.0423C280.448 30.0901 280.729 30.1236 281.006 30.1809L281.961 30.4295L282.472 30.592L283.235 30.8788L283.589 31.027C284.522 31.4508 285.402 31.9852 286.209 32.6187C286.628 32.9433 287.026 33.2929 287.402 33.6656C287.553 33.8297 287.696 34.0003 287.832 34.177C287.999 34.3778 288.185 34.5594 288.333 34.7697C288.648 35.1744 288.938 35.5974 289.202 36.0364L289.584 36.6865C289.698 36.9112 289.794 37.1645 289.904 37.3653C290.709 39.099 291.109 40.9936 291.073 42.9053C291.073 44.7313 290.553 46.409 290.252 48.0103C289.951 49.6116 289.598 51.1173 289.297 52.5274C288.706 55.3429 288.19 57.7854 287.775 59.75C287.359 61.7146 287.03 63.2633 286.82 64.3054L286.567 65.486C286.515 65.7537 286.481 65.8828 286.481 65.8828Z" fill="#263238"/>
<path d="M259.761 46.3411L293.448 53.3701C293.911 53.4668 294.318 53.744 294.577 54.1406C294.837 54.5372 294.928 55.0208 294.832 55.4849L289.509 81.0631C289.422 81.485 289.17 81.8548 288.81 82.091C288.45 82.3272 288.011 82.4105 287.59 82.3226L253.743 75.2604L259.761 46.3411Z" fill="#455A64"/>
<g opacity="0.3">
<path d="M259.778 46.3682L293.288 53.3602C293.799 53.4667 294.246 53.772 294.532 54.2089C294.818 54.6458 294.919 55.1785 294.812 55.6898L289.564 80.9123C289.466 81.3815 289.187 81.7926 288.786 82.0552C288.386 82.3178 287.898 82.4104 287.43 82.3126L253.761 75.2875L259.778 46.3682Z" fill="black"/>
</g>
<path d="M260.048 46.402L289.104 52.4648C289.607 52.5698 290.048 52.8706 290.33 53.3012C290.612 53.7317 290.711 54.2566 290.606 54.7605L285.468 79.4542C285.339 80.0748 284.969 80.6185 284.439 80.9659C283.91 81.3133 283.264 81.4358 282.645 81.3065L254.111 75.3529C253.854 75.2991 253.609 75.195 253.392 75.0465C253.174 74.8981 252.988 74.7082 252.843 74.4876C252.699 74.2671 252.6 74.0203 252.551 73.7613C252.502 73.5022 252.504 73.236 252.558 72.9779L257.774 47.9099C257.878 47.4092 258.175 46.97 258.601 46.6876C259.027 46.4052 259.547 46.3026 260.048 46.402Z" fill="#455A64"/>
<g opacity="0.3">
<path d="M276.667 62.3122C276.78 61.7717 276.783 61.214 276.676 60.6723C276.57 60.1305 276.356 59.6157 276.047 59.1584C275.738 58.701 275.34 58.3104 274.878 58.0097C274.415 57.709 273.897 57.5044 273.354 57.4079C272.307 57.235 271.233 57.4686 270.352 58.061C269.47 58.6533 268.847 59.56 268.61 60.5962C268.422 61.4774 268.528 62.3962 268.911 63.2113C269.295 64.0265 269.935 64.693 270.734 65.1085L266.939 70.1323L273.865 71.7097L272.911 65.5674C273.806 65.5104 274.658 65.1613 275.336 64.5734C276.015 63.9855 276.482 63.1913 276.667 62.3122Z" fill="black"/>
</g>
<path d="M285.584 79.0852C285.536 79.0852 286.567 74.0375 287.884 67.8331C289.202 61.6286 290.314 56.6001 290.362 56.6096C290.41 56.6192 289.379 61.6621 288.061 67.8761C286.744 74.0901 285.631 79.0947 285.584 79.0852Z" fill="#263238"/>
<path d="M283.235 52.1689C283.235 52.2167 278.782 51.3898 273.312 50.3238C267.841 49.2579 263.407 48.3545 263.416 48.3067C263.426 48.2589 267.87 49.081 273.345 50.147C278.82 51.2129 283.245 52.102 283.235 52.1689Z" fill="white"/>
<path d="M268.023 62.7758C268.023 62.7758 267.965 62.6802 267.908 62.489C267.826 62.22 267.775 61.9426 267.755 61.6621C267.68 60.7254 267.888 59.7876 268.352 58.9709C268.824 58.1593 269.527 57.507 270.371 57.0972C270.625 56.9754 270.891 56.8793 271.164 56.8104C271.262 56.7795 271.366 56.765 271.469 56.7673C271.469 56.8008 271.044 56.8868 270.428 57.2119C269.628 57.6343 268.963 58.2761 268.513 59.0623C268.062 59.8486 267.844 60.7469 267.884 61.6525C267.908 62.3504 268.056 62.7662 268.023 62.7758Z" fill="white"/>
<path d="M269.216 65.008C269.183 65.0462 268.963 64.8981 268.739 64.6782C268.514 64.4583 268.342 64.2528 268.376 64.2002C268.409 64.1476 268.629 64.3149 268.853 64.53C269.078 64.7451 269.249 65.008 269.216 65.008Z" fill="white"/>
<path d="M279.407 30.9458C279.407 30.9458 279.159 30.9458 278.71 30.898C278.074 30.8582 277.435 30.8694 276.801 30.9315C274.712 31.1206 272.72 31.8998 271.056 33.1784C269.392 34.457 268.125 36.1825 267.402 38.1541C267.181 38.7479 267.007 39.3585 266.882 39.98C266.796 40.4198 266.758 40.6684 266.743 40.6684C266.736 40.608 266.736 40.5471 266.743 40.4867C266.743 40.3672 266.743 40.1904 266.805 39.9657C266.907 39.3341 267.067 38.7133 267.283 38.1111C267.985 36.096 269.26 34.3306 270.951 33.032C272.642 31.7334 274.675 30.9584 276.801 30.8024C277.437 30.7511 278.076 30.7607 278.71 30.8311C278.935 30.8311 279.106 30.8885 279.226 30.9028C279.288 30.9084 279.349 30.9229 279.407 30.9458Z" fill="white"/>
<path d="M265.946 43.7561C265.934 43.3937 265.983 43.0319 266.089 42.6854C266.137 42.3277 266.243 41.9804 266.405 41.6577C266.419 42.0183 266.373 42.3788 266.266 42.7237C266.219 43.0835 266.111 43.4327 265.946 43.7561Z" fill="white"/>
</svg>
