<svg width="32" height="33" viewBox="0 0 32 33" fill="none" xmlns="http://www.w3.org/2000/svg">
<path fill-rule="evenodd" clip-rule="evenodd" d="M22.5858 4.6665C24.3738 4.6665 26.0938 5.37317 27.3592 6.64117C28.6258 7.9065 29.3338 9.61317 29.3338 11.3998V21.9332C29.3338 25.6532 26.3072 28.6665 22.5858 28.6665H9.41384C5.69251 28.6665 2.66718 25.6532 2.66718 21.9332V11.3998C2.66718 7.67984 5.67917 4.6665 9.41384 4.6665H22.5858ZM24.7072 13.3865L24.8138 13.2798C25.1325 12.8932 25.1325 12.3332 24.7992 11.9465C24.6138 11.7478 24.3592 11.6265 24.0938 11.5998C23.8138 11.5852 23.5472 11.6798 23.3458 11.8665L17.3338 16.6665C16.5605 17.3078 15.4525 17.3078 14.6672 16.6665L8.66717 11.8665C8.25251 11.5598 7.67917 11.5998 7.33384 11.9598C6.97384 12.3198 6.93384 12.8932 7.23917 13.2932L7.41384 13.4665L13.4805 18.1998C14.2272 18.7865 15.1325 19.1065 16.0805 19.1065C17.0258 19.1065 17.9472 18.7865 18.6925 18.1998L24.7072 13.3865Z" fill="#E34F33"/>
</svg>
