<svg width="298" height="294" viewBox="0 0 298 294" fill="none" xmlns="http://www.w3.org/2000/svg">
<path d="M223.649 212.732C220.501 210.788 216.943 209.581 213.249 209.204C211.55 209.028 209.673 209.081 208.326 210.092C208.17 210.183 208.041 210.313 207.952 210.469C207.863 210.625 207.817 210.801 207.819 210.98C207.904 211.227 208.075 211.435 208.302 211.568C212.534 214.755 218.935 215.155 223.649 212.744" fill="#E0E0E0"/>
<path d="M223.381 212.444C220.972 210.699 218.724 208.747 216.664 206.611C214.594 204.463 213.14 201.811 212.45 198.926C212.271 198.056 212.218 197.051 212.784 196.357C218.148 200.473 222.32 205.818 223.381 212.444Z" fill="#E0E0E0"/>
<path d="M223.589 212.697C223.097 209.813 223.139 206.864 223.715 203.995C224.388 201.155 225.956 198.432 228.417 196.815C229.341 198.95 228.941 201.408 228.292 203.636C227.282 207.089 225.708 210.356 223.631 213.309" fill="#E0E0E0"/>
<path d="M228.864 221.976C225.681 222.358 222.904 224.01 220.52 226.139C218.13 228.287 216.465 231.107 215.752 234.218C218.881 234.03 221.533 231.866 223.452 229.414C225.371 226.962 226.706 224.304 228.816 222.023" fill="#E0E0E0"/>
<path d="M229.978 223.44C228.727 220.297 228.289 216.895 228.705 213.543C229.122 210.191 230.379 206.994 232.362 204.242C234.18 210.616 233.513 217.807 229.978 223.44Z" fill="#E0E0E0"/>
<path d="M236.916 231.607C234.005 231.432 231.106 232.104 228.578 233.539C226.05 234.974 224.005 237.109 222.695 239.681C222.517 240.027 222.362 240.468 222.6 240.78C222.722 240.899 222.872 240.986 223.036 241.034C223.2 241.082 223.374 241.09 223.542 241.056C226.343 240.874 228.828 239.216 230.878 237.317C232.929 235.418 234.717 233.236 236.981 231.596" fill="#E0E0E0"/>
<path d="M236.695 231.16C235.203 226.417 235.112 221.353 236.433 216.56C236.952 214.685 237.828 212.703 239.586 211.827C239.657 211.78 239.737 211.749 239.821 211.733C239.905 211.718 239.991 211.72 240.075 211.739C240.217 211.815 240.325 211.941 240.379 212.092C240.971 213.406 241.227 214.843 241.124 216.278C241.017 217.707 240.794 219.124 240.456 220.518C239.902 223.111 239.604 225.892 238.168 228.126C237.827 228.666 237.52 229.225 237.25 229.802C236.976 230.39 236.976 230.566 236.725 231.019" fill="#E0E0E0"/>
<path d="M255.052 233.859C253.693 228.755 255.136 222.57 258.396 218.383C258.64 218.077 258.956 217.742 259.349 217.795C259.945 217.848 260.106 218.636 260.076 219.23C259.832 224.48 258.091 229.555 255.052 233.871" fill="#E0E0E0"/>
<path d="M256.709 234.977C262.997 236.588 270.203 235.024 275.435 231.219C272.304 229.665 268.723 229.231 265.303 229.99C261.918 230.755 258.825 232.254 256.715 234.977" fill="#E0E0E0"/>
<path d="M258.104 231.578C261.626 225.916 268.373 222.217 275.096 221.882C274.321 224.581 272.074 226.68 269.541 227.944C267.008 229.208 264.177 229.767 261.382 230.296C260.297 230.502 258.807 230.731 258.104 231.572" fill="#E0E0E0"/>
<path d="M255.404 215.085C256.357 211.862 257.317 208.616 257.579 205.265C257.841 201.913 257.353 198.426 255.595 195.557C252.305 201.831 251.971 209.169 255.302 215.426" fill="#E0E0E0"/>
<path d="M266.472 209.563C270.322 202.672 278.165 197.162 286.104 196.392C283.04 203.912 274.69 209.728 266.472 209.563Z" fill="#E0E0E0"/>
<path d="M264.058 210.916C269.791 211.78 274.678 215.39 280.037 217.583C281.16 218.117 282.405 218.353 283.648 218.266C284.228 218.263 284.793 218.084 285.267 217.753C285.74 217.422 286.099 216.956 286.294 216.417C286.489 215.878 286.512 215.293 286.358 214.741C286.205 214.189 285.883 213.697 285.436 213.332C284.678 212.64 283.786 212.106 282.814 211.762C276.973 209.363 270.715 209.304 264.564 210.757" fill="#E0E0E0"/>
<path d="M260.738 214.885C262.037 215.249 262.478 215.914 263.509 216.778C267.015 219.719 271.162 221.822 275.626 222.922C276.085 223.034 276.693 223.081 276.925 222.664C277.158 222.246 276.872 221.87 276.61 221.547C274.662 219.295 272.136 217.603 269.297 216.649C266.495 215.62 264.076 214.385 260.738 214.649" fill="#E0E0E0"/>
<path d="M256.989 190.918C259.344 193.051 262.124 194.676 265.151 195.689C268.179 196.701 271.387 197.079 274.571 196.798C274.866 196.8 275.152 196.698 275.376 196.51C275.817 196.039 275.286 195.304 274.78 194.91C269.613 190.929 263.349 189.283 257.001 190.894" fill="#E0E0E0"/>
<path d="M261.429 189.336C264.543 187.077 268.154 185.576 271.968 184.956C275.782 184.336 279.69 184.614 283.374 185.767C280.609 188.454 276.776 189.883 272.914 190.294C269.059 190.641 265.171 190.316 261.429 189.336Z" fill="#E0E0E0"/>
<path d="M259.665 178.299C259.159 173.207 259.487 169.191 259.129 164.075C259.129 163.67 259.016 163.176 258.628 163.029C258.086 162.823 257.639 163.482 257.436 164.023C256.692 166.391 256.505 168.896 256.89 171.347C257.275 173.798 258.222 176.129 259.659 178.164" fill="#E0E0E0"/>
<path d="M259.296 178.864C262.794 176.729 265.417 173.942 267.842 170.667C269.529 168.391 270.954 165.657 270.572 162.864C268.188 162.817 265.947 164.105 264.404 165.881C262.933 167.725 261.863 169.849 261.263 172.119C260.577 174.36 260.1 176.665 259.296 178.864Z" fill="#E0E0E0"/>
<path d="M267.693 176.559C275.388 173.75 282.511 169.606 288.726 164.322C286.217 163.329 283.362 163.923 280.823 164.91C275.09 167.198 270.399 171.055 267.586 176.494" fill="#E0E0E0"/>
<path d="M261.644 181.645C265.53 182.068 269.469 182.339 273.326 181.704C277.182 181.069 280.692 179.599 284.226 178.129C284.536 178.042 284.801 177.845 284.971 177.576C285.026 177.413 285.029 177.238 284.982 177.074C284.934 176.909 284.837 176.762 284.703 176.653C284.431 176.441 284.113 176.295 283.773 176.224C279.929 175.165 275.775 175.636 271.991 176.917C268.385 178.127 264.918 179.703 261.644 181.621" fill="#E0E0E0"/>
<path d="M239.485 191.1C236.838 185.808 237.005 179.663 239.294 174.23C240.909 176.647 241.082 179.734 240.808 182.615C240.534 185.496 239.616 188.466 239.568 191.359" fill="#E0E0E0"/>
<path d="M228.9 185.808C225.583 185.765 222.295 186.406 219.244 187.689C216.193 188.972 213.446 190.868 211.181 193.258C214.483 193.769 217.88 192.929 220.884 191.494C223.887 190.059 226.557 188.019 229.198 186.002" fill="#E0E0E0"/>
<path d="M221.789 183.456C218.553 183.197 215.436 182.797 212.325 183.738C209.214 184.679 206.365 186.813 205.113 189.771C208.156 190.022 211.212 189.466 213.964 188.16C216.709 186.824 219.328 185.25 221.789 183.456Z" fill="#E0E0E0"/>
<path d="M232.321 183.585C229.412 181.704 226.42 179.787 223.035 179.011C219.65 178.234 215.716 178.805 213.35 181.327C216.098 182.915 219.423 183.091 222.606 183.091C225.789 183.091 229.686 183.056 232.684 184.103" fill="#E0E0E0"/>
<path d="M232.339 183.738C227.362 178.917 225.479 170.255 227.475 163.664C231.406 169.597 233.125 176.693 232.339 183.738Z" fill="#E0E0E0"/>
<path d="M246.023 170.079C246.959 167.927 247.62 165.663 248.46 163.476C249.229 161.252 250.409 159.188 251.941 157.39C253.495 155.581 255.709 154.449 258.104 154.238C257.339 157.56 255.88 160.687 253.82 163.421C251.761 166.155 249.146 168.434 246.142 170.114" fill="#E0E0E0"/>
<path d="M243.549 172.925C241.976 170.814 240.188 167.95 238.09 166.404C235.992 164.858 233.245 163.881 230.676 164.487C232.007 166.788 233.864 168.751 236.099 170.221C238.333 171.691 240.884 172.627 243.549 172.954" fill="#E0E0E0"/>
<path d="M244.044 170.255C243.025 167.703 242 165.122 241.589 162.411C241.177 159.701 241.428 156.802 242.834 154.432C245.564 159.53 246.44 165.016 244.181 170.308" fill="#E0E0E0"/>
<path d="M246.047 154.432C247.596 149.381 252.281 145.665 257.341 143.96C257.969 143.706 258.65 143.605 259.326 143.666C259.658 143.701 259.972 143.831 260.23 144.04C260.489 144.249 260.68 144.528 260.78 144.842C260.965 145.7 260.249 146.471 259.588 147.041C255.634 150.377 251.032 152.884 246.065 154.409" fill="#E0E0E0"/>
<path d="M246.106 150.305C246.303 147.047 246.506 143.742 247.578 140.661C248.651 137.58 250.725 134.681 253.735 133.329C254.242 136.616 252.776 139.891 250.999 142.737C249.223 145.583 247.09 148.241 246.023 151.392" fill="#E0E0E0"/>
<path d="M246.023 152.545C244.741 148.864 244.61 144.189 242.375 140.985C240.814 138.744 238.317 137.216 236.97 134.84C236.158 137.118 236.271 139.617 237.285 141.814C238.303 143.985 239.701 145.961 241.416 147.653C243.073 149.417 244.485 150.704 246.023 152.545Z" fill="#E0E0E0"/>
<path d="M246.047 260.931C245.951 260.931 245.862 236.382 245.856 206.1C245.85 175.818 245.921 151.263 246.023 151.263C246.124 151.263 246.208 175.812 246.214 206.1C246.219 236.388 246.148 260.931 246.047 260.931Z" fill="#E0E0E0"/>
<path d="M267.795 187.384C267.495 187.528 267.181 187.644 266.859 187.731L264.284 188.589C262.115 189.318 259.129 190.353 255.893 191.688C252.656 193.023 249.664 194.146 247.942 195.616C247.256 196.18 246.709 196.892 246.345 197.697C246.1 198.285 246.059 198.626 246.023 198.62C246.008 198.537 246.008 198.451 246.023 198.368C246.06 198.124 246.12 197.884 246.202 197.65C246.53 196.794 247.066 196.031 247.763 195.428C248.804 194.561 249.966 193.849 251.214 193.311C252.591 192.676 254.122 192.017 255.744 191.359C258.992 190.042 261.996 189.007 264.195 188.354C265.291 188.013 266.185 187.766 266.805 187.601C267.128 187.501 267.459 187.428 267.795 187.384Z" fill="#E0E0E0"/>
<path d="M274.923 170.114C274.846 170.216 274.758 170.308 274.661 170.391L273.862 171.108L270.882 173.783L260.959 182.515C257.085 185.92 253.741 189.165 251.423 191.617C250.266 192.835 249.348 193.852 248.723 194.557L248.002 195.369C247.923 195.469 247.833 195.56 247.733 195.639C247.792 195.526 247.864 195.419 247.948 195.322C248.097 195.128 248.317 194.834 248.615 194.469C249.211 193.734 250.099 192.705 251.238 191.447C254.233 188.229 257.398 185.169 260.72 182.28C264.606 178.887 268.146 175.841 270.715 173.642C271.973 172.572 273.01 171.696 273.773 171.055C274.112 170.773 274.369 170.549 274.613 170.361C274.704 170.265 274.808 170.182 274.923 170.114Z" fill="#E0E0E0"/>
<path d="M256.781 185.973C256.679 185.931 257.484 184.085 258.294 181.757C259.105 179.428 259.486 177.458 259.594 177.476C259.515 178.979 259.201 180.46 258.664 181.868C258.322 182.869 257.924 183.851 257.472 184.808C257.299 185.227 257.066 185.619 256.781 185.973Z" fill="#E0E0E0"/>
<path d="M246.07 200.837C245.849 200.628 245.649 200.398 245.474 200.149L243.943 198.221C242.661 196.58 240.885 194.316 238.895 191.847C236.904 189.377 235.074 187.143 233.751 185.543L232.184 183.638C231.979 183.415 231.8 183.17 231.647 182.909C231.883 183.099 232.098 183.312 232.291 183.544C232.69 183.973 233.256 184.603 233.942 185.385C235.319 186.949 237.184 189.148 239.175 191.623C241.165 194.099 242.912 196.392 244.145 198.091C244.741 198.932 245.254 199.614 245.588 200.096C245.773 200.327 245.935 200.575 246.07 200.837Z" fill="#E0E0E0"/>
<path d="M241.303 194.798C240.342 193.746 239.657 192.479 239.306 191.106C238.93 189.902 238.776 188.641 238.853 187.384H239.008C238.936 187.666 238.889 187.813 238.859 187.813C238.829 187.813 238.859 187.648 238.859 187.354H239.02C239.094 188.581 239.308 189.796 239.658 190.976C240.295 193.199 241.38 194.734 241.303 194.798Z" fill="#E0E0E0"/>
<path d="M235.146 187.154C234.715 186.833 234.247 186.565 233.751 186.355C232.495 185.99 231.176 185.888 229.877 186.055C228.563 186.156 227.26 186.363 225.979 186.672C225.454 186.834 224.918 186.962 224.376 187.055C224.852 186.772 225.368 186.562 225.908 186.431C227.191 186.042 228.515 185.796 229.853 185.696C231.2 185.521 232.57 185.668 233.847 186.125C234.387 186.31 234.846 186.674 235.146 187.154Z" fill="#E0E0E0"/>
<path d="M233.686 185.302C233.686 185.361 232.875 184.985 231.552 184.538C228.09 183.37 224.384 183.091 220.782 183.726C219.405 183.967 218.571 184.226 218.553 184.167C218.728 184.058 218.919 183.977 219.119 183.926C219.647 183.747 220.184 183.598 220.729 183.479C224.368 182.697 228.159 182.983 231.635 184.303C232.158 184.497 232.668 184.725 233.161 184.985C233.35 185.066 233.526 185.173 233.686 185.302Z" fill="#E0E0E0"/>
<path d="M246.023 177.476C245.391 175.73 244.871 173.947 244.467 172.137C243.698 169.162 243.156 166.727 243.275 166.704C243.394 166.68 244.068 169.056 244.831 172.049C245.594 175.042 246.148 177.452 246.023 177.476Z" fill="#E0E0E0"/>
<path d="M246.148 177.476C246.041 177.511 245.588 175.912 244.42 174.277C243.689 173.309 242.833 172.44 241.875 171.69C242.238 171.778 242.575 171.95 242.858 172.19C243.58 172.709 244.206 173.345 244.712 174.071C245.482 175.064 245.978 176.237 246.148 177.476Z" fill="#E0E0E0"/>
<path d="M246.047 247.842C246.011 247.842 245.933 247.254 245.653 246.213C245.244 244.745 244.687 243.321 243.99 241.962C242.274 238.493 239.145 234.1 235.17 229.696C233.197 227.474 231.29 225.38 229.663 223.375C228.209 221.611 226.894 219.739 225.729 217.778C224.947 216.451 224.283 215.06 223.744 213.62C223.56 213.109 223.428 212.709 223.351 212.444C223.303 212.307 223.269 212.165 223.25 212.021C223.285 212.021 223.464 212.58 223.875 213.585C224.462 214.993 225.155 216.355 225.95 217.66C227.138 219.593 228.466 221.438 229.925 223.181C231.552 225.169 233.465 227.25 235.438 229.473C239.425 233.889 242.548 238.34 244.223 241.862C244.901 243.245 245.427 244.696 245.79 246.19C245.889 246.596 245.963 247.009 246.011 247.424C246.038 247.562 246.05 247.702 246.047 247.842Z" fill="#E0E0E0"/>
<path d="M265.703 225.945C265.372 226.162 265.028 226.358 264.672 226.533C263.738 227.057 262.844 227.647 261.996 228.297C260.747 229.259 259.575 230.314 258.491 231.454C257.257 232.742 255.988 234.23 254.695 235.829C252.108 239.034 249.688 241.868 248.234 244.132C247.501 245.255 246.965 246.201 246.613 246.86C246.451 247.215 246.261 247.557 246.047 247.883C246.063 247.767 246.098 247.654 246.148 247.548C246.225 247.366 246.333 247.095 246.494 246.754C246.947 245.79 247.459 244.853 248.025 243.949C249.438 241.633 251.84 238.757 254.421 235.559C255.72 233.959 257.001 232.466 258.259 231.184C259.358 230.041 260.555 228.992 261.835 228.05C262.715 227.416 263.648 226.857 264.624 226.38C264.964 226.215 265.22 226.109 265.429 226.033C265.515 225.99 265.607 225.96 265.703 225.945Z" fill="#E0E0E0"/>
<path d="M266.084 233.048C265.368 233.206 264.641 233.31 263.909 233.359C262.161 233.538 260.433 233.874 258.747 234.365C257.08 234.899 255.516 235.708 254.122 236.758C253.056 237.57 252.555 238.24 252.501 238.205C252.583 238.024 252.694 237.857 252.829 237.711C253.167 237.293 253.547 236.908 253.962 236.564C255.348 235.425 256.945 234.562 258.664 234.024C260.372 233.518 262.134 233.211 263.915 233.107C264.634 233.021 265.361 233.001 266.084 233.048Z" fill="#E0E0E0"/>
<path d="M253.139 237.422C253.026 237.358 254.009 235.882 254.766 233.894C255.523 231.907 255.648 230.125 255.779 230.149C255.832 230.54 255.82 230.937 255.744 231.325C255.628 232.246 255.408 233.151 255.088 234.024C254.758 234.897 254.335 235.733 253.824 236.517C253.647 236.853 253.415 237.159 253.139 237.422Z" fill="#E0E0E0"/>
<path d="M272.062 206.87C271.956 206.947 271.84 207.008 271.716 207.052L270.691 207.511C270.244 207.705 269.702 207.946 269.088 208.264C268.474 208.581 267.753 208.899 267.008 209.34L265.816 210.004C265.405 210.239 264.993 210.516 264.564 210.786C263.688 211.31 262.812 211.962 261.87 212.615C259.882 214.099 258.007 215.726 256.262 217.484C254.533 219.267 252.94 221.173 251.494 223.187C250.856 224.134 250.237 225.016 249.736 225.898C249.48 226.339 249.211 226.745 248.991 227.162L248.353 228.338C247.93 229.091 247.626 229.808 247.334 230.425C247.042 231.043 246.804 231.601 246.631 232.031C246.458 232.46 246.315 232.789 246.202 233.06C246.156 233.181 246.098 233.297 246.029 233.407C246.047 233.279 246.081 233.155 246.13 233.036C246.225 232.754 246.351 232.407 246.5 231.984C246.688 231.426 246.905 230.879 247.149 230.343C247.429 229.72 247.715 228.991 248.127 228.226L248.723 227.015C248.937 226.592 249.199 226.174 249.456 225.733C249.944 224.839 250.564 223.94 251.196 222.981C254.035 218.874 257.562 215.273 261.626 212.333C262.58 211.68 263.468 211.039 264.356 210.522C264.797 210.257 265.208 209.981 265.625 209.751L266.817 209.105C267.574 208.669 268.301 208.364 268.933 208.064C269.565 207.764 270.125 207.54 270.566 207.37L271.621 206.97C271.763 206.917 271.911 206.883 272.062 206.87Z" fill="#E0E0E0"/>
<path d="M256.512 217.154C256.656 216.657 256.954 216.217 257.365 215.896C258.327 215.088 259.546 214.637 260.81 214.62C262.054 214.617 263.287 214.855 264.439 215.32C264.926 215.472 265.388 215.693 265.81 215.978C265.314 215.88 264.828 215.74 264.356 215.561C263.219 215.171 262.025 214.972 260.822 214.973C259.631 214.999 258.479 215.396 257.532 216.108C257.167 216.432 256.826 216.782 256.512 217.154Z" fill="#E0E0E0"/>
<path d="M254.188 219.518C254.087 219.465 254.963 218.195 255.165 216.378C255.368 214.561 254.838 213.132 254.945 213.103C255.052 213.073 255.183 213.42 255.35 214.014C255.558 214.798 255.616 215.614 255.523 216.419C255.431 217.224 255.184 218.004 254.796 218.718C254.492 219.265 254.224 219.541 254.188 219.518Z" fill="#E0E0E0"/>
<path d="M228.864 251.364C229.4 260.743 232.267 270.286 236.678 279.935H255.845C260.047 270.386 262.717 260.854 263.194 251.364H228.864Z" fill="#E0E0E0"/>
<path d="M260.077 266.546C260.077 266.646 253.765 266.723 245.981 266.723C238.197 266.723 231.886 266.646 231.886 266.546C231.886 266.446 238.197 266.37 245.981 266.37C253.765 266.37 260.077 266.446 260.077 266.546Z" fill="#FAFAFA"/>
<path d="M259.653 269.945C259.653 270.045 253.735 270.121 246.434 270.121C239.133 270.121 233.221 270.045 233.221 269.945C233.221 269.845 239.139 269.769 246.434 269.769C253.729 269.769 259.653 269.845 259.653 269.945Z" fill="#FAFAFA"/>
<path d="M236.982 257.544C237.22 260.444 237.22 263.358 236.982 266.258C236.88 266.258 236.797 264.312 236.797 261.901C236.797 259.49 236.88 257.544 236.982 257.544Z" fill="#FAFAFA"/>
<path d="M247.251 257.544C247.352 257.544 247.429 259.567 247.429 262.06C247.429 264.553 247.352 266.57 247.251 266.57C247.149 266.57 247.072 264.547 247.072 262.06C247.072 259.573 247.149 257.544 247.251 257.544Z" fill="#FAFAFA"/>
<path d="M256.876 257.444C257.114 260.509 257.114 263.587 256.876 266.652C256.775 266.652 256.697 264.588 256.697 262.048C256.697 259.508 256.793 257.444 256.876 257.444Z" fill="#FAFAFA"/>
<path d="M262.58 257.544C262.58 257.644 255.177 257.726 246.047 257.726C236.916 257.726 229.514 257.644 229.514 257.544C229.514 257.444 236.91 257.368 246.047 257.368C255.183 257.368 262.58 257.426 262.58 257.544Z" fill="#FAFAFA"/>
<path d="M273.004 21.115H227.076V68.349H273.004V21.115Z" fill="#E0E0E0"/>
<path d="M269.893 21.115H223.965V68.349H269.893V21.115Z" fill="#FAFAFA"/>
<path d="M269.91 68.3667H223.953V21.1033H269.91V68.3667ZM223.977 68.3667H269.869V21.1268H223.977V68.3667Z" fill="#E0E0E0"/>
<path d="M263.724 27.4655H230.139V61.9987H263.724V27.4655Z" fill="white"/>
<path d="M230.139 62.2339C229.899 62.5784 229.621 62.8959 229.311 63.1806C228.775 63.7686 228.018 64.4977 227.177 65.315C226.337 66.1323 225.556 66.8673 224.984 67.3906C224.694 67.6932 224.368 67.9597 224.013 68.1844C224.247 67.8372 224.523 67.5193 224.835 67.2378C225.371 66.6792 226.128 65.9206 226.975 65.0974C227.821 64.2742 228.602 63.5451 229.174 63.0218C229.461 62.7203 229.785 62.4556 230.139 62.2339Z" fill="#E0E0E0"/>
<path d="M263.718 62.1456C264.071 62.3796 264.396 62.6539 264.684 62.9629C265.25 63.4921 266.019 64.2389 266.847 65.068C267.676 65.8971 268.421 66.6673 268.951 67.2318C269.258 67.5179 269.528 67.8397 269.756 68.1903C269.404 67.9592 269.081 67.6867 268.796 67.3788C268.23 66.8496 267.461 66.1029 266.627 65.2679C265.792 64.4329 265.053 63.6627 264.523 63.0982C264.217 62.8132 263.947 62.4935 263.718 62.1456Z" fill="#E0E0E0"/>
<path d="M263.629 27.5595C263.866 27.2108 264.144 26.8911 264.457 26.6069C264.994 26.0189 265.744 25.2898 266.591 24.4725C267.437 23.6551 268.2 22.9319 268.796 22.4027C269.085 22.0975 269.411 21.8289 269.767 21.603C269.533 21.9503 269.257 22.2682 268.945 22.5497C268.409 23.1083 267.652 23.8668 266.805 24.69C265.959 25.5132 265.178 26.2423 264.606 26.7657C264.312 27.0662 263.984 27.3325 263.629 27.5595Z" fill="#E0E0E0"/>
<path d="M230.056 27.6359C229.701 27.4043 229.376 27.1297 229.09 26.8186C228.524 26.2894 227.755 25.5485 226.927 24.7136C226.099 23.8786 225.354 23.1142 224.823 22.5497C224.516 22.2637 224.246 21.9418 224.018 21.5913C224.371 21.8224 224.693 22.0949 224.978 22.4027C225.544 22.9319 226.313 23.6787 227.147 24.5137C227.982 25.3486 228.721 26.1189 229.251 26.6834C229.555 26.9699 229.825 27.2894 230.056 27.6359Z" fill="#E0E0E0"/>
<path d="M263.629 61.9987C263.629 61.9987 263.629 61.9399 263.629 61.834C263.629 61.7282 263.629 61.5577 263.629 61.3519C263.629 60.9167 263.629 60.2935 263.629 59.4879C263.629 57.8533 263.629 55.4719 263.593 52.4319C263.593 46.3814 263.557 37.7672 263.527 27.4478L263.658 27.5771H230.175L230.324 27.4301C230.324 40.1074 230.324 51.9674 230.324 61.9634L230.199 61.8399L254.45 61.9046L261.257 61.9399H263.045H263.67C263.621 61.9452 263.571 61.9452 263.521 61.9399H263.068H261.28L254.498 61.9751L230.169 62.0398H230.044V61.9105C230.044 51.9145 230.044 40.0545 230.044 27.3772V27.2302H230.199H263.682H263.813V27.3596C263.784 37.7084 263.76 46.3579 263.748 52.426C263.748 55.4366 263.718 57.8062 263.712 59.435C263.712 60.2347 263.712 60.8462 263.712 61.2754C263.712 61.4753 263.712 61.6282 263.712 61.7399C263.694 61.8289 263.666 61.9156 263.629 61.9987Z" fill="#E0E0E0"/>
<path d="M252.531 39.2078H241.326V50.2622H252.531V39.2078Z" fill="#EBEBEB"/>
<path d="M72.8729 95.744H20.4249V170.749H72.8729V95.744Z" fill="#E0E0E0"/>
<path d="M70.2444 95.744H17.7964V170.749H70.2444V95.744Z" fill="#F5F5F5"/>
<path d="M63.7303 103.864H24.3168V162.617H63.7303V103.864Z" fill="white"/>
<path d="M63.7303 162.623C63.7303 162.623 63.7303 162.523 63.7303 162.335C63.7303 162.147 63.7303 161.865 63.7303 161.5C63.7303 160.765 63.7303 159.683 63.7303 158.278C63.7303 155.461 63.7303 151.357 63.6945 146.177C63.6945 135.816 63.6587 121.146 63.6289 103.841L63.7601 103.97H24.3525L24.4956 103.829C24.4956 125.997 24.4956 146.43 24.4956 162.588L24.3823 162.476L53.0738 162.535H61.0006H63.0806C63.5515 162.535 63.7958 162.535 63.7958 162.535H63.1045H61.0423L53.1393 162.564L24.3823 162.623H24.2691V162.511C24.2691 146.353 24.2691 125.92 24.2691 103.753V103.611H24.4181H63.8256H63.9567V103.741C63.9567 121.057 63.9091 135.757 63.8912 146.136C63.8912 151.31 63.8912 155.402 63.8614 158.213C63.8614 159.601 63.8614 160.677 63.8614 161.406C63.8614 161.765 63.8614 162.035 63.8614 162.229C63.8614 162.423 63.7303 162.623 63.7303 162.623Z" fill="#E0E0E0"/>
<path d="M70.3936 95.744C70.1283 96.2195 69.8169 96.6685 69.4638 97.0847C68.8678 97.8843 67.9857 98.978 67.0023 100.16C66.0189 101.342 65.0892 102.394 64.4097 103.135C64.0611 103.561 63.6741 103.954 63.2535 104.311C63.5484 103.852 63.8834 103.419 64.2548 103.018L66.7818 99.9953L69.3029 96.9729C69.6328 96.5354 69.9975 96.1244 70.3936 95.744Z" fill="#E0E0E0"/>
<path d="M63.9329 162.435C65.8918 165.51 68.1993 168.354 70.8108 170.914L63.9329 162.435Z" fill="white"/>
<path d="M70.8107 170.914C70.3757 170.598 69.9761 170.237 69.6187 169.838C67.7886 168.003 66.1549 165.988 64.7435 163.823C64.4318 163.387 64.1643 162.922 63.9448 162.435C64.2991 162.835 64.6218 163.262 64.9103 163.711C65.5063 164.511 66.305 165.604 67.2526 166.78C68.2003 167.956 69.1062 168.974 69.7677 169.72C70.1423 170.095 70.4907 170.493 70.8107 170.914Z" fill="#E0E0E0"/>
<path d="M17.7906 170.685L24.6625 162.323L17.7906 170.685Z" fill="white"/>
<path d="M24.6625 162.323C23.6271 163.8 22.5172 165.225 21.3368 166.592C20.2304 168.026 19.0466 169.4 17.7906 170.708C18.8249 169.219 19.9349 167.782 21.1163 166.404C22.2256 164.984 23.4092 163.622 24.6625 162.323Z" fill="#E0E0E0"/>
<path d="M17.7964 95.744C18.9823 96.993 20.0966 98.3063 21.134 99.6777C22.2468 100.992 23.2854 102.366 24.2452 103.794C23.0613 102.543 21.9472 101.23 20.9076 99.86C19.7971 98.5436 18.7586 97.1696 17.7964 95.744Z" fill="#E0E0E0"/>
<path d="M51.4467 115.795H38.2513V152.762H51.4467V115.795Z" fill="#E0E0E0"/>
<path d="M45.2066 43.9C39.9309 46.0382 35.7302 50.1534 33.5258 55.343C31.3213 60.5326 31.2932 66.373 33.4475 71.5831L46.8039 103.747L52.7639 101.33L39.4135 69.1605C37.9023 65.5191 37.9193 61.4347 39.4606 57.8056C41.002 54.1766 43.9414 51.3003 47.6323 49.8094C51.3232 48.3186 55.4633 48.3353 59.1417 49.8559C62.8201 51.3766 65.7355 54.2766 67.2467 57.9179L73.2365 55.4954C71.0704 50.2968 66.904 46.1573 61.65 43.9838C56.396 41.8104 50.483 41.7802 45.2066 43.9Z" fill="#FF725E"/>
<g opacity="0.3">
<path d="M45.2066 43.9C39.9309 46.0382 35.7302 50.1534 33.5258 55.343C31.3213 60.5326 31.2932 66.373 33.4475 71.5831L46.8039 103.747L52.7639 101.33L39.4135 69.1605C37.9023 65.5191 37.9193 61.4347 39.4606 57.8056C41.002 54.1766 43.9414 51.3003 47.6323 49.8094C51.3232 48.3186 55.4633 48.3353 59.1417 49.8559C62.8201 51.3766 65.7355 54.2766 67.2467 57.9179L73.2365 55.4954C71.0704 50.2968 66.904 46.1573 61.65 43.9838C56.396 41.8104 50.483 41.7802 45.2066 43.9Z" fill="black"/>
</g>
<path d="M84.4024 71.8476L37.1517 90.9379C35.3819 91.6529 34.5347 93.648 35.2595 95.394L46.7335 123.036C47.4583 124.782 49.4805 125.618 51.2503 124.903L98.501 105.813C100.271 105.098 101.118 103.103 100.393 101.357L88.9191 73.7143C88.1944 71.9683 86.1722 71.1325 84.4024 71.8476Z" fill="#FF725E"/>
<g opacity="0.5">
<path d="M70.4651 92.1396C70.1264 91.3145 69.5609 90.5991 68.8323 90.074C68.1037 89.5488 67.241 89.2348 66.3413 89.1673C65.4416 89.0998 64.5407 89.2815 63.74 89.6919C62.9393 90.1023 62.2706 90.7252 61.8094 91.4903C61.3481 92.2553 61.1126 93.1323 61.1292 94.0223C61.1459 94.9124 61.4142 95.7801 61.9037 96.5279C62.3933 97.2756 63.0848 97.8737 63.9003 98.2546C64.7159 98.6356 65.623 98.7843 66.5195 98.684L69.2611 105.299L71.7107 104.311L68.9631 97.6962C69.7931 97.058 70.389 96.1698 70.6601 95.1668C70.9312 94.1637 70.8627 93.1007 70.4651 92.1396Z" fill="black"/>
</g>
<path d="M49.5634 121.822C49.4382 121.875 46.9886 116.248 44.0921 109.262C41.1955 102.277 38.9367 96.5731 39.0618 96.5201C39.187 96.4672 41.6366 102.094 44.5331 109.086C47.4297 116.077 49.6826 121.775 49.5634 121.822Z" fill="#FAFAFA"/>
<path d="M64.821 101.048C64.603 101.063 64.3842 101.035 64.1773 100.965C63.5988 100.814 63.0465 100.578 62.5383 100.266C61.6757 99.7641 60.9364 99.0803 60.3735 98.2633C59.8106 97.4464 59.438 96.5166 59.2824 95.5408C59.1269 94.565 59.1923 93.5673 59.4739 92.6193C59.7555 91.6713 60.2463 90.7967 60.9112 90.058C61.2921 89.5983 61.7447 89.2013 62.2522 88.882C62.6098 88.6645 62.8482 88.5822 62.8482 88.6057C62.2504 89.1098 61.6925 89.6583 61.1794 90.2462C60.5888 90.9673 60.158 91.8026 59.9147 92.6981C59.6715 93.5936 59.6213 94.5295 59.7673 95.4454C59.9133 96.3612 60.2523 97.2367 60.7625 98.0153C61.2726 98.794 61.9425 99.4584 62.729 99.9658C63.3978 100.378 64.0971 100.739 64.821 101.048Z" fill="#FAFAFA"/>
<path d="M26.7842 106.845L27.0763 106.01L27.6306 106.704C28.0764 107.251 28.6723 107.659 29.3471 107.88L30.1934 108.168L29.4901 108.715C28.9393 109.158 28.5262 109.745 28.2981 110.409L28.012 111.261L27.416 110.573C26.9663 110.028 26.369 109.621 25.6936 109.397L24.8532 109.109L25.5505 108.562C26.1204 108.119 26.5487 107.523 26.7842 106.845Z" fill="#FF725E"/>
<path d="M55.0704 74.0409L55.2373 73.5587L55.5591 73.9586C55.8164 74.2873 56.1639 74.5363 56.5604 74.6759L57.0491 74.8406L56.6438 75.164C56.3167 75.4172 56.0704 75.7582 55.9346 76.1459L55.7677 76.6281L55.428 76.2047C55.1726 75.8819 54.8264 75.6405 54.4327 75.5109L53.938 75.3404L54.3492 75.0228C54.6796 74.77 54.9298 74.4293 55.0704 74.0409Z" fill="#FF725E"/>
<path d="M21.0567 78.1275L21.5454 76.7222L22.4811 77.8982C23.2265 78.8283 24.2281 79.5266 25.3658 79.9091L26.7842 80.3913L25.5922 81.3144C24.6494 82.0511 23.9401 83.0387 23.548 84.1604L23.0592 85.5598L22.1295 84.3838C21.3844 83.452 20.3829 82.7517 19.2448 82.367L17.8264 81.8848L19.0184 80.9675C19.9578 80.2314 20.6649 79.2462 21.0567 78.1275Z" fill="#FF725E"/>
<path d="M185.392 282.181L97.4162 282.128C92.3347 282.125 87.4625 280.132 83.8705 276.586C80.2785 273.04 78.2607 268.231 78.2607 263.218L78.3025 45.6171C78.3032 43.1333 78.8 40.674 79.7643 38.3796C80.7287 36.0852 82.1417 34.0008 83.9228 32.2453C85.7038 30.4898 87.818 29.0977 90.1444 28.1484C92.4709 27.1991 94.9641 26.7113 97.4817 26.7129L185.457 26.7599C190.539 26.7631 195.411 28.7567 199.003 32.3027C202.595 35.8487 204.613 40.6568 204.613 45.67L204.571 263.277C204.57 265.761 204.073 268.22 203.109 270.515C202.145 272.809 200.732 274.893 198.951 276.649C197.17 278.404 195.056 279.796 192.729 280.746C190.403 281.695 187.909 282.183 185.392 282.181Z" fill="#263238"/>
<path d="M185.356 34.4569H168.31C167.754 34.4684 167.206 34.5879 166.696 34.8088C166.187 35.0296 165.727 35.3474 165.342 35.7439C164.957 36.1404 164.655 36.6078 164.454 37.1195C164.253 37.6312 164.156 38.177 164.168 38.7258V41.7481C164.192 42.856 163.769 43.9279 162.993 44.7284C162.216 45.5288 161.149 45.9923 160.026 46.017H126.781C126.222 46.0078 125.671 45.8898 125.158 45.6698C124.646 45.4498 124.182 45.132 123.795 44.7348C123.407 44.3376 123.103 43.8688 122.899 43.3552C122.696 42.8417 122.597 42.2935 122.609 41.7422V38.6964C122.622 38.1473 122.525 37.6012 122.323 37.0892C122.122 36.5772 121.82 36.1093 121.436 35.7123C121.051 35.3154 120.591 34.9971 120.081 34.7756C119.572 34.5541 119.023 34.4338 118.467 34.4216H97.5652C94.01 34.4201 90.5994 35.8095 88.0811 38.2851C85.5628 40.7608 84.1424 44.1207 84.1313 47.6281L84.0896 260.025C84.0896 263.536 85.5029 266.904 88.0187 269.387C90.5345 271.87 93.9469 273.266 97.5056 273.267L185.308 273.32C187.072 273.322 188.818 272.98 190.447 272.315C192.077 271.651 193.557 270.675 194.805 269.446C196.052 268.216 197.041 266.755 197.715 265.148C198.39 263.541 198.737 261.818 198.736 260.078L198.778 47.6869C198.775 44.177 197.359 40.8119 194.842 38.3312C192.326 35.8504 188.914 34.4569 185.356 34.4569Z" fill="white"/>
<path d="M133.283 257.103C133.287 257.432 133.191 257.755 133.009 258.03C132.827 258.306 132.566 258.522 132.259 258.651C131.952 258.78 131.613 258.817 131.285 258.756C130.957 258.695 130.655 258.54 130.417 258.31C130.179 258.079 130.015 257.785 129.946 257.462C129.878 257.14 129.907 256.805 130.032 256.5C130.156 256.195 130.37 255.933 130.645 255.747C130.92 255.561 131.245 255.46 131.579 255.457C132.026 255.453 132.456 255.625 132.775 255.933C133.094 256.242 133.277 256.662 133.283 257.103Z" fill="#263238"/>
<path d="M142.724 257.027C142.728 257.356 142.632 257.679 142.449 257.955C142.267 258.23 142.005 258.446 141.698 258.575C141.391 258.704 141.052 258.74 140.724 258.679C140.396 258.618 140.094 258.462 139.855 258.231C139.617 258 139.454 257.705 139.386 257.383C139.318 257.06 139.349 256.725 139.474 256.42C139.599 256.114 139.814 255.853 140.09 255.668C140.366 255.483 140.692 255.383 141.025 255.38C141.472 255.377 141.901 255.549 142.22 255.857C142.538 256.166 142.719 256.586 142.724 257.027Z" fill="#263238"/>
<path d="M152.171 256.956C152.174 257.285 152.079 257.608 151.896 257.884C151.713 258.16 151.452 258.376 151.145 258.505C150.837 258.634 150.498 258.67 150.17 258.609C149.842 258.547 149.54 258.391 149.302 258.161C149.064 257.93 148.901 257.634 148.833 257.312C148.765 256.989 148.795 256.654 148.921 256.349C149.046 256.044 149.26 255.782 149.536 255.597C149.813 255.412 150.138 255.312 150.472 255.31C150.918 255.306 151.348 255.478 151.666 255.787C151.985 256.095 152.166 256.516 152.171 256.956Z" fill="#263238"/>
<path d="M185.88 55.9071C185.88 55.9542 183.657 56.013 180.922 56.0365C178.186 56.06 175.969 56.0365 175.969 55.9836C175.969 55.9307 178.204 55.8601 180.922 55.8601C183.64 55.8601 185.875 55.8601 185.88 55.9071Z" fill="#263238"/>
<path d="M185.898 58.406C185.898 58.459 183.681 58.5178 180.946 58.5413C178.21 58.5648 175.987 58.5413 175.987 58.4884C175.987 58.4354 178.204 58.3766 180.946 58.3531C183.687 58.3296 185.898 58.3531 185.898 58.406Z" fill="#263238"/>
<path d="M185.952 60.9051C185.952 60.9581 183.729 61.0169 180.993 61.0404C178.258 61.0639 176.04 61.0404 176.04 60.9875C176.04 60.9345 178.258 60.8816 180.993 60.8581C183.729 60.8346 185.916 60.8581 185.952 60.9051Z" fill="#263238"/>
<path d="M95.7474 63.7628H95.95H96.546L98.6678 63.7157L98.6141 63.7686C98.6141 63.31 98.6141 62.8043 98.6141 62.2575C98.5994 61.9676 98.5994 61.6771 98.6141 61.3872C98.6454 61.2213 98.7302 61.0699 98.8558 60.9554C98.9815 60.8409 99.1413 60.7697 99.3115 60.7522C99.6512 60.7522 99.9551 60.7522 100.325 60.7522C100.517 60.7806 100.692 60.8766 100.818 61.0225C100.944 61.1684 101.012 61.3543 101.01 61.546C101.01 62.2516 101.01 62.9925 101.01 63.7569L100.921 63.6687H103.591L103.501 63.7569C103.501 62.6985 103.501 61.5989 103.501 60.4758C103.501 60.1995 103.501 59.8878 103.501 59.6409C103.497 59.5199 103.46 59.4022 103.394 59.2998C103.311 59.1966 103.219 59.1003 103.12 59.0117C102.727 58.6295 102.339 58.2473 101.928 57.8769L100.801 56.7832C100.623 56.6009 100.438 56.4245 100.259 56.2481C100.08 56.0717 99.9253 55.8836 99.6989 55.8424C99.5968 55.818 99.4906 55.8159 99.3877 55.8362C99.2847 55.8565 99.1875 55.8988 99.1029 55.96C98.9419 56.0952 98.7691 56.2834 98.6082 56.4422L97.6486 57.3947C97.0526 57.9827 96.4209 58.5707 95.9619 59.1117C95.8293 59.4234 95.7841 59.7646 95.8308 60.0995C95.8308 60.4288 95.8308 60.7346 95.8308 61.0286C95.8308 61.6166 95.8308 62.0987 95.8308 62.5221C95.8308 62.9454 95.8308 63.2277 95.8308 63.4805C95.8308 63.7334 95.8308 63.8216 95.8308 63.8216C95.8308 63.8216 95.8308 63.7157 95.8308 63.504C95.8308 63.2924 95.8308 62.916 95.8308 62.5632C95.8308 62.2104 95.8308 61.6342 95.801 61.058C95.801 60.7581 95.801 60.47 95.801 60.1113C95.801 59.9408 95.801 59.7702 95.801 59.5938C95.8003 59.4017 95.8518 59.2129 95.95 59.047C96.4447 58.459 97.0347 57.9239 97.6427 57.283L98.5903 56.3246C98.7631 56.1599 98.9062 55.9894 99.1029 55.8189C99.2115 55.7388 99.3371 55.684 99.4702 55.6586C99.6034 55.6331 99.7406 55.6377 99.8717 55.6719C100.12 55.7599 100.339 55.9147 100.503 56.1188L101.052 56.648L102.184 57.7416L103.376 58.8765C103.486 58.9725 103.586 59.0788 103.674 59.194C103.758 59.3247 103.805 59.4747 103.811 59.6291C103.811 59.9114 103.811 60.2171 103.811 60.47C103.811 61.593 103.811 62.6926 103.811 63.751V63.8392H103.716H101.046H100.962V63.751C100.962 62.9866 100.962 62.2516 100.962 61.546C100.965 61.3906 100.911 61.2395 100.81 61.1199C100.71 61.0002 100.569 60.9199 100.414 60.8933C100.104 60.8933 99.7406 60.8933 99.4426 60.8933C99.2999 60.9043 99.1646 60.9607 99.0572 61.054C98.9497 61.1473 98.8758 61.2725 98.8466 61.4108C98.8466 61.6812 98.8466 61.9988 98.8466 62.2516C98.8466 62.7984 98.8466 63.3041 98.8466 63.7686V63.8216H98.7929H96.6414H95.956C95.8844 63.8097 95.8145 63.7899 95.7474 63.7628Z" fill="#263238"/>
<path d="M118.288 114.19C118.288 116.23 116.739 117.5 114.259 117.5H112.394V120.017H110.26V110.873H114.271C116.738 110.873 118.288 112.143 118.288 114.19ZM116.113 114.19C116.113 113.184 115.451 112.596 114.14 112.596H112.394V115.771H114.14C115.451 115.771 116.113 115.183 116.113 114.19Z" fill="#263238"/>
<path d="M125.899 116.007V120.017H123.968V119.141C123.729 119.481 123.401 119.752 123.02 119.925C122.638 120.097 122.216 120.166 121.799 120.123C120.13 120.123 119.134 119.211 119.134 117.994C119.134 116.777 120.022 115.889 122.192 115.889H123.837C123.837 115.013 123.306 114.507 122.192 114.507C121.455 114.501 120.736 114.73 120.142 115.16L119.397 113.737C120.313 113.157 121.384 112.86 122.472 112.884C124.641 112.896 125.899 113.878 125.899 116.007ZM123.837 117.8V117.083H122.418C121.453 117.083 121.149 117.43 121.149 117.9C121.149 118.37 121.584 118.776 122.311 118.776C122.638 118.797 122.963 118.714 123.238 118.538C123.513 118.362 123.723 118.103 123.837 117.8Z" fill="#263238"/>
<path d="M127.079 119.364L127.77 117.9C128.518 118.343 129.372 118.579 130.244 118.582C131.197 118.582 131.555 118.335 131.555 117.941C131.555 116.765 127.252 117.941 127.252 115.16C127.252 113.825 128.444 112.884 130.548 112.884C131.499 112.866 132.44 113.078 133.289 113.502L132.604 114.948C131.976 114.602 131.267 114.421 130.548 114.425C129.624 114.425 129.225 114.713 129.225 115.083C129.225 116.259 133.528 115.119 133.528 117.888C133.528 119.194 132.294 120.123 130.166 120.123C129.087 120.144 128.022 119.883 127.079 119.364Z" fill="#263238"/>
<path d="M134.1 119.364L134.785 117.9C135.535 118.342 136.391 118.578 137.265 118.582C138.218 118.582 138.576 118.335 138.576 117.941C138.576 116.765 134.273 117.941 134.273 115.16C134.273 113.825 135.465 112.884 137.569 112.884C138.52 112.867 139.461 113.079 140.31 113.502L139.619 114.948C138.994 114.6 138.287 114.42 137.569 114.425C136.639 114.425 136.246 114.713 136.246 115.083C136.246 116.259 140.549 115.119 140.549 117.888C140.549 119.194 139.315 120.123 137.187 120.123C136.108 120.145 135.042 119.883 134.1 119.364Z" fill="#263238"/>
<path d="M153.136 112.99L150.556 120.046H148.571L146.968 115.683L145.311 120.046H143.326L140.757 112.99H142.706L144.387 117.747L146.133 112.99H147.879L149.578 117.747L151.312 112.99H153.136Z" fill="#263238"/>
<path d="M153.381 116.506C153.381 114.39 155.032 112.884 157.296 112.884C159.561 112.884 161.206 114.39 161.206 116.506C161.206 118.623 159.561 120.123 157.296 120.123C155.032 120.123 153.381 118.623 153.381 116.506ZM159.114 116.506C159.085 116.158 158.954 115.825 158.737 115.549C158.519 115.273 158.225 115.066 157.89 114.952C157.555 114.838 157.193 114.823 156.85 114.909C156.506 114.995 156.195 115.177 155.955 115.434C155.715 115.691 155.556 116.012 155.498 116.357C155.439 116.701 155.484 117.055 155.626 117.376C155.768 117.696 156.002 117.968 156.299 118.159C156.595 118.351 156.942 118.453 157.296 118.453C157.551 118.461 157.805 118.415 158.041 118.318C158.277 118.221 158.489 118.076 158.663 117.891C158.837 117.707 158.968 117.488 159.049 117.249C159.13 117.01 159.158 116.757 159.132 116.506H159.114Z" fill="#263238"/>
<path d="M167.005 112.896V114.778C166.832 114.778 166.701 114.778 166.54 114.778C165.402 114.778 164.645 115.366 164.645 116.736V120.052H162.583V112.996H164.556V113.925C164.849 113.571 165.225 113.292 165.652 113.112C166.078 112.933 166.543 112.859 167.005 112.896Z" fill="#263238"/>
<path d="M175.427 110.327V120.017H173.436V119.211C173.16 119.52 172.816 119.762 172.431 119.92C172.046 120.078 171.629 120.147 171.213 120.123C170.266 120.085 169.37 119.687 168.713 119.013C168.056 118.338 167.689 117.439 167.689 116.503C167.689 115.568 168.056 114.669 168.713 113.994C169.37 113.32 170.266 112.922 171.213 112.884C171.609 112.865 172.005 112.931 172.372 113.079C172.74 113.226 173.07 113.451 173.341 113.737V110.327H175.427ZM173.4 116.506C173.371 116.157 173.239 115.823 173.02 115.547C172.801 115.27 172.505 115.063 172.169 114.95C171.832 114.837 171.469 114.824 171.125 114.912C170.781 115 170.47 115.185 170.231 115.445C169.992 115.705 169.836 116.028 169.781 116.375C169.726 116.722 169.775 117.077 169.921 117.396C170.068 117.716 170.306 117.986 170.607 118.174C170.907 118.361 171.257 118.458 171.612 118.453C171.863 118.454 172.112 118.403 172.342 118.303C172.572 118.203 172.778 118.057 172.947 117.873C173.115 117.69 173.243 117.473 173.321 117.238C173.399 117.002 173.426 116.753 173.4 116.506Z" fill="#263238"/>
<path d="M191.316 127.596C191.316 127.678 169.264 127.749 142.033 127.749C114.802 127.749 92.7376 127.678 92.7376 127.596C92.7376 127.514 114.79 127.443 142.033 127.443C169.276 127.443 191.316 127.496 191.316 127.596Z" fill="#E0E0E0"/>
<path d="M189.021 217.107C189.021 217.195 166.969 217.26 139.732 217.26C112.495 217.26 90.443 217.195 90.443 217.107C90.443 217.019 112.495 216.954 139.732 216.954C166.969 216.954 189.021 217.025 189.021 217.107Z" fill="#E0E0E0"/>
<path d="M166.725 223.834C166.725 223.916 154.465 223.987 139.345 223.987C124.224 223.987 111.965 223.916 111.965 223.834C111.965 223.752 124.218 223.681 139.345 223.681C154.471 223.681 166.725 223.746 166.725 223.834Z" fill="#E0E0E0"/>
<path d="M101.618 153.644L103.483 154.638L102.643 156.026L100.76 154.926L100.796 156.972H99.1863V154.909L97.297 156.026L96.4924 154.644L98.34 153.644L96.4686 152.627L97.291 151.245L99.1804 152.357V150.299H100.79L100.754 152.357L102.637 151.245L103.478 152.627L101.618 153.644Z" fill="#FF725E"/>
<path d="M123.026 153.644L124.892 154.638L124.051 156.026L122.18 154.926V156.996H120.565V154.932L118.681 156.049L117.901 154.644L119.796 153.644L117.93 152.627L118.753 151.245L120.636 152.357V150.299H122.18L122.144 152.357L124.028 151.245L124.868 152.627L123.026 153.644Z" fill="#FF725E"/>
<path d="M143.862 153.644L145.728 154.638L144.888 156.026L143.004 154.926L143.04 156.996H141.431V154.932L139.541 156.049L138.737 154.644L140.608 153.65L138.737 152.633L139.559 151.251L141.449 152.363V150.305H143.04L143.004 152.363L144.888 151.251L145.728 152.633L143.862 153.644Z" fill="#FF725E"/>
<path d="M164.049 153.644L165.914 154.638L165.092 156.026L163.209 154.926L163.244 156.972H161.635V154.909L159.752 156.026L158.923 154.644L160.795 153.65L158.923 152.633L159.746 151.251L161.629 152.363V150.305H163.238L163.203 152.363L165.086 151.251L165.926 152.633L164.049 153.644Z" fill="#FF725E"/>
<path d="M184.075 153.644L185.952 154.644L185.112 156.032L183.228 154.932L183.258 156.978H181.649V154.914L179.766 156.032L178.955 154.644L180.82 153.65L178.955 152.633L179.777 151.251L181.661 152.363V150.305H183.27L183.24 152.363L185.124 151.251L185.964 152.633L184.075 153.644Z" fill="#FF725E"/>
<path d="M104.938 166.451H95.9083C94.7912 166.45 93.7204 166.011 92.9305 165.232C92.1406 164.452 91.6962 163.396 91.6946 162.294V146.477C91.6962 145.375 92.1408 144.319 92.9309 143.541C93.7209 142.763 94.7918 142.325 95.9083 142.325H104.938C106.054 142.325 107.125 142.763 107.915 143.541C108.705 144.319 109.15 145.375 109.151 146.477V162.288C109.151 163.391 108.708 164.449 107.918 165.23C107.128 166.01 106.056 166.45 104.938 166.451ZM95.9083 142.619C94.8708 142.619 93.8757 143.026 93.1416 143.749C92.4074 144.472 91.9942 145.453 91.9926 146.477V162.288C91.9942 163.312 92.4072 164.294 93.1412 165.018C93.8752 165.742 94.8703 166.15 95.9083 166.151H104.938C105.976 166.151 106.972 165.744 107.707 165.02C108.441 164.295 108.853 163.313 108.853 162.288V146.471C108.852 145.447 108.439 144.466 107.704 143.743C106.97 143.02 105.975 142.614 104.938 142.614L95.9083 142.619Z" fill="#263238"/>
<path d="M125.911 166.451H116.882C116.326 166.453 115.775 166.347 115.261 166.139C114.747 165.931 114.28 165.625 113.886 165.238C113.492 164.851 113.18 164.392 112.967 163.885C112.754 163.379 112.644 162.836 112.644 162.288V146.471C112.646 145.369 113.09 144.313 113.88 143.535C114.67 142.757 115.741 142.32 116.858 142.32H125.887C127.004 142.32 128.074 142.757 128.865 143.535C129.655 144.313 130.099 145.369 130.101 146.471V162.288C130.101 163.387 129.66 164.442 128.875 165.221C128.091 166.001 127.025 166.443 125.911 166.451ZM116.882 142.619C115.844 142.619 114.849 143.026 114.115 143.749C113.381 144.472 112.967 145.453 112.966 146.477V162.288C112.967 163.312 113.38 164.294 114.114 165.018C114.848 165.742 115.844 166.15 116.882 166.151H125.911C126.949 166.151 127.945 165.744 128.68 165.02C129.414 164.295 129.827 163.313 129.827 162.288V146.471C129.825 145.447 129.412 144.466 128.678 143.743C127.944 143.02 126.948 142.614 125.911 142.614L116.882 142.619Z" fill="#263238"/>
<path d="M146.312 166.451H137.277C136.16 166.45 135.089 166.011 134.299 165.232C133.509 164.452 133.065 163.396 133.063 162.294V146.477C133.065 145.375 133.509 144.319 134.299 143.541C135.089 142.763 136.16 142.325 137.277 142.325H146.312C147.427 142.327 148.497 142.765 149.286 143.543C150.074 144.321 150.518 145.376 150.52 146.477V162.288C150.521 162.834 150.412 163.375 150.201 163.879C149.99 164.384 149.681 164.843 149.29 165.229C148.899 165.616 148.435 165.923 147.924 166.132C147.413 166.342 146.865 166.45 146.312 166.451ZM137.277 142.619C136.239 142.619 135.244 143.026 134.51 143.749C133.776 144.472 133.363 145.453 133.361 146.477V162.288C133.363 163.312 133.776 164.294 134.51 165.018C135.244 165.742 136.239 166.15 137.277 166.151H146.312C147.349 166.15 148.344 165.742 149.077 165.018C149.81 164.293 150.222 163.312 150.222 162.288V146.471C150.222 145.448 149.81 144.467 149.077 143.743C148.343 143.02 147.349 142.614 146.312 142.614L137.277 142.619Z" fill="#263238"/>
<path d="M166.94 166.451H157.904C156.787 166.45 155.716 166.011 154.926 165.232C154.137 164.452 153.692 163.396 153.69 162.294V146.477C153.692 145.375 154.137 144.319 154.927 143.541C155.717 142.763 156.788 142.325 157.904 142.325H166.94C168.055 142.327 169.124 142.765 169.913 143.543C170.702 144.321 171.146 145.376 171.147 146.477V162.288C171.148 162.834 171.04 163.375 170.829 163.879C170.618 164.384 170.308 164.843 169.917 165.229C169.527 165.616 169.063 165.923 168.552 166.132C168.041 166.342 167.493 166.45 166.94 166.451ZM157.904 142.619C156.867 142.619 155.872 143.026 155.137 143.749C154.403 144.472 153.99 145.453 153.988 146.477V162.288C153.99 163.312 154.403 164.294 155.137 165.018C155.871 165.742 156.866 166.15 157.904 166.151H166.94C167.977 166.15 168.972 165.742 169.705 165.018C170.438 164.293 170.849 163.312 170.849 162.288V146.471C170.849 145.448 170.437 144.467 169.704 143.743C168.971 143.02 167.977 142.614 166.94 142.614L157.904 142.619Z" fill="#263238"/>
<path d="M186.965 166.451H177.936C176.819 166.45 175.748 166.011 174.958 165.232C174.168 164.452 173.724 163.396 173.722 162.294V146.477C173.724 145.375 174.168 144.319 174.958 143.541C175.748 142.763 176.819 142.325 177.936 142.325H186.965C188.082 142.325 189.153 142.763 189.943 143.541C190.733 144.319 191.177 145.375 191.179 146.477V162.288C191.179 163.391 190.735 164.449 189.945 165.23C189.155 166.01 188.083 166.45 186.965 166.451ZM177.936 142.619C176.898 142.619 175.903 143.026 175.169 143.749C174.435 144.472 174.022 145.453 174.02 146.477V162.288C174.02 163.313 174.433 164.295 175.167 165.02C175.901 165.744 176.897 166.151 177.936 166.151H186.965C188.003 166.15 188.998 165.742 189.732 165.018C190.466 164.294 190.879 163.312 190.881 162.288V146.471C190.879 145.447 190.466 144.466 189.732 143.743C188.998 143.02 188.003 142.614 186.965 142.614L177.936 142.619Z" fill="#263238"/>
<path d="M186.304 185.549H98.5664C94.8502 185.549 91.8376 188.521 91.8376 192.188V196.398C91.8376 200.064 94.8502 203.036 98.5664 203.036H186.304C190.02 203.036 193.032 200.064 193.032 196.398V192.188C193.032 188.521 190.02 185.549 186.304 185.549Z" fill="#FF725E"/>
<path d="M129.66 190.777H132.384C134.344 190.777 135.691 191.953 135.691 193.717C135.691 195.481 134.344 196.657 132.384 196.657H129.66V190.777ZM132.312 195.569C132.805 195.569 133.278 195.376 133.627 195.031C133.976 194.687 134.172 194.221 134.172 193.734C134.172 193.248 133.976 192.781 133.627 192.437C133.278 192.093 132.805 191.9 132.312 191.9H131.043V195.569H132.312Z" fill="white"/>
<path d="M136.299 194.422C136.268 193.921 136.39 193.423 136.65 192.992C136.909 192.56 137.294 192.215 137.754 192.002C138.215 191.789 138.729 191.717 139.232 191.796C139.734 191.874 140.201 192.1 140.571 192.443C140.942 192.787 141.2 193.232 141.311 193.722C141.422 194.211 141.382 194.723 141.195 195.189C141.008 195.656 140.684 196.057 140.264 196.339C139.843 196.622 139.347 196.773 138.838 196.774C138.512 196.795 138.186 196.75 137.878 196.641C137.571 196.532 137.289 196.362 137.051 196.142C136.813 195.921 136.624 195.655 136.494 195.359C136.365 195.063 136.299 194.744 136.299 194.422ZM140.012 194.422C140.012 194.11 139.887 193.811 139.663 193.591C139.44 193.37 139.136 193.246 138.82 193.246C138.504 193.246 138.201 193.37 137.977 193.591C137.754 193.811 137.628 194.11 137.628 194.422C137.628 194.734 137.754 195.033 137.977 195.254C138.201 195.474 138.504 195.598 138.82 195.598C139.136 195.598 139.44 195.474 139.663 195.254C139.887 195.033 140.012 194.734 140.012 194.422Z" fill="white"/>
<path d="M146.968 194.093V196.692H145.633V194.293C145.633 193.558 145.287 193.223 144.697 193.223C144.107 193.223 143.594 193.611 143.594 194.446V196.692H142.259V192.147H143.535V192.682C143.733 192.484 143.972 192.33 144.234 192.228C144.497 192.127 144.779 192.081 145.06 192.094C146.145 192.082 146.968 192.705 146.968 194.093Z" fill="white"/>
<path d="M152.719 194.793H149.232C149.305 195.075 149.478 195.322 149.72 195.489C149.961 195.657 150.256 195.733 150.55 195.704C150.763 195.713 150.976 195.679 151.175 195.603C151.374 195.527 151.554 195.411 151.706 195.263L152.421 196.028C152.178 196.28 151.882 196.476 151.553 196.603C151.225 196.73 150.872 196.785 150.52 196.763C148.922 196.763 147.885 195.775 147.885 194.411C147.879 194.093 147.939 193.779 148.062 193.485C148.184 193.192 148.367 192.927 148.598 192.706C148.829 192.486 149.103 192.314 149.404 192.203C149.705 192.092 150.026 192.042 150.347 192.059C150.664 192.043 150.981 192.094 151.277 192.207C151.573 192.32 151.842 192.492 152.067 192.714C152.291 192.935 152.466 193.201 152.581 193.493C152.695 193.785 152.746 194.098 152.731 194.411C152.743 194.54 152.725 194.681 152.719 194.793ZM149.215 194.04H151.485C151.441 193.774 151.303 193.532 151.095 193.358C150.887 193.183 150.623 193.087 150.35 193.087C150.077 193.087 149.813 193.183 149.605 193.358C149.397 193.532 149.258 193.774 149.215 194.04Z" fill="white"/>
<path d="M141.437 102.059C151.328 102.059 159.347 94.1484 159.347 84.3899C159.347 74.6313 151.328 66.7205 141.437 66.7205C131.545 66.7205 123.527 74.6313 123.527 84.3899C123.527 94.1484 131.545 102.059 141.437 102.059Z" fill="#FF725E"/>
<path d="M138.272 81.1735H137.974V79.5271C137.974 78.6133 138.342 77.7368 138.997 77.0906C139.652 76.4444 140.54 76.0814 141.467 76.0814C142.393 76.0814 143.281 76.4444 143.936 77.0906C144.591 77.7368 144.959 78.6133 144.959 79.5271V80.8677H144.661V79.5271C144.661 78.6912 144.325 77.8896 143.725 77.2985C143.126 76.7075 142.314 76.3754 141.467 76.3754C140.619 76.3754 139.807 76.7075 139.208 77.2985C138.609 77.8896 138.272 78.6912 138.272 79.5271V81.1735Z" fill="white"/>
<path d="M145.877 92.6983H136.997C136.607 92.6967 136.233 92.5432 135.957 92.2712C135.682 91.9992 135.526 91.6306 135.524 91.2459V82.4789C135.526 82.0941 135.682 81.7256 135.957 81.4536C136.233 81.1815 136.607 81.028 136.997 81.0265H145.877C146.267 81.028 146.64 81.1815 146.916 81.4536C147.192 81.7256 147.347 82.0941 147.349 82.4789V91.2459C147.347 91.6306 147.192 91.9992 146.916 92.2712C146.64 92.5432 146.267 92.6967 145.877 92.6983ZM136.997 81.3205C136.68 81.3205 136.377 81.4444 136.154 81.6649C135.93 81.8855 135.805 82.1846 135.805 82.4965V91.2636C135.805 91.5755 135.93 91.8746 136.154 92.0951C136.377 92.3157 136.68 92.4396 136.997 92.4396H145.877C146.193 92.4396 146.496 92.3157 146.72 92.0951C146.943 91.8746 147.069 91.5755 147.069 91.2636V82.4789C147.069 82.167 146.943 81.8678 146.72 81.6473C146.496 81.4267 146.193 81.3028 145.877 81.3028L136.997 81.3205Z" fill="white"/>
<path d="M141.478 87.1476C141.203 87.1476 140.933 87.0669 140.704 86.9157C140.474 86.7645 140.296 86.5496 140.19 86.2982C140.084 86.0468 140.057 85.7701 140.111 85.5032C140.164 85.2363 140.297 84.9912 140.492 84.7987C140.687 84.6063 140.936 84.4753 141.206 84.4222C141.477 84.3691 141.757 84.3963 142.012 84.5005C142.267 84.6046 142.485 84.781 142.638 85.0072C142.791 85.2335 142.873 85.4995 142.873 85.7717C142.873 86.1366 142.726 86.4866 142.465 86.7446C142.203 87.0026 141.848 87.1476 141.478 87.1476ZM141.478 84.6956C141.261 84.6956 141.049 84.7592 140.869 84.8784C140.688 84.9975 140.548 85.1669 140.465 85.3649C140.382 85.5629 140.361 85.7808 140.403 85.9908C140.446 86.2008 140.551 86.3936 140.705 86.5447C140.859 86.6957 141.055 86.7983 141.268 86.8394C141.481 86.8805 141.702 86.8582 141.902 86.7754C142.103 86.6926 142.273 86.553 142.393 86.3743C142.513 86.1957 142.576 85.9859 142.575 85.7717C142.577 85.6281 142.551 85.4855 142.497 85.3522C142.443 85.2189 142.362 85.0976 142.26 84.9952C142.158 84.8929 142.037 84.8116 141.902 84.7561C141.768 84.7006 141.624 84.6721 141.478 84.6721V84.6956Z" fill="white"/>
<path d="M141.586 86.9418H141.288V89.4231H141.586V86.9418Z" fill="white"/>
<path d="M274.756 282.34C274.756 282.428 216.843 282.493 145.424 282.493C74.0053 282.493 16.092 282.428 16.092 282.34C16.092 282.252 73.9934 282.187 145.424 282.187C216.855 282.187 274.756 282.24 274.756 282.34Z" fill="#263238"/>
<path d="M49.8614 201.366C55.5293 192.805 55.3148 180.293 48.5382 172.554C46.4344 170.15 43.4961 168.062 40.2896 168.333C37.0831 168.603 34.3654 171.384 33.376 174.483C32.3866 177.582 32.7264 180.951 33.3104 184.132C34.1329 188.613 35.5097 193.193 38.6744 196.521C41.8392 199.849 45.8264 203.548 49.8912 201.366" fill="#FF725E"/>
<path d="M47.3284 242.256C48.349 239.768 48.5494 237.025 47.9011 234.418C47.2528 231.811 45.7887 229.472 43.7166 227.732C42.4114 226.68 40.7366 225.868 39.0797 226.298C37.4228 226.727 36.3083 228.397 36.0997 230.084C35.9684 231.796 36.2609 233.513 36.952 235.088C37.7864 237.317 38.9188 239.557 40.8439 240.968C42.769 242.379 45.4688 243.744 47.3522 242.256" fill="#FF725E"/>
<path d="M61.0125 239.345C59.451 231.754 63.5038 223.381 70.4651 219.806C72.6286 218.701 75.2867 218.042 77.4681 219.118C79.6495 220.194 80.7699 222.905 80.5911 225.363C80.4123 227.821 79.2203 230.067 77.8972 232.166C76.0496 235.106 73.7789 237.934 70.6201 239.404C67.4613 240.874 63.2356 241.997 61.0125 239.345Z" fill="#FF725E"/>
<path d="M60.0291 218.824C57.3114 210.175 61.9185 199.691 69.5651 194.716C71.9491 193.176 74.9649 192.106 77.629 193.105C80.2931 194.105 81.9202 197.127 82.0036 200.002C82.0871 202.878 80.9666 205.647 79.6793 208.234C77.8913 211.851 75.5728 215.42 72.0743 217.495C68.5758 219.571 62.9078 221.611 60.0053 218.813" fill="#FF725E"/>
<path d="M54.5757 261.072C54.6205 260.937 54.6485 260.797 54.6591 260.655C54.7068 260.343 54.7724 259.943 54.8439 259.449C54.8796 259.185 54.9214 258.891 54.969 258.579C55.0167 258.267 55.0942 257.915 55.1657 257.55C55.3088 256.809 55.4578 255.968 55.7021 255.057C55.8154 254.592 55.9346 254.11 56.0538 253.61C56.173 253.111 56.3577 252.605 56.5127 252.07C56.8047 251 57.2398 249.888 57.6451 248.706C59.5453 243.617 62.1529 238.812 65.3931 234.43C66.1679 233.442 66.8652 232.472 67.6102 231.643C67.9738 231.213 68.3254 230.808 68.6592 230.408L69.732 229.32C70.3697 228.615 70.9955 228.027 71.52 227.503L72.2769 226.768L72.9444 226.18L73.8622 225.363C73.9731 225.273 74.0749 225.172 74.1662 225.063C74.0393 225.131 73.9212 225.214 73.8146 225.31L72.849 226.074L72.1577 226.633L71.3769 227.35C70.8167 227.862 70.1849 228.438 69.5174 229.114L68.4684 230.19C68.1287 230.584 67.7711 230.996 67.4016 231.413C66.6387 232.242 65.9295 233.213 65.1368 234.2C63.5096 236.403 62.0284 238.707 60.7026 241.098C59.4116 243.508 58.2847 246.001 57.3292 248.559C56.9299 249.735 56.5067 250.87 56.2266 251.958C56.0716 252.493 55.9286 253.011 55.7856 253.51C55.6425 254.01 55.5591 254.504 55.4518 254.969C55.2253 255.892 55.0942 256.733 54.969 257.485C54.9094 257.856 54.8498 258.203 54.7962 258.52C54.7426 258.838 54.7366 259.108 54.7068 259.402C54.6591 259.896 54.6234 260.302 54.5936 260.619C54.5621 260.768 54.556 260.921 54.5757 261.072Z" fill="#263238"/>
<path d="M54.7724 262.642C54.7801 262.583 54.7801 262.524 54.7724 262.466C54.7724 262.33 54.7724 262.166 54.7367 261.966C54.6949 261.495 54.6294 260.855 54.5579 260.043C54.5161 259.626 54.4685 259.161 54.4148 258.661C54.3612 258.161 54.3671 257.597 54.3314 257.003C54.2897 255.827 54.1705 254.463 54.2181 252.969C54.2181 252.217 54.2181 251.435 54.2181 250.617C54.2181 249.8 54.3016 248.953 54.3433 248.077C54.4029 246.313 54.6473 244.455 54.8618 242.485C55.971 233.961 58.4623 225.668 62.2403 217.925C63.1522 216.161 63.9747 214.467 64.8985 212.962C65.3514 212.203 65.7507 211.451 66.1977 210.763L67.4851 208.787C68.2778 207.505 69.1181 206.435 69.8095 205.465C70.1671 204.983 70.483 204.53 70.7989 204.124L71.6809 203.036L72.8729 201.519L73.1829 201.12C73.2484 201.031 73.2842 200.984 73.2782 200.978C73.2722 200.973 73.2305 201.014 73.153 201.096L72.8193 201.472L71.5498 202.948L70.6677 204.036C70.3459 204.436 70.0181 204.883 69.6545 205.359C68.9453 206.323 68.0871 207.388 67.2705 208.658L65.9593 210.628C65.5064 211.316 65.0951 212.068 64.6362 212.827C63.7005 214.332 62.8482 216.031 61.9423 217.795C58.1093 225.551 55.6059 233.881 54.534 242.444C54.3254 244.42 54.093 246.296 54.0453 248.06C54.0155 248.942 53.944 249.794 53.938 250.612C53.9321 251.429 53.938 252.217 53.938 252.964C53.938 254.463 54.0453 255.821 54.1109 257.009C54.1526 257.597 54.1764 258.185 54.2241 258.667C54.2718 259.149 54.3433 259.631 54.3969 260.055C54.4983 260.86 54.5817 261.501 54.6413 261.972C54.6711 262.172 54.7009 262.33 54.7188 262.466C54.7287 262.527 54.7467 262.586 54.7724 262.642Z" fill="#263238"/>
<path d="M40.0035 178.67C40.0235 178.725 40.0495 178.778 40.081 178.828C40.1466 178.946 40.2241 179.099 40.3254 179.275L41.2909 180.986C41.4995 181.357 41.7498 181.763 41.9942 182.221L42.7511 183.726L43.6272 185.455C43.9193 186.073 44.2232 186.737 44.5153 187.431C44.8073 188.125 45.1589 188.854 45.4748 189.618C45.7907 190.383 46.0708 191.2 46.4165 192.029L46.9112 193.299C47.0602 193.74 47.2151 194.181 47.3701 194.634C47.6741 195.534 47.9661 196.463 48.3177 197.409C49.5097 201.249 50.66 205.518 51.6196 210.057C52.5791 214.596 53.2049 218.971 53.6877 222.958C54.1705 226.944 54.4089 230.561 54.4923 233.601C54.5698 235.118 54.5877 236.488 54.5877 237.717C54.5877 238.946 54.5877 239.963 54.5877 240.81C54.5877 241.656 54.5877 242.291 54.5877 242.768V243.279C54.5877 243.391 54.5877 243.45 54.5877 243.45C54.5945 243.393 54.5945 243.336 54.5877 243.279C54.5877 243.144 54.5877 242.979 54.6234 242.773C54.6234 242.291 54.6771 241.639 54.7188 240.815C54.7605 239.992 54.7843 238.922 54.7843 237.717C54.7843 236.511 54.7843 235.129 54.7426 233.601C54.689 230.555 54.4148 226.939 54.0155 222.934C53.6162 218.93 52.9069 214.549 51.9712 209.998C51.0355 205.447 49.8554 201.178 48.6336 197.327L47.68 194.528C47.5251 194.075 47.3701 193.628 47.2151 193.193L46.7085 191.923L45.743 189.512C45.4212 188.742 45.0755 188.025 44.7596 187.325C44.4437 186.625 44.1636 185.967 43.8418 185.355C43.5199 184.744 43.2458 184.179 42.9418 183.632C42.6379 183.086 42.3935 182.598 42.1551 182.133C41.9167 181.668 41.6425 181.28 41.422 180.916L40.3909 179.24C40.2837 179.064 40.1883 178.923 40.1168 178.811C40.0453 178.699 40.0095 178.664 40.0035 178.67Z" fill="#263238"/>
<path d="M41.9346 231.19C42.1033 231.555 42.3027 231.905 42.5306 232.237C42.9478 232.889 43.514 233.859 44.1815 235.071C44.849 236.282 45.588 237.752 46.333 239.416C47.078 241.08 47.7813 242.944 48.419 244.973C49.0568 247.001 49.5097 248.93 49.8733 250.717C50.2369 252.505 50.4693 254.134 50.5825 255.51C50.6958 256.886 50.809 257.991 50.8388 258.761C50.8392 259.155 50.8731 259.549 50.9401 259.937C50.9819 259.547 50.9958 259.154 50.9819 258.761C50.9819 257.985 50.9818 256.862 50.8448 255.486C50.714 253.867 50.5012 252.256 50.207 250.659C49.8348 248.702 49.3553 246.766 48.7707 244.861C48.1677 242.963 47.4574 241.1 46.643 239.281C45.8801 237.611 45.1172 236.141 44.4139 234.941C43.7106 233.742 43.1087 232.789 42.6259 232.16C42.4173 231.822 42.1863 231.498 41.9346 231.19Z" fill="#263238"/>
<path d="M65.715 257.232H40.7962L43.812 282.34H62.6098L65.715 257.232Z" fill="#455A64"/>
<path d="M64.8031 279.629L62.6873 282.34H43.8119L41.6365 279.718L64.8031 279.629Z" fill="#263238"/>
<path d="M41.7677 264.6C41.7677 264.7 46.941 264.782 53.3182 264.782C59.6954 264.782 64.8627 264.7 64.8627 264.6C64.8627 264.5 59.6954 264.418 53.3182 264.418C46.941 264.418 41.7677 264.518 41.7677 264.6Z" fill="#FAFAFA"/>
<path d="M41.7677 266.288C41.7677 266.387 46.941 266.47 53.3182 266.47C59.6954 266.47 64.8627 266.387 64.8627 266.288C64.8627 266.188 59.6954 266.105 53.3182 266.105C46.941 266.105 41.7677 266.188 41.7677 266.288Z" fill="#FAFAFA"/>
<path d="M42.0776 267.905C42.0776 268.011 47.0661 268.093 53.2228 268.093C59.3795 268.093 64.368 268.011 64.368 267.905C64.368 267.799 59.3795 267.722 53.2228 267.722C47.0661 267.722 42.0776 267.805 42.0776 267.905Z" fill="#FAFAFA"/>
<path d="M61.9065 203.119C61.8973 203.199 61.8973 203.28 61.9065 203.36C61.9065 203.542 61.9363 203.771 61.9601 204.042C62.0257 204.671 62.1091 205.518 62.2164 206.541C62.4429 208.652 62.7767 211.568 63.1581 214.773C63.1581 214.896 63.1581 215.02 63.1998 215.132V215.243H63.3131C66.5136 215.29 69.3923 215.32 71.4723 215.332H73.9338H74.6013C74.7563 215.332 74.8337 215.332 74.8337 215.332C74.7598 215.312 74.6837 215.302 74.6073 215.302L73.9397 215.273L71.4783 215.196C69.3982 215.138 66.5195 215.079 63.3131 215.032L63.4382 215.137C63.4382 215.026 63.4382 214.902 63.3965 214.779C63.0151 211.562 62.6575 208.652 62.3833 206.547C62.2462 205.524 62.133 204.683 62.0436 204.054C62.0078 203.783 61.9721 203.56 61.9423 203.377C61.9472 203.29 61.9351 203.202 61.9065 203.119Z" fill="#263238"/>
<path d="M67.5744 195.61C67.5609 195.692 67.5609 195.775 67.5744 195.857C67.5744 196.045 67.5744 196.28 67.5744 196.563C67.5744 197.209 67.5744 198.085 67.5744 199.156C67.6102 201.343 67.6698 204.365 67.7532 207.699C67.7532 207.835 67.7532 207.97 67.7532 208.093V208.223H67.8844C70.6721 208.01 73.4695 207.947 76.2641 208.034C77.331 208.034 78.1952 208.111 78.7912 208.14H79.4766H79.715C79.715 208.14 79.6375 208.14 79.4825 208.093L78.7971 208.017C78.2011 207.958 77.3429 207.887 76.2701 207.829C73.4693 207.692 70.6626 207.73 67.8665 207.94L68.0036 208.064C68.0036 207.94 68.0036 207.805 68.0036 207.67C67.9201 204.33 67.8307 201.314 67.7532 199.126C67.7115 198.062 67.6758 197.186 67.6519 196.539C67.6519 196.257 67.6519 196.022 67.6102 195.833C67.6052 195.758 67.5933 195.683 67.5744 195.61Z" fill="#263238"/>
<path d="M74.202 193.052C74.1331 193.289 74.0813 193.531 74.0471 193.775C73.9517 194.281 73.8325 194.951 73.6775 195.751C73.3557 197.421 72.8491 199.72 72.1399 202.219L72.0624 202.484L72.3187 202.366L72.6167 202.219C74.7161 201.238 76.962 200.597 79.268 200.32C80.1561 200.214 80.8772 200.173 81.3719 200.155C81.6309 200.167 81.8904 200.153 82.1467 200.114C82.0816 200.103 82.0151 200.103 81.95 200.114C81.8189 200.114 81.6222 200.085 81.354 200.085C80.6456 200.072 79.937 200.101 79.2323 200.173C76.8965 200.404 74.6195 201.034 72.5034 202.037L72.1995 202.184L72.3783 202.325C72.9843 200.178 73.4756 198.002 73.8504 195.804C73.9934 194.963 74.0888 194.281 74.1424 193.811C74.1895 193.561 74.2095 193.306 74.202 193.052Z" fill="#263238"/>
<path d="M39.0142 238.828C39.0142 238.863 39.7413 238.793 40.9035 238.746C42.415 238.689 43.9286 238.738 45.4331 238.893C45.7907 238.928 46.1423 238.975 46.4761 239.022H46.5953V238.91C46.8694 237.423 47.09 236.111 47.2449 235.171C47.3466 234.67 47.4123 234.163 47.4416 233.654C47.2841 234.14 47.1645 234.637 47.084 235.141C46.8873 236.076 46.631 237.381 46.3509 238.863L46.494 238.763C46.1542 238.716 45.8026 238.669 45.439 238.634C43.9226 238.474 42.3947 238.448 40.8737 238.557C40.2777 238.605 39.8188 238.663 39.4969 238.71C39.3319 238.731 39.1698 238.77 39.0142 238.828Z" fill="#263238"/>
<path d="M36.6659 234.212C36.6659 234.253 37.3632 234.094 38.4897 233.953C39.9576 233.777 41.4409 233.763 42.912 233.912L43.6927 234.006H43.8239V233.883C43.9788 232.354 44.104 230.996 44.1874 230.026C44.2548 229.505 44.2807 228.98 44.2649 228.456C44.1478 228.967 44.0662 229.486 44.0205 230.008C43.8954 230.978 43.7404 232.33 43.5735 233.853L43.7166 233.748L42.912 233.665C41.4232 233.512 39.9204 233.552 38.442 233.783C37.9943 233.852 37.5507 233.944 37.1129 234.059C36.9584 234.093 36.8084 234.144 36.6659 234.212Z" fill="#263238"/>
<path d="M34.9733 190.512C35.0523 190.563 35.1361 190.606 35.2236 190.641L35.9507 190.959L38.6446 192.088L47.5846 195.739L48.0674 195.933L48.1806 195.98L48.2283 195.869C49.7004 192.588 51.0235 189.636 52.001 187.466L53.1095 184.926L53.4016 184.232C53.4371 184.151 53.465 184.066 53.485 183.979C53.4336 184.051 53.3897 184.128 53.3539 184.209C53.2645 184.391 53.1572 184.614 53.0201 184.885L51.8281 187.396L47.9839 195.769L48.1508 195.704L47.6681 195.51L38.74 191.923L36.0163 190.865L35.2713 190.588C35.1761 190.549 35.0758 190.523 34.9733 190.512Z" fill="#263238"/>
<path d="M32.78 179.887C32.8477 179.947 32.9216 180 33.0005 180.046L33.6561 180.463L36.0878 181.957L44.1993 186.843L44.3304 186.919L44.3841 186.778L44.5331 186.39L47.9362 177.335C48.3475 176.2 48.6872 175.265 48.9375 174.583L49.1998 173.831C49.2367 173.744 49.2608 173.653 49.2713 173.56C49.2252 173.641 49.1854 173.726 49.1521 173.813L48.872 174.548C48.6097 175.224 48.2402 176.147 47.7932 177.276C46.8992 179.628 45.6774 182.792 44.3245 186.308C44.2768 186.437 44.2232 186.572 44.1814 186.69L44.3602 186.625L36.1891 181.81L33.7157 180.381L33.0362 180.005C32.9555 179.956 32.8696 179.917 32.78 179.887Z" fill="#263238"/>
<path d="M33.5071 174.219C33.6748 174.34 33.8545 174.444 34.0435 174.53C34.3952 174.724 34.9018 175.006 35.5157 175.383C37.1449 176.378 38.658 177.547 40.0274 178.87L40.3433 179.17L40.236 178.746C40.1287 178.311 40.0274 177.847 39.9499 177.37C39.6082 175.186 39.7279 172.956 40.3015 170.82C40.4809 170.173 40.6937 169.535 40.9393 168.909C41.0485 168.688 41.1382 168.457 41.2075 168.221C41.0704 168.429 40.9508 168.647 40.8499 168.874C40.5686 169.489 40.3278 170.121 40.1287 170.767C39.4972 172.923 39.3507 175.188 39.6996 177.406C39.7771 177.894 39.8843 178.364 39.9976 178.811L40.2062 178.693C38.8182 177.357 37.2713 176.192 35.5991 175.224C34.9673 174.865 34.4488 174.601 34.0853 174.436C33.8995 174.347 33.706 174.274 33.5071 174.219Z" fill="#263238"/>
<path d="M61.9423 229.32C61.9582 229.535 61.9962 229.748 62.0555 229.955C62.1389 230.361 62.2641 230.949 62.4012 231.678C62.7605 233.603 62.9855 235.55 63.0747 237.505V237.617H63.176H63.7362C66.2096 237.764 68.4446 237.887 70.0657 237.958L71.9849 238.034C72.2188 238.056 72.4542 238.056 72.6881 238.034C72.459 237.983 72.2256 237.954 71.9908 237.946L70.0777 237.787C68.4565 237.67 66.2215 237.523 63.7541 237.376L63.1939 237.346L63.3131 237.464C63.2253 235.517 62.9801 233.58 62.58 231.672C62.4191 230.937 62.2701 230.355 62.1509 229.955C62.1026 229.737 62.0327 229.524 61.9423 229.32Z" fill="#263238"/>
<path d="M66.8354 222.417C66.828 222.631 66.842 222.846 66.8772 223.058C66.9308 223.511 66.9964 224.099 67.0798 224.822C67.2586 226.298 67.5268 228.35 67.8427 230.655V230.755H67.944L68.7426 230.808C71.2756 230.978 73.5583 231.237 75.2092 231.449L77.1641 231.707C77.4 231.751 77.6393 231.775 77.8793 231.778C77.6512 231.699 77.4156 231.644 77.176 231.613C76.7231 231.519 76.0556 231.402 75.2331 231.272C73.5881 231.019 71.2995 230.731 68.7605 230.561L67.9559 230.508L68.0751 230.614C67.7533 228.315 67.4791 226.262 67.2288 224.792C67.1156 224.093 67.0262 223.511 66.9546 223.058C66.9391 222.841 66.8991 222.626 66.8354 222.417Z" fill="#263238"/>
<path d="M72.5987 219.43C72.563 219.43 72.718 220.106 72.8908 221.194C73.1298 222.633 73.2652 224.087 73.2961 225.545V225.68H73.4391L73.8563 225.627C75.4167 225.441 76.987 225.349 78.5587 225.351H79.9951C80.1693 225.371 80.3454 225.371 80.5196 225.351C80.3511 225.302 80.1768 225.274 80.0011 225.269C79.6613 225.233 79.1726 225.192 78.5647 225.175C76.9824 225.118 75.3981 225.185 73.8265 225.375L73.4034 225.428L73.5464 225.551C73.5134 224.082 73.3519 222.618 73.0636 221.176C72.9504 220.629 72.8431 220.188 72.7597 219.889C72.729 219.729 72.6748 219.574 72.5987 219.43Z" fill="#263238"/>
<path d="M39.7711 226.38C40.0902 227.233 40.4624 228.066 40.8856 228.873C41.2317 229.716 41.6297 230.537 42.0776 231.331C41.8684 230.43 41.5482 229.557 41.124 228.732C40.7685 227.898 40.3144 227.109 39.7711 226.38Z" fill="#263238"/>
<path d="M36.6421 229.632C37.5961 229.776 38.5412 229.972 39.4731 230.22C40.3804 230.541 41.268 230.914 42.1313 231.337C41.3874 230.694 40.5017 230.231 39.5446 229.985C38.6174 229.649 37.6242 229.528 36.6421 229.632Z" fill="#263238"/>
</svg>
